G04 #@! TF.GenerationSoftware,KiCad,Pcbnew,8.0.2*
G04 #@! TF.CreationDate,2024-08-16T15:41:43+09:00*
G04 #@! TF.ProjectId,compatible_chan-v0-led,636f6d70-6174-4696-926c-655f6368616e,rev?*
G04 #@! TF.SameCoordinates,Original*
G04 #@! TF.FileFunction,Copper,L1,Top*
G04 #@! TF.FilePolarity,Positive*
%FSLAX46Y46*%
G04 Gerber Fmt 4.6, Leading zero omitted, Abs format (unit mm)*
G04 Created by KiCad (PCBNEW 8.0.2) date 2024-08-16 15:41:43*
%MOMM*%
%LPD*%
G01*
G04 APERTURE LIST*
G04 #@! TA.AperFunction,ComponentPad*
%ADD10C,3.800000*%
G04 #@! TD*
G04 #@! TA.AperFunction,ComponentPad*
%ADD11C,1.524000*%
G04 #@! TD*
G04 #@! TA.AperFunction,ComponentPad*
%ADD12C,1.600000*%
G04 #@! TD*
G04 #@! TA.AperFunction,ComponentPad*
%ADD13O,1.600000X1.600000*%
G04 #@! TD*
G04 #@! TA.AperFunction,ComponentPad*
%ADD14R,1.700000X1.700000*%
G04 #@! TD*
G04 #@! TA.AperFunction,ComponentPad*
%ADD15O,1.700000X1.700000*%
G04 #@! TD*
G04 #@! TA.AperFunction,ViaPad*
%ADD16C,0.600000*%
G04 #@! TD*
G04 #@! TA.AperFunction,Conductor*
%ADD17C,0.200000*%
G04 #@! TD*
G04 #@! TA.AperFunction,Conductor*
%ADD18C,0.400000*%
G04 #@! TD*
G04 APERTURE END LIST*
D10*
X82000000Y-93500000D03*
D11*
X113990000Y-67600000D03*
X111450000Y-67600000D03*
X108910000Y-67600000D03*
X106370000Y-67600000D03*
X103830000Y-67600000D03*
X101290000Y-67600000D03*
X98750000Y-67600000D03*
X96210000Y-67600000D03*
X96210000Y-82600000D03*
X98750000Y-82600000D03*
X101290000Y-82600000D03*
X103830000Y-82600000D03*
X106370000Y-82600000D03*
X108910000Y-82600000D03*
X111450000Y-82600000D03*
X113990000Y-82600000D03*
D10*
X82000000Y-47500000D03*
X108000000Y-47500000D03*
D12*
X101300000Y-87100000D03*
D13*
X111460000Y-87100000D03*
D10*
X108000000Y-93500000D03*
D11*
X93790000Y-67600000D03*
X91250000Y-67600000D03*
X88710000Y-67600000D03*
X86170000Y-67600000D03*
X83630000Y-67600000D03*
X81090000Y-67600000D03*
X78550000Y-67600000D03*
X76010000Y-67600000D03*
X76010000Y-82600000D03*
X78550000Y-82600000D03*
X81090000Y-82600000D03*
X83630000Y-82600000D03*
X86170000Y-82600000D03*
X88710000Y-82600000D03*
X91250000Y-82600000D03*
X93790000Y-82600000D03*
D12*
X81100000Y-87100000D03*
D13*
X91260000Y-87100000D03*
D14*
X102500000Y-51500000D03*
D15*
X99960000Y-51500000D03*
X97420000Y-51500000D03*
D14*
X92525000Y-51500000D03*
D15*
X89985000Y-51500000D03*
X87445000Y-51500000D03*
D14*
X72500000Y-68500000D03*
D15*
X72500000Y-71040000D03*
X72500000Y-73580000D03*
X72500000Y-76120000D03*
X72500000Y-78660000D03*
X72500000Y-81200000D03*
X72500000Y-83740000D03*
D16*
X100000000Y-59500000D03*
X106000000Y-65500000D03*
X103000000Y-47000000D03*
X77500000Y-56000000D03*
X115500000Y-62500000D03*
X75000000Y-79500000D03*
X97500000Y-65500000D03*
X87000000Y-94000000D03*
X99000000Y-94000000D03*
X103000000Y-94000000D03*
X86000000Y-56000000D03*
X116000000Y-82000000D03*
X77500000Y-61000000D03*
X86000000Y-58500000D03*
X99000000Y-91000000D03*
X86000000Y-61000000D03*
X79000000Y-75000000D03*
X119000000Y-68000000D03*
X119000000Y-73000000D03*
X118000000Y-59500000D03*
X116000000Y-73000000D03*
X100000000Y-65500000D03*
X72500000Y-58500000D03*
X79000000Y-74000000D03*
X107400000Y-87000000D03*
X95000000Y-47000000D03*
X95000000Y-94000000D03*
X116000000Y-78000000D03*
X91000000Y-47000000D03*
X75000000Y-81000000D03*
X103500000Y-59500000D03*
X118000000Y-62500000D03*
X112000000Y-65500000D03*
X91000000Y-94000000D03*
X95000000Y-86000000D03*
X90500000Y-56000000D03*
X75000000Y-56000000D03*
X119000000Y-85000000D03*
X88500000Y-56000000D03*
X119000000Y-82000000D03*
X71000000Y-82000000D03*
X103500000Y-62500000D03*
X115500000Y-59500000D03*
X100000000Y-62500000D03*
X77500000Y-58500000D03*
X95000000Y-55500000D03*
X119000000Y-78000000D03*
X103000000Y-91000000D03*
X97500000Y-62500000D03*
X75000000Y-58500000D03*
X87000000Y-91000000D03*
X115500000Y-56500000D03*
X91000000Y-91000000D03*
X109000000Y-65500000D03*
X72500000Y-61000000D03*
X118000000Y-56500000D03*
X99000000Y-47000000D03*
X97500000Y-55500000D03*
X95000000Y-91000000D03*
X75000000Y-61000000D03*
X71000000Y-80500000D03*
X87100000Y-87000000D03*
X95000000Y-62500000D03*
X72500000Y-56000000D03*
X87000000Y-47000000D03*
X79185000Y-70450000D03*
X78000000Y-84500000D03*
X82995000Y-70450000D03*
X86805000Y-70450000D03*
X89345000Y-73000000D03*
X81725000Y-79750000D03*
X88075000Y-79750000D03*
X80455000Y-79750000D03*
X80455000Y-74000000D03*
X85535000Y-73000000D03*
X93400000Y-81000000D03*
X109545000Y-73000000D03*
X107005000Y-70450000D03*
X105735000Y-73000000D03*
X108275000Y-79750000D03*
X101925000Y-79750000D03*
X100655000Y-74000000D03*
X100655000Y-79750000D03*
X113600000Y-81000000D03*
X99385000Y-70450000D03*
X98200000Y-84500000D03*
X103195000Y-70450000D03*
X77915000Y-79750000D03*
X95000000Y-70450000D03*
X77100000Y-77000000D03*
D17*
X89900000Y-71700000D02*
X80435000Y-71700000D01*
X80435000Y-71700000D02*
X79185000Y-70450000D01*
X90300000Y-72100000D02*
X89900000Y-71700000D01*
X89850000Y-81100000D02*
X90300000Y-80650000D01*
X90300000Y-80650000D02*
X90300000Y-72100000D01*
X87670000Y-81100000D02*
X89850000Y-81100000D01*
X86170000Y-82600000D02*
X87670000Y-81100000D01*
X86170000Y-82070000D02*
X86170000Y-82600000D01*
X95000000Y-81525736D02*
X93700000Y-80225736D01*
X94500000Y-84000000D02*
X95000000Y-83500000D01*
X78500000Y-84000000D02*
X94500000Y-84000000D01*
X95000000Y-83500000D02*
X95000000Y-81525736D01*
X93700000Y-67690000D02*
X93790000Y-67600000D01*
X93700000Y-80225736D02*
X93700000Y-67690000D01*
X78000000Y-84500000D02*
X78500000Y-84000000D01*
X91250000Y-82600000D02*
X91250000Y-71450000D01*
X91250000Y-71450000D02*
X90900000Y-71100000D01*
X90900000Y-71100000D02*
X83645000Y-71100000D01*
X83645000Y-71100000D02*
X82995000Y-70450000D01*
X92100000Y-70750000D02*
X91800000Y-70450000D01*
X92100000Y-80910000D02*
X92100000Y-70750000D01*
X93790000Y-82600000D02*
X92100000Y-80910000D01*
X91800000Y-70450000D02*
X86805000Y-70450000D01*
X89345000Y-73000000D02*
X89345000Y-80055000D01*
X89345000Y-80055000D02*
X88700000Y-80700000D01*
X88700000Y-80700000D02*
X87504314Y-80700000D01*
X87204314Y-81000000D02*
X82690000Y-81000000D01*
X82690000Y-81000000D02*
X81090000Y-82600000D01*
X87504314Y-80700000D02*
X87204314Y-81000000D01*
X76010000Y-67600000D02*
X76010000Y-72410000D01*
X76010000Y-72410000D02*
X76500000Y-72900000D01*
X81200000Y-72900000D02*
X81725000Y-73425000D01*
X76500000Y-72900000D02*
X81200000Y-72900000D01*
X81725000Y-73425000D02*
X81725000Y-79750000D01*
X79000000Y-72300000D02*
X78550000Y-71850000D01*
X87400000Y-72300000D02*
X79000000Y-72300000D01*
X88075000Y-79750000D02*
X88075000Y-72975000D01*
X88075000Y-72975000D02*
X87400000Y-72300000D01*
X78550000Y-71850000D02*
X78550000Y-67600000D01*
X80455000Y-74000000D02*
X80455000Y-79750000D01*
X80150000Y-81000000D02*
X78550000Y-82600000D01*
X81800000Y-81000000D02*
X80150000Y-81000000D01*
X82200000Y-80600000D02*
X81800000Y-81000000D01*
X84500000Y-80600000D02*
X82200000Y-80600000D01*
X85535000Y-73000000D02*
X85535000Y-79565000D01*
X85535000Y-79565000D02*
X84500000Y-80600000D01*
X92900000Y-69250000D02*
X91250000Y-67600000D01*
X92900000Y-80500000D02*
X92900000Y-69250000D01*
X93400000Y-81000000D02*
X92900000Y-80500000D01*
X102890000Y-81000000D02*
X101290000Y-82600000D01*
X107404314Y-81000000D02*
X102890000Y-81000000D01*
X109545000Y-80055000D02*
X108900000Y-80700000D01*
X107704314Y-80700000D02*
X107404314Y-81000000D01*
X108900000Y-80700000D02*
X107704314Y-80700000D01*
X109545000Y-73000000D02*
X109545000Y-80055000D01*
X113990000Y-82600000D02*
X112300000Y-80910000D01*
X112300000Y-80910000D02*
X112300000Y-70750000D01*
X112000000Y-70450000D02*
X107005000Y-70450000D01*
X112300000Y-70750000D02*
X112000000Y-70450000D01*
X113990000Y-82600000D02*
X114000000Y-82590000D01*
X102000000Y-81000000D02*
X100350000Y-81000000D01*
X105735000Y-73000000D02*
X105735000Y-79565000D01*
X104700000Y-80600000D02*
X102400000Y-80600000D01*
X102400000Y-80600000D02*
X102000000Y-81000000D01*
X105735000Y-79565000D02*
X104700000Y-80600000D01*
X100350000Y-81000000D02*
X98750000Y-82600000D01*
X98750000Y-71850000D02*
X98750000Y-67600000D01*
X108275000Y-79750000D02*
X108275000Y-72975000D01*
X107600000Y-72300000D02*
X99200000Y-72300000D01*
X108275000Y-72975000D02*
X107600000Y-72300000D01*
X99200000Y-72300000D02*
X98750000Y-71850000D01*
X101925000Y-73425000D02*
X101925000Y-79750000D01*
X101400000Y-72900000D02*
X101925000Y-73425000D01*
X96700000Y-72900000D02*
X101400000Y-72900000D01*
X96210000Y-67600000D02*
X96210000Y-72410000D01*
X96210000Y-72410000D02*
X96700000Y-72900000D01*
X104155000Y-67600000D02*
X103830000Y-67600000D01*
X100655000Y-74000000D02*
X100655000Y-79750000D01*
X113100000Y-80500000D02*
X113100000Y-69250000D01*
X113600000Y-81000000D02*
X113100000Y-80500000D01*
X113100000Y-69250000D02*
X111450000Y-67600000D01*
X110500000Y-80650000D02*
X110500000Y-72100000D01*
X106370000Y-82600000D02*
X107870000Y-81100000D01*
X100635000Y-71700000D02*
X99385000Y-70450000D01*
X110500000Y-72100000D02*
X110100000Y-71700000D01*
X107870000Y-81100000D02*
X110050000Y-81100000D01*
X110050000Y-81100000D02*
X110500000Y-80650000D01*
X106370000Y-82121471D02*
X106370000Y-82600000D01*
X110100000Y-71700000D02*
X100635000Y-71700000D01*
X115200000Y-81525736D02*
X113900000Y-80225736D01*
X98200000Y-84500000D02*
X98700000Y-84000000D01*
X115200000Y-83500000D02*
X115200000Y-81525736D01*
X98700000Y-84000000D02*
X114700000Y-84000000D01*
X113900000Y-80225736D02*
X113900000Y-67690000D01*
X114700000Y-84000000D02*
X115200000Y-83500000D01*
X113900000Y-67690000D02*
X113990000Y-67600000D01*
X111100000Y-71100000D02*
X103845000Y-71100000D01*
X111450000Y-82600000D02*
X111450000Y-71450000D01*
X103845000Y-71100000D02*
X103195000Y-70450000D01*
X111450000Y-71450000D02*
X111100000Y-71100000D01*
D18*
X99960000Y-51500000D02*
X99960000Y-54230000D01*
X100730000Y-55000000D02*
X104000000Y-55000000D01*
X99960000Y-54230000D02*
X100730000Y-55000000D01*
X106750000Y-85000000D02*
X104650000Y-87100000D01*
X104000000Y-55000000D02*
X105000000Y-56000000D01*
X104650000Y-87100000D02*
X101300000Y-87100000D01*
X105000000Y-63000000D02*
X106000000Y-64000000D01*
X106000000Y-64000000D02*
X116500000Y-64000000D01*
X105000000Y-56000000D02*
X105000000Y-63000000D01*
X116500000Y-64000000D02*
X117500000Y-65000000D01*
X116000000Y-85000000D02*
X106750000Y-85000000D01*
D17*
X72500000Y-83740000D02*
X72500000Y-84300000D01*
D18*
X117500000Y-65000000D02*
X117500000Y-83500000D01*
X117500000Y-83500000D02*
X116000000Y-85000000D01*
D17*
X72500000Y-83740000D02*
X72340000Y-83740000D01*
X74800000Y-66500000D02*
X75300000Y-66000000D01*
X75300000Y-66000000D02*
X94500000Y-66000000D01*
X94500000Y-66000000D02*
X95000000Y-66500000D01*
X77600000Y-73600000D02*
X75300000Y-73600000D01*
X77915000Y-79750000D02*
X77915000Y-73915000D01*
X95000000Y-66500000D02*
X95000000Y-70450000D01*
X74800000Y-73100000D02*
X74800000Y-66500000D01*
X75300000Y-73600000D02*
X74800000Y-73100000D01*
X77915000Y-73915000D02*
X77600000Y-73600000D01*
X73380000Y-77000000D02*
X72500000Y-76120000D01*
X77100000Y-77000000D02*
X73380000Y-77000000D01*
X102525000Y-51525000D02*
X102500000Y-51500000D01*
G04 #@! TA.AperFunction,Conductor*
G36*
X80429890Y-45520185D02*
G01*
X80475645Y-45572989D01*
X80486187Y-45632634D01*
X81417262Y-46563709D01*
X81283398Y-46660967D01*
X81160967Y-46783398D01*
X81063709Y-46917262D01*
X80135311Y-45988864D01*
X80054520Y-46086525D01*
X80054518Y-46086528D01*
X79892707Y-46341502D01*
X79892704Y-46341508D01*
X79764127Y-46614747D01*
X79764125Y-46614752D01*
X79670805Y-46901959D01*
X79614216Y-47198609D01*
X79614215Y-47198616D01*
X79595255Y-47499994D01*
X79595255Y-47500005D01*
X79614215Y-47801383D01*
X79614216Y-47801390D01*
X79670805Y-48098040D01*
X79764125Y-48385247D01*
X79764127Y-48385252D01*
X79892704Y-48658491D01*
X79892707Y-48658497D01*
X80054516Y-48913469D01*
X80135311Y-49011133D01*
X81063708Y-48082736D01*
X81160967Y-48216602D01*
X81283398Y-48339033D01*
X81417262Y-48436290D01*
X80486564Y-49366987D01*
X80486565Y-49366989D01*
X80711461Y-49530385D01*
X80711479Y-49530397D01*
X80976109Y-49675878D01*
X80976117Y-49675882D01*
X81256889Y-49787047D01*
X81256892Y-49787048D01*
X81549399Y-49862150D01*
X81848995Y-49899999D01*
X81849007Y-49900000D01*
X82150993Y-49900000D01*
X82151004Y-49899999D01*
X82450600Y-49862150D01*
X82743107Y-49787048D01*
X82743110Y-49787047D01*
X83023882Y-49675882D01*
X83023890Y-49675878D01*
X83288520Y-49530397D01*
X83288530Y-49530390D01*
X83513433Y-49366987D01*
X83513434Y-49366987D01*
X82582737Y-48436290D01*
X82716602Y-48339033D01*
X82839033Y-48216602D01*
X82936290Y-48082737D01*
X83864687Y-49011134D01*
X83945486Y-48913464D01*
X84107292Y-48658497D01*
X84107295Y-48658491D01*
X84235872Y-48385252D01*
X84235874Y-48385247D01*
X84329194Y-48098040D01*
X84385783Y-47801390D01*
X84385784Y-47801383D01*
X84404745Y-47500005D01*
X84404745Y-47499994D01*
X84385784Y-47198616D01*
X84385783Y-47198609D01*
X84329194Y-46901959D01*
X84235874Y-46614752D01*
X84235872Y-46614747D01*
X84107295Y-46341508D01*
X84107292Y-46341502D01*
X83945483Y-46086530D01*
X83864686Y-45988864D01*
X82936289Y-46917261D01*
X82839033Y-46783398D01*
X82716602Y-46660967D01*
X82582736Y-46563709D01*
X83513878Y-45632567D01*
X83527895Y-45565851D01*
X83576946Y-45516095D01*
X83637148Y-45500500D01*
X106362851Y-45500500D01*
X106429890Y-45520185D01*
X106475645Y-45572989D01*
X106486187Y-45632634D01*
X107417262Y-46563709D01*
X107283398Y-46660967D01*
X107160967Y-46783398D01*
X107063709Y-46917262D01*
X106135311Y-45988864D01*
X106054520Y-46086525D01*
X106054518Y-46086528D01*
X105892707Y-46341502D01*
X105892704Y-46341508D01*
X105764127Y-46614747D01*
X105764125Y-46614752D01*
X105670805Y-46901959D01*
X105614216Y-47198609D01*
X105614215Y-47198616D01*
X105595255Y-47499994D01*
X105595255Y-47500005D01*
X105614215Y-47801383D01*
X105614216Y-47801390D01*
X105670805Y-48098040D01*
X105764125Y-48385247D01*
X105764127Y-48385252D01*
X105892704Y-48658491D01*
X105892707Y-48658497D01*
X106054516Y-48913469D01*
X106135311Y-49011133D01*
X107063708Y-48082736D01*
X107160967Y-48216602D01*
X107283398Y-48339033D01*
X107417262Y-48436290D01*
X106486564Y-49366987D01*
X106486565Y-49366989D01*
X106711461Y-49530385D01*
X106711479Y-49530397D01*
X106976109Y-49675878D01*
X106976117Y-49675882D01*
X107256889Y-49787047D01*
X107256892Y-49787048D01*
X107549399Y-49862150D01*
X107848995Y-49899999D01*
X107849007Y-49900000D01*
X108150993Y-49900000D01*
X108151004Y-49899999D01*
X108450600Y-49862150D01*
X108743107Y-49787048D01*
X108743110Y-49787047D01*
X109023882Y-49675882D01*
X109023890Y-49675878D01*
X109288520Y-49530397D01*
X109288530Y-49530390D01*
X109513433Y-49366987D01*
X109513434Y-49366987D01*
X108582737Y-48436290D01*
X108716602Y-48339033D01*
X108839033Y-48216602D01*
X108936290Y-48082737D01*
X109864687Y-49011134D01*
X109945486Y-48913464D01*
X110107292Y-48658497D01*
X110107295Y-48658491D01*
X110235872Y-48385252D01*
X110235874Y-48385247D01*
X110329194Y-48098040D01*
X110385783Y-47801390D01*
X110385784Y-47801383D01*
X110404745Y-47500005D01*
X110404745Y-47499994D01*
X110385784Y-47198616D01*
X110385783Y-47198609D01*
X110329194Y-46901959D01*
X110235874Y-46614752D01*
X110235872Y-46614747D01*
X110107295Y-46341508D01*
X110107292Y-46341502D01*
X109945483Y-46086530D01*
X109864686Y-45988864D01*
X108936289Y-46917261D01*
X108839033Y-46783398D01*
X108716602Y-46660967D01*
X108582736Y-46563709D01*
X109513878Y-45632567D01*
X109527895Y-45565851D01*
X109576946Y-45516095D01*
X109637148Y-45500500D01*
X110775500Y-45500500D01*
X110842539Y-45520185D01*
X110888294Y-45572989D01*
X110899500Y-45624500D01*
X110899500Y-48835765D01*
X110936495Y-49305827D01*
X111010257Y-49771543D01*
X111032010Y-49862150D01*
X111119385Y-50226097D01*
X111120331Y-50230035D01*
X111151500Y-50325964D01*
X111266036Y-50678472D01*
X111388670Y-50974536D01*
X111446482Y-51114106D01*
X111660548Y-51534234D01*
X111660553Y-51534242D01*
X111660555Y-51534246D01*
X111660558Y-51534252D01*
X111906910Y-51936261D01*
X111906915Y-51936268D01*
X111906917Y-51936271D01*
X112056229Y-52141781D01*
X112184064Y-52317732D01*
X112184075Y-52317746D01*
X112372613Y-52538496D01*
X112490298Y-52676287D01*
X112823713Y-53009702D01*
X113182260Y-53315930D01*
X113563729Y-53593083D01*
X113563733Y-53593085D01*
X113563738Y-53593089D01*
X113965747Y-53839441D01*
X113965752Y-53839443D01*
X113965766Y-53839452D01*
X114385894Y-54053518D01*
X114821522Y-54233961D01*
X114821527Y-54233963D01*
X114911452Y-54263181D01*
X115269965Y-54379669D01*
X115728457Y-54489743D01*
X116194173Y-54563505D01*
X116664240Y-54600500D01*
X116834108Y-54600500D01*
X119875500Y-54600500D01*
X119942539Y-54620185D01*
X119988294Y-54672989D01*
X119999500Y-54724500D01*
X119999500Y-86275500D01*
X119979815Y-86342539D01*
X119927011Y-86388294D01*
X119875500Y-86399500D01*
X116664234Y-86399500D01*
X116194172Y-86436495D01*
X116194171Y-86436495D01*
X115728462Y-86510256D01*
X115728459Y-86510256D01*
X115728457Y-86510257D01*
X115564258Y-86549677D01*
X115269976Y-86620328D01*
X115269970Y-86620329D01*
X115269965Y-86620331D01*
X115269953Y-86620335D01*
X114821527Y-86766036D01*
X114385896Y-86946481D01*
X114385894Y-86946482D01*
X113965766Y-87160548D01*
X113965762Y-87160550D01*
X113965753Y-87160555D01*
X113965747Y-87160558D01*
X113563738Y-87406910D01*
X113563727Y-87406918D01*
X113182267Y-87684064D01*
X113182253Y-87684075D01*
X112823719Y-87990292D01*
X112823705Y-87990305D01*
X112490305Y-88323705D01*
X112490292Y-88323719D01*
X112184075Y-88682253D01*
X112184064Y-88682267D01*
X111906918Y-89063727D01*
X111906910Y-89063738D01*
X111660558Y-89465747D01*
X111660555Y-89465753D01*
X111446481Y-89885896D01*
X111266036Y-90321527D01*
X111130298Y-90739286D01*
X111120331Y-90769965D01*
X111013980Y-91212952D01*
X111010256Y-91228462D01*
X110936495Y-91694171D01*
X110936495Y-91694172D01*
X110899500Y-92164234D01*
X110899500Y-95375500D01*
X110879815Y-95442539D01*
X110827011Y-95488294D01*
X110775500Y-95499500D01*
X109637148Y-95499500D01*
X109570109Y-95479815D01*
X109524354Y-95427011D01*
X109513811Y-95367364D01*
X108582737Y-94436290D01*
X108716602Y-94339033D01*
X108839033Y-94216602D01*
X108936290Y-94082737D01*
X109864687Y-95011134D01*
X109945486Y-94913464D01*
X110107292Y-94658497D01*
X110107295Y-94658491D01*
X110235872Y-94385252D01*
X110235874Y-94385247D01*
X110329194Y-94098040D01*
X110385783Y-93801390D01*
X110385784Y-93801383D01*
X110404745Y-93500005D01*
X110404745Y-93499994D01*
X110385784Y-93198616D01*
X110385783Y-93198609D01*
X110329194Y-92901959D01*
X110235874Y-92614752D01*
X110235872Y-92614747D01*
X110107295Y-92341508D01*
X110107292Y-92341502D01*
X109945483Y-92086530D01*
X109864686Y-91988864D01*
X108936289Y-92917261D01*
X108839033Y-92783398D01*
X108716602Y-92660967D01*
X108582736Y-92563709D01*
X109513434Y-91633011D01*
X109513433Y-91633009D01*
X109288538Y-91469614D01*
X109288520Y-91469602D01*
X109023890Y-91324121D01*
X109023882Y-91324117D01*
X108743110Y-91212952D01*
X108743107Y-91212951D01*
X108450600Y-91137849D01*
X108151004Y-91100000D01*
X107848995Y-91100000D01*
X107549399Y-91137849D01*
X107256892Y-91212951D01*
X107256889Y-91212952D01*
X106976117Y-91324117D01*
X106976109Y-91324121D01*
X106711476Y-91469604D01*
X106711471Y-91469607D01*
X106486565Y-91633010D01*
X106486564Y-91633011D01*
X107417262Y-92563709D01*
X107283398Y-92660967D01*
X107160967Y-92783398D01*
X107063709Y-92917262D01*
X106135311Y-91988864D01*
X106054520Y-92086525D01*
X106054518Y-92086528D01*
X105892707Y-92341502D01*
X105892704Y-92341508D01*
X105764127Y-92614747D01*
X105764125Y-92614752D01*
X105670805Y-92901959D01*
X105614216Y-93198609D01*
X105614215Y-93198616D01*
X105595255Y-93499994D01*
X105595255Y-93500005D01*
X105614215Y-93801383D01*
X105614216Y-93801390D01*
X105670805Y-94098040D01*
X105764125Y-94385247D01*
X105764127Y-94385252D01*
X105892704Y-94658491D01*
X105892707Y-94658497D01*
X106054516Y-94913469D01*
X106135311Y-95011133D01*
X107063708Y-94082736D01*
X107160967Y-94216602D01*
X107283398Y-94339033D01*
X107417262Y-94436290D01*
X106486120Y-95367431D01*
X106472104Y-95434149D01*
X106423053Y-95483905D01*
X106362851Y-95499500D01*
X83637148Y-95499500D01*
X83570109Y-95479815D01*
X83524354Y-95427011D01*
X83513811Y-95367364D01*
X82582737Y-94436290D01*
X82716602Y-94339033D01*
X82839033Y-94216602D01*
X82936290Y-94082737D01*
X83864687Y-95011134D01*
X83945486Y-94913464D01*
X84107292Y-94658497D01*
X84107295Y-94658491D01*
X84235872Y-94385252D01*
X84235874Y-94385247D01*
X84329194Y-94098040D01*
X84385783Y-93801390D01*
X84385784Y-93801383D01*
X84404745Y-93500005D01*
X84404745Y-93499994D01*
X84385784Y-93198616D01*
X84385783Y-93198609D01*
X84329194Y-92901959D01*
X84235874Y-92614752D01*
X84235872Y-92614747D01*
X84107295Y-92341508D01*
X84107292Y-92341502D01*
X83945483Y-92086530D01*
X83864686Y-91988864D01*
X82936289Y-92917261D01*
X82839033Y-92783398D01*
X82716602Y-92660967D01*
X82582736Y-92563709D01*
X83513434Y-91633011D01*
X83513433Y-91633009D01*
X83288538Y-91469614D01*
X83288520Y-91469602D01*
X83023890Y-91324121D01*
X83023882Y-91324117D01*
X82743110Y-91212952D01*
X82743107Y-91212951D01*
X82450600Y-91137849D01*
X82151004Y-91100000D01*
X81848995Y-91100000D01*
X81549399Y-91137849D01*
X81256892Y-91212951D01*
X81256889Y-91212952D01*
X80976117Y-91324117D01*
X80976109Y-91324121D01*
X80711476Y-91469604D01*
X80711471Y-91469607D01*
X80486565Y-91633010D01*
X80486564Y-91633011D01*
X81417262Y-92563709D01*
X81283398Y-92660967D01*
X81160967Y-92783398D01*
X81063709Y-92917262D01*
X80135311Y-91988864D01*
X80054520Y-92086525D01*
X80054518Y-92086528D01*
X79892707Y-92341502D01*
X79892704Y-92341508D01*
X79764127Y-92614747D01*
X79764125Y-92614752D01*
X79670805Y-92901959D01*
X79614216Y-93198609D01*
X79614215Y-93198616D01*
X79595255Y-93499994D01*
X79595255Y-93500005D01*
X79614215Y-93801383D01*
X79614216Y-93801390D01*
X79670805Y-94098040D01*
X79764125Y-94385247D01*
X79764127Y-94385252D01*
X79892704Y-94658491D01*
X79892707Y-94658497D01*
X80054516Y-94913469D01*
X80135311Y-95011133D01*
X81063708Y-94082736D01*
X81160967Y-94216602D01*
X81283398Y-94339033D01*
X81417262Y-94436290D01*
X80486120Y-95367431D01*
X80472104Y-95434149D01*
X80423053Y-95483905D01*
X80362851Y-95499500D01*
X79224500Y-95499500D01*
X79157461Y-95479815D01*
X79111706Y-95427011D01*
X79100500Y-95375500D01*
X79100500Y-92164247D01*
X79100500Y-92164240D01*
X79063505Y-91694173D01*
X78989743Y-91228457D01*
X78879669Y-90769965D01*
X78733961Y-90321522D01*
X78553518Y-89885894D01*
X78339452Y-89465766D01*
X78339443Y-89465752D01*
X78339441Y-89465747D01*
X78093089Y-89063738D01*
X78093085Y-89063733D01*
X78093083Y-89063729D01*
X77815930Y-88682260D01*
X77509702Y-88323713D01*
X77176287Y-87990298D01*
X77116390Y-87939141D01*
X76817746Y-87684075D01*
X76817732Y-87684064D01*
X76436272Y-87406918D01*
X76436261Y-87406910D01*
X76034252Y-87160558D01*
X76034246Y-87160555D01*
X76034242Y-87160553D01*
X76034234Y-87160548D01*
X75915398Y-87099998D01*
X79794532Y-87099998D01*
X79794532Y-87100001D01*
X79814364Y-87326686D01*
X79814366Y-87326697D01*
X79873258Y-87546488D01*
X79873261Y-87546497D01*
X79969431Y-87752732D01*
X79969432Y-87752734D01*
X80099954Y-87939141D01*
X80260858Y-88100045D01*
X80260861Y-88100047D01*
X80447266Y-88230568D01*
X80653504Y-88326739D01*
X80873308Y-88385635D01*
X81035230Y-88399801D01*
X81099998Y-88405468D01*
X81100000Y-88405468D01*
X81100002Y-88405468D01*
X81156673Y-88400509D01*
X81326692Y-88385635D01*
X81546496Y-88326739D01*
X81752734Y-88230568D01*
X81939139Y-88100047D01*
X82100047Y-87939139D01*
X82230568Y-87752734D01*
X82326739Y-87546496D01*
X82385635Y-87326692D01*
X82405468Y-87100000D01*
X82405468Y-87099998D01*
X89954532Y-87099998D01*
X89954532Y-87100001D01*
X89974364Y-87326686D01*
X89974366Y-87326697D01*
X90033258Y-87546488D01*
X90033261Y-87546497D01*
X90129431Y-87752732D01*
X90129432Y-87752734D01*
X90259954Y-87939141D01*
X90420858Y-88100045D01*
X90420861Y-88100047D01*
X90607266Y-88230568D01*
X90813504Y-88326739D01*
X91033308Y-88385635D01*
X91195230Y-88399801D01*
X91259998Y-88405468D01*
X91260000Y-88405468D01*
X91260002Y-88405468D01*
X91316673Y-88400509D01*
X91486692Y-88385635D01*
X91706496Y-88326739D01*
X91912734Y-88230568D01*
X92099139Y-88100047D01*
X92260047Y-87939139D01*
X92390568Y-87752734D01*
X92486739Y-87546496D01*
X92545635Y-87326692D01*
X92565468Y-87100000D01*
X92545635Y-86873308D01*
X92486739Y-86653504D01*
X92390568Y-86447266D01*
X92260047Y-86260861D01*
X92260045Y-86260858D01*
X92099141Y-86099954D01*
X91912734Y-85969432D01*
X91912732Y-85969431D01*
X91706497Y-85873261D01*
X91706488Y-85873258D01*
X91486697Y-85814366D01*
X91486693Y-85814365D01*
X91486692Y-85814365D01*
X91486691Y-85814364D01*
X91486686Y-85814364D01*
X91260002Y-85794532D01*
X91259998Y-85794532D01*
X91033313Y-85814364D01*
X91033302Y-85814366D01*
X90813511Y-85873258D01*
X90813502Y-85873261D01*
X90607267Y-85969431D01*
X90607265Y-85969432D01*
X90420858Y-86099954D01*
X90259954Y-86260858D01*
X90129432Y-86447265D01*
X90129431Y-86447267D01*
X90033261Y-86653502D01*
X90033258Y-86653511D01*
X89974366Y-86873302D01*
X89974364Y-86873313D01*
X89954532Y-87099998D01*
X82405468Y-87099998D01*
X82385635Y-86873308D01*
X82326739Y-86653504D01*
X82230568Y-86447266D01*
X82100047Y-86260861D01*
X82100045Y-86260858D01*
X81939141Y-86099954D01*
X81752734Y-85969432D01*
X81752732Y-85969431D01*
X81546497Y-85873261D01*
X81546488Y-85873258D01*
X81326697Y-85814366D01*
X81326693Y-85814365D01*
X81326692Y-85814365D01*
X81326691Y-85814364D01*
X81326686Y-85814364D01*
X81100002Y-85794532D01*
X81099998Y-85794532D01*
X80873313Y-85814364D01*
X80873302Y-85814366D01*
X80653511Y-85873258D01*
X80653502Y-85873261D01*
X80447267Y-85969431D01*
X80447265Y-85969432D01*
X80260858Y-86099954D01*
X80099954Y-86260858D01*
X79969432Y-86447265D01*
X79969431Y-86447267D01*
X79873261Y-86653502D01*
X79873258Y-86653511D01*
X79814366Y-86873302D01*
X79814364Y-86873313D01*
X79794532Y-87099998D01*
X75915398Y-87099998D01*
X75614106Y-86946482D01*
X75474536Y-86888670D01*
X75178472Y-86766036D01*
X74859402Y-86662364D01*
X74730035Y-86620331D01*
X74271543Y-86510257D01*
X73805827Y-86436495D01*
X73335765Y-86399500D01*
X73335760Y-86399500D01*
X73165892Y-86399500D01*
X70124500Y-86399500D01*
X70057461Y-86379815D01*
X70011706Y-86327011D01*
X70000500Y-86275500D01*
X70000500Y-83739999D01*
X71144341Y-83739999D01*
X71144341Y-83740000D01*
X71164936Y-83975403D01*
X71164938Y-83975413D01*
X71226094Y-84203655D01*
X71226096Y-84203659D01*
X71226097Y-84203663D01*
X71280696Y-84320750D01*
X71325965Y-84417830D01*
X71325967Y-84417834D01*
X71425217Y-84559576D01*
X71461505Y-84611401D01*
X71628599Y-84778495D01*
X71667456Y-84805703D01*
X71822165Y-84914032D01*
X71822167Y-84914033D01*
X71822170Y-84914035D01*
X72036337Y-85013903D01*
X72264592Y-85075063D01*
X72452918Y-85091539D01*
X72499999Y-85095659D01*
X72500000Y-85095659D01*
X72500001Y-85095659D01*
X72539234Y-85092226D01*
X72735408Y-85075063D01*
X72963663Y-85013903D01*
X73177830Y-84914035D01*
X73371401Y-84778495D01*
X73538495Y-84611401D01*
X73674035Y-84417830D01*
X73773903Y-84203663D01*
X73835063Y-83975408D01*
X73855659Y-83740000D01*
X73835063Y-83504592D01*
X73773903Y-83276337D01*
X73674035Y-83062171D01*
X73653926Y-83033451D01*
X73538494Y-82868597D01*
X73371402Y-82701506D01*
X73371395Y-82701501D01*
X73177834Y-82565967D01*
X73177830Y-82565965D01*
X73177828Y-82565964D01*
X72963663Y-82466097D01*
X72963659Y-82466096D01*
X72963655Y-82466094D01*
X72735413Y-82404938D01*
X72735403Y-82404936D01*
X72500001Y-82384341D01*
X72499999Y-82384341D01*
X72264596Y-82404936D01*
X72264586Y-82404938D01*
X72036344Y-82466094D01*
X72036335Y-82466098D01*
X71822171Y-82565964D01*
X71822169Y-82565965D01*
X71628597Y-82701505D01*
X71461505Y-82868597D01*
X71325965Y-83062169D01*
X71325964Y-83062171D01*
X71226098Y-83276335D01*
X71226094Y-83276344D01*
X71164938Y-83504586D01*
X71164936Y-83504596D01*
X71144341Y-83739999D01*
X70000500Y-83739999D01*
X70000500Y-71039999D01*
X71144341Y-71039999D01*
X71144341Y-71040000D01*
X71164936Y-71275403D01*
X71164938Y-71275413D01*
X71226094Y-71503655D01*
X71226096Y-71503659D01*
X71226097Y-71503663D01*
X71271610Y-71601265D01*
X71325965Y-71717830D01*
X71325967Y-71717834D01*
X71461501Y-71911395D01*
X71461506Y-71911402D01*
X71628597Y-72078493D01*
X71628603Y-72078498D01*
X71814158Y-72208425D01*
X71857783Y-72263002D01*
X71864977Y-72332500D01*
X71833454Y-72394855D01*
X71814158Y-72411575D01*
X71628597Y-72541505D01*
X71461505Y-72708597D01*
X71325965Y-72902169D01*
X71325964Y-72902171D01*
X71226098Y-73116335D01*
X71226094Y-73116344D01*
X71164938Y-73344586D01*
X71164936Y-73344596D01*
X71144341Y-73579999D01*
X71144341Y-73580000D01*
X71164936Y-73815403D01*
X71164938Y-73815413D01*
X71226094Y-74043655D01*
X71226096Y-74043659D01*
X71226097Y-74043663D01*
X71280149Y-74159577D01*
X71325965Y-74257830D01*
X71325967Y-74257834D01*
X71461501Y-74451395D01*
X71461506Y-74451402D01*
X71628597Y-74618493D01*
X71628603Y-74618498D01*
X71814158Y-74748425D01*
X71857783Y-74803002D01*
X71864977Y-74872500D01*
X71833454Y-74934855D01*
X71814158Y-74951575D01*
X71628597Y-75081505D01*
X71461505Y-75248597D01*
X71325965Y-75442169D01*
X71325964Y-75442171D01*
X71226098Y-75656335D01*
X71226094Y-75656344D01*
X71164938Y-75884586D01*
X71164936Y-75884596D01*
X71144341Y-76119999D01*
X71144341Y-76120000D01*
X71164936Y-76355403D01*
X71164938Y-76355413D01*
X71226094Y-76583655D01*
X71226096Y-76583659D01*
X71226097Y-76583663D01*
X71325965Y-76797830D01*
X71325967Y-76797834D01*
X71461501Y-76991395D01*
X71461506Y-76991402D01*
X71628597Y-77158493D01*
X71628603Y-77158498D01*
X71814158Y-77288425D01*
X71857783Y-77343002D01*
X71864977Y-77412500D01*
X71833454Y-77474855D01*
X71814158Y-77491575D01*
X71628597Y-77621505D01*
X71461505Y-77788597D01*
X71325965Y-77982169D01*
X71325964Y-77982171D01*
X71226098Y-78196335D01*
X71226094Y-78196344D01*
X71164938Y-78424586D01*
X71164936Y-78424596D01*
X71144341Y-78659999D01*
X71144341Y-78660000D01*
X71164936Y-78895403D01*
X71164938Y-78895413D01*
X71226094Y-79123655D01*
X71226096Y-79123659D01*
X71226097Y-79123663D01*
X71313405Y-79310894D01*
X71325965Y-79337830D01*
X71325967Y-79337834D01*
X71424344Y-79478330D01*
X71461505Y-79531401D01*
X71628599Y-79698495D01*
X71702150Y-79749996D01*
X71822165Y-79834032D01*
X71822167Y-79834033D01*
X71822170Y-79834035D01*
X72036337Y-79933903D01*
X72264592Y-79995063D01*
X72452918Y-80011539D01*
X72499999Y-80015659D01*
X72500000Y-80015659D01*
X72500001Y-80015659D01*
X72539234Y-80012226D01*
X72735408Y-79995063D01*
X72963663Y-79933903D01*
X73177830Y-79834035D01*
X73371401Y-79698495D01*
X73538495Y-79531401D01*
X73674035Y-79337830D01*
X73773903Y-79123663D01*
X73835063Y-78895408D01*
X73855659Y-78660000D01*
X73835063Y-78424592D01*
X73773903Y-78196337D01*
X73674035Y-77982171D01*
X73630610Y-77920153D01*
X73543414Y-77795623D01*
X73521087Y-77729417D01*
X73538097Y-77661650D01*
X73589045Y-77613837D01*
X73644989Y-77600500D01*
X76517588Y-77600500D01*
X76584627Y-77620185D01*
X76594903Y-77627555D01*
X76597736Y-77629814D01*
X76597738Y-77629816D01*
X76750478Y-77725789D01*
X76885499Y-77773035D01*
X76920745Y-77785368D01*
X76920750Y-77785369D01*
X77099996Y-77805565D01*
X77100000Y-77805565D01*
X77100004Y-77805565D01*
X77176617Y-77796933D01*
X77245439Y-77808988D01*
X77296818Y-77856337D01*
X77314500Y-77920153D01*
X77314500Y-79167587D01*
X77294815Y-79234626D01*
X77287450Y-79244896D01*
X77285186Y-79247734D01*
X77189211Y-79400476D01*
X77129631Y-79570745D01*
X77129630Y-79570750D01*
X77109435Y-79749996D01*
X77109435Y-79750003D01*
X77129630Y-79929249D01*
X77129631Y-79929254D01*
X77189211Y-80099523D01*
X77248762Y-80194297D01*
X77285184Y-80252262D01*
X77412738Y-80379816D01*
X77565478Y-80475789D01*
X77690337Y-80519479D01*
X77735745Y-80535368D01*
X77735750Y-80535369D01*
X77914996Y-80555565D01*
X77915000Y-80555565D01*
X77915004Y-80555565D01*
X78094249Y-80535369D01*
X78094252Y-80535368D01*
X78094255Y-80535368D01*
X78264522Y-80475789D01*
X78417262Y-80379816D01*
X78544816Y-80252262D01*
X78640789Y-80099522D01*
X78700368Y-79929255D01*
X78711097Y-79834032D01*
X78720565Y-79750003D01*
X78720565Y-79749996D01*
X78700369Y-79570750D01*
X78700368Y-79570745D01*
X78668037Y-79478348D01*
X78640789Y-79400478D01*
X78544816Y-79247738D01*
X78544814Y-79247736D01*
X78544813Y-79247734D01*
X78542550Y-79244896D01*
X78541659Y-79242715D01*
X78541111Y-79241842D01*
X78541264Y-79241745D01*
X78516144Y-79180209D01*
X78515500Y-79167587D01*
X78515500Y-73835944D01*
X78515499Y-73835938D01*
X78510949Y-73818959D01*
X78507361Y-73805565D01*
X78474577Y-73683215D01*
X78474575Y-73683212D01*
X78474575Y-73683210D01*
X78471465Y-73675701D01*
X78473636Y-73674801D01*
X78460001Y-73618605D01*
X78482851Y-73552577D01*
X78537770Y-73509384D01*
X78583861Y-73500500D01*
X79606928Y-73500500D01*
X79673967Y-73520185D01*
X79719722Y-73572989D01*
X79729666Y-73642147D01*
X79723970Y-73665454D01*
X79669632Y-73820742D01*
X79669630Y-73820750D01*
X79649435Y-73999996D01*
X79649435Y-74000003D01*
X79669630Y-74179249D01*
X79669631Y-74179254D01*
X79729211Y-74349523D01*
X79825185Y-74502263D01*
X79827445Y-74505097D01*
X79828334Y-74507275D01*
X79828889Y-74508158D01*
X79828734Y-74508255D01*
X79853855Y-74569783D01*
X79854500Y-74582412D01*
X79854500Y-79167587D01*
X79834815Y-79234626D01*
X79827450Y-79244896D01*
X79825186Y-79247734D01*
X79729211Y-79400476D01*
X79669631Y-79570745D01*
X79669630Y-79570750D01*
X79649435Y-79749996D01*
X79649435Y-79750003D01*
X79669630Y-79929249D01*
X79669631Y-79929254D01*
X79729211Y-80099523D01*
X79825184Y-80252262D01*
X79864256Y-80291334D01*
X79897741Y-80352657D01*
X79892757Y-80422349D01*
X79850885Y-80478282D01*
X79838576Y-80486402D01*
X79781284Y-80519479D01*
X78961679Y-81339084D01*
X78900356Y-81372569D01*
X78841906Y-81371178D01*
X78770076Y-81351932D01*
X78770073Y-81351931D01*
X78770068Y-81351930D01*
X78770065Y-81351929D01*
X78770062Y-81351929D01*
X78550002Y-81332677D01*
X78549998Y-81332677D01*
X78329937Y-81351929D01*
X78329929Y-81351930D01*
X78116554Y-81409104D01*
X78116548Y-81409107D01*
X77916340Y-81502465D01*
X77916338Y-81502466D01*
X77735377Y-81629175D01*
X77579175Y-81785377D01*
X77452466Y-81966338D01*
X77452465Y-81966340D01*
X77392382Y-82095189D01*
X77346209Y-82147628D01*
X77279016Y-82166780D01*
X77212135Y-82146564D01*
X77167618Y-82095189D01*
X77107534Y-81966340D01*
X77107533Y-81966338D01*
X76980827Y-81785381D01*
X76909284Y-81713838D01*
X76824620Y-81629174D01*
X76824616Y-81629171D01*
X76824615Y-81629170D01*
X76643666Y-81502468D01*
X76643662Y-81502466D01*
X76610499Y-81487002D01*
X76443450Y-81409106D01*
X76443447Y-81409105D01*
X76443445Y-81409104D01*
X76230070Y-81351930D01*
X76230062Y-81351929D01*
X76010002Y-81332677D01*
X76009998Y-81332677D01*
X75789937Y-81351929D01*
X75789929Y-81351930D01*
X75576554Y-81409104D01*
X75576548Y-81409107D01*
X75376340Y-81502465D01*
X75376338Y-81502466D01*
X75195377Y-81629175D01*
X75039175Y-81785377D01*
X74912466Y-81966338D01*
X74912465Y-81966340D01*
X74819107Y-82166548D01*
X74819104Y-82166554D01*
X74761930Y-82379929D01*
X74761929Y-82379937D01*
X74742677Y-82599997D01*
X74742677Y-82600002D01*
X74761929Y-82820062D01*
X74761930Y-82820070D01*
X74819104Y-83033445D01*
X74819105Y-83033447D01*
X74819106Y-83033450D01*
X74832498Y-83062169D01*
X74912466Y-83233662D01*
X74912468Y-83233666D01*
X75039170Y-83414615D01*
X75039175Y-83414621D01*
X75195378Y-83570824D01*
X75195384Y-83570829D01*
X75376333Y-83697531D01*
X75376335Y-83697532D01*
X75376338Y-83697534D01*
X75576550Y-83790894D01*
X75789932Y-83848070D01*
X75947123Y-83861822D01*
X76009998Y-83867323D01*
X76010000Y-83867323D01*
X76010002Y-83867323D01*
X76065017Y-83862509D01*
X76230068Y-83848070D01*
X76443450Y-83790894D01*
X76643662Y-83697534D01*
X76824620Y-83570826D01*
X76980826Y-83414620D01*
X77107534Y-83233662D01*
X77167618Y-83104811D01*
X77213790Y-83052371D01*
X77280983Y-83033219D01*
X77347865Y-83053435D01*
X77392382Y-83104811D01*
X77452464Y-83233658D01*
X77452468Y-83233666D01*
X77579170Y-83414615D01*
X77579175Y-83414621D01*
X77724493Y-83559939D01*
X77757978Y-83621262D01*
X77752994Y-83690954D01*
X77711122Y-83746887D01*
X77677767Y-83764661D01*
X77650480Y-83774209D01*
X77497737Y-83870184D01*
X77370184Y-83997737D01*
X77274211Y-84150476D01*
X77214631Y-84320745D01*
X77214630Y-84320750D01*
X77194435Y-84499996D01*
X77194435Y-84500003D01*
X77214630Y-84679249D01*
X77214631Y-84679254D01*
X77274211Y-84849523D01*
X77314747Y-84914035D01*
X77370184Y-85002262D01*
X77497738Y-85129816D01*
X77650478Y-85225789D01*
X77820745Y-85285368D01*
X77820750Y-85285369D01*
X77999996Y-85305565D01*
X78000000Y-85305565D01*
X78000004Y-85305565D01*
X78179249Y-85285369D01*
X78179252Y-85285368D01*
X78179255Y-85285368D01*
X78349522Y-85225789D01*
X78502262Y-85129816D01*
X78629816Y-85002262D01*
X78725789Y-84849522D01*
X78783867Y-84683545D01*
X78824589Y-84626769D01*
X78889542Y-84601022D01*
X78900909Y-84600500D01*
X94413331Y-84600500D01*
X94413347Y-84600501D01*
X94420943Y-84600501D01*
X94579054Y-84600501D01*
X94579057Y-84600501D01*
X94731785Y-84559577D01*
X94805289Y-84517139D01*
X94868716Y-84480520D01*
X94980520Y-84368716D01*
X94980521Y-84368714D01*
X95480520Y-83868716D01*
X95521900Y-83797043D01*
X95572466Y-83748828D01*
X95641073Y-83735604D01*
X95681691Y-83746661D01*
X95776543Y-83790891D01*
X95776545Y-83790891D01*
X95776550Y-83790894D01*
X95989932Y-83848070D01*
X96147123Y-83861822D01*
X96209998Y-83867323D01*
X96210000Y-83867323D01*
X96210002Y-83867323D01*
X96265017Y-83862509D01*
X96430068Y-83848070D01*
X96643450Y-83790894D01*
X96843662Y-83697534D01*
X97024620Y-83570826D01*
X97180826Y-83414620D01*
X97307534Y-83233662D01*
X97367618Y-83104811D01*
X97413790Y-83052371D01*
X97480983Y-83033219D01*
X97547865Y-83053435D01*
X97592382Y-83104811D01*
X97652464Y-83233658D01*
X97652468Y-83233666D01*
X97779170Y-83414615D01*
X97779175Y-83414621D01*
X97924493Y-83559939D01*
X97957978Y-83621262D01*
X97952994Y-83690954D01*
X97911122Y-83746887D01*
X97877767Y-83764661D01*
X97850480Y-83774209D01*
X97697737Y-83870184D01*
X97570184Y-83997737D01*
X97474211Y-84150476D01*
X97414631Y-84320745D01*
X97414630Y-84320750D01*
X97394435Y-84499996D01*
X97394435Y-84500003D01*
X97414630Y-84679249D01*
X97414631Y-84679254D01*
X97474211Y-84849523D01*
X97514747Y-84914035D01*
X97570184Y-85002262D01*
X97697738Y-85129816D01*
X97850478Y-85225789D01*
X98020745Y-85285368D01*
X98020750Y-85285369D01*
X98199996Y-85305565D01*
X98200000Y-85305565D01*
X98200004Y-85305565D01*
X98379249Y-85285369D01*
X98379252Y-85285368D01*
X98379255Y-85285368D01*
X98549522Y-85225789D01*
X98702262Y-85129816D01*
X98829816Y-85002262D01*
X98925789Y-84849522D01*
X98983867Y-84683545D01*
X99024589Y-84626769D01*
X99089542Y-84601022D01*
X99100909Y-84600500D01*
X105859482Y-84600500D01*
X105926521Y-84620185D01*
X105972276Y-84672989D01*
X105982220Y-84742147D01*
X105953195Y-84805703D01*
X105947164Y-84812179D01*
X105138568Y-85620775D01*
X104396162Y-86363181D01*
X104334839Y-86396666D01*
X104308481Y-86399500D01*
X102461673Y-86399500D01*
X102394634Y-86379815D01*
X102360098Y-86346623D01*
X102300045Y-86260858D01*
X102139141Y-86099954D01*
X101952734Y-85969432D01*
X101952732Y-85969431D01*
X101746497Y-85873261D01*
X101746488Y-85873258D01*
X101526697Y-85814366D01*
X101526693Y-85814365D01*
X101526692Y-85814365D01*
X101526691Y-85814364D01*
X101526686Y-85814364D01*
X101300002Y-85794532D01*
X101299998Y-85794532D01*
X101073313Y-85814364D01*
X101073302Y-85814366D01*
X100853511Y-85873258D01*
X100853502Y-85873261D01*
X100647267Y-85969431D01*
X100647265Y-85969432D01*
X100460858Y-86099954D01*
X100299954Y-86260858D01*
X100169432Y-86447265D01*
X100169431Y-86447267D01*
X100073261Y-86653502D01*
X100073258Y-86653511D01*
X100014366Y-86873302D01*
X100014364Y-86873313D01*
X99994532Y-87099998D01*
X99994532Y-87100001D01*
X100014364Y-87326686D01*
X100014366Y-87326697D01*
X100073258Y-87546488D01*
X100073261Y-87546497D01*
X100169431Y-87752732D01*
X100169432Y-87752734D01*
X100299954Y-87939141D01*
X100460858Y-88100045D01*
X100460861Y-88100047D01*
X100647266Y-88230568D01*
X100853504Y-88326739D01*
X101073308Y-88385635D01*
X101235230Y-88399801D01*
X101299998Y-88405468D01*
X101300000Y-88405468D01*
X101300002Y-88405468D01*
X101356673Y-88400509D01*
X101526692Y-88385635D01*
X101746496Y-88326739D01*
X101952734Y-88230568D01*
X102139139Y-88100047D01*
X102300047Y-87939139D01*
X102360098Y-87853377D01*
X102414675Y-87809752D01*
X102461673Y-87800500D01*
X104718996Y-87800500D01*
X104810040Y-87782389D01*
X104854328Y-87773580D01*
X104918069Y-87747177D01*
X104981807Y-87720777D01*
X104981808Y-87720776D01*
X104981811Y-87720775D01*
X105096543Y-87644114D01*
X107003837Y-85736818D01*
X107065160Y-85703334D01*
X107091518Y-85700500D01*
X110824665Y-85700500D01*
X110891704Y-85720185D01*
X110937459Y-85772989D01*
X110947403Y-85842147D01*
X110918378Y-85905703D01*
X110877071Y-85936881D01*
X110849101Y-85949923D01*
X110807267Y-85969431D01*
X110807265Y-85969432D01*
X110620858Y-86099954D01*
X110459954Y-86260858D01*
X110329432Y-86447265D01*
X110329431Y-86447267D01*
X110233261Y-86653502D01*
X110233258Y-86653511D01*
X110174366Y-86873302D01*
X110174364Y-86873313D01*
X110154532Y-87099998D01*
X110154532Y-87100001D01*
X110174364Y-87326686D01*
X110174366Y-87326697D01*
X110233258Y-87546488D01*
X110233261Y-87546497D01*
X110329431Y-87752732D01*
X110329432Y-87752734D01*
X110459954Y-87939141D01*
X110620858Y-88100045D01*
X110620861Y-88100047D01*
X110807266Y-88230568D01*
X111013504Y-88326739D01*
X111233308Y-88385635D01*
X111395230Y-88399801D01*
X111459998Y-88405468D01*
X111460000Y-88405468D01*
X111460002Y-88405468D01*
X111516673Y-88400509D01*
X111686692Y-88385635D01*
X111906496Y-88326739D01*
X112112734Y-88230568D01*
X112299139Y-88100047D01*
X112460047Y-87939139D01*
X112590568Y-87752734D01*
X112686739Y-87546496D01*
X112745635Y-87326692D01*
X112765468Y-87100000D01*
X112745635Y-86873308D01*
X112686739Y-86653504D01*
X112590568Y-86447266D01*
X112460047Y-86260861D01*
X112460045Y-86260858D01*
X112299141Y-86099954D01*
X112112734Y-85969432D01*
X112112732Y-85969431D01*
X112101644Y-85964260D01*
X112042929Y-85936881D01*
X111990491Y-85890710D01*
X111971339Y-85823516D01*
X111991555Y-85756635D01*
X112044720Y-85711300D01*
X112095335Y-85700500D01*
X116068996Y-85700500D01*
X116160040Y-85682389D01*
X116204328Y-85673580D01*
X116268069Y-85647177D01*
X116331807Y-85620777D01*
X116331808Y-85620776D01*
X116331811Y-85620775D01*
X116446543Y-85544114D01*
X118044113Y-83946543D01*
X118052727Y-83933651D01*
X118061221Y-83920941D01*
X118096117Y-83868714D01*
X118120775Y-83831811D01*
X118158804Y-83740000D01*
X118173580Y-83704329D01*
X118182210Y-83660943D01*
X118200135Y-83570829D01*
X118200500Y-83568995D01*
X118200500Y-64931004D01*
X118173581Y-64795677D01*
X118173580Y-64795676D01*
X118173580Y-64795672D01*
X118173578Y-64795667D01*
X118120778Y-64668195D01*
X118120774Y-64668188D01*
X118089095Y-64620777D01*
X118089094Y-64620775D01*
X118044114Y-64553457D01*
X118044112Y-64553454D01*
X116946545Y-63455887D01*
X116831807Y-63379222D01*
X116704332Y-63326421D01*
X116704322Y-63326418D01*
X116568996Y-63299500D01*
X116568994Y-63299500D01*
X116568993Y-63299500D01*
X106341519Y-63299500D01*
X106274480Y-63279815D01*
X106253838Y-63263181D01*
X105736819Y-62746162D01*
X105703334Y-62684839D01*
X105700500Y-62658481D01*
X105700500Y-55931004D01*
X105673581Y-55795677D01*
X105673580Y-55795676D01*
X105673580Y-55795672D01*
X105673578Y-55795667D01*
X105620778Y-55668195D01*
X105620774Y-55668188D01*
X105609762Y-55651707D01*
X105589094Y-55620775D01*
X105544114Y-55553457D01*
X105544112Y-55553454D01*
X104446545Y-54455887D01*
X104331807Y-54379222D01*
X104204332Y-54326421D01*
X104204322Y-54326418D01*
X104068996Y-54299500D01*
X104068994Y-54299500D01*
X104068993Y-54299500D01*
X101071518Y-54299500D01*
X101004479Y-54279815D01*
X100983837Y-54263181D01*
X100696819Y-53976162D01*
X100663334Y-53914839D01*
X100660500Y-53888481D01*
X100660500Y-52722711D01*
X100680185Y-52655672D01*
X100713377Y-52621136D01*
X100754519Y-52592328D01*
X100831401Y-52538495D01*
X100953329Y-52416566D01*
X101014648Y-52383084D01*
X101084340Y-52388068D01*
X101140274Y-52429939D01*
X101157189Y-52460917D01*
X101206202Y-52592328D01*
X101206206Y-52592335D01*
X101292452Y-52707544D01*
X101292455Y-52707547D01*
X101407664Y-52793793D01*
X101407671Y-52793797D01*
X101542517Y-52844091D01*
X101542516Y-52844091D01*
X101549444Y-52844835D01*
X101602127Y-52850500D01*
X103397872Y-52850499D01*
X103457483Y-52844091D01*
X103592331Y-52793796D01*
X103707546Y-52707546D01*
X103793796Y-52592331D01*
X103844091Y-52457483D01*
X103850500Y-52397873D01*
X103850499Y-50602128D01*
X103844091Y-50542517D01*
X103842810Y-50539083D01*
X103793797Y-50407671D01*
X103793793Y-50407664D01*
X103707547Y-50292455D01*
X103707544Y-50292452D01*
X103592335Y-50206206D01*
X103592328Y-50206202D01*
X103457482Y-50155908D01*
X103457483Y-50155908D01*
X103397883Y-50149501D01*
X103397881Y-50149500D01*
X103397873Y-50149500D01*
X103397864Y-50149500D01*
X101602129Y-50149500D01*
X101602123Y-50149501D01*
X101542516Y-50155908D01*
X101407671Y-50206202D01*
X101407664Y-50206206D01*
X101292455Y-50292452D01*
X101292452Y-50292455D01*
X101206206Y-50407664D01*
X101206203Y-50407669D01*
X101157189Y-50539083D01*
X101115317Y-50595016D01*
X101049853Y-50619433D01*
X100981580Y-50604581D01*
X100953326Y-50583430D01*
X100831402Y-50461506D01*
X100831395Y-50461501D01*
X100637834Y-50325967D01*
X100637830Y-50325965D01*
X100637828Y-50325964D01*
X100423663Y-50226097D01*
X100423659Y-50226096D01*
X100423655Y-50226094D01*
X100195413Y-50164938D01*
X100195403Y-50164936D01*
X99960001Y-50144341D01*
X99959999Y-50144341D01*
X99724596Y-50164936D01*
X99724586Y-50164938D01*
X99496344Y-50226094D01*
X99496335Y-50226098D01*
X99282171Y-50325964D01*
X99282169Y-50325965D01*
X99088597Y-50461505D01*
X98921508Y-50628594D01*
X98791269Y-50814595D01*
X98736692Y-50858219D01*
X98667193Y-50865412D01*
X98604839Y-50833890D01*
X98588119Y-50814594D01*
X98458113Y-50628926D01*
X98458108Y-50628920D01*
X98291082Y-50461894D01*
X98097578Y-50326399D01*
X97883492Y-50226570D01*
X97883486Y-50226567D01*
X97670000Y-50169364D01*
X97670000Y-51066988D01*
X97612993Y-51034075D01*
X97485826Y-51000000D01*
X97354174Y-51000000D01*
X97227007Y-51034075D01*
X97170000Y-51066988D01*
X97170000Y-50169364D01*
X97169999Y-50169364D01*
X96956513Y-50226567D01*
X96956507Y-50226570D01*
X96742422Y-50326399D01*
X96742420Y-50326400D01*
X96548926Y-50461886D01*
X96548920Y-50461891D01*
X96381891Y-50628920D01*
X96381886Y-50628926D01*
X96246400Y-50822420D01*
X96246399Y-50822422D01*
X96146570Y-51036507D01*
X96146567Y-51036513D01*
X96089364Y-51249999D01*
X96089364Y-51250000D01*
X96986988Y-51250000D01*
X96954075Y-51307007D01*
X96920000Y-51434174D01*
X96920000Y-51565826D01*
X96954075Y-51692993D01*
X96986988Y-51750000D01*
X96089364Y-51750000D01*
X96146567Y-51963486D01*
X96146570Y-51963492D01*
X96246399Y-52177578D01*
X96381894Y-52371082D01*
X96548917Y-52538105D01*
X96742421Y-52673600D01*
X96956507Y-52773429D01*
X96956516Y-52773433D01*
X97170000Y-52830634D01*
X97170000Y-51933012D01*
X97227007Y-51965925D01*
X97354174Y-52000000D01*
X97485826Y-52000000D01*
X97612993Y-51965925D01*
X97670000Y-51933012D01*
X97670000Y-52830633D01*
X97883483Y-52773433D01*
X97883492Y-52773429D01*
X98097578Y-52673600D01*
X98291082Y-52538105D01*
X98458105Y-52371082D01*
X98588119Y-52185405D01*
X98642696Y-52141781D01*
X98712195Y-52134588D01*
X98774549Y-52166110D01*
X98791269Y-52185405D01*
X98921505Y-52371401D01*
X98921506Y-52371402D01*
X99088597Y-52538494D01*
X99206623Y-52621136D01*
X99250248Y-52675713D01*
X99259500Y-52722711D01*
X99259500Y-54161006D01*
X99259500Y-54298994D01*
X99259500Y-54298996D01*
X99259499Y-54298996D01*
X99286418Y-54434322D01*
X99286421Y-54434332D01*
X99339222Y-54561807D01*
X99415887Y-54676545D01*
X99415888Y-54676546D01*
X100185886Y-55446542D01*
X100283458Y-55544114D01*
X100283459Y-55544115D01*
X100398182Y-55620771D01*
X100398186Y-55620773D01*
X100398189Y-55620775D01*
X100472866Y-55651707D01*
X100472867Y-55651707D01*
X100472869Y-55651709D01*
X100525666Y-55673578D01*
X100525671Y-55673580D01*
X100525680Y-55673581D01*
X100525681Y-55673582D01*
X100552545Y-55678925D01*
X100552551Y-55678926D01*
X100552591Y-55678934D01*
X100642937Y-55696905D01*
X100661006Y-55700500D01*
X100661007Y-55700500D01*
X103658481Y-55700500D01*
X103725520Y-55720185D01*
X103746162Y-55736819D01*
X104263181Y-56253838D01*
X104296666Y-56315161D01*
X104299500Y-56341519D01*
X104299500Y-62931006D01*
X104299500Y-63068994D01*
X104299500Y-63068996D01*
X104299499Y-63068996D01*
X104326418Y-63204322D01*
X104326421Y-63204332D01*
X104379222Y-63331807D01*
X104455887Y-63446545D01*
X105553454Y-64544112D01*
X105668192Y-64620777D01*
X105782657Y-64668189D01*
X105795672Y-64673580D01*
X105795676Y-64673580D01*
X105795677Y-64673581D01*
X105931003Y-64700500D01*
X105931006Y-64700500D01*
X105931007Y-64700500D01*
X116158481Y-64700500D01*
X116225520Y-64720185D01*
X116246162Y-64736819D01*
X116763181Y-65253838D01*
X116796666Y-65315161D01*
X116799500Y-65341519D01*
X116799500Y-83158481D01*
X116779815Y-83225520D01*
X116763181Y-83246162D01*
X115746162Y-84263181D01*
X115684839Y-84296666D01*
X115658481Y-84299500D01*
X115549097Y-84299500D01*
X115482058Y-84279815D01*
X115436303Y-84227011D01*
X115426359Y-84157853D01*
X115455384Y-84094297D01*
X115461416Y-84087819D01*
X115680520Y-83868716D01*
X115759577Y-83731784D01*
X115800501Y-83579057D01*
X115800501Y-83420942D01*
X115800501Y-83413347D01*
X115800500Y-83413329D01*
X115800500Y-81614796D01*
X115800501Y-81614783D01*
X115800501Y-81446680D01*
X115790433Y-81409105D01*
X115759577Y-81293952D01*
X115759573Y-81293945D01*
X115680524Y-81157026D01*
X115680518Y-81157018D01*
X114536819Y-80013319D01*
X114503334Y-79951996D01*
X114500500Y-79925638D01*
X114500500Y-68833961D01*
X114520185Y-68766922D01*
X114572094Y-68721580D01*
X114623662Y-68697534D01*
X114804620Y-68570826D01*
X114960826Y-68414620D01*
X115087534Y-68233662D01*
X115180894Y-68033450D01*
X115238070Y-67820068D01*
X115257323Y-67600000D01*
X115238070Y-67379932D01*
X115180894Y-67166550D01*
X115087534Y-66966339D01*
X114960826Y-66785380D01*
X114804620Y-66629174D01*
X114804616Y-66629171D01*
X114804615Y-66629170D01*
X114623666Y-66502468D01*
X114623662Y-66502466D01*
X114599500Y-66491199D01*
X114423450Y-66409106D01*
X114423447Y-66409105D01*
X114423445Y-66409104D01*
X114210070Y-66351930D01*
X114210062Y-66351929D01*
X113990002Y-66332677D01*
X113989998Y-66332677D01*
X113769937Y-66351929D01*
X113769929Y-66351930D01*
X113556554Y-66409104D01*
X113556548Y-66409107D01*
X113356340Y-66502465D01*
X113356338Y-66502466D01*
X113175377Y-66629175D01*
X113019175Y-66785377D01*
X112892466Y-66966338D01*
X112892465Y-66966340D01*
X112832382Y-67095189D01*
X112786209Y-67147628D01*
X112719016Y-67166780D01*
X112652135Y-67146564D01*
X112607618Y-67095189D01*
X112547534Y-66966340D01*
X112547533Y-66966338D01*
X112420827Y-66785381D01*
X112364862Y-66729416D01*
X112264620Y-66629174D01*
X112264616Y-66629171D01*
X112264615Y-66629170D01*
X112083666Y-66502468D01*
X112083662Y-66502466D01*
X112059500Y-66491199D01*
X111883450Y-66409106D01*
X111883447Y-66409105D01*
X111883445Y-66409104D01*
X111670070Y-66351930D01*
X111670062Y-66351929D01*
X111450002Y-66332677D01*
X111449998Y-66332677D01*
X111229937Y-66351929D01*
X111229929Y-66351930D01*
X111016554Y-66409104D01*
X111016548Y-66409107D01*
X110816340Y-66502465D01*
X110816338Y-66502466D01*
X110635377Y-66629175D01*
X110479175Y-66785377D01*
X110352466Y-66966338D01*
X110352465Y-66966340D01*
X110292382Y-67095189D01*
X110246209Y-67147628D01*
X110179016Y-67166780D01*
X110112135Y-67146564D01*
X110067618Y-67095189D01*
X110007534Y-66966340D01*
X110007533Y-66966338D01*
X109880827Y-66785381D01*
X109824862Y-66729416D01*
X109724620Y-66629174D01*
X109724616Y-66629171D01*
X109724615Y-66629170D01*
X109543666Y-66502468D01*
X109543662Y-66502466D01*
X109519500Y-66491199D01*
X109343450Y-66409106D01*
X109343447Y-66409105D01*
X109343445Y-66409104D01*
X109130070Y-66351930D01*
X109130062Y-66351929D01*
X108910002Y-66332677D01*
X108909998Y-66332677D01*
X108689937Y-66351929D01*
X108689929Y-66351930D01*
X108476554Y-66409104D01*
X108476548Y-66409107D01*
X108276340Y-66502465D01*
X108276338Y-66502466D01*
X108095377Y-66629175D01*
X107939175Y-66785377D01*
X107812466Y-66966338D01*
X107812465Y-66966340D01*
X107752382Y-67095189D01*
X107706209Y-67147628D01*
X107639016Y-67166780D01*
X107572135Y-67146564D01*
X107527618Y-67095189D01*
X107467534Y-66966340D01*
X107467533Y-66966338D01*
X107340827Y-66785381D01*
X107284862Y-66729416D01*
X107184620Y-66629174D01*
X107184616Y-66629171D01*
X107184615Y-66629170D01*
X107003666Y-66502468D01*
X107003662Y-66502466D01*
X106979500Y-66491199D01*
X106803450Y-66409106D01*
X106803447Y-66409105D01*
X106803445Y-66409104D01*
X106590070Y-66351930D01*
X106590062Y-66351929D01*
X106370002Y-66332677D01*
X106369998Y-66332677D01*
X106149937Y-66351929D01*
X106149929Y-66351930D01*
X105936554Y-66409104D01*
X105936548Y-66409107D01*
X105736340Y-66502465D01*
X105736338Y-66502466D01*
X105555377Y-66629175D01*
X105399175Y-66785377D01*
X105272466Y-66966338D01*
X105272465Y-66966340D01*
X105212382Y-67095189D01*
X105166209Y-67147628D01*
X105099016Y-67166780D01*
X105032135Y-67146564D01*
X104987618Y-67095189D01*
X104927534Y-66966340D01*
X104927533Y-66966338D01*
X104800827Y-66785381D01*
X104744862Y-66729416D01*
X104644620Y-66629174D01*
X104644616Y-66629171D01*
X104644615Y-66629170D01*
X104463666Y-66502468D01*
X104463662Y-66502466D01*
X104439500Y-66491199D01*
X104263450Y-66409106D01*
X104263447Y-66409105D01*
X104263445Y-66409104D01*
X104050070Y-66351930D01*
X104050062Y-66351929D01*
X103830002Y-66332677D01*
X103829998Y-66332677D01*
X103609937Y-66351929D01*
X103609929Y-66351930D01*
X103396554Y-66409104D01*
X103396548Y-66409107D01*
X103196340Y-66502465D01*
X103196338Y-66502466D01*
X103015377Y-66629175D01*
X102859175Y-66785377D01*
X102732466Y-66966338D01*
X102732465Y-66966340D01*
X102672382Y-67095189D01*
X102626209Y-67147628D01*
X102559016Y-67166780D01*
X102492135Y-67146564D01*
X102447618Y-67095189D01*
X102387534Y-66966340D01*
X102387533Y-66966338D01*
X102260827Y-66785381D01*
X102204862Y-66729416D01*
X102104620Y-66629174D01*
X102104616Y-66629171D01*
X102104615Y-66629170D01*
X101923666Y-66502468D01*
X101923662Y-66502466D01*
X101899500Y-66491199D01*
X101723450Y-66409106D01*
X101723447Y-66409105D01*
X101723445Y-66409104D01*
X101510070Y-66351930D01*
X101510062Y-66351929D01*
X101290002Y-66332677D01*
X101289998Y-66332677D01*
X101069937Y-66351929D01*
X101069929Y-66351930D01*
X100856554Y-66409104D01*
X100856548Y-66409107D01*
X100656340Y-66502465D01*
X100656338Y-66502466D01*
X100475377Y-66629175D01*
X100319175Y-66785377D01*
X100192466Y-66966338D01*
X100192465Y-66966340D01*
X100132382Y-67095189D01*
X100086209Y-67147628D01*
X100019016Y-67166780D01*
X99952135Y-67146564D01*
X99907618Y-67095189D01*
X99847534Y-66966340D01*
X99847533Y-66966338D01*
X99720827Y-66785381D01*
X99664862Y-66729416D01*
X99564620Y-66629174D01*
X99564616Y-66629171D01*
X99564615Y-66629170D01*
X99383666Y-66502468D01*
X99383662Y-66502466D01*
X99359500Y-66491199D01*
X99183450Y-66409106D01*
X99183447Y-66409105D01*
X99183445Y-66409104D01*
X98970070Y-66351930D01*
X98970062Y-66351929D01*
X98750002Y-66332677D01*
X98749998Y-66332677D01*
X98529937Y-66351929D01*
X98529929Y-66351930D01*
X98316554Y-66409104D01*
X98316548Y-66409107D01*
X98116340Y-66502465D01*
X98116338Y-66502466D01*
X97935377Y-66629175D01*
X97779175Y-66785377D01*
X97652466Y-66966338D01*
X97652465Y-66966340D01*
X97592382Y-67095189D01*
X97546209Y-67147628D01*
X97479016Y-67166780D01*
X97412135Y-67146564D01*
X97367618Y-67095189D01*
X97307534Y-66966340D01*
X97307533Y-66966338D01*
X97180827Y-66785381D01*
X97124862Y-66729416D01*
X97024620Y-66629174D01*
X97024616Y-66629171D01*
X97024615Y-66629170D01*
X96843666Y-66502468D01*
X96843662Y-66502466D01*
X96819500Y-66491199D01*
X96643450Y-66409106D01*
X96643447Y-66409105D01*
X96643445Y-66409104D01*
X96430070Y-66351930D01*
X96430062Y-66351929D01*
X96210002Y-66332677D01*
X96209998Y-66332677D01*
X95989937Y-66351929D01*
X95989929Y-66351930D01*
X95776554Y-66409104D01*
X95776542Y-66409109D01*
X95751163Y-66420943D01*
X95682085Y-66431434D01*
X95618302Y-66402912D01*
X95580064Y-66344435D01*
X95579000Y-66340704D01*
X95559577Y-66268216D01*
X95559573Y-66268209D01*
X95480524Y-66131290D01*
X95480518Y-66131282D01*
X94868717Y-65519481D01*
X94868716Y-65519480D01*
X94781904Y-65469360D01*
X94781904Y-65469359D01*
X94781900Y-65469358D01*
X94731785Y-65440423D01*
X94579057Y-65399499D01*
X94420943Y-65399499D01*
X94413347Y-65399499D01*
X94413331Y-65399500D01*
X75386670Y-65399500D01*
X75386654Y-65399499D01*
X75379058Y-65399499D01*
X75220943Y-65399499D01*
X75144579Y-65419961D01*
X75068214Y-65440423D01*
X75068209Y-65440426D01*
X74931290Y-65519475D01*
X74931282Y-65519481D01*
X74424217Y-66026546D01*
X74424214Y-66026548D01*
X74424215Y-66026549D01*
X74319478Y-66131286D01*
X74269361Y-66218094D01*
X74269359Y-66218096D01*
X74240425Y-66268209D01*
X74240424Y-66268210D01*
X74224544Y-66327472D01*
X74199499Y-66420943D01*
X74199499Y-66420945D01*
X74199499Y-66589046D01*
X74199500Y-66589059D01*
X74199500Y-73013330D01*
X74199499Y-73013348D01*
X74199499Y-73179054D01*
X74199498Y-73179054D01*
X74218171Y-73248739D01*
X74240423Y-73331785D01*
X74247820Y-73344596D01*
X74250651Y-73349500D01*
X74319477Y-73468712D01*
X74319479Y-73468715D01*
X74319480Y-73468716D01*
X74431284Y-73580520D01*
X74431285Y-73580521D01*
X74931284Y-74080520D01*
X74931286Y-74080521D01*
X74931290Y-74080524D01*
X75068209Y-74159573D01*
X75068216Y-74159577D01*
X75220943Y-74200501D01*
X75220945Y-74200501D01*
X75386654Y-74200501D01*
X75386670Y-74200500D01*
X77190500Y-74200500D01*
X77257539Y-74220185D01*
X77303294Y-74272989D01*
X77314500Y-74324500D01*
X77314500Y-76079847D01*
X77294815Y-76146886D01*
X77242011Y-76192641D01*
X77176617Y-76203067D01*
X77100004Y-76194435D01*
X77099996Y-76194435D01*
X76920750Y-76214630D01*
X76920745Y-76214631D01*
X76750476Y-76274211D01*
X76597736Y-76370185D01*
X76594903Y-76372445D01*
X76592724Y-76373334D01*
X76591842Y-76373889D01*
X76591744Y-76373734D01*
X76530217Y-76398855D01*
X76517588Y-76399500D01*
X73966528Y-76399500D01*
X73899489Y-76379815D01*
X73853734Y-76327011D01*
X73843000Y-76264693D01*
X73855659Y-76120001D01*
X73855659Y-76119999D01*
X73835063Y-75884596D01*
X73835063Y-75884592D01*
X73773903Y-75656337D01*
X73674035Y-75442171D01*
X73538495Y-75248599D01*
X73538494Y-75248597D01*
X73371402Y-75081506D01*
X73371396Y-75081501D01*
X73185842Y-74951575D01*
X73142217Y-74896998D01*
X73135023Y-74827500D01*
X73166546Y-74765145D01*
X73185842Y-74748425D01*
X73208026Y-74732891D01*
X73371401Y-74618495D01*
X73538495Y-74451401D01*
X73674035Y-74257830D01*
X73773903Y-74043663D01*
X73835063Y-73815408D01*
X73855659Y-73580000D01*
X73835063Y-73344592D01*
X73788626Y-73171285D01*
X73773905Y-73116344D01*
X73773904Y-73116343D01*
X73773903Y-73116337D01*
X73674035Y-72902171D01*
X73587592Y-72778716D01*
X73538494Y-72708597D01*
X73371402Y-72541506D01*
X73371396Y-72541501D01*
X73185842Y-72411575D01*
X73142217Y-72356998D01*
X73135023Y-72287500D01*
X73166546Y-72225145D01*
X73185842Y-72208425D01*
X73366702Y-72081785D01*
X73371401Y-72078495D01*
X73538495Y-71911401D01*
X73674035Y-71717830D01*
X73773903Y-71503663D01*
X73835063Y-71275408D01*
X73855659Y-71040000D01*
X73835063Y-70804592D01*
X73773903Y-70576337D01*
X73674035Y-70362171D01*
X73538495Y-70168599D01*
X73416567Y-70046671D01*
X73383084Y-69985351D01*
X73388068Y-69915659D01*
X73429939Y-69859725D01*
X73460915Y-69842810D01*
X73592331Y-69793796D01*
X73707546Y-69707546D01*
X73793796Y-69592331D01*
X73844091Y-69457483D01*
X73850500Y-69397873D01*
X73850499Y-67602128D01*
X73844091Y-67542517D01*
X73793796Y-67407669D01*
X73793795Y-67407668D01*
X73793793Y-67407664D01*
X73707547Y-67292455D01*
X73707544Y-67292452D01*
X73592335Y-67206206D01*
X73592328Y-67206202D01*
X73457482Y-67155908D01*
X73457483Y-67155908D01*
X73397883Y-67149501D01*
X73397881Y-67149500D01*
X73397873Y-67149500D01*
X73397864Y-67149500D01*
X71602129Y-67149500D01*
X71602123Y-67149501D01*
X71542516Y-67155908D01*
X71407671Y-67206202D01*
X71407664Y-67206206D01*
X71292455Y-67292452D01*
X71292452Y-67292455D01*
X71206206Y-67407664D01*
X71206202Y-67407671D01*
X71155908Y-67542517D01*
X71149728Y-67600002D01*
X71149501Y-67602123D01*
X71149500Y-67602135D01*
X71149500Y-69397870D01*
X71149501Y-69397876D01*
X71155908Y-69457483D01*
X71206202Y-69592328D01*
X71206206Y-69592335D01*
X71292452Y-69707544D01*
X71292455Y-69707547D01*
X71407664Y-69793793D01*
X71407671Y-69793797D01*
X71539081Y-69842810D01*
X71595015Y-69884681D01*
X71619432Y-69950145D01*
X71604580Y-70018418D01*
X71583430Y-70046673D01*
X71461503Y-70168600D01*
X71325965Y-70362169D01*
X71325964Y-70362171D01*
X71226098Y-70576335D01*
X71226094Y-70576344D01*
X71164938Y-70804586D01*
X71164936Y-70804596D01*
X71144341Y-71039999D01*
X70000500Y-71039999D01*
X70000500Y-54724500D01*
X70020185Y-54657461D01*
X70072989Y-54611706D01*
X70124500Y-54600500D01*
X73335752Y-54600500D01*
X73335760Y-54600500D01*
X73805827Y-54563505D01*
X74271543Y-54489743D01*
X74730035Y-54379669D01*
X75178478Y-54233961D01*
X75614106Y-54053518D01*
X76034234Y-53839452D01*
X76436271Y-53593083D01*
X76817740Y-53315930D01*
X77176287Y-53009702D01*
X77509702Y-52676287D01*
X77815930Y-52317740D01*
X78093083Y-51936271D01*
X78339452Y-51534234D01*
X78484277Y-51249999D01*
X86114364Y-51249999D01*
X86114364Y-51250000D01*
X87011988Y-51250000D01*
X86979075Y-51307007D01*
X86945000Y-51434174D01*
X86945000Y-51565826D01*
X86979075Y-51692993D01*
X87011988Y-51750000D01*
X86114364Y-51750000D01*
X86171567Y-51963486D01*
X86171570Y-51963492D01*
X86271399Y-52177578D01*
X86406894Y-52371082D01*
X86573917Y-52538105D01*
X86767421Y-52673600D01*
X86981507Y-52773429D01*
X86981516Y-52773433D01*
X87195000Y-52830634D01*
X87195000Y-51933012D01*
X87252007Y-51965925D01*
X87379174Y-52000000D01*
X87510826Y-52000000D01*
X87637993Y-51965925D01*
X87695000Y-51933012D01*
X87695000Y-52830633D01*
X87908483Y-52773433D01*
X87908492Y-52773429D01*
X88122578Y-52673600D01*
X88316082Y-52538105D01*
X88483105Y-52371082D01*
X88613119Y-52185405D01*
X88667696Y-52141781D01*
X88737195Y-52134588D01*
X88799549Y-52166110D01*
X88816269Y-52185405D01*
X88946505Y-52371401D01*
X89113599Y-52538495D01*
X89210384Y-52606265D01*
X89307165Y-52674032D01*
X89307167Y-52674033D01*
X89307170Y-52674035D01*
X89521337Y-52773903D01*
X89749592Y-52835063D01*
X89926034Y-52850500D01*
X89984999Y-52855659D01*
X89985000Y-52855659D01*
X89985001Y-52855659D01*
X90043966Y-52850500D01*
X90220408Y-52835063D01*
X90448663Y-52773903D01*
X90662830Y-52674035D01*
X90856401Y-52538495D01*
X90978329Y-52416566D01*
X91039648Y-52383084D01*
X91109340Y-52388068D01*
X91165274Y-52429939D01*
X91182189Y-52460917D01*
X91231202Y-52592328D01*
X91231206Y-52592335D01*
X91317452Y-52707544D01*
X91317455Y-52707547D01*
X91432664Y-52793793D01*
X91432671Y-52793797D01*
X91567517Y-52844091D01*
X91567516Y-52844091D01*
X91574444Y-52844835D01*
X91627127Y-52850500D01*
X93422872Y-52850499D01*
X93482483Y-52844091D01*
X93617331Y-52793796D01*
X93732546Y-52707546D01*
X93818796Y-52592331D01*
X93869091Y-52457483D01*
X93875500Y-52397873D01*
X93875499Y-50602128D01*
X93869091Y-50542517D01*
X93867810Y-50539083D01*
X93818797Y-50407671D01*
X93818793Y-50407664D01*
X93732547Y-50292455D01*
X93732544Y-50292452D01*
X93617335Y-50206206D01*
X93617328Y-50206202D01*
X93482482Y-50155908D01*
X93482483Y-50155908D01*
X93422883Y-50149501D01*
X93422881Y-50149500D01*
X93422873Y-50149500D01*
X93422864Y-50149500D01*
X91627129Y-50149500D01*
X91627123Y-50149501D01*
X91567516Y-50155908D01*
X91432671Y-50206202D01*
X91432664Y-50206206D01*
X91317455Y-50292452D01*
X91317452Y-50292455D01*
X91231206Y-50407664D01*
X91231203Y-50407669D01*
X91182189Y-50539083D01*
X91140317Y-50595016D01*
X91074853Y-50619433D01*
X91006580Y-50604581D01*
X90978326Y-50583430D01*
X90856402Y-50461506D01*
X90856395Y-50461501D01*
X90662834Y-50325967D01*
X90662830Y-50325965D01*
X90662828Y-50325964D01*
X90448663Y-50226097D01*
X90448659Y-50226096D01*
X90448655Y-50226094D01*
X90220413Y-50164938D01*
X90220403Y-50164936D01*
X89985001Y-50144341D01*
X89984999Y-50144341D01*
X89749596Y-50164936D01*
X89749586Y-50164938D01*
X89521344Y-50226094D01*
X89521335Y-50226098D01*
X89307171Y-50325964D01*
X89307169Y-50325965D01*
X89113597Y-50461505D01*
X88946508Y-50628594D01*
X88816269Y-50814595D01*
X88761692Y-50858219D01*
X88692193Y-50865412D01*
X88629839Y-50833890D01*
X88613119Y-50814594D01*
X88483113Y-50628926D01*
X88483108Y-50628920D01*
X88316082Y-50461894D01*
X88122578Y-50326399D01*
X87908492Y-50226570D01*
X87908486Y-50226567D01*
X87695000Y-50169364D01*
X87695000Y-51066988D01*
X87637993Y-51034075D01*
X87510826Y-51000000D01*
X87379174Y-51000000D01*
X87252007Y-51034075D01*
X87195000Y-51066988D01*
X87195000Y-50169364D01*
X87194999Y-50169364D01*
X86981513Y-50226567D01*
X86981507Y-50226570D01*
X86767422Y-50326399D01*
X86767420Y-50326400D01*
X86573926Y-50461886D01*
X86573920Y-50461891D01*
X86406891Y-50628920D01*
X86406886Y-50628926D01*
X86271400Y-50822420D01*
X86271399Y-50822422D01*
X86171570Y-51036507D01*
X86171567Y-51036513D01*
X86114364Y-51249999D01*
X78484277Y-51249999D01*
X78553518Y-51114106D01*
X78733961Y-50678478D01*
X78879669Y-50230035D01*
X78989743Y-49771543D01*
X79063505Y-49305827D01*
X79100500Y-48835760D01*
X79100500Y-48600000D01*
X79100500Y-48534108D01*
X79100500Y-45624500D01*
X79120185Y-45557461D01*
X79172989Y-45511706D01*
X79224500Y-45500500D01*
X80362851Y-45500500D01*
X80429890Y-45520185D01*
G37*
G04 #@! TD.AperFunction*
M02*
