G04 #@! TF.GenerationSoftware,KiCad,Pcbnew,8.0.2*
G04 #@! TF.CreationDate,2024-08-16T15:41:43+09:00*
G04 #@! TF.ProjectId,compatible_chan-v0-led,636f6d70-6174-4696-926c-655f6368616e,rev?*
G04 #@! TF.SameCoordinates,Original*
G04 #@! TF.FileFunction,Legend,Top*
G04 #@! TF.FilePolarity,Positive*
%FSLAX46Y46*%
G04 Gerber Fmt 4.6, Leading zero omitted, Abs format (unit mm)*
G04 Created by KiCad (PCBNEW 8.0.2) date 2024-08-16 15:41:43*
%MOMM*%
%LPD*%
G01*
G04 APERTURE LIST*
%ADD10C,0.100000*%
%ADD11C,0.200000*%
%ADD12C,0.150000*%
%ADD13C,0.120000*%
%ADD14C,3.800000*%
%ADD15C,1.524000*%
%ADD16C,1.600000*%
%ADD17O,1.600000X1.600000*%
%ADD18R,1.700000X1.700000*%
%ADD19O,1.700000X1.700000*%
G04 APERTURE END LIST*
D10*
X74250000Y-55000000D02*
X115750000Y-55000000D01*
X115750000Y-86000000D01*
X74250000Y-86000000D01*
X74250000Y-55000000D01*
D11*
X98201754Y-61956266D02*
X97535087Y-61956266D01*
X97535087Y-61956266D02*
X97535087Y-60556266D01*
X98668420Y-61956266D02*
X98668420Y-60556266D01*
X100135087Y-61822933D02*
X100068420Y-61889600D01*
X100068420Y-61889600D02*
X99868420Y-61956266D01*
X99868420Y-61956266D02*
X99735087Y-61956266D01*
X99735087Y-61956266D02*
X99535087Y-61889600D01*
X99535087Y-61889600D02*
X99401754Y-61756266D01*
X99401754Y-61756266D02*
X99335087Y-61622933D01*
X99335087Y-61622933D02*
X99268420Y-61356266D01*
X99268420Y-61356266D02*
X99268420Y-61156266D01*
X99268420Y-61156266D02*
X99335087Y-60889600D01*
X99335087Y-60889600D02*
X99401754Y-60756266D01*
X99401754Y-60756266D02*
X99535087Y-60622933D01*
X99535087Y-60622933D02*
X99735087Y-60556266D01*
X99735087Y-60556266D02*
X99868420Y-60556266D01*
X99868420Y-60556266D02*
X100068420Y-60622933D01*
X100068420Y-60622933D02*
X100135087Y-60689600D01*
X100735087Y-61222933D02*
X101201754Y-61222933D01*
X101401754Y-61956266D02*
X100735087Y-61956266D01*
X100735087Y-61956266D02*
X100735087Y-60556266D01*
X100735087Y-60556266D02*
X101401754Y-60556266D01*
X102001754Y-61956266D02*
X102001754Y-60556266D01*
X102001754Y-60556266D02*
X102801754Y-61956266D01*
X102801754Y-61956266D02*
X102801754Y-60556266D01*
X103401754Y-61889600D02*
X103601754Y-61956266D01*
X103601754Y-61956266D02*
X103935088Y-61956266D01*
X103935088Y-61956266D02*
X104068421Y-61889600D01*
X104068421Y-61889600D02*
X104135088Y-61822933D01*
X104135088Y-61822933D02*
X104201754Y-61689600D01*
X104201754Y-61689600D02*
X104201754Y-61556266D01*
X104201754Y-61556266D02*
X104135088Y-61422933D01*
X104135088Y-61422933D02*
X104068421Y-61356266D01*
X104068421Y-61356266D02*
X103935088Y-61289600D01*
X103935088Y-61289600D02*
X103668421Y-61222933D01*
X103668421Y-61222933D02*
X103535088Y-61156266D01*
X103535088Y-61156266D02*
X103468421Y-61089600D01*
X103468421Y-61089600D02*
X103401754Y-60956266D01*
X103401754Y-60956266D02*
X103401754Y-60822933D01*
X103401754Y-60822933D02*
X103468421Y-60689600D01*
X103468421Y-60689600D02*
X103535088Y-60622933D01*
X103535088Y-60622933D02*
X103668421Y-60556266D01*
X103668421Y-60556266D02*
X104001754Y-60556266D01*
X104001754Y-60556266D02*
X104201754Y-60622933D01*
X104801754Y-61222933D02*
X105268421Y-61222933D01*
X105468421Y-61956266D02*
X104801754Y-61956266D01*
X104801754Y-61956266D02*
X104801754Y-60556266D01*
X104801754Y-60556266D02*
X105468421Y-60556266D01*
X107135088Y-61822933D02*
X107201755Y-61889600D01*
X107201755Y-61889600D02*
X107135088Y-61956266D01*
X107135088Y-61956266D02*
X107068421Y-61889600D01*
X107068421Y-61889600D02*
X107135088Y-61822933D01*
X107135088Y-61822933D02*
X107135088Y-61956266D01*
X107135088Y-61089600D02*
X107201755Y-61156266D01*
X107201755Y-61156266D02*
X107135088Y-61222933D01*
X107135088Y-61222933D02*
X107068421Y-61156266D01*
X107068421Y-61156266D02*
X107135088Y-61089600D01*
X107135088Y-61089600D02*
X107135088Y-61222933D01*
X109601755Y-60622933D02*
X109468422Y-60556266D01*
X109468422Y-60556266D02*
X109268422Y-60556266D01*
X109268422Y-60556266D02*
X109068422Y-60622933D01*
X109068422Y-60622933D02*
X108935089Y-60756266D01*
X108935089Y-60756266D02*
X108868422Y-60889600D01*
X108868422Y-60889600D02*
X108801755Y-61156266D01*
X108801755Y-61156266D02*
X108801755Y-61356266D01*
X108801755Y-61356266D02*
X108868422Y-61622933D01*
X108868422Y-61622933D02*
X108935089Y-61756266D01*
X108935089Y-61756266D02*
X109068422Y-61889600D01*
X109068422Y-61889600D02*
X109268422Y-61956266D01*
X109268422Y-61956266D02*
X109401755Y-61956266D01*
X109401755Y-61956266D02*
X109601755Y-61889600D01*
X109601755Y-61889600D02*
X109668422Y-61822933D01*
X109668422Y-61822933D02*
X109668422Y-61356266D01*
X109668422Y-61356266D02*
X109401755Y-61356266D01*
X110268422Y-61956266D02*
X110268422Y-60556266D01*
X110268422Y-60556266D02*
X110801755Y-60556266D01*
X110801755Y-60556266D02*
X110935089Y-60622933D01*
X110935089Y-60622933D02*
X111001755Y-60689600D01*
X111001755Y-60689600D02*
X111068422Y-60822933D01*
X111068422Y-60822933D02*
X111068422Y-61022933D01*
X111068422Y-61022933D02*
X111001755Y-61156266D01*
X111001755Y-61156266D02*
X110935089Y-61222933D01*
X110935089Y-61222933D02*
X110801755Y-61289600D01*
X110801755Y-61289600D02*
X110268422Y-61289600D01*
X112335089Y-61956266D02*
X111668422Y-61956266D01*
X111668422Y-61956266D02*
X111668422Y-60556266D01*
X112668422Y-61022933D02*
X113001755Y-61956266D01*
X113001755Y-61956266D02*
X113335088Y-61022933D01*
X113735089Y-60556266D02*
X114601755Y-60556266D01*
X114601755Y-60556266D02*
X114135089Y-61089600D01*
X114135089Y-61089600D02*
X114335089Y-61089600D01*
X114335089Y-61089600D02*
X114468422Y-61156266D01*
X114468422Y-61156266D02*
X114535089Y-61222933D01*
X114535089Y-61222933D02*
X114601755Y-61356266D01*
X114601755Y-61356266D02*
X114601755Y-61689600D01*
X114601755Y-61689600D02*
X114535089Y-61822933D01*
X114535089Y-61822933D02*
X114468422Y-61889600D01*
X114468422Y-61889600D02*
X114335089Y-61956266D01*
X114335089Y-61956266D02*
X113935089Y-61956266D01*
X113935089Y-61956266D02*
X113801755Y-61889600D01*
X113801755Y-61889600D02*
X113735089Y-61822933D01*
D10*
X93577071Y-56832895D02*
X93515167Y-56894800D01*
X93515167Y-56894800D02*
X93329452Y-56956704D01*
X93329452Y-56956704D02*
X93205643Y-56956704D01*
X93205643Y-56956704D02*
X93019929Y-56894800D01*
X93019929Y-56894800D02*
X92896119Y-56770990D01*
X92896119Y-56770990D02*
X92834214Y-56647180D01*
X92834214Y-56647180D02*
X92772310Y-56399561D01*
X92772310Y-56399561D02*
X92772310Y-56213847D01*
X92772310Y-56213847D02*
X92834214Y-55966228D01*
X92834214Y-55966228D02*
X92896119Y-55842419D01*
X92896119Y-55842419D02*
X93019929Y-55718609D01*
X93019929Y-55718609D02*
X93205643Y-55656704D01*
X93205643Y-55656704D02*
X93329452Y-55656704D01*
X93329452Y-55656704D02*
X93515167Y-55718609D01*
X93515167Y-55718609D02*
X93577071Y-55780514D01*
X94319929Y-56956704D02*
X94196119Y-56894800D01*
X94196119Y-56894800D02*
X94134214Y-56832895D01*
X94134214Y-56832895D02*
X94072310Y-56709085D01*
X94072310Y-56709085D02*
X94072310Y-56337657D01*
X94072310Y-56337657D02*
X94134214Y-56213847D01*
X94134214Y-56213847D02*
X94196119Y-56151942D01*
X94196119Y-56151942D02*
X94319929Y-56090038D01*
X94319929Y-56090038D02*
X94505643Y-56090038D01*
X94505643Y-56090038D02*
X94629452Y-56151942D01*
X94629452Y-56151942D02*
X94691357Y-56213847D01*
X94691357Y-56213847D02*
X94753262Y-56337657D01*
X94753262Y-56337657D02*
X94753262Y-56709085D01*
X94753262Y-56709085D02*
X94691357Y-56832895D01*
X94691357Y-56832895D02*
X94629452Y-56894800D01*
X94629452Y-56894800D02*
X94505643Y-56956704D01*
X94505643Y-56956704D02*
X94319929Y-56956704D01*
X95310404Y-56956704D02*
X95310404Y-56090038D01*
X95310404Y-56213847D02*
X95372309Y-56151942D01*
X95372309Y-56151942D02*
X95496119Y-56090038D01*
X95496119Y-56090038D02*
X95681833Y-56090038D01*
X95681833Y-56090038D02*
X95805642Y-56151942D01*
X95805642Y-56151942D02*
X95867547Y-56275752D01*
X95867547Y-56275752D02*
X95867547Y-56956704D01*
X95867547Y-56275752D02*
X95929452Y-56151942D01*
X95929452Y-56151942D02*
X96053261Y-56090038D01*
X96053261Y-56090038D02*
X96238976Y-56090038D01*
X96238976Y-56090038D02*
X96362785Y-56151942D01*
X96362785Y-56151942D02*
X96424690Y-56275752D01*
X96424690Y-56275752D02*
X96424690Y-56956704D01*
X97043737Y-56090038D02*
X97043737Y-57390038D01*
X97043737Y-56151942D02*
X97167547Y-56090038D01*
X97167547Y-56090038D02*
X97415166Y-56090038D01*
X97415166Y-56090038D02*
X97538975Y-56151942D01*
X97538975Y-56151942D02*
X97600880Y-56213847D01*
X97600880Y-56213847D02*
X97662785Y-56337657D01*
X97662785Y-56337657D02*
X97662785Y-56709085D01*
X97662785Y-56709085D02*
X97600880Y-56832895D01*
X97600880Y-56832895D02*
X97538975Y-56894800D01*
X97538975Y-56894800D02*
X97415166Y-56956704D01*
X97415166Y-56956704D02*
X97167547Y-56956704D01*
X97167547Y-56956704D02*
X97043737Y-56894800D01*
X98777070Y-56956704D02*
X98777070Y-56275752D01*
X98777070Y-56275752D02*
X98715165Y-56151942D01*
X98715165Y-56151942D02*
X98591356Y-56090038D01*
X98591356Y-56090038D02*
X98343737Y-56090038D01*
X98343737Y-56090038D02*
X98219927Y-56151942D01*
X98777070Y-56894800D02*
X98653261Y-56956704D01*
X98653261Y-56956704D02*
X98343737Y-56956704D01*
X98343737Y-56956704D02*
X98219927Y-56894800D01*
X98219927Y-56894800D02*
X98158023Y-56770990D01*
X98158023Y-56770990D02*
X98158023Y-56647180D01*
X98158023Y-56647180D02*
X98219927Y-56523371D01*
X98219927Y-56523371D02*
X98343737Y-56461466D01*
X98343737Y-56461466D02*
X98653261Y-56461466D01*
X98653261Y-56461466D02*
X98777070Y-56399561D01*
X99210403Y-56090038D02*
X99705641Y-56090038D01*
X99396117Y-55656704D02*
X99396117Y-56770990D01*
X99396117Y-56770990D02*
X99458022Y-56894800D01*
X99458022Y-56894800D02*
X99581832Y-56956704D01*
X99581832Y-56956704D02*
X99705641Y-56956704D01*
X100138974Y-56956704D02*
X100138974Y-56090038D01*
X100138974Y-55656704D02*
X100077070Y-55718609D01*
X100077070Y-55718609D02*
X100138974Y-55780514D01*
X100138974Y-55780514D02*
X100200879Y-55718609D01*
X100200879Y-55718609D02*
X100138974Y-55656704D01*
X100138974Y-55656704D02*
X100138974Y-55780514D01*
X100758022Y-56956704D02*
X100758022Y-55656704D01*
X100758022Y-56151942D02*
X100881832Y-56090038D01*
X100881832Y-56090038D02*
X101129451Y-56090038D01*
X101129451Y-56090038D02*
X101253260Y-56151942D01*
X101253260Y-56151942D02*
X101315165Y-56213847D01*
X101315165Y-56213847D02*
X101377070Y-56337657D01*
X101377070Y-56337657D02*
X101377070Y-56709085D01*
X101377070Y-56709085D02*
X101315165Y-56832895D01*
X101315165Y-56832895D02*
X101253260Y-56894800D01*
X101253260Y-56894800D02*
X101129451Y-56956704D01*
X101129451Y-56956704D02*
X100881832Y-56956704D01*
X100881832Y-56956704D02*
X100758022Y-56894800D01*
X102119927Y-56956704D02*
X101996117Y-56894800D01*
X101996117Y-56894800D02*
X101934212Y-56770990D01*
X101934212Y-56770990D02*
X101934212Y-55656704D01*
X103110402Y-56894800D02*
X102986593Y-56956704D01*
X102986593Y-56956704D02*
X102738974Y-56956704D01*
X102738974Y-56956704D02*
X102615164Y-56894800D01*
X102615164Y-56894800D02*
X102553260Y-56770990D01*
X102553260Y-56770990D02*
X102553260Y-56275752D01*
X102553260Y-56275752D02*
X102615164Y-56151942D01*
X102615164Y-56151942D02*
X102738974Y-56090038D01*
X102738974Y-56090038D02*
X102986593Y-56090038D01*
X102986593Y-56090038D02*
X103110402Y-56151942D01*
X103110402Y-56151942D02*
X103172307Y-56275752D01*
X103172307Y-56275752D02*
X103172307Y-56399561D01*
X103172307Y-56399561D02*
X102553260Y-56523371D01*
X103729450Y-56461466D02*
X104719927Y-56461466D01*
X106081831Y-56832895D02*
X106019927Y-56894800D01*
X106019927Y-56894800D02*
X105834212Y-56956704D01*
X105834212Y-56956704D02*
X105710403Y-56956704D01*
X105710403Y-56956704D02*
X105524689Y-56894800D01*
X105524689Y-56894800D02*
X105400879Y-56770990D01*
X105400879Y-56770990D02*
X105338974Y-56647180D01*
X105338974Y-56647180D02*
X105277070Y-56399561D01*
X105277070Y-56399561D02*
X105277070Y-56213847D01*
X105277070Y-56213847D02*
X105338974Y-55966228D01*
X105338974Y-55966228D02*
X105400879Y-55842419D01*
X105400879Y-55842419D02*
X105524689Y-55718609D01*
X105524689Y-55718609D02*
X105710403Y-55656704D01*
X105710403Y-55656704D02*
X105834212Y-55656704D01*
X105834212Y-55656704D02*
X106019927Y-55718609D01*
X106019927Y-55718609D02*
X106081831Y-55780514D01*
X106638974Y-56956704D02*
X106638974Y-55656704D01*
X107196117Y-56956704D02*
X107196117Y-56275752D01*
X107196117Y-56275752D02*
X107134212Y-56151942D01*
X107134212Y-56151942D02*
X107010403Y-56090038D01*
X107010403Y-56090038D02*
X106824689Y-56090038D01*
X106824689Y-56090038D02*
X106700879Y-56151942D01*
X106700879Y-56151942D02*
X106638974Y-56213847D01*
X108372307Y-56956704D02*
X108372307Y-56275752D01*
X108372307Y-56275752D02*
X108310402Y-56151942D01*
X108310402Y-56151942D02*
X108186593Y-56090038D01*
X108186593Y-56090038D02*
X107938974Y-56090038D01*
X107938974Y-56090038D02*
X107815164Y-56151942D01*
X108372307Y-56894800D02*
X108248498Y-56956704D01*
X108248498Y-56956704D02*
X107938974Y-56956704D01*
X107938974Y-56956704D02*
X107815164Y-56894800D01*
X107815164Y-56894800D02*
X107753260Y-56770990D01*
X107753260Y-56770990D02*
X107753260Y-56647180D01*
X107753260Y-56647180D02*
X107815164Y-56523371D01*
X107815164Y-56523371D02*
X107938974Y-56461466D01*
X107938974Y-56461466D02*
X108248498Y-56461466D01*
X108248498Y-56461466D02*
X108372307Y-56399561D01*
X108991354Y-56090038D02*
X108991354Y-56956704D01*
X108991354Y-56213847D02*
X109053259Y-56151942D01*
X109053259Y-56151942D02*
X109177069Y-56090038D01*
X109177069Y-56090038D02*
X109362783Y-56090038D01*
X109362783Y-56090038D02*
X109486592Y-56151942D01*
X109486592Y-56151942D02*
X109548497Y-56275752D01*
X109548497Y-56275752D02*
X109548497Y-56956704D01*
X111034211Y-56090038D02*
X111343735Y-56956704D01*
X111343735Y-56956704D02*
X111653258Y-56090038D01*
X112396115Y-55656704D02*
X112519925Y-55656704D01*
X112519925Y-55656704D02*
X112643734Y-55718609D01*
X112643734Y-55718609D02*
X112705639Y-55780514D01*
X112705639Y-55780514D02*
X112767544Y-55904323D01*
X112767544Y-55904323D02*
X112829449Y-56151942D01*
X112829449Y-56151942D02*
X112829449Y-56461466D01*
X112829449Y-56461466D02*
X112767544Y-56709085D01*
X112767544Y-56709085D02*
X112705639Y-56832895D01*
X112705639Y-56832895D02*
X112643734Y-56894800D01*
X112643734Y-56894800D02*
X112519925Y-56956704D01*
X112519925Y-56956704D02*
X112396115Y-56956704D01*
X112396115Y-56956704D02*
X112272306Y-56894800D01*
X112272306Y-56894800D02*
X112210401Y-56832895D01*
X112210401Y-56832895D02*
X112148496Y-56709085D01*
X112148496Y-56709085D02*
X112086592Y-56461466D01*
X112086592Y-56461466D02*
X112086592Y-56151942D01*
X112086592Y-56151942D02*
X112148496Y-55904323D01*
X112148496Y-55904323D02*
X112210401Y-55780514D01*
X112210401Y-55780514D02*
X112272306Y-55718609D01*
X112272306Y-55718609D02*
X112396115Y-55656704D01*
X113386591Y-56832895D02*
X113448496Y-56894800D01*
X113448496Y-56894800D02*
X113386591Y-56956704D01*
X113386591Y-56956704D02*
X113324687Y-56894800D01*
X113324687Y-56894800D02*
X113386591Y-56832895D01*
X113386591Y-56832895D02*
X113386591Y-56956704D01*
X114686592Y-56956704D02*
X113943735Y-56956704D01*
X114315163Y-56956704D02*
X114315163Y-55656704D01*
X114315163Y-55656704D02*
X114191354Y-55842419D01*
X114191354Y-55842419D02*
X114067544Y-55966228D01*
X114067544Y-55966228D02*
X113943735Y-56028133D01*
X91100877Y-59482965D02*
X90791353Y-59482965D01*
X90791353Y-59482965D02*
X90791353Y-57625822D01*
X90791353Y-57625822D02*
X91100877Y-57625822D01*
X91596115Y-59049631D02*
X91596115Y-57749631D01*
X91596115Y-57749631D02*
X92091353Y-57749631D01*
X92091353Y-57749631D02*
X92215163Y-57811536D01*
X92215163Y-57811536D02*
X92277068Y-57873441D01*
X92277068Y-57873441D02*
X92338972Y-57997250D01*
X92338972Y-57997250D02*
X92338972Y-58182965D01*
X92338972Y-58182965D02*
X92277068Y-58306774D01*
X92277068Y-58306774D02*
X92215163Y-58368679D01*
X92215163Y-58368679D02*
X92091353Y-58430584D01*
X92091353Y-58430584D02*
X91596115Y-58430584D01*
X93638972Y-59049631D02*
X93205639Y-58430584D01*
X92896115Y-59049631D02*
X92896115Y-57749631D01*
X92896115Y-57749631D02*
X93391353Y-57749631D01*
X93391353Y-57749631D02*
X93515163Y-57811536D01*
X93515163Y-57811536D02*
X93577068Y-57873441D01*
X93577068Y-57873441D02*
X93638972Y-57997250D01*
X93638972Y-57997250D02*
X93638972Y-58182965D01*
X93638972Y-58182965D02*
X93577068Y-58306774D01*
X93577068Y-58306774D02*
X93515163Y-58368679D01*
X93515163Y-58368679D02*
X93391353Y-58430584D01*
X93391353Y-58430584D02*
X92896115Y-58430584D01*
X94443734Y-57749631D02*
X94691353Y-57749631D01*
X94691353Y-57749631D02*
X94815163Y-57811536D01*
X94815163Y-57811536D02*
X94938972Y-57935346D01*
X94938972Y-57935346D02*
X95000877Y-58182965D01*
X95000877Y-58182965D02*
X95000877Y-58616298D01*
X95000877Y-58616298D02*
X94938972Y-58863917D01*
X94938972Y-58863917D02*
X94815163Y-58987727D01*
X94815163Y-58987727D02*
X94691353Y-59049631D01*
X94691353Y-59049631D02*
X94443734Y-59049631D01*
X94443734Y-59049631D02*
X94319925Y-58987727D01*
X94319925Y-58987727D02*
X94196115Y-58863917D01*
X94196115Y-58863917D02*
X94134211Y-58616298D01*
X94134211Y-58616298D02*
X94134211Y-58182965D01*
X94134211Y-58182965D02*
X94196115Y-57935346D01*
X94196115Y-57935346D02*
X94319925Y-57811536D01*
X94319925Y-57811536D02*
X94443734Y-57749631D01*
X95372306Y-57749631D02*
X96115163Y-57749631D01*
X95743735Y-59049631D02*
X95743735Y-57749631D01*
X96796115Y-57749631D02*
X97043734Y-57749631D01*
X97043734Y-57749631D02*
X97167544Y-57811536D01*
X97167544Y-57811536D02*
X97291353Y-57935346D01*
X97291353Y-57935346D02*
X97353258Y-58182965D01*
X97353258Y-58182965D02*
X97353258Y-58616298D01*
X97353258Y-58616298D02*
X97291353Y-58863917D01*
X97291353Y-58863917D02*
X97167544Y-58987727D01*
X97167544Y-58987727D02*
X97043734Y-59049631D01*
X97043734Y-59049631D02*
X96796115Y-59049631D01*
X96796115Y-59049631D02*
X96672306Y-58987727D01*
X96672306Y-58987727D02*
X96548496Y-58863917D01*
X96548496Y-58863917D02*
X96486592Y-58616298D01*
X96486592Y-58616298D02*
X96486592Y-58182965D01*
X96486592Y-58182965D02*
X96548496Y-57935346D01*
X96548496Y-57935346D02*
X96672306Y-57811536D01*
X96672306Y-57811536D02*
X96796115Y-57749631D01*
X97724687Y-57749631D02*
X98467544Y-57749631D01*
X98096116Y-59049631D02*
X98096116Y-57749631D01*
X99148496Y-58430584D02*
X99148496Y-59049631D01*
X98715163Y-57749631D02*
X99148496Y-58430584D01*
X99148496Y-58430584D02*
X99581830Y-57749631D01*
X100015163Y-59049631D02*
X100015163Y-57749631D01*
X100015163Y-57749631D02*
X100510401Y-57749631D01*
X100510401Y-57749631D02*
X100634211Y-57811536D01*
X100634211Y-57811536D02*
X100696116Y-57873441D01*
X100696116Y-57873441D02*
X100758020Y-57997250D01*
X100758020Y-57997250D02*
X100758020Y-58182965D01*
X100758020Y-58182965D02*
X100696116Y-58306774D01*
X100696116Y-58306774D02*
X100634211Y-58368679D01*
X100634211Y-58368679D02*
X100510401Y-58430584D01*
X100510401Y-58430584D02*
X100015163Y-58430584D01*
X101315163Y-58368679D02*
X101748497Y-58368679D01*
X101934211Y-59049631D02*
X101315163Y-59049631D01*
X101315163Y-59049631D02*
X101315163Y-57749631D01*
X101315163Y-57749631D02*
X101934211Y-57749631D01*
X103358020Y-57749631D02*
X104224686Y-57749631D01*
X104224686Y-57749631D02*
X103667544Y-59049631D01*
X104905639Y-58306774D02*
X104781829Y-58244869D01*
X104781829Y-58244869D02*
X104719924Y-58182965D01*
X104719924Y-58182965D02*
X104658020Y-58059155D01*
X104658020Y-58059155D02*
X104658020Y-57997250D01*
X104658020Y-57997250D02*
X104719924Y-57873441D01*
X104719924Y-57873441D02*
X104781829Y-57811536D01*
X104781829Y-57811536D02*
X104905639Y-57749631D01*
X104905639Y-57749631D02*
X105153258Y-57749631D01*
X105153258Y-57749631D02*
X105277067Y-57811536D01*
X105277067Y-57811536D02*
X105338972Y-57873441D01*
X105338972Y-57873441D02*
X105400877Y-57997250D01*
X105400877Y-57997250D02*
X105400877Y-58059155D01*
X105400877Y-58059155D02*
X105338972Y-58182965D01*
X105338972Y-58182965D02*
X105277067Y-58244869D01*
X105277067Y-58244869D02*
X105153258Y-58306774D01*
X105153258Y-58306774D02*
X104905639Y-58306774D01*
X104905639Y-58306774D02*
X104781829Y-58368679D01*
X104781829Y-58368679D02*
X104719924Y-58430584D01*
X104719924Y-58430584D02*
X104658020Y-58554393D01*
X104658020Y-58554393D02*
X104658020Y-58802012D01*
X104658020Y-58802012D02*
X104719924Y-58925822D01*
X104719924Y-58925822D02*
X104781829Y-58987727D01*
X104781829Y-58987727D02*
X104905639Y-59049631D01*
X104905639Y-59049631D02*
X105153258Y-59049631D01*
X105153258Y-59049631D02*
X105277067Y-58987727D01*
X105277067Y-58987727D02*
X105338972Y-58925822D01*
X105338972Y-58925822D02*
X105400877Y-58802012D01*
X105400877Y-58802012D02*
X105400877Y-58554393D01*
X105400877Y-58554393D02*
X105338972Y-58430584D01*
X105338972Y-58430584D02*
X105277067Y-58368679D01*
X105277067Y-58368679D02*
X105153258Y-58306774D01*
X106143734Y-58306774D02*
X106019924Y-58244869D01*
X106019924Y-58244869D02*
X105958019Y-58182965D01*
X105958019Y-58182965D02*
X105896115Y-58059155D01*
X105896115Y-58059155D02*
X105896115Y-57997250D01*
X105896115Y-57997250D02*
X105958019Y-57873441D01*
X105958019Y-57873441D02*
X106019924Y-57811536D01*
X106019924Y-57811536D02*
X106143734Y-57749631D01*
X106143734Y-57749631D02*
X106391353Y-57749631D01*
X106391353Y-57749631D02*
X106515162Y-57811536D01*
X106515162Y-57811536D02*
X106577067Y-57873441D01*
X106577067Y-57873441D02*
X106638972Y-57997250D01*
X106638972Y-57997250D02*
X106638972Y-58059155D01*
X106638972Y-58059155D02*
X106577067Y-58182965D01*
X106577067Y-58182965D02*
X106515162Y-58244869D01*
X106515162Y-58244869D02*
X106391353Y-58306774D01*
X106391353Y-58306774D02*
X106143734Y-58306774D01*
X106143734Y-58306774D02*
X106019924Y-58368679D01*
X106019924Y-58368679D02*
X105958019Y-58430584D01*
X105958019Y-58430584D02*
X105896115Y-58554393D01*
X105896115Y-58554393D02*
X105896115Y-58802012D01*
X105896115Y-58802012D02*
X105958019Y-58925822D01*
X105958019Y-58925822D02*
X106019924Y-58987727D01*
X106019924Y-58987727D02*
X106143734Y-59049631D01*
X106143734Y-59049631D02*
X106391353Y-59049631D01*
X106391353Y-59049631D02*
X106515162Y-58987727D01*
X106515162Y-58987727D02*
X106577067Y-58925822D01*
X106577067Y-58925822D02*
X106638972Y-58802012D01*
X106638972Y-58802012D02*
X106638972Y-58554393D01*
X106638972Y-58554393D02*
X106577067Y-58430584D01*
X106577067Y-58430584D02*
X106515162Y-58368679D01*
X106515162Y-58368679D02*
X106391353Y-58306774D01*
X107629448Y-58368679D02*
X107815162Y-58430584D01*
X107815162Y-58430584D02*
X107877067Y-58492488D01*
X107877067Y-58492488D02*
X107938971Y-58616298D01*
X107938971Y-58616298D02*
X107938971Y-58802012D01*
X107938971Y-58802012D02*
X107877067Y-58925822D01*
X107877067Y-58925822D02*
X107815162Y-58987727D01*
X107815162Y-58987727D02*
X107691352Y-59049631D01*
X107691352Y-59049631D02*
X107196114Y-59049631D01*
X107196114Y-59049631D02*
X107196114Y-57749631D01*
X107196114Y-57749631D02*
X107629448Y-57749631D01*
X107629448Y-57749631D02*
X107753257Y-57811536D01*
X107753257Y-57811536D02*
X107815162Y-57873441D01*
X107815162Y-57873441D02*
X107877067Y-57997250D01*
X107877067Y-57997250D02*
X107877067Y-58121060D01*
X107877067Y-58121060D02*
X107815162Y-58244869D01*
X107815162Y-58244869D02*
X107753257Y-58306774D01*
X107753257Y-58306774D02*
X107629448Y-58368679D01*
X107629448Y-58368679D02*
X107196114Y-58368679D01*
X108434210Y-58987727D02*
X108619924Y-59049631D01*
X108619924Y-59049631D02*
X108929448Y-59049631D01*
X108929448Y-59049631D02*
X109053257Y-58987727D01*
X109053257Y-58987727D02*
X109115162Y-58925822D01*
X109115162Y-58925822D02*
X109177067Y-58802012D01*
X109177067Y-58802012D02*
X109177067Y-58678203D01*
X109177067Y-58678203D02*
X109115162Y-58554393D01*
X109115162Y-58554393D02*
X109053257Y-58492488D01*
X109053257Y-58492488D02*
X108929448Y-58430584D01*
X108929448Y-58430584D02*
X108681829Y-58368679D01*
X108681829Y-58368679D02*
X108558019Y-58306774D01*
X108558019Y-58306774D02*
X108496114Y-58244869D01*
X108496114Y-58244869D02*
X108434210Y-58121060D01*
X108434210Y-58121060D02*
X108434210Y-57997250D01*
X108434210Y-57997250D02*
X108496114Y-57873441D01*
X108496114Y-57873441D02*
X108558019Y-57811536D01*
X108558019Y-57811536D02*
X108681829Y-57749631D01*
X108681829Y-57749631D02*
X108991352Y-57749631D01*
X108991352Y-57749631D02*
X109177067Y-57811536D01*
X110538971Y-57749631D02*
X110972304Y-59049631D01*
X110972304Y-59049631D02*
X111405638Y-57749631D01*
X112334209Y-58987727D02*
X112210400Y-59049631D01*
X112210400Y-59049631D02*
X111962781Y-59049631D01*
X111962781Y-59049631D02*
X111838971Y-58987727D01*
X111838971Y-58987727D02*
X111777067Y-58863917D01*
X111777067Y-58863917D02*
X111777067Y-58368679D01*
X111777067Y-58368679D02*
X111838971Y-58244869D01*
X111838971Y-58244869D02*
X111962781Y-58182965D01*
X111962781Y-58182965D02*
X112210400Y-58182965D01*
X112210400Y-58182965D02*
X112334209Y-58244869D01*
X112334209Y-58244869D02*
X112396114Y-58368679D01*
X112396114Y-58368679D02*
X112396114Y-58492488D01*
X112396114Y-58492488D02*
X111777067Y-58616298D01*
X112953257Y-59049631D02*
X112953257Y-58182965D01*
X112953257Y-58430584D02*
X113015162Y-58306774D01*
X113015162Y-58306774D02*
X113077067Y-58244869D01*
X113077067Y-58244869D02*
X113200876Y-58182965D01*
X113200876Y-58182965D02*
X113324686Y-58182965D01*
X113758019Y-58925822D02*
X113819924Y-58987727D01*
X113819924Y-58987727D02*
X113758019Y-59049631D01*
X113758019Y-59049631D02*
X113696115Y-58987727D01*
X113696115Y-58987727D02*
X113758019Y-58925822D01*
X113758019Y-58925822D02*
X113758019Y-59049631D01*
X114253258Y-59482965D02*
X114562782Y-59482965D01*
X114562782Y-59482965D02*
X114562782Y-57625822D01*
X114562782Y-57625822D02*
X114253258Y-57625822D01*
X81452379Y-53420038D02*
X81357141Y-53372419D01*
X81357141Y-53372419D02*
X81214284Y-53372419D01*
X81214284Y-53372419D02*
X81071427Y-53420038D01*
X81071427Y-53420038D02*
X80976189Y-53515276D01*
X80976189Y-53515276D02*
X80928570Y-53610514D01*
X80928570Y-53610514D02*
X80880951Y-53800990D01*
X80880951Y-53800990D02*
X80880951Y-53943847D01*
X80880951Y-53943847D02*
X80928570Y-54134323D01*
X80928570Y-54134323D02*
X80976189Y-54229561D01*
X80976189Y-54229561D02*
X81071427Y-54324800D01*
X81071427Y-54324800D02*
X81214284Y-54372419D01*
X81214284Y-54372419D02*
X81309522Y-54372419D01*
X81309522Y-54372419D02*
X81452379Y-54324800D01*
X81452379Y-54324800D02*
X81499998Y-54277180D01*
X81499998Y-54277180D02*
X81499998Y-53943847D01*
X81499998Y-53943847D02*
X81309522Y-53943847D01*
X81928570Y-54372419D02*
X81928570Y-53705752D01*
X81928570Y-53372419D02*
X81880951Y-53420038D01*
X81880951Y-53420038D02*
X81928570Y-53467657D01*
X81928570Y-53467657D02*
X81976189Y-53420038D01*
X81976189Y-53420038D02*
X81928570Y-53372419D01*
X81928570Y-53372419D02*
X81928570Y-53467657D01*
X82261903Y-53705752D02*
X82642855Y-53705752D01*
X82404760Y-53372419D02*
X82404760Y-54229561D01*
X82404760Y-54229561D02*
X82452379Y-54324800D01*
X82452379Y-54324800D02*
X82547617Y-54372419D01*
X82547617Y-54372419D02*
X82642855Y-54372419D01*
X82976189Y-54372419D02*
X82976189Y-53372419D01*
X82976189Y-53848609D02*
X83547617Y-53848609D01*
X83547617Y-54372419D02*
X83547617Y-53372419D01*
X84452379Y-53705752D02*
X84452379Y-54372419D01*
X84023808Y-53705752D02*
X84023808Y-54229561D01*
X84023808Y-54229561D02*
X84071427Y-54324800D01*
X84071427Y-54324800D02*
X84166665Y-54372419D01*
X84166665Y-54372419D02*
X84309522Y-54372419D01*
X84309522Y-54372419D02*
X84404760Y-54324800D01*
X84404760Y-54324800D02*
X84452379Y-54277180D01*
X84928570Y-54372419D02*
X84928570Y-53372419D01*
X84928570Y-53753371D02*
X85023808Y-53705752D01*
X85023808Y-53705752D02*
X85214284Y-53705752D01*
X85214284Y-53705752D02*
X85309522Y-53753371D01*
X85309522Y-53753371D02*
X85357141Y-53800990D01*
X85357141Y-53800990D02*
X85404760Y-53896228D01*
X85404760Y-53896228D02*
X85404760Y-54181942D01*
X85404760Y-54181942D02*
X85357141Y-54277180D01*
X85357141Y-54277180D02*
X85309522Y-54324800D01*
X85309522Y-54324800D02*
X85214284Y-54372419D01*
X85214284Y-54372419D02*
X85023808Y-54372419D01*
X85023808Y-54372419D02*
X84928570Y-54324800D01*
X86595237Y-54277180D02*
X86642856Y-54324800D01*
X86642856Y-54324800D02*
X86595237Y-54372419D01*
X86595237Y-54372419D02*
X86547618Y-54324800D01*
X86547618Y-54324800D02*
X86595237Y-54277180D01*
X86595237Y-54277180D02*
X86595237Y-54372419D01*
X86595237Y-53753371D02*
X86642856Y-53800990D01*
X86642856Y-53800990D02*
X86595237Y-53848609D01*
X86595237Y-53848609D02*
X86547618Y-53800990D01*
X86547618Y-53800990D02*
X86595237Y-53753371D01*
X86595237Y-53753371D02*
X86595237Y-53848609D01*
X87690475Y-53705752D02*
X88071427Y-53705752D01*
X87833332Y-53372419D02*
X87833332Y-54229561D01*
X87833332Y-54229561D02*
X87880951Y-54324800D01*
X87880951Y-54324800D02*
X87976189Y-54372419D01*
X87976189Y-54372419D02*
X88071427Y-54372419D01*
X88833332Y-54372419D02*
X88833332Y-53848609D01*
X88833332Y-53848609D02*
X88785713Y-53753371D01*
X88785713Y-53753371D02*
X88690475Y-53705752D01*
X88690475Y-53705752D02*
X88499999Y-53705752D01*
X88499999Y-53705752D02*
X88404761Y-53753371D01*
X88833332Y-54324800D02*
X88738094Y-54372419D01*
X88738094Y-54372419D02*
X88499999Y-54372419D01*
X88499999Y-54372419D02*
X88404761Y-54324800D01*
X88404761Y-54324800D02*
X88357142Y-54229561D01*
X88357142Y-54229561D02*
X88357142Y-54134323D01*
X88357142Y-54134323D02*
X88404761Y-54039085D01*
X88404761Y-54039085D02*
X88499999Y-53991466D01*
X88499999Y-53991466D02*
X88738094Y-53991466D01*
X88738094Y-53991466D02*
X88833332Y-53943847D01*
X89309523Y-54372419D02*
X89309523Y-53372419D01*
X89404761Y-53991466D02*
X89690475Y-54372419D01*
X89690475Y-53705752D02*
X89309523Y-54086704D01*
X90547618Y-54372419D02*
X90547618Y-53848609D01*
X90547618Y-53848609D02*
X90499999Y-53753371D01*
X90499999Y-53753371D02*
X90404761Y-53705752D01*
X90404761Y-53705752D02*
X90214285Y-53705752D01*
X90214285Y-53705752D02*
X90119047Y-53753371D01*
X90547618Y-54324800D02*
X90452380Y-54372419D01*
X90452380Y-54372419D02*
X90214285Y-54372419D01*
X90214285Y-54372419D02*
X90119047Y-54324800D01*
X90119047Y-54324800D02*
X90071428Y-54229561D01*
X90071428Y-54229561D02*
X90071428Y-54134323D01*
X90071428Y-54134323D02*
X90119047Y-54039085D01*
X90119047Y-54039085D02*
X90214285Y-53991466D01*
X90214285Y-53991466D02*
X90452380Y-53991466D01*
X90452380Y-53991466D02*
X90547618Y-53943847D01*
X91023809Y-53991466D02*
X91785714Y-53991466D01*
X92119047Y-53705752D02*
X92499999Y-53705752D01*
X92261904Y-53372419D02*
X92261904Y-54229561D01*
X92261904Y-54229561D02*
X92309523Y-54324800D01*
X92309523Y-54324800D02*
X92404761Y-54372419D01*
X92404761Y-54372419D02*
X92499999Y-54372419D01*
X93261904Y-53705752D02*
X93261904Y-54372419D01*
X92833333Y-53705752D02*
X92833333Y-54229561D01*
X92833333Y-54229561D02*
X92880952Y-54324800D01*
X92880952Y-54324800D02*
X92976190Y-54372419D01*
X92976190Y-54372419D02*
X93119047Y-54372419D01*
X93119047Y-54372419D02*
X93214285Y-54324800D01*
X93214285Y-54324800D02*
X93261904Y-54277180D01*
X93880952Y-54372419D02*
X93785714Y-54324800D01*
X93785714Y-54324800D02*
X93738095Y-54277180D01*
X93738095Y-54277180D02*
X93690476Y-54181942D01*
X93690476Y-54181942D02*
X93690476Y-53896228D01*
X93690476Y-53896228D02*
X93738095Y-53800990D01*
X93738095Y-53800990D02*
X93785714Y-53753371D01*
X93785714Y-53753371D02*
X93880952Y-53705752D01*
X93880952Y-53705752D02*
X94023809Y-53705752D01*
X94023809Y-53705752D02*
X94119047Y-53753371D01*
X94119047Y-53753371D02*
X94166666Y-53800990D01*
X94166666Y-53800990D02*
X94214285Y-53896228D01*
X94214285Y-53896228D02*
X94214285Y-54181942D01*
X94214285Y-54181942D02*
X94166666Y-54277180D01*
X94166666Y-54277180D02*
X94119047Y-54324800D01*
X94119047Y-54324800D02*
X94023809Y-54372419D01*
X94023809Y-54372419D02*
X93880952Y-54372419D01*
X94595238Y-54324800D02*
X94690476Y-54372419D01*
X94690476Y-54372419D02*
X94880952Y-54372419D01*
X94880952Y-54372419D02*
X94976190Y-54324800D01*
X94976190Y-54324800D02*
X95023809Y-54229561D01*
X95023809Y-54229561D02*
X95023809Y-54181942D01*
X95023809Y-54181942D02*
X94976190Y-54086704D01*
X94976190Y-54086704D02*
X94880952Y-54039085D01*
X94880952Y-54039085D02*
X94738095Y-54039085D01*
X94738095Y-54039085D02*
X94642857Y-53991466D01*
X94642857Y-53991466D02*
X94595238Y-53896228D01*
X94595238Y-53896228D02*
X94595238Y-53848609D01*
X94595238Y-53848609D02*
X94642857Y-53753371D01*
X94642857Y-53753371D02*
X94738095Y-53705752D01*
X94738095Y-53705752D02*
X94880952Y-53705752D01*
X94880952Y-53705752D02*
X94976190Y-53753371D01*
X96166666Y-53324800D02*
X95309524Y-54610514D01*
X96928571Y-54324800D02*
X96833333Y-54372419D01*
X96833333Y-54372419D02*
X96642857Y-54372419D01*
X96642857Y-54372419D02*
X96547619Y-54324800D01*
X96547619Y-54324800D02*
X96500000Y-54277180D01*
X96500000Y-54277180D02*
X96452381Y-54181942D01*
X96452381Y-54181942D02*
X96452381Y-53896228D01*
X96452381Y-53896228D02*
X96500000Y-53800990D01*
X96500000Y-53800990D02*
X96547619Y-53753371D01*
X96547619Y-53753371D02*
X96642857Y-53705752D01*
X96642857Y-53705752D02*
X96833333Y-53705752D01*
X96833333Y-53705752D02*
X96928571Y-53753371D01*
X97500000Y-54372419D02*
X97404762Y-54324800D01*
X97404762Y-54324800D02*
X97357143Y-54277180D01*
X97357143Y-54277180D02*
X97309524Y-54181942D01*
X97309524Y-54181942D02*
X97309524Y-53896228D01*
X97309524Y-53896228D02*
X97357143Y-53800990D01*
X97357143Y-53800990D02*
X97404762Y-53753371D01*
X97404762Y-53753371D02*
X97500000Y-53705752D01*
X97500000Y-53705752D02*
X97642857Y-53705752D01*
X97642857Y-53705752D02*
X97738095Y-53753371D01*
X97738095Y-53753371D02*
X97785714Y-53800990D01*
X97785714Y-53800990D02*
X97833333Y-53896228D01*
X97833333Y-53896228D02*
X97833333Y-54181942D01*
X97833333Y-54181942D02*
X97785714Y-54277180D01*
X97785714Y-54277180D02*
X97738095Y-54324800D01*
X97738095Y-54324800D02*
X97642857Y-54372419D01*
X97642857Y-54372419D02*
X97500000Y-54372419D01*
X98261905Y-54372419D02*
X98261905Y-53705752D01*
X98261905Y-53800990D02*
X98309524Y-53753371D01*
X98309524Y-53753371D02*
X98404762Y-53705752D01*
X98404762Y-53705752D02*
X98547619Y-53705752D01*
X98547619Y-53705752D02*
X98642857Y-53753371D01*
X98642857Y-53753371D02*
X98690476Y-53848609D01*
X98690476Y-53848609D02*
X98690476Y-54372419D01*
X98690476Y-53848609D02*
X98738095Y-53753371D01*
X98738095Y-53753371D02*
X98833333Y-53705752D01*
X98833333Y-53705752D02*
X98976190Y-53705752D01*
X98976190Y-53705752D02*
X99071429Y-53753371D01*
X99071429Y-53753371D02*
X99119048Y-53848609D01*
X99119048Y-53848609D02*
X99119048Y-54372419D01*
X99595238Y-53705752D02*
X99595238Y-54705752D01*
X99595238Y-53753371D02*
X99690476Y-53705752D01*
X99690476Y-53705752D02*
X99880952Y-53705752D01*
X99880952Y-53705752D02*
X99976190Y-53753371D01*
X99976190Y-53753371D02*
X100023809Y-53800990D01*
X100023809Y-53800990D02*
X100071428Y-53896228D01*
X100071428Y-53896228D02*
X100071428Y-54181942D01*
X100071428Y-54181942D02*
X100023809Y-54277180D01*
X100023809Y-54277180D02*
X99976190Y-54324800D01*
X99976190Y-54324800D02*
X99880952Y-54372419D01*
X99880952Y-54372419D02*
X99690476Y-54372419D01*
X99690476Y-54372419D02*
X99595238Y-54324800D01*
X100928571Y-54372419D02*
X100928571Y-53848609D01*
X100928571Y-53848609D02*
X100880952Y-53753371D01*
X100880952Y-53753371D02*
X100785714Y-53705752D01*
X100785714Y-53705752D02*
X100595238Y-53705752D01*
X100595238Y-53705752D02*
X100500000Y-53753371D01*
X100928571Y-54324800D02*
X100833333Y-54372419D01*
X100833333Y-54372419D02*
X100595238Y-54372419D01*
X100595238Y-54372419D02*
X100500000Y-54324800D01*
X100500000Y-54324800D02*
X100452381Y-54229561D01*
X100452381Y-54229561D02*
X100452381Y-54134323D01*
X100452381Y-54134323D02*
X100500000Y-54039085D01*
X100500000Y-54039085D02*
X100595238Y-53991466D01*
X100595238Y-53991466D02*
X100833333Y-53991466D01*
X100833333Y-53991466D02*
X100928571Y-53943847D01*
X101261905Y-53705752D02*
X101642857Y-53705752D01*
X101404762Y-53372419D02*
X101404762Y-54229561D01*
X101404762Y-54229561D02*
X101452381Y-54324800D01*
X101452381Y-54324800D02*
X101547619Y-54372419D01*
X101547619Y-54372419D02*
X101642857Y-54372419D01*
X101976191Y-54372419D02*
X101976191Y-53705752D01*
X101976191Y-53372419D02*
X101928572Y-53420038D01*
X101928572Y-53420038D02*
X101976191Y-53467657D01*
X101976191Y-53467657D02*
X102023810Y-53420038D01*
X102023810Y-53420038D02*
X101976191Y-53372419D01*
X101976191Y-53372419D02*
X101976191Y-53467657D01*
X102452381Y-54372419D02*
X102452381Y-53372419D01*
X102452381Y-53753371D02*
X102547619Y-53705752D01*
X102547619Y-53705752D02*
X102738095Y-53705752D01*
X102738095Y-53705752D02*
X102833333Y-53753371D01*
X102833333Y-53753371D02*
X102880952Y-53800990D01*
X102880952Y-53800990D02*
X102928571Y-53896228D01*
X102928571Y-53896228D02*
X102928571Y-54181942D01*
X102928571Y-54181942D02*
X102880952Y-54277180D01*
X102880952Y-54277180D02*
X102833333Y-54324800D01*
X102833333Y-54324800D02*
X102738095Y-54372419D01*
X102738095Y-54372419D02*
X102547619Y-54372419D01*
X102547619Y-54372419D02*
X102452381Y-54324800D01*
X103500000Y-54372419D02*
X103404762Y-54324800D01*
X103404762Y-54324800D02*
X103357143Y-54229561D01*
X103357143Y-54229561D02*
X103357143Y-53372419D01*
X104261905Y-54324800D02*
X104166667Y-54372419D01*
X104166667Y-54372419D02*
X103976191Y-54372419D01*
X103976191Y-54372419D02*
X103880953Y-54324800D01*
X103880953Y-54324800D02*
X103833334Y-54229561D01*
X103833334Y-54229561D02*
X103833334Y-53848609D01*
X103833334Y-53848609D02*
X103880953Y-53753371D01*
X103880953Y-53753371D02*
X103976191Y-53705752D01*
X103976191Y-53705752D02*
X104166667Y-53705752D01*
X104166667Y-53705752D02*
X104261905Y-53753371D01*
X104261905Y-53753371D02*
X104309524Y-53848609D01*
X104309524Y-53848609D02*
X104309524Y-53943847D01*
X104309524Y-53943847D02*
X103833334Y-54039085D01*
X104738096Y-53991466D02*
X105500001Y-53991466D01*
X106404762Y-54324800D02*
X106309524Y-54372419D01*
X106309524Y-54372419D02*
X106119048Y-54372419D01*
X106119048Y-54372419D02*
X106023810Y-54324800D01*
X106023810Y-54324800D02*
X105976191Y-54277180D01*
X105976191Y-54277180D02*
X105928572Y-54181942D01*
X105928572Y-54181942D02*
X105928572Y-53896228D01*
X105928572Y-53896228D02*
X105976191Y-53800990D01*
X105976191Y-53800990D02*
X106023810Y-53753371D01*
X106023810Y-53753371D02*
X106119048Y-53705752D01*
X106119048Y-53705752D02*
X106309524Y-53705752D01*
X106309524Y-53705752D02*
X106404762Y-53753371D01*
X106833334Y-54372419D02*
X106833334Y-53372419D01*
X107261905Y-54372419D02*
X107261905Y-53848609D01*
X107261905Y-53848609D02*
X107214286Y-53753371D01*
X107214286Y-53753371D02*
X107119048Y-53705752D01*
X107119048Y-53705752D02*
X106976191Y-53705752D01*
X106976191Y-53705752D02*
X106880953Y-53753371D01*
X106880953Y-53753371D02*
X106833334Y-53800990D01*
X108166667Y-54372419D02*
X108166667Y-53848609D01*
X108166667Y-53848609D02*
X108119048Y-53753371D01*
X108119048Y-53753371D02*
X108023810Y-53705752D01*
X108023810Y-53705752D02*
X107833334Y-53705752D01*
X107833334Y-53705752D02*
X107738096Y-53753371D01*
X108166667Y-54324800D02*
X108071429Y-54372419D01*
X108071429Y-54372419D02*
X107833334Y-54372419D01*
X107833334Y-54372419D02*
X107738096Y-54324800D01*
X107738096Y-54324800D02*
X107690477Y-54229561D01*
X107690477Y-54229561D02*
X107690477Y-54134323D01*
X107690477Y-54134323D02*
X107738096Y-54039085D01*
X107738096Y-54039085D02*
X107833334Y-53991466D01*
X107833334Y-53991466D02*
X108071429Y-53991466D01*
X108071429Y-53991466D02*
X108166667Y-53943847D01*
X108642858Y-53705752D02*
X108642858Y-54372419D01*
X108642858Y-53800990D02*
X108690477Y-53753371D01*
X108690477Y-53753371D02*
X108785715Y-53705752D01*
X108785715Y-53705752D02*
X108928572Y-53705752D01*
X108928572Y-53705752D02*
X109023810Y-53753371D01*
X109023810Y-53753371D02*
X109071429Y-53848609D01*
X109071429Y-53848609D02*
X109071429Y-54372419D01*
D12*
X81238095Y-91054819D02*
X81238095Y-90054819D01*
X81238095Y-90531009D02*
X81809523Y-90531009D01*
X81809523Y-91054819D02*
X81809523Y-90054819D01*
X82190476Y-90054819D02*
X82809523Y-90054819D01*
X82809523Y-90054819D02*
X82476190Y-90435771D01*
X82476190Y-90435771D02*
X82619047Y-90435771D01*
X82619047Y-90435771D02*
X82714285Y-90483390D01*
X82714285Y-90483390D02*
X82761904Y-90531009D01*
X82761904Y-90531009D02*
X82809523Y-90626247D01*
X82809523Y-90626247D02*
X82809523Y-90864342D01*
X82809523Y-90864342D02*
X82761904Y-90959580D01*
X82761904Y-90959580D02*
X82714285Y-91007200D01*
X82714285Y-91007200D02*
X82619047Y-91054819D01*
X82619047Y-91054819D02*
X82333333Y-91054819D01*
X82333333Y-91054819D02*
X82238095Y-91007200D01*
X82238095Y-91007200D02*
X82190476Y-90959580D01*
X105554819Y-75838094D02*
X104554819Y-75838094D01*
X104554819Y-75838094D02*
X104554819Y-75599999D01*
X104554819Y-75599999D02*
X104602438Y-75457142D01*
X104602438Y-75457142D02*
X104697676Y-75361904D01*
X104697676Y-75361904D02*
X104792914Y-75314285D01*
X104792914Y-75314285D02*
X104983390Y-75266666D01*
X104983390Y-75266666D02*
X105126247Y-75266666D01*
X105126247Y-75266666D02*
X105316723Y-75314285D01*
X105316723Y-75314285D02*
X105411961Y-75361904D01*
X105411961Y-75361904D02*
X105507200Y-75457142D01*
X105507200Y-75457142D02*
X105554819Y-75599999D01*
X105554819Y-75599999D02*
X105554819Y-75838094D01*
X104650057Y-74885713D02*
X104602438Y-74838094D01*
X104602438Y-74838094D02*
X104554819Y-74742856D01*
X104554819Y-74742856D02*
X104554819Y-74504761D01*
X104554819Y-74504761D02*
X104602438Y-74409523D01*
X104602438Y-74409523D02*
X104650057Y-74361904D01*
X104650057Y-74361904D02*
X104745295Y-74314285D01*
X104745295Y-74314285D02*
X104840533Y-74314285D01*
X104840533Y-74314285D02*
X104983390Y-74361904D01*
X104983390Y-74361904D02*
X105554819Y-74933332D01*
X105554819Y-74933332D02*
X105554819Y-74314285D01*
X114444819Y-80370476D02*
X114444819Y-80941904D01*
X114444819Y-80656190D02*
X113444819Y-80656190D01*
X113444819Y-80656190D02*
X113587676Y-80751428D01*
X113587676Y-80751428D02*
X113682914Y-80846666D01*
X113682914Y-80846666D02*
X113730533Y-80941904D01*
X113444819Y-79513333D02*
X113444819Y-79703809D01*
X113444819Y-79703809D02*
X113492438Y-79799047D01*
X113492438Y-79799047D02*
X113540057Y-79846666D01*
X113540057Y-79846666D02*
X113682914Y-79941904D01*
X113682914Y-79941904D02*
X113873390Y-79989523D01*
X113873390Y-79989523D02*
X114254342Y-79989523D01*
X114254342Y-79989523D02*
X114349580Y-79941904D01*
X114349580Y-79941904D02*
X114397200Y-79894285D01*
X114397200Y-79894285D02*
X114444819Y-79799047D01*
X114444819Y-79799047D02*
X114444819Y-79608571D01*
X114444819Y-79608571D02*
X114397200Y-79513333D01*
X114397200Y-79513333D02*
X114349580Y-79465714D01*
X114349580Y-79465714D02*
X114254342Y-79418095D01*
X114254342Y-79418095D02*
X114016247Y-79418095D01*
X114016247Y-79418095D02*
X113921009Y-79465714D01*
X113921009Y-79465714D02*
X113873390Y-79513333D01*
X113873390Y-79513333D02*
X113825771Y-79608571D01*
X113825771Y-79608571D02*
X113825771Y-79799047D01*
X113825771Y-79799047D02*
X113873390Y-79894285D01*
X113873390Y-79894285D02*
X113921009Y-79941904D01*
X113921009Y-79941904D02*
X114016247Y-79989523D01*
X96093390Y-69480237D02*
X96045771Y-69575475D01*
X96045771Y-69575475D02*
X95998152Y-69623094D01*
X95998152Y-69623094D02*
X95902914Y-69670713D01*
X95902914Y-69670713D02*
X95855295Y-69670713D01*
X95855295Y-69670713D02*
X95760057Y-69623094D01*
X95760057Y-69623094D02*
X95712438Y-69575475D01*
X95712438Y-69575475D02*
X95664819Y-69480237D01*
X95664819Y-69480237D02*
X95664819Y-69289761D01*
X95664819Y-69289761D02*
X95712438Y-69194523D01*
X95712438Y-69194523D02*
X95760057Y-69146904D01*
X95760057Y-69146904D02*
X95855295Y-69099285D01*
X95855295Y-69099285D02*
X95902914Y-69099285D01*
X95902914Y-69099285D02*
X95998152Y-69146904D01*
X95998152Y-69146904D02*
X96045771Y-69194523D01*
X96045771Y-69194523D02*
X96093390Y-69289761D01*
X96093390Y-69289761D02*
X96093390Y-69480237D01*
X96093390Y-69480237D02*
X96141009Y-69575475D01*
X96141009Y-69575475D02*
X96188628Y-69623094D01*
X96188628Y-69623094D02*
X96283866Y-69670713D01*
X96283866Y-69670713D02*
X96474342Y-69670713D01*
X96474342Y-69670713D02*
X96569580Y-69623094D01*
X96569580Y-69623094D02*
X96617200Y-69575475D01*
X96617200Y-69575475D02*
X96664819Y-69480237D01*
X96664819Y-69480237D02*
X96664819Y-69289761D01*
X96664819Y-69289761D02*
X96617200Y-69194523D01*
X96617200Y-69194523D02*
X96569580Y-69146904D01*
X96569580Y-69146904D02*
X96474342Y-69099285D01*
X96474342Y-69099285D02*
X96283866Y-69099285D01*
X96283866Y-69099285D02*
X96188628Y-69146904D01*
X96188628Y-69146904D02*
X96141009Y-69194523D01*
X96141009Y-69194523D02*
X96093390Y-69289761D01*
X96664819Y-81005475D02*
X96664819Y-80814999D01*
X96664819Y-80814999D02*
X96617200Y-80719761D01*
X96617200Y-80719761D02*
X96569580Y-80672142D01*
X96569580Y-80672142D02*
X96426723Y-80576904D01*
X96426723Y-80576904D02*
X96236247Y-80529285D01*
X96236247Y-80529285D02*
X95855295Y-80529285D01*
X95855295Y-80529285D02*
X95760057Y-80576904D01*
X95760057Y-80576904D02*
X95712438Y-80624523D01*
X95712438Y-80624523D02*
X95664819Y-80719761D01*
X95664819Y-80719761D02*
X95664819Y-80910237D01*
X95664819Y-80910237D02*
X95712438Y-81005475D01*
X95712438Y-81005475D02*
X95760057Y-81053094D01*
X95760057Y-81053094D02*
X95855295Y-81100713D01*
X95855295Y-81100713D02*
X96093390Y-81100713D01*
X96093390Y-81100713D02*
X96188628Y-81053094D01*
X96188628Y-81053094D02*
X96236247Y-81005475D01*
X96236247Y-81005475D02*
X96283866Y-80910237D01*
X96283866Y-80910237D02*
X96283866Y-80719761D01*
X96283866Y-80719761D02*
X96236247Y-80624523D01*
X96236247Y-80624523D02*
X96188628Y-80576904D01*
X96188628Y-80576904D02*
X96093390Y-80529285D01*
X114444819Y-69099285D02*
X114444819Y-69670713D01*
X114444819Y-69384999D02*
X113444819Y-69384999D01*
X113444819Y-69384999D02*
X113587676Y-69480237D01*
X113587676Y-69480237D02*
X113682914Y-69575475D01*
X113682914Y-69575475D02*
X113730533Y-69670713D01*
X81238095Y-50854819D02*
X81238095Y-49854819D01*
X81238095Y-50331009D02*
X81809523Y-50331009D01*
X81809523Y-50854819D02*
X81809523Y-49854819D01*
X82809523Y-50854819D02*
X82238095Y-50854819D01*
X82523809Y-50854819D02*
X82523809Y-49854819D01*
X82523809Y-49854819D02*
X82428571Y-49997676D01*
X82428571Y-49997676D02*
X82333333Y-50092914D01*
X82333333Y-50092914D02*
X82238095Y-50140533D01*
X107238095Y-50854819D02*
X107238095Y-49854819D01*
X107238095Y-50331009D02*
X107809523Y-50331009D01*
X107809523Y-50854819D02*
X107809523Y-49854819D01*
X108238095Y-49950057D02*
X108285714Y-49902438D01*
X108285714Y-49902438D02*
X108380952Y-49854819D01*
X108380952Y-49854819D02*
X108619047Y-49854819D01*
X108619047Y-49854819D02*
X108714285Y-49902438D01*
X108714285Y-49902438D02*
X108761904Y-49950057D01*
X108761904Y-49950057D02*
X108809523Y-50045295D01*
X108809523Y-50045295D02*
X108809523Y-50140533D01*
X108809523Y-50140533D02*
X108761904Y-50283390D01*
X108761904Y-50283390D02*
X108190476Y-50854819D01*
X108190476Y-50854819D02*
X108809523Y-50854819D01*
X106213333Y-85184819D02*
X105880000Y-84708628D01*
X105641905Y-85184819D02*
X105641905Y-84184819D01*
X105641905Y-84184819D02*
X106022857Y-84184819D01*
X106022857Y-84184819D02*
X106118095Y-84232438D01*
X106118095Y-84232438D02*
X106165714Y-84280057D01*
X106165714Y-84280057D02*
X106213333Y-84375295D01*
X106213333Y-84375295D02*
X106213333Y-84518152D01*
X106213333Y-84518152D02*
X106165714Y-84613390D01*
X106165714Y-84613390D02*
X106118095Y-84661009D01*
X106118095Y-84661009D02*
X106022857Y-84708628D01*
X106022857Y-84708628D02*
X105641905Y-84708628D01*
X106594286Y-84280057D02*
X106641905Y-84232438D01*
X106641905Y-84232438D02*
X106737143Y-84184819D01*
X106737143Y-84184819D02*
X106975238Y-84184819D01*
X106975238Y-84184819D02*
X107070476Y-84232438D01*
X107070476Y-84232438D02*
X107118095Y-84280057D01*
X107118095Y-84280057D02*
X107165714Y-84375295D01*
X107165714Y-84375295D02*
X107165714Y-84470533D01*
X107165714Y-84470533D02*
X107118095Y-84613390D01*
X107118095Y-84613390D02*
X106546667Y-85184819D01*
X106546667Y-85184819D02*
X107165714Y-85184819D01*
X107238095Y-91054819D02*
X107238095Y-90054819D01*
X107238095Y-90531009D02*
X107809523Y-90531009D01*
X107809523Y-91054819D02*
X107809523Y-90054819D01*
X108714285Y-90388152D02*
X108714285Y-91054819D01*
X108476190Y-90007200D02*
X108238095Y-90721485D01*
X108238095Y-90721485D02*
X108857142Y-90721485D01*
X85354819Y-75838094D02*
X84354819Y-75838094D01*
X84354819Y-75838094D02*
X84354819Y-75599999D01*
X84354819Y-75599999D02*
X84402438Y-75457142D01*
X84402438Y-75457142D02*
X84497676Y-75361904D01*
X84497676Y-75361904D02*
X84592914Y-75314285D01*
X84592914Y-75314285D02*
X84783390Y-75266666D01*
X84783390Y-75266666D02*
X84926247Y-75266666D01*
X84926247Y-75266666D02*
X85116723Y-75314285D01*
X85116723Y-75314285D02*
X85211961Y-75361904D01*
X85211961Y-75361904D02*
X85307200Y-75457142D01*
X85307200Y-75457142D02*
X85354819Y-75599999D01*
X85354819Y-75599999D02*
X85354819Y-75838094D01*
X85354819Y-74314285D02*
X85354819Y-74885713D01*
X85354819Y-74599999D02*
X84354819Y-74599999D01*
X84354819Y-74599999D02*
X84497676Y-74695237D01*
X84497676Y-74695237D02*
X84592914Y-74790475D01*
X84592914Y-74790475D02*
X84640533Y-74885713D01*
X75893390Y-69480237D02*
X75845771Y-69575475D01*
X75845771Y-69575475D02*
X75798152Y-69623094D01*
X75798152Y-69623094D02*
X75702914Y-69670713D01*
X75702914Y-69670713D02*
X75655295Y-69670713D01*
X75655295Y-69670713D02*
X75560057Y-69623094D01*
X75560057Y-69623094D02*
X75512438Y-69575475D01*
X75512438Y-69575475D02*
X75464819Y-69480237D01*
X75464819Y-69480237D02*
X75464819Y-69289761D01*
X75464819Y-69289761D02*
X75512438Y-69194523D01*
X75512438Y-69194523D02*
X75560057Y-69146904D01*
X75560057Y-69146904D02*
X75655295Y-69099285D01*
X75655295Y-69099285D02*
X75702914Y-69099285D01*
X75702914Y-69099285D02*
X75798152Y-69146904D01*
X75798152Y-69146904D02*
X75845771Y-69194523D01*
X75845771Y-69194523D02*
X75893390Y-69289761D01*
X75893390Y-69289761D02*
X75893390Y-69480237D01*
X75893390Y-69480237D02*
X75941009Y-69575475D01*
X75941009Y-69575475D02*
X75988628Y-69623094D01*
X75988628Y-69623094D02*
X76083866Y-69670713D01*
X76083866Y-69670713D02*
X76274342Y-69670713D01*
X76274342Y-69670713D02*
X76369580Y-69623094D01*
X76369580Y-69623094D02*
X76417200Y-69575475D01*
X76417200Y-69575475D02*
X76464819Y-69480237D01*
X76464819Y-69480237D02*
X76464819Y-69289761D01*
X76464819Y-69289761D02*
X76417200Y-69194523D01*
X76417200Y-69194523D02*
X76369580Y-69146904D01*
X76369580Y-69146904D02*
X76274342Y-69099285D01*
X76274342Y-69099285D02*
X76083866Y-69099285D01*
X76083866Y-69099285D02*
X75988628Y-69146904D01*
X75988628Y-69146904D02*
X75941009Y-69194523D01*
X75941009Y-69194523D02*
X75893390Y-69289761D01*
X94244819Y-69099285D02*
X94244819Y-69670713D01*
X94244819Y-69384999D02*
X93244819Y-69384999D01*
X93244819Y-69384999D02*
X93387676Y-69480237D01*
X93387676Y-69480237D02*
X93482914Y-69575475D01*
X93482914Y-69575475D02*
X93530533Y-69670713D01*
X76464819Y-81005475D02*
X76464819Y-80814999D01*
X76464819Y-80814999D02*
X76417200Y-80719761D01*
X76417200Y-80719761D02*
X76369580Y-80672142D01*
X76369580Y-80672142D02*
X76226723Y-80576904D01*
X76226723Y-80576904D02*
X76036247Y-80529285D01*
X76036247Y-80529285D02*
X75655295Y-80529285D01*
X75655295Y-80529285D02*
X75560057Y-80576904D01*
X75560057Y-80576904D02*
X75512438Y-80624523D01*
X75512438Y-80624523D02*
X75464819Y-80719761D01*
X75464819Y-80719761D02*
X75464819Y-80910237D01*
X75464819Y-80910237D02*
X75512438Y-81005475D01*
X75512438Y-81005475D02*
X75560057Y-81053094D01*
X75560057Y-81053094D02*
X75655295Y-81100713D01*
X75655295Y-81100713D02*
X75893390Y-81100713D01*
X75893390Y-81100713D02*
X75988628Y-81053094D01*
X75988628Y-81053094D02*
X76036247Y-81005475D01*
X76036247Y-81005475D02*
X76083866Y-80910237D01*
X76083866Y-80910237D02*
X76083866Y-80719761D01*
X76083866Y-80719761D02*
X76036247Y-80624523D01*
X76036247Y-80624523D02*
X75988628Y-80576904D01*
X75988628Y-80576904D02*
X75893390Y-80529285D01*
X94244819Y-80370476D02*
X94244819Y-80941904D01*
X94244819Y-80656190D02*
X93244819Y-80656190D01*
X93244819Y-80656190D02*
X93387676Y-80751428D01*
X93387676Y-80751428D02*
X93482914Y-80846666D01*
X93482914Y-80846666D02*
X93530533Y-80941904D01*
X93244819Y-79513333D02*
X93244819Y-79703809D01*
X93244819Y-79703809D02*
X93292438Y-79799047D01*
X93292438Y-79799047D02*
X93340057Y-79846666D01*
X93340057Y-79846666D02*
X93482914Y-79941904D01*
X93482914Y-79941904D02*
X93673390Y-79989523D01*
X93673390Y-79989523D02*
X94054342Y-79989523D01*
X94054342Y-79989523D02*
X94149580Y-79941904D01*
X94149580Y-79941904D02*
X94197200Y-79894285D01*
X94197200Y-79894285D02*
X94244819Y-79799047D01*
X94244819Y-79799047D02*
X94244819Y-79608571D01*
X94244819Y-79608571D02*
X94197200Y-79513333D01*
X94197200Y-79513333D02*
X94149580Y-79465714D01*
X94149580Y-79465714D02*
X94054342Y-79418095D01*
X94054342Y-79418095D02*
X93816247Y-79418095D01*
X93816247Y-79418095D02*
X93721009Y-79465714D01*
X93721009Y-79465714D02*
X93673390Y-79513333D01*
X93673390Y-79513333D02*
X93625771Y-79608571D01*
X93625771Y-79608571D02*
X93625771Y-79799047D01*
X93625771Y-79799047D02*
X93673390Y-79894285D01*
X93673390Y-79894285D02*
X93721009Y-79941904D01*
X93721009Y-79941904D02*
X93816247Y-79989523D01*
X86013333Y-85184819D02*
X85680000Y-84708628D01*
X85441905Y-85184819D02*
X85441905Y-84184819D01*
X85441905Y-84184819D02*
X85822857Y-84184819D01*
X85822857Y-84184819D02*
X85918095Y-84232438D01*
X85918095Y-84232438D02*
X85965714Y-84280057D01*
X85965714Y-84280057D02*
X86013333Y-84375295D01*
X86013333Y-84375295D02*
X86013333Y-84518152D01*
X86013333Y-84518152D02*
X85965714Y-84613390D01*
X85965714Y-84613390D02*
X85918095Y-84661009D01*
X85918095Y-84661009D02*
X85822857Y-84708628D01*
X85822857Y-84708628D02*
X85441905Y-84708628D01*
X86965714Y-85184819D02*
X86394286Y-85184819D01*
X86680000Y-85184819D02*
X86680000Y-84184819D01*
X86680000Y-84184819D02*
X86584762Y-84327676D01*
X86584762Y-84327676D02*
X86489524Y-84422914D01*
X86489524Y-84422914D02*
X86394286Y-84470533D01*
X109600000Y-80100000D02*
X110350000Y-80350000D01*
X110350000Y-79850000D02*
X109600000Y-80100000D01*
X110350000Y-80350000D02*
X110350000Y-79850000D01*
X111850000Y-78350000D02*
X112100000Y-77600000D01*
X112100000Y-77600000D02*
X112350000Y-78350000D01*
X112100000Y-80100000D02*
X109600000Y-80100000D01*
X112100000Y-80100000D02*
X112100000Y-77600000D01*
X112350000Y-78350000D02*
X111850000Y-78350000D01*
D13*
X102340000Y-87100000D02*
X103110000Y-87100000D01*
X103110000Y-85730000D02*
X103110000Y-88470000D01*
X103110000Y-88470000D02*
X109650000Y-88470000D01*
X109650000Y-85730000D02*
X103110000Y-85730000D01*
X109650000Y-88470000D02*
X109650000Y-85730000D01*
X110420000Y-87100000D02*
X109650000Y-87100000D01*
D12*
X89400000Y-80100000D02*
X90150000Y-80350000D01*
X90150000Y-79850000D02*
X89400000Y-80100000D01*
X90150000Y-80350000D02*
X90150000Y-79850000D01*
X91650000Y-78350000D02*
X91900000Y-77600000D01*
X91900000Y-77600000D02*
X92150000Y-78350000D01*
X91900000Y-80100000D02*
X89400000Y-80100000D01*
X91900000Y-80100000D02*
X91900000Y-77600000D01*
X92150000Y-78350000D02*
X91650000Y-78350000D01*
D13*
X82140000Y-87100000D02*
X82910000Y-87100000D01*
X82910000Y-85730000D02*
X82910000Y-88470000D01*
X82910000Y-88470000D02*
X89450000Y-88470000D01*
X89450000Y-85730000D02*
X82910000Y-85730000D01*
X89450000Y-88470000D02*
X89450000Y-85730000D01*
X90220000Y-87100000D02*
X89450000Y-87100000D01*
%LPC*%
D14*
X82000000Y-93500000D03*
D15*
X113990000Y-67600000D03*
X111450000Y-67600000D03*
X108910000Y-67600000D03*
X106370000Y-67600000D03*
X103830000Y-67600000D03*
X101290000Y-67600000D03*
X98750000Y-67600000D03*
X96210000Y-67600000D03*
X96210000Y-82600000D03*
X98750000Y-82600000D03*
X101290000Y-82600000D03*
X103830000Y-82600000D03*
X106370000Y-82600000D03*
X108910000Y-82600000D03*
X111450000Y-82600000D03*
X113990000Y-82600000D03*
D14*
X82000000Y-47500000D03*
X108000000Y-47500000D03*
D16*
X101300000Y-87100000D03*
D17*
X111460000Y-87100000D03*
D14*
X108000000Y-93500000D03*
D15*
X93790000Y-67600000D03*
X91250000Y-67600000D03*
X88710000Y-67600000D03*
X86170000Y-67600000D03*
X83630000Y-67600000D03*
X81090000Y-67600000D03*
X78550000Y-67600000D03*
X76010000Y-67600000D03*
X76010000Y-82600000D03*
X78550000Y-82600000D03*
X81090000Y-82600000D03*
X83630000Y-82600000D03*
X86170000Y-82600000D03*
X88710000Y-82600000D03*
X91250000Y-82600000D03*
X93790000Y-82600000D03*
D16*
X81100000Y-87100000D03*
D17*
X91260000Y-87100000D03*
D18*
X102500000Y-51500000D03*
D19*
X99960000Y-51500000D03*
X97420000Y-51500000D03*
D18*
X92525000Y-51500000D03*
D19*
X89985000Y-51500000D03*
X87445000Y-51500000D03*
D18*
X72500000Y-68500000D03*
D19*
X72500000Y-71040000D03*
X72500000Y-73580000D03*
X72500000Y-76120000D03*
X72500000Y-78660000D03*
X72500000Y-81200000D03*
X72500000Y-83740000D03*
%LPD*%
M02*
