M48
; DRILL file {KiCad 8.0.2} date 2024-08-16T15:42:17+0900
; FORMAT={-:-/ absolute / metric / decimal}
; #@! TF.CreationDate,2024-08-16T15:42:17+09:00
; #@! TF.GenerationSoftware,Kicad,Pcbnew,8.0.2
; #@! TF.FileFunction,Plated,1,2,PTH
FMAT,2
METRIC
; #@! TA.AperFunction,Plated,PTH,ViaDrill
T1C0.300
; #@! TA.AperFunction,Plated,PTH,ComponentDrill
T2C0.762
; #@! TA.AperFunction,Plated,PTH,ComponentDrill
T3C0.800
; #@! TA.AperFunction,Plated,PTH,ComponentDrill
T4C1.000
; #@! TA.AperFunction,Plated,PTH,ComponentDrill
T5C2.200
%
G90
G05
T1
X71.0Y-80.5
X71.0Y-82.0
X72.5Y-56.0
X72.5Y-58.5
X72.5Y-61.0
X75.0Y-56.0
X75.0Y-58.5
X75.0Y-61.0
X75.0Y-79.5
X75.0Y-81.0
X77.1Y-77.0
X77.5Y-56.0
X77.5Y-58.5
X77.5Y-61.0
X77.915Y-79.75
X78.0Y-84.5
X79.0Y-74.0
X79.0Y-75.0
X79.185Y-70.45
X80.455Y-74.0
X80.455Y-79.75
X81.725Y-79.75
X82.995Y-70.45
X85.535Y-73.0
X86.0Y-56.0
X86.0Y-58.5
X86.0Y-61.0
X86.805Y-70.45
X87.0Y-47.0
X87.0Y-91.0
X87.0Y-94.0
X87.1Y-87.0
X88.075Y-79.75
X88.5Y-56.0
X89.345Y-73.0
X90.5Y-56.0
X91.0Y-47.0
X91.0Y-91.0
X91.0Y-94.0
X93.4Y-81.0
X95.0Y-47.0
X95.0Y-55.5
X95.0Y-62.5
X95.0Y-70.45
X95.0Y-86.0
X95.0Y-91.0
X95.0Y-94.0
X97.5Y-55.5
X97.5Y-62.5
X97.5Y-65.5
X98.2Y-84.5
X99.0Y-47.0
X99.0Y-91.0
X99.0Y-94.0
X99.385Y-70.45
X100.0Y-59.5
X100.0Y-62.5
X100.0Y-65.5
X100.655Y-74.0
X100.655Y-79.75
X101.925Y-79.75
X103.0Y-47.0
X103.0Y-91.0
X103.0Y-94.0
X103.195Y-70.45
X103.5Y-59.5
X103.5Y-62.5
X105.735Y-73.0
X106.0Y-65.5
X107.005Y-70.45
X107.4Y-87.0
X108.275Y-79.75
X109.0Y-65.5
X109.545Y-73.0
X112.0Y-65.5
X113.6Y-81.0
X115.5Y-56.5
X115.5Y-59.5
X115.5Y-62.5
X116.0Y-73.0
X116.0Y-78.0
X116.0Y-82.0
X118.0Y-56.5
X118.0Y-59.5
X118.0Y-62.5
X119.0Y-68.0
X119.0Y-73.0
X119.0Y-78.0
X119.0Y-82.0
X119.0Y-85.0
T2
X76.01Y-67.6
X76.01Y-82.6
X78.55Y-67.6
X78.55Y-82.6
X81.09Y-67.6
X81.09Y-82.6
X83.63Y-67.6
X83.63Y-82.6
X86.17Y-67.6
X86.17Y-82.6
X88.71Y-67.6
X88.71Y-82.6
X91.25Y-67.6
X91.25Y-82.6
X93.79Y-67.6
X93.79Y-82.6
X96.21Y-67.6
X96.21Y-82.6
X98.75Y-67.6
X98.75Y-82.6
X101.29Y-67.6
X101.29Y-82.6
X103.83Y-67.6
X103.83Y-82.6
X106.37Y-67.6
X106.37Y-82.6
X108.91Y-67.6
X108.91Y-82.6
X111.45Y-67.6
X111.45Y-82.6
X113.99Y-67.6
X113.99Y-82.6
T3
X81.1Y-87.1
X91.26Y-87.1
X101.3Y-87.1
X111.46Y-87.1
T4
X72.5Y-68.5
X72.5Y-71.04
X72.5Y-73.58
X72.5Y-76.12
X72.5Y-78.66
X72.5Y-81.2
X72.5Y-83.74
X87.445Y-51.5
X89.985Y-51.5
X92.525Y-51.5
X97.42Y-51.5
X99.96Y-51.5
X102.5Y-51.5
T5
X82.0Y-47.5
X82.0Y-93.5
X108.0Y-47.5
X108.0Y-93.5
M30
