G04 #@! TF.GenerationSoftware,KiCad,Pcbnew,8.0.2*
G04 #@! TF.CreationDate,2024-08-16T15:41:43+09:00*
G04 #@! TF.ProjectId,compatible_chan-v0-led,636f6d70-6174-4696-926c-655f6368616e,rev?*
G04 #@! TF.SameCoordinates,Original*
G04 #@! TF.FileFunction,Legend,Bot*
G04 #@! TF.FilePolarity,Positive*
%FSLAX46Y46*%
G04 Gerber Fmt 4.6, Leading zero omitted, Abs format (unit mm)*
G04 Created by KiCad (PCBNEW 8.0.2) date 2024-08-16 15:41:43*
%MOMM*%
%LPD*%
G01*
G04 APERTURE LIST*
G04 Aperture macros list*
%AMRoundRect*
0 Rectangle with rounded corners*
0 $1 Rounding radius*
0 $2 $3 $4 $5 $6 $7 $8 $9 X,Y pos of 4 corners*
0 Add a 4 corners polygon primitive as box body*
4,1,4,$2,$3,$4,$5,$6,$7,$8,$9,$2,$3,0*
0 Add four circle primitives for the rounded corners*
1,1,$1+$1,$2,$3*
1,1,$1+$1,$4,$5*
1,1,$1+$1,$6,$7*
1,1,$1+$1,$8,$9*
0 Add four rect primitives between the rounded corners*
20,1,$1+$1,$2,$3,$4,$5,0*
20,1,$1+$1,$4,$5,$6,$7,0*
20,1,$1+$1,$6,$7,$8,$9,0*
20,1,$1+$1,$8,$9,$2,$3,0*%
G04 Aperture macros list end*
%ADD10C,0.100000*%
%ADD11C,0.150000*%
%ADD12C,0.120000*%
%ADD13C,0.010000*%
%ADD14C,3.800000*%
%ADD15C,1.524000*%
%ADD16C,1.600000*%
%ADD17O,1.600000X1.600000*%
%ADD18RoundRect,0.250000X-0.400000X-0.275000X0.400000X-0.275000X0.400000X0.275000X-0.400000X0.275000X0*%
%ADD19RoundRect,0.150000X-0.150000X0.875000X-0.150000X-0.875000X0.150000X-0.875000X0.150000X0.875000X0*%
%ADD20R,1.700000X1.700000*%
%ADD21O,1.700000X1.700000*%
%ADD22RoundRect,0.250000X-0.337500X-0.475000X0.337500X-0.475000X0.337500X0.475000X-0.337500X0.475000X0*%
G04 APERTURE END LIST*
D10*
X95000000Y-65000000D02*
X96000000Y-65000000D01*
X74800000Y-85200000D02*
X74800000Y-84200000D01*
X115200000Y-85200000D02*
X114200000Y-85200000D01*
X95000000Y-65000000D02*
X94000000Y-65000000D01*
X95000000Y-85200000D02*
X95000000Y-84200000D01*
X115200000Y-65000000D02*
X115200000Y-66000000D01*
X74800000Y-65000000D02*
X74800000Y-66000000D01*
X74800000Y-85200000D02*
X75800000Y-85200000D01*
X95000000Y-85200000D02*
X94000000Y-85200000D01*
X95000000Y-85200000D02*
X96000000Y-85200000D01*
X115200000Y-85200000D02*
X115200000Y-84200000D01*
X74800000Y-65000000D02*
X75800000Y-65000000D01*
X115200000Y-65000000D02*
X114200000Y-65000000D01*
X95000000Y-65000000D02*
X95000000Y-66000000D01*
X102909800Y-46696116D02*
X102957419Y-46838973D01*
X102957419Y-46838973D02*
X102957419Y-47077068D01*
X102957419Y-47077068D02*
X102909800Y-47172306D01*
X102909800Y-47172306D02*
X102862180Y-47219925D01*
X102862180Y-47219925D02*
X102766942Y-47267544D01*
X102766942Y-47267544D02*
X102671704Y-47267544D01*
X102671704Y-47267544D02*
X102576466Y-47219925D01*
X102576466Y-47219925D02*
X102528847Y-47172306D01*
X102528847Y-47172306D02*
X102481228Y-47077068D01*
X102481228Y-47077068D02*
X102433609Y-46886592D01*
X102433609Y-46886592D02*
X102385990Y-46791354D01*
X102385990Y-46791354D02*
X102338371Y-46743735D01*
X102338371Y-46743735D02*
X102243133Y-46696116D01*
X102243133Y-46696116D02*
X102147895Y-46696116D01*
X102147895Y-46696116D02*
X102052657Y-46743735D01*
X102052657Y-46743735D02*
X102005038Y-46791354D01*
X102005038Y-46791354D02*
X101957419Y-46886592D01*
X101957419Y-46886592D02*
X101957419Y-47124687D01*
X101957419Y-47124687D02*
X102005038Y-47267544D01*
X102957419Y-47696116D02*
X101957419Y-47696116D01*
X102005038Y-48696115D02*
X101957419Y-48600877D01*
X101957419Y-48600877D02*
X101957419Y-48458020D01*
X101957419Y-48458020D02*
X102005038Y-48315163D01*
X102005038Y-48315163D02*
X102100276Y-48219925D01*
X102100276Y-48219925D02*
X102195514Y-48172306D01*
X102195514Y-48172306D02*
X102385990Y-48124687D01*
X102385990Y-48124687D02*
X102528847Y-48124687D01*
X102528847Y-48124687D02*
X102719323Y-48172306D01*
X102719323Y-48172306D02*
X102814561Y-48219925D01*
X102814561Y-48219925D02*
X102909800Y-48315163D01*
X102909800Y-48315163D02*
X102957419Y-48458020D01*
X102957419Y-48458020D02*
X102957419Y-48553258D01*
X102957419Y-48553258D02*
X102909800Y-48696115D01*
X102909800Y-48696115D02*
X102862180Y-48743734D01*
X102862180Y-48743734D02*
X102528847Y-48743734D01*
X102528847Y-48743734D02*
X102528847Y-48553258D01*
X97005038Y-47148496D02*
X96957419Y-47053258D01*
X96957419Y-47053258D02*
X96957419Y-46910401D01*
X96957419Y-46910401D02*
X97005038Y-46767544D01*
X97005038Y-46767544D02*
X97100276Y-46672306D01*
X97100276Y-46672306D02*
X97195514Y-46624687D01*
X97195514Y-46624687D02*
X97385990Y-46577068D01*
X97385990Y-46577068D02*
X97528847Y-46577068D01*
X97528847Y-46577068D02*
X97719323Y-46624687D01*
X97719323Y-46624687D02*
X97814561Y-46672306D01*
X97814561Y-46672306D02*
X97909800Y-46767544D01*
X97909800Y-46767544D02*
X97957419Y-46910401D01*
X97957419Y-46910401D02*
X97957419Y-47005639D01*
X97957419Y-47005639D02*
X97909800Y-47148496D01*
X97909800Y-47148496D02*
X97862180Y-47196115D01*
X97862180Y-47196115D02*
X97528847Y-47196115D01*
X97528847Y-47196115D02*
X97528847Y-47005639D01*
X97957419Y-47624687D02*
X96957419Y-47624687D01*
X96957419Y-47624687D02*
X97957419Y-48196115D01*
X97957419Y-48196115D02*
X96957419Y-48196115D01*
X97957419Y-48672306D02*
X96957419Y-48672306D01*
X96957419Y-48672306D02*
X96957419Y-48910401D01*
X96957419Y-48910401D02*
X97005038Y-49053258D01*
X97005038Y-49053258D02*
X97100276Y-49148496D01*
X97100276Y-49148496D02*
X97195514Y-49196115D01*
X97195514Y-49196115D02*
X97385990Y-49243734D01*
X97385990Y-49243734D02*
X97528847Y-49243734D01*
X97528847Y-49243734D02*
X97719323Y-49196115D01*
X97719323Y-49196115D02*
X97814561Y-49148496D01*
X97814561Y-49148496D02*
X97909800Y-49053258D01*
X97909800Y-49053258D02*
X97957419Y-48910401D01*
X97957419Y-48910401D02*
X97957419Y-48672306D01*
X92243734Y-54409800D02*
X92100877Y-54457419D01*
X92100877Y-54457419D02*
X91862782Y-54457419D01*
X91862782Y-54457419D02*
X91767544Y-54409800D01*
X91767544Y-54409800D02*
X91719925Y-54362180D01*
X91719925Y-54362180D02*
X91672306Y-54266942D01*
X91672306Y-54266942D02*
X91672306Y-54171704D01*
X91672306Y-54171704D02*
X91719925Y-54076466D01*
X91719925Y-54076466D02*
X91767544Y-54028847D01*
X91767544Y-54028847D02*
X91862782Y-53981228D01*
X91862782Y-53981228D02*
X92053258Y-53933609D01*
X92053258Y-53933609D02*
X92148496Y-53885990D01*
X92148496Y-53885990D02*
X92196115Y-53838371D01*
X92196115Y-53838371D02*
X92243734Y-53743133D01*
X92243734Y-53743133D02*
X92243734Y-53647895D01*
X92243734Y-53647895D02*
X92196115Y-53552657D01*
X92196115Y-53552657D02*
X92148496Y-53505038D01*
X92148496Y-53505038D02*
X92053258Y-53457419D01*
X92053258Y-53457419D02*
X91815163Y-53457419D01*
X91815163Y-53457419D02*
X91672306Y-53505038D01*
X91243734Y-53933609D02*
X90910401Y-53933609D01*
X90767544Y-54457419D02*
X91243734Y-54457419D01*
X91243734Y-54457419D02*
X91243734Y-53457419D01*
X91243734Y-53457419D02*
X90767544Y-53457419D01*
X89767544Y-54457419D02*
X90100877Y-53981228D01*
X90338972Y-54457419D02*
X90338972Y-53457419D01*
X90338972Y-53457419D02*
X89958020Y-53457419D01*
X89958020Y-53457419D02*
X89862782Y-53505038D01*
X89862782Y-53505038D02*
X89815163Y-53552657D01*
X89815163Y-53552657D02*
X89767544Y-53647895D01*
X89767544Y-53647895D02*
X89767544Y-53790752D01*
X89767544Y-53790752D02*
X89815163Y-53885990D01*
X89815163Y-53885990D02*
X89862782Y-53933609D01*
X89862782Y-53933609D02*
X89958020Y-53981228D01*
X89958020Y-53981228D02*
X90338972Y-53981228D01*
X89481829Y-53457419D02*
X89148496Y-54457419D01*
X89148496Y-54457419D02*
X88815163Y-53457419D01*
X88291353Y-53457419D02*
X88100877Y-53457419D01*
X88100877Y-53457419D02*
X88005639Y-53505038D01*
X88005639Y-53505038D02*
X87910401Y-53600276D01*
X87910401Y-53600276D02*
X87862782Y-53790752D01*
X87862782Y-53790752D02*
X87862782Y-54124085D01*
X87862782Y-54124085D02*
X87910401Y-54314561D01*
X87910401Y-54314561D02*
X88005639Y-54409800D01*
X88005639Y-54409800D02*
X88100877Y-54457419D01*
X88100877Y-54457419D02*
X88291353Y-54457419D01*
X88291353Y-54457419D02*
X88386591Y-54409800D01*
X88386591Y-54409800D02*
X88481829Y-54314561D01*
X88481829Y-54314561D02*
X88529448Y-54124085D01*
X88529448Y-54124085D02*
X88529448Y-53790752D01*
X88529448Y-53790752D02*
X88481829Y-53600276D01*
X88481829Y-53600276D02*
X88386591Y-53505038D01*
X88386591Y-53505038D02*
X88291353Y-53457419D01*
X87481829Y-53552657D02*
X87434210Y-53505038D01*
X87434210Y-53505038D02*
X87338972Y-53457419D01*
X87338972Y-53457419D02*
X87100877Y-53457419D01*
X87100877Y-53457419D02*
X87005639Y-53505038D01*
X87005639Y-53505038D02*
X86958020Y-53552657D01*
X86958020Y-53552657D02*
X86910401Y-53647895D01*
X86910401Y-53647895D02*
X86910401Y-53743133D01*
X86910401Y-53743133D02*
X86958020Y-53885990D01*
X86958020Y-53885990D02*
X87529448Y-54457419D01*
X87529448Y-54457419D02*
X86910401Y-54457419D01*
X99457419Y-47338972D02*
X99457419Y-46862782D01*
X99457419Y-46862782D02*
X99933609Y-46815163D01*
X99933609Y-46815163D02*
X99885990Y-46862782D01*
X99885990Y-46862782D02*
X99838371Y-46958020D01*
X99838371Y-46958020D02*
X99838371Y-47196115D01*
X99838371Y-47196115D02*
X99885990Y-47291353D01*
X99885990Y-47291353D02*
X99933609Y-47338972D01*
X99933609Y-47338972D02*
X100028847Y-47386591D01*
X100028847Y-47386591D02*
X100266942Y-47386591D01*
X100266942Y-47386591D02*
X100362180Y-47338972D01*
X100362180Y-47338972D02*
X100409800Y-47291353D01*
X100409800Y-47291353D02*
X100457419Y-47196115D01*
X100457419Y-47196115D02*
X100457419Y-46958020D01*
X100457419Y-46958020D02*
X100409800Y-46862782D01*
X100409800Y-46862782D02*
X100362180Y-46815163D01*
X99457419Y-47672306D02*
X100457419Y-48005639D01*
X100457419Y-48005639D02*
X99457419Y-48338972D01*
X102243734Y-54409800D02*
X102100877Y-54457419D01*
X102100877Y-54457419D02*
X101862782Y-54457419D01*
X101862782Y-54457419D02*
X101767544Y-54409800D01*
X101767544Y-54409800D02*
X101719925Y-54362180D01*
X101719925Y-54362180D02*
X101672306Y-54266942D01*
X101672306Y-54266942D02*
X101672306Y-54171704D01*
X101672306Y-54171704D02*
X101719925Y-54076466D01*
X101719925Y-54076466D02*
X101767544Y-54028847D01*
X101767544Y-54028847D02*
X101862782Y-53981228D01*
X101862782Y-53981228D02*
X102053258Y-53933609D01*
X102053258Y-53933609D02*
X102148496Y-53885990D01*
X102148496Y-53885990D02*
X102196115Y-53838371D01*
X102196115Y-53838371D02*
X102243734Y-53743133D01*
X102243734Y-53743133D02*
X102243734Y-53647895D01*
X102243734Y-53647895D02*
X102196115Y-53552657D01*
X102196115Y-53552657D02*
X102148496Y-53505038D01*
X102148496Y-53505038D02*
X102053258Y-53457419D01*
X102053258Y-53457419D02*
X101815163Y-53457419D01*
X101815163Y-53457419D02*
X101672306Y-53505038D01*
X101243734Y-53933609D02*
X100910401Y-53933609D01*
X100767544Y-54457419D02*
X101243734Y-54457419D01*
X101243734Y-54457419D02*
X101243734Y-53457419D01*
X101243734Y-53457419D02*
X100767544Y-53457419D01*
X99767544Y-54457419D02*
X100100877Y-53981228D01*
X100338972Y-54457419D02*
X100338972Y-53457419D01*
X100338972Y-53457419D02*
X99958020Y-53457419D01*
X99958020Y-53457419D02*
X99862782Y-53505038D01*
X99862782Y-53505038D02*
X99815163Y-53552657D01*
X99815163Y-53552657D02*
X99767544Y-53647895D01*
X99767544Y-53647895D02*
X99767544Y-53790752D01*
X99767544Y-53790752D02*
X99815163Y-53885990D01*
X99815163Y-53885990D02*
X99862782Y-53933609D01*
X99862782Y-53933609D02*
X99958020Y-53981228D01*
X99958020Y-53981228D02*
X100338972Y-53981228D01*
X99481829Y-53457419D02*
X99148496Y-54457419D01*
X99148496Y-54457419D02*
X98815163Y-53457419D01*
X98291353Y-53457419D02*
X98100877Y-53457419D01*
X98100877Y-53457419D02*
X98005639Y-53505038D01*
X98005639Y-53505038D02*
X97910401Y-53600276D01*
X97910401Y-53600276D02*
X97862782Y-53790752D01*
X97862782Y-53790752D02*
X97862782Y-54124085D01*
X97862782Y-54124085D02*
X97910401Y-54314561D01*
X97910401Y-54314561D02*
X98005639Y-54409800D01*
X98005639Y-54409800D02*
X98100877Y-54457419D01*
X98100877Y-54457419D02*
X98291353Y-54457419D01*
X98291353Y-54457419D02*
X98386591Y-54409800D01*
X98386591Y-54409800D02*
X98481829Y-54314561D01*
X98481829Y-54314561D02*
X98529448Y-54124085D01*
X98529448Y-54124085D02*
X98529448Y-53790752D01*
X98529448Y-53790752D02*
X98481829Y-53600276D01*
X98481829Y-53600276D02*
X98386591Y-53505038D01*
X98386591Y-53505038D02*
X98291353Y-53457419D01*
X96910401Y-54457419D02*
X97481829Y-54457419D01*
X97196115Y-54457419D02*
X97196115Y-53457419D01*
X97196115Y-53457419D02*
X97291353Y-53600276D01*
X97291353Y-53600276D02*
X97386591Y-53695514D01*
X97386591Y-53695514D02*
X97481829Y-53743133D01*
X83672306Y-54212755D02*
X84243734Y-54212755D01*
X83958020Y-54212755D02*
X83958020Y-53212755D01*
X83958020Y-53212755D02*
X84053258Y-53355612D01*
X84053258Y-53355612D02*
X84148496Y-53450850D01*
X84148496Y-53450850D02*
X84243734Y-53498469D01*
X82529448Y-54165136D02*
X82386591Y-54212755D01*
X82386591Y-54212755D02*
X82148496Y-54212755D01*
X82148496Y-54212755D02*
X82053258Y-54165136D01*
X82053258Y-54165136D02*
X82005639Y-54117516D01*
X82005639Y-54117516D02*
X81958020Y-54022278D01*
X81958020Y-54022278D02*
X81958020Y-53927040D01*
X81958020Y-53927040D02*
X82005639Y-53831802D01*
X82005639Y-53831802D02*
X82053258Y-53784183D01*
X82053258Y-53784183D02*
X82148496Y-53736564D01*
X82148496Y-53736564D02*
X82338972Y-53688945D01*
X82338972Y-53688945D02*
X82434210Y-53641326D01*
X82434210Y-53641326D02*
X82481829Y-53593707D01*
X82481829Y-53593707D02*
X82529448Y-53498469D01*
X82529448Y-53498469D02*
X82529448Y-53403231D01*
X82529448Y-53403231D02*
X82481829Y-53307993D01*
X82481829Y-53307993D02*
X82434210Y-53260374D01*
X82434210Y-53260374D02*
X82338972Y-53212755D01*
X82338972Y-53212755D02*
X82100877Y-53212755D01*
X82100877Y-53212755D02*
X81958020Y-53260374D01*
X81529448Y-54212755D02*
X81529448Y-53212755D01*
X80529449Y-53260374D02*
X80624687Y-53212755D01*
X80624687Y-53212755D02*
X80767544Y-53212755D01*
X80767544Y-53212755D02*
X80910401Y-53260374D01*
X80910401Y-53260374D02*
X81005639Y-53355612D01*
X81005639Y-53355612D02*
X81053258Y-53450850D01*
X81053258Y-53450850D02*
X81100877Y-53641326D01*
X81100877Y-53641326D02*
X81100877Y-53784183D01*
X81100877Y-53784183D02*
X81053258Y-53974659D01*
X81053258Y-53974659D02*
X81005639Y-54069897D01*
X81005639Y-54069897D02*
X80910401Y-54165136D01*
X80910401Y-54165136D02*
X80767544Y-54212755D01*
X80767544Y-54212755D02*
X80672306Y-54212755D01*
X80672306Y-54212755D02*
X80529449Y-54165136D01*
X80529449Y-54165136D02*
X80481830Y-54117516D01*
X80481830Y-54117516D02*
X80481830Y-53784183D01*
X80481830Y-53784183D02*
X80672306Y-53784183D01*
X80100877Y-53307993D02*
X80053258Y-53260374D01*
X80053258Y-53260374D02*
X79958020Y-53212755D01*
X79958020Y-53212755D02*
X79719925Y-53212755D01*
X79719925Y-53212755D02*
X79624687Y-53260374D01*
X79624687Y-53260374D02*
X79577068Y-53307993D01*
X79577068Y-53307993D02*
X79529449Y-53403231D01*
X79529449Y-53403231D02*
X79529449Y-53498469D01*
X79529449Y-53498469D02*
X79577068Y-53641326D01*
X79577068Y-53641326D02*
X80148496Y-54212755D01*
X80148496Y-54212755D02*
X79529449Y-54212755D01*
X84243734Y-54917937D02*
X84196115Y-54870318D01*
X84196115Y-54870318D02*
X84100877Y-54822699D01*
X84100877Y-54822699D02*
X83862782Y-54822699D01*
X83862782Y-54822699D02*
X83767544Y-54870318D01*
X83767544Y-54870318D02*
X83719925Y-54917937D01*
X83719925Y-54917937D02*
X83672306Y-55013175D01*
X83672306Y-55013175D02*
X83672306Y-55108413D01*
X83672306Y-55108413D02*
X83719925Y-55251270D01*
X83719925Y-55251270D02*
X84291353Y-55822699D01*
X84291353Y-55822699D02*
X83672306Y-55822699D01*
X82529448Y-55775080D02*
X82386591Y-55822699D01*
X82386591Y-55822699D02*
X82148496Y-55822699D01*
X82148496Y-55822699D02*
X82053258Y-55775080D01*
X82053258Y-55775080D02*
X82005639Y-55727460D01*
X82005639Y-55727460D02*
X81958020Y-55632222D01*
X81958020Y-55632222D02*
X81958020Y-55536984D01*
X81958020Y-55536984D02*
X82005639Y-55441746D01*
X82005639Y-55441746D02*
X82053258Y-55394127D01*
X82053258Y-55394127D02*
X82148496Y-55346508D01*
X82148496Y-55346508D02*
X82338972Y-55298889D01*
X82338972Y-55298889D02*
X82434210Y-55251270D01*
X82434210Y-55251270D02*
X82481829Y-55203651D01*
X82481829Y-55203651D02*
X82529448Y-55108413D01*
X82529448Y-55108413D02*
X82529448Y-55013175D01*
X82529448Y-55013175D02*
X82481829Y-54917937D01*
X82481829Y-54917937D02*
X82434210Y-54870318D01*
X82434210Y-54870318D02*
X82338972Y-54822699D01*
X82338972Y-54822699D02*
X82100877Y-54822699D01*
X82100877Y-54822699D02*
X81958020Y-54870318D01*
X81529448Y-55822699D02*
X81529448Y-54822699D01*
X80529449Y-54870318D02*
X80624687Y-54822699D01*
X80624687Y-54822699D02*
X80767544Y-54822699D01*
X80767544Y-54822699D02*
X80910401Y-54870318D01*
X80910401Y-54870318D02*
X81005639Y-54965556D01*
X81005639Y-54965556D02*
X81053258Y-55060794D01*
X81053258Y-55060794D02*
X81100877Y-55251270D01*
X81100877Y-55251270D02*
X81100877Y-55394127D01*
X81100877Y-55394127D02*
X81053258Y-55584603D01*
X81053258Y-55584603D02*
X81005639Y-55679841D01*
X81005639Y-55679841D02*
X80910401Y-55775080D01*
X80910401Y-55775080D02*
X80767544Y-55822699D01*
X80767544Y-55822699D02*
X80672306Y-55822699D01*
X80672306Y-55822699D02*
X80529449Y-55775080D01*
X80529449Y-55775080D02*
X80481830Y-55727460D01*
X80481830Y-55727460D02*
X80481830Y-55394127D01*
X80481830Y-55394127D02*
X80672306Y-55394127D01*
X79529449Y-55822699D02*
X80100877Y-55822699D01*
X79815163Y-55822699D02*
X79815163Y-54822699D01*
X79815163Y-54822699D02*
X79910401Y-54965556D01*
X79910401Y-54965556D02*
X80005639Y-55060794D01*
X80005639Y-55060794D02*
X80100877Y-55108413D01*
X84291353Y-56432643D02*
X83672306Y-56432643D01*
X83672306Y-56432643D02*
X84005639Y-56813595D01*
X84005639Y-56813595D02*
X83862782Y-56813595D01*
X83862782Y-56813595D02*
X83767544Y-56861214D01*
X83767544Y-56861214D02*
X83719925Y-56908833D01*
X83719925Y-56908833D02*
X83672306Y-57004071D01*
X83672306Y-57004071D02*
X83672306Y-57242166D01*
X83672306Y-57242166D02*
X83719925Y-57337404D01*
X83719925Y-57337404D02*
X83767544Y-57385024D01*
X83767544Y-57385024D02*
X83862782Y-57432643D01*
X83862782Y-57432643D02*
X84148496Y-57432643D01*
X84148496Y-57432643D02*
X84243734Y-57385024D01*
X84243734Y-57385024D02*
X84291353Y-57337404D01*
X82481829Y-57432643D02*
X82481829Y-56432643D01*
X82481829Y-56432643D02*
X82243734Y-56432643D01*
X82243734Y-56432643D02*
X82100877Y-56480262D01*
X82100877Y-56480262D02*
X82005639Y-56575500D01*
X82005639Y-56575500D02*
X81958020Y-56670738D01*
X81958020Y-56670738D02*
X81910401Y-56861214D01*
X81910401Y-56861214D02*
X81910401Y-57004071D01*
X81910401Y-57004071D02*
X81958020Y-57194547D01*
X81958020Y-57194547D02*
X82005639Y-57289785D01*
X82005639Y-57289785D02*
X82100877Y-57385024D01*
X82100877Y-57385024D02*
X82243734Y-57432643D01*
X82243734Y-57432643D02*
X82481829Y-57432643D01*
X81481829Y-57432643D02*
X81481829Y-56432643D01*
X81005639Y-57432643D02*
X81005639Y-56432643D01*
X81005639Y-56432643D02*
X80434211Y-57432643D01*
X80434211Y-57432643D02*
X80434211Y-56432643D01*
X83767544Y-58375920D02*
X83767544Y-59042587D01*
X84005639Y-57994968D02*
X84243734Y-58709253D01*
X84243734Y-58709253D02*
X83624687Y-58709253D01*
X81910401Y-58947348D02*
X81958020Y-58994968D01*
X81958020Y-58994968D02*
X82100877Y-59042587D01*
X82100877Y-59042587D02*
X82196115Y-59042587D01*
X82196115Y-59042587D02*
X82338972Y-58994968D01*
X82338972Y-58994968D02*
X82434210Y-58899729D01*
X82434210Y-58899729D02*
X82481829Y-58804491D01*
X82481829Y-58804491D02*
X82529448Y-58614015D01*
X82529448Y-58614015D02*
X82529448Y-58471158D01*
X82529448Y-58471158D02*
X82481829Y-58280682D01*
X82481829Y-58280682D02*
X82434210Y-58185444D01*
X82434210Y-58185444D02*
X82338972Y-58090206D01*
X82338972Y-58090206D02*
X82196115Y-58042587D01*
X82196115Y-58042587D02*
X82100877Y-58042587D01*
X82100877Y-58042587D02*
X81958020Y-58090206D01*
X81958020Y-58090206D02*
X81910401Y-58137825D01*
X81005639Y-59042587D02*
X81481829Y-59042587D01*
X81481829Y-59042587D02*
X81481829Y-58042587D01*
X80672305Y-59042587D02*
X80672305Y-58042587D01*
X80100877Y-59042587D02*
X80529448Y-58471158D01*
X80100877Y-58042587D02*
X80672305Y-58614015D01*
X83719925Y-59652531D02*
X84196115Y-59652531D01*
X84196115Y-59652531D02*
X84243734Y-60128721D01*
X84243734Y-60128721D02*
X84196115Y-60081102D01*
X84196115Y-60081102D02*
X84100877Y-60033483D01*
X84100877Y-60033483D02*
X83862782Y-60033483D01*
X83862782Y-60033483D02*
X83767544Y-60081102D01*
X83767544Y-60081102D02*
X83719925Y-60128721D01*
X83719925Y-60128721D02*
X83672306Y-60223959D01*
X83672306Y-60223959D02*
X83672306Y-60462054D01*
X83672306Y-60462054D02*
X83719925Y-60557292D01*
X83719925Y-60557292D02*
X83767544Y-60604912D01*
X83767544Y-60604912D02*
X83862782Y-60652531D01*
X83862782Y-60652531D02*
X84100877Y-60652531D01*
X84100877Y-60652531D02*
X84196115Y-60604912D01*
X84196115Y-60604912D02*
X84243734Y-60557292D01*
X82005639Y-60652531D02*
X82481829Y-60652531D01*
X82481829Y-60652531D02*
X82481829Y-59652531D01*
X81481829Y-59652531D02*
X81291353Y-59652531D01*
X81291353Y-59652531D02*
X81196115Y-59700150D01*
X81196115Y-59700150D02*
X81100877Y-59795388D01*
X81100877Y-59795388D02*
X81053258Y-59985864D01*
X81053258Y-59985864D02*
X81053258Y-60319197D01*
X81053258Y-60319197D02*
X81100877Y-60509673D01*
X81100877Y-60509673D02*
X81196115Y-60604912D01*
X81196115Y-60604912D02*
X81291353Y-60652531D01*
X81291353Y-60652531D02*
X81481829Y-60652531D01*
X81481829Y-60652531D02*
X81577067Y-60604912D01*
X81577067Y-60604912D02*
X81672305Y-60509673D01*
X81672305Y-60509673D02*
X81719924Y-60319197D01*
X81719924Y-60319197D02*
X81719924Y-59985864D01*
X81719924Y-59985864D02*
X81672305Y-59795388D01*
X81672305Y-59795388D02*
X81577067Y-59700150D01*
X81577067Y-59700150D02*
X81481829Y-59652531D01*
X80672305Y-60366816D02*
X80196115Y-60366816D01*
X80767543Y-60652531D02*
X80434210Y-59652531D01*
X80434210Y-59652531D02*
X80100877Y-60652531D01*
X79767543Y-60652531D02*
X79767543Y-59652531D01*
X79767543Y-59652531D02*
X79529448Y-59652531D01*
X79529448Y-59652531D02*
X79386591Y-59700150D01*
X79386591Y-59700150D02*
X79291353Y-59795388D01*
X79291353Y-59795388D02*
X79243734Y-59890626D01*
X79243734Y-59890626D02*
X79196115Y-60081102D01*
X79196115Y-60081102D02*
X79196115Y-60223959D01*
X79196115Y-60223959D02*
X79243734Y-60414435D01*
X79243734Y-60414435D02*
X79291353Y-60509673D01*
X79291353Y-60509673D02*
X79386591Y-60604912D01*
X79386591Y-60604912D02*
X79529448Y-60652531D01*
X79529448Y-60652531D02*
X79767543Y-60652531D01*
X83767544Y-61262475D02*
X83958020Y-61262475D01*
X83958020Y-61262475D02*
X84053258Y-61310094D01*
X84053258Y-61310094D02*
X84100877Y-61357713D01*
X84100877Y-61357713D02*
X84196115Y-61500570D01*
X84196115Y-61500570D02*
X84243734Y-61691046D01*
X84243734Y-61691046D02*
X84243734Y-62071998D01*
X84243734Y-62071998D02*
X84196115Y-62167236D01*
X84196115Y-62167236D02*
X84148496Y-62214856D01*
X84148496Y-62214856D02*
X84053258Y-62262475D01*
X84053258Y-62262475D02*
X83862782Y-62262475D01*
X83862782Y-62262475D02*
X83767544Y-62214856D01*
X83767544Y-62214856D02*
X83719925Y-62167236D01*
X83719925Y-62167236D02*
X83672306Y-62071998D01*
X83672306Y-62071998D02*
X83672306Y-61833903D01*
X83672306Y-61833903D02*
X83719925Y-61738665D01*
X83719925Y-61738665D02*
X83767544Y-61691046D01*
X83767544Y-61691046D02*
X83862782Y-61643427D01*
X83862782Y-61643427D02*
X84053258Y-61643427D01*
X84053258Y-61643427D02*
X84148496Y-61691046D01*
X84148496Y-61691046D02*
X84196115Y-61738665D01*
X84196115Y-61738665D02*
X84243734Y-61833903D01*
X81958020Y-61310094D02*
X82053258Y-61262475D01*
X82053258Y-61262475D02*
X82196115Y-61262475D01*
X82196115Y-61262475D02*
X82338972Y-61310094D01*
X82338972Y-61310094D02*
X82434210Y-61405332D01*
X82434210Y-61405332D02*
X82481829Y-61500570D01*
X82481829Y-61500570D02*
X82529448Y-61691046D01*
X82529448Y-61691046D02*
X82529448Y-61833903D01*
X82529448Y-61833903D02*
X82481829Y-62024379D01*
X82481829Y-62024379D02*
X82434210Y-62119617D01*
X82434210Y-62119617D02*
X82338972Y-62214856D01*
X82338972Y-62214856D02*
X82196115Y-62262475D01*
X82196115Y-62262475D02*
X82100877Y-62262475D01*
X82100877Y-62262475D02*
X81958020Y-62214856D01*
X81958020Y-62214856D02*
X81910401Y-62167236D01*
X81910401Y-62167236D02*
X81910401Y-61833903D01*
X81910401Y-61833903D02*
X82100877Y-61833903D01*
X81481829Y-62262475D02*
X81481829Y-61262475D01*
X81481829Y-61262475D02*
X80910401Y-62262475D01*
X80910401Y-62262475D02*
X80910401Y-61262475D01*
X80434210Y-62262475D02*
X80434210Y-61262475D01*
X80434210Y-61262475D02*
X80196115Y-61262475D01*
X80196115Y-61262475D02*
X80053258Y-61310094D01*
X80053258Y-61310094D02*
X79958020Y-61405332D01*
X79958020Y-61405332D02*
X79910401Y-61500570D01*
X79910401Y-61500570D02*
X79862782Y-61691046D01*
X79862782Y-61691046D02*
X79862782Y-61833903D01*
X79862782Y-61833903D02*
X79910401Y-62024379D01*
X79910401Y-62024379D02*
X79958020Y-62119617D01*
X79958020Y-62119617D02*
X80053258Y-62214856D01*
X80053258Y-62214856D02*
X80196115Y-62262475D01*
X80196115Y-62262475D02*
X80434210Y-62262475D01*
X84291353Y-62872419D02*
X83624687Y-62872419D01*
X83624687Y-62872419D02*
X84053258Y-63872419D01*
X82005639Y-62872419D02*
X82481829Y-62872419D01*
X82481829Y-62872419D02*
X82529448Y-63348609D01*
X82529448Y-63348609D02*
X82481829Y-63300990D01*
X82481829Y-63300990D02*
X82386591Y-63253371D01*
X82386591Y-63253371D02*
X82148496Y-63253371D01*
X82148496Y-63253371D02*
X82053258Y-63300990D01*
X82053258Y-63300990D02*
X82005639Y-63348609D01*
X82005639Y-63348609D02*
X81958020Y-63443847D01*
X81958020Y-63443847D02*
X81958020Y-63681942D01*
X81958020Y-63681942D02*
X82005639Y-63777180D01*
X82005639Y-63777180D02*
X82053258Y-63824800D01*
X82053258Y-63824800D02*
X82148496Y-63872419D01*
X82148496Y-63872419D02*
X82386591Y-63872419D01*
X82386591Y-63872419D02*
X82481829Y-63824800D01*
X82481829Y-63824800D02*
X82529448Y-63777180D01*
X81672305Y-62872419D02*
X81338972Y-63872419D01*
X81338972Y-63872419D02*
X81005639Y-62872419D01*
D11*
X89166666Y-87359580D02*
X89214285Y-87407200D01*
X89214285Y-87407200D02*
X89357142Y-87454819D01*
X89357142Y-87454819D02*
X89452380Y-87454819D01*
X89452380Y-87454819D02*
X89595237Y-87407200D01*
X89595237Y-87407200D02*
X89690475Y-87311961D01*
X89690475Y-87311961D02*
X89738094Y-87216723D01*
X89738094Y-87216723D02*
X89785713Y-87026247D01*
X89785713Y-87026247D02*
X89785713Y-86883390D01*
X89785713Y-86883390D02*
X89738094Y-86692914D01*
X89738094Y-86692914D02*
X89690475Y-86597676D01*
X89690475Y-86597676D02*
X89595237Y-86502438D01*
X89595237Y-86502438D02*
X89452380Y-86454819D01*
X89452380Y-86454819D02*
X89357142Y-86454819D01*
X89357142Y-86454819D02*
X89214285Y-86502438D01*
X89214285Y-86502438D02*
X89166666Y-86550057D01*
X88833332Y-86454819D02*
X88214285Y-86454819D01*
X88214285Y-86454819D02*
X88547618Y-86835771D01*
X88547618Y-86835771D02*
X88404761Y-86835771D01*
X88404761Y-86835771D02*
X88309523Y-86883390D01*
X88309523Y-86883390D02*
X88261904Y-86931009D01*
X88261904Y-86931009D02*
X88214285Y-87026247D01*
X88214285Y-87026247D02*
X88214285Y-87264342D01*
X88214285Y-87264342D02*
X88261904Y-87359580D01*
X88261904Y-87359580D02*
X88309523Y-87407200D01*
X88309523Y-87407200D02*
X88404761Y-87454819D01*
X88404761Y-87454819D02*
X88690475Y-87454819D01*
X88690475Y-87454819D02*
X88785713Y-87407200D01*
X88785713Y-87407200D02*
X88833332Y-87359580D01*
X95904819Y-74338095D02*
X96714342Y-74338095D01*
X96714342Y-74338095D02*
X96809580Y-74385714D01*
X96809580Y-74385714D02*
X96857200Y-74433333D01*
X96857200Y-74433333D02*
X96904819Y-74528571D01*
X96904819Y-74528571D02*
X96904819Y-74719047D01*
X96904819Y-74719047D02*
X96857200Y-74814285D01*
X96857200Y-74814285D02*
X96809580Y-74861904D01*
X96809580Y-74861904D02*
X96714342Y-74909523D01*
X96714342Y-74909523D02*
X95904819Y-74909523D01*
X96000057Y-75338095D02*
X95952438Y-75385714D01*
X95952438Y-75385714D02*
X95904819Y-75480952D01*
X95904819Y-75480952D02*
X95904819Y-75719047D01*
X95904819Y-75719047D02*
X95952438Y-75814285D01*
X95952438Y-75814285D02*
X96000057Y-75861904D01*
X96000057Y-75861904D02*
X96095295Y-75909523D01*
X96095295Y-75909523D02*
X96190533Y-75909523D01*
X96190533Y-75909523D02*
X96333390Y-75861904D01*
X96333390Y-75861904D02*
X96904819Y-75290476D01*
X96904819Y-75290476D02*
X96904819Y-75909523D01*
X104284819Y-51166666D02*
X104999104Y-51166666D01*
X104999104Y-51166666D02*
X105141961Y-51119047D01*
X105141961Y-51119047D02*
X105237200Y-51023809D01*
X105237200Y-51023809D02*
X105284819Y-50880952D01*
X105284819Y-50880952D02*
X105284819Y-50785714D01*
X104380057Y-51595238D02*
X104332438Y-51642857D01*
X104332438Y-51642857D02*
X104284819Y-51738095D01*
X104284819Y-51738095D02*
X104284819Y-51976190D01*
X104284819Y-51976190D02*
X104332438Y-52071428D01*
X104332438Y-52071428D02*
X104380057Y-52119047D01*
X104380057Y-52119047D02*
X104475295Y-52166666D01*
X104475295Y-52166666D02*
X104570533Y-52166666D01*
X104570533Y-52166666D02*
X104713390Y-52119047D01*
X104713390Y-52119047D02*
X105284819Y-51547619D01*
X105284819Y-51547619D02*
X105284819Y-52166666D01*
X109466666Y-87359580D02*
X109514285Y-87407200D01*
X109514285Y-87407200D02*
X109657142Y-87454819D01*
X109657142Y-87454819D02*
X109752380Y-87454819D01*
X109752380Y-87454819D02*
X109895237Y-87407200D01*
X109895237Y-87407200D02*
X109990475Y-87311961D01*
X109990475Y-87311961D02*
X110038094Y-87216723D01*
X110038094Y-87216723D02*
X110085713Y-87026247D01*
X110085713Y-87026247D02*
X110085713Y-86883390D01*
X110085713Y-86883390D02*
X110038094Y-86692914D01*
X110038094Y-86692914D02*
X109990475Y-86597676D01*
X109990475Y-86597676D02*
X109895237Y-86502438D01*
X109895237Y-86502438D02*
X109752380Y-86454819D01*
X109752380Y-86454819D02*
X109657142Y-86454819D01*
X109657142Y-86454819D02*
X109514285Y-86502438D01*
X109514285Y-86502438D02*
X109466666Y-86550057D01*
X108609523Y-86788152D02*
X108609523Y-87454819D01*
X108847618Y-86407200D02*
X109085713Y-87121485D01*
X109085713Y-87121485D02*
X108466666Y-87121485D01*
X109466666Y-85259580D02*
X109514285Y-85307200D01*
X109514285Y-85307200D02*
X109657142Y-85354819D01*
X109657142Y-85354819D02*
X109752380Y-85354819D01*
X109752380Y-85354819D02*
X109895237Y-85307200D01*
X109895237Y-85307200D02*
X109990475Y-85211961D01*
X109990475Y-85211961D02*
X110038094Y-85116723D01*
X110038094Y-85116723D02*
X110085713Y-84926247D01*
X110085713Y-84926247D02*
X110085713Y-84783390D01*
X110085713Y-84783390D02*
X110038094Y-84592914D01*
X110038094Y-84592914D02*
X109990475Y-84497676D01*
X109990475Y-84497676D02*
X109895237Y-84402438D01*
X109895237Y-84402438D02*
X109752380Y-84354819D01*
X109752380Y-84354819D02*
X109657142Y-84354819D01*
X109657142Y-84354819D02*
X109514285Y-84402438D01*
X109514285Y-84402438D02*
X109466666Y-84450057D01*
X109085713Y-84450057D02*
X109038094Y-84402438D01*
X109038094Y-84402438D02*
X108942856Y-84354819D01*
X108942856Y-84354819D02*
X108704761Y-84354819D01*
X108704761Y-84354819D02*
X108609523Y-84402438D01*
X108609523Y-84402438D02*
X108561904Y-84450057D01*
X108561904Y-84450057D02*
X108514285Y-84545295D01*
X108514285Y-84545295D02*
X108514285Y-84640533D01*
X108514285Y-84640533D02*
X108561904Y-84783390D01*
X108561904Y-84783390D02*
X109133332Y-85354819D01*
X109133332Y-85354819D02*
X108514285Y-85354819D01*
X75704819Y-74338095D02*
X76514342Y-74338095D01*
X76514342Y-74338095D02*
X76609580Y-74385714D01*
X76609580Y-74385714D02*
X76657200Y-74433333D01*
X76657200Y-74433333D02*
X76704819Y-74528571D01*
X76704819Y-74528571D02*
X76704819Y-74719047D01*
X76704819Y-74719047D02*
X76657200Y-74814285D01*
X76657200Y-74814285D02*
X76609580Y-74861904D01*
X76609580Y-74861904D02*
X76514342Y-74909523D01*
X76514342Y-74909523D02*
X75704819Y-74909523D01*
X76704819Y-75909523D02*
X76704819Y-75338095D01*
X76704819Y-75623809D02*
X75704819Y-75623809D01*
X75704819Y-75623809D02*
X75847676Y-75528571D01*
X75847676Y-75528571D02*
X75942914Y-75433333D01*
X75942914Y-75433333D02*
X75990533Y-75338095D01*
X94309819Y-51166666D02*
X95024104Y-51166666D01*
X95024104Y-51166666D02*
X95166961Y-51119047D01*
X95166961Y-51119047D02*
X95262200Y-51023809D01*
X95262200Y-51023809D02*
X95309819Y-50880952D01*
X95309819Y-50880952D02*
X95309819Y-50785714D01*
X94309819Y-51547619D02*
X94309819Y-52166666D01*
X94309819Y-52166666D02*
X94690771Y-51833333D01*
X94690771Y-51833333D02*
X94690771Y-51976190D01*
X94690771Y-51976190D02*
X94738390Y-52071428D01*
X94738390Y-52071428D02*
X94786009Y-52119047D01*
X94786009Y-52119047D02*
X94881247Y-52166666D01*
X94881247Y-52166666D02*
X95119342Y-52166666D01*
X95119342Y-52166666D02*
X95214580Y-52119047D01*
X95214580Y-52119047D02*
X95262200Y-52071428D01*
X95262200Y-52071428D02*
X95309819Y-51976190D01*
X95309819Y-51976190D02*
X95309819Y-51690476D01*
X95309819Y-51690476D02*
X95262200Y-51595238D01*
X95262200Y-51595238D02*
X95214580Y-51547619D01*
X89166666Y-85259580D02*
X89214285Y-85307200D01*
X89214285Y-85307200D02*
X89357142Y-85354819D01*
X89357142Y-85354819D02*
X89452380Y-85354819D01*
X89452380Y-85354819D02*
X89595237Y-85307200D01*
X89595237Y-85307200D02*
X89690475Y-85211961D01*
X89690475Y-85211961D02*
X89738094Y-85116723D01*
X89738094Y-85116723D02*
X89785713Y-84926247D01*
X89785713Y-84926247D02*
X89785713Y-84783390D01*
X89785713Y-84783390D02*
X89738094Y-84592914D01*
X89738094Y-84592914D02*
X89690475Y-84497676D01*
X89690475Y-84497676D02*
X89595237Y-84402438D01*
X89595237Y-84402438D02*
X89452380Y-84354819D01*
X89452380Y-84354819D02*
X89357142Y-84354819D01*
X89357142Y-84354819D02*
X89214285Y-84402438D01*
X89214285Y-84402438D02*
X89166666Y-84450057D01*
X88214285Y-85354819D02*
X88785713Y-85354819D01*
X88499999Y-85354819D02*
X88499999Y-84354819D01*
X88499999Y-84354819D02*
X88595237Y-84497676D01*
X88595237Y-84497676D02*
X88690475Y-84592914D01*
X88690475Y-84592914D02*
X88785713Y-84640533D01*
X72833333Y-65794819D02*
X72833333Y-66509104D01*
X72833333Y-66509104D02*
X72880952Y-66651961D01*
X72880952Y-66651961D02*
X72976190Y-66747200D01*
X72976190Y-66747200D02*
X73119047Y-66794819D01*
X73119047Y-66794819D02*
X73214285Y-66794819D01*
X71833333Y-66794819D02*
X72404761Y-66794819D01*
X72119047Y-66794819D02*
X72119047Y-65794819D01*
X72119047Y-65794819D02*
X72214285Y-65937676D01*
X72214285Y-65937676D02*
X72309523Y-66032914D01*
X72309523Y-66032914D02*
X72404761Y-66080533D01*
D12*
X84215000Y-86215000D02*
X84215000Y-87785000D01*
X84215000Y-87785000D02*
X87100000Y-87785000D01*
X87100000Y-86215000D02*
X84215000Y-86215000D01*
X97290000Y-71240000D02*
X97290000Y-75100000D01*
X97290000Y-78960000D02*
X97290000Y-75100000D01*
X97555000Y-71240000D02*
X97290000Y-71240000D01*
X97555000Y-78960000D02*
X97290000Y-78960000D01*
X112645000Y-71240000D02*
X112910000Y-71240000D01*
X112645000Y-78960000D02*
X112910000Y-78960000D01*
X112910000Y-71240000D02*
X112910000Y-75100000D01*
X112910000Y-78960000D02*
X112910000Y-75100000D01*
X97555000Y-70387500D02*
X97085000Y-70727500D01*
X97085000Y-70047500D01*
X97555000Y-70387500D01*
G36*
X97555000Y-70387500D02*
G01*
X97085000Y-70727500D01*
X97085000Y-70047500D01*
X97555000Y-70387500D01*
G37*
X96090000Y-50170000D02*
X96090000Y-52830000D01*
X96090000Y-50170000D02*
X101230000Y-50170000D01*
X96090000Y-52830000D02*
X101230000Y-52830000D01*
X101230000Y-50170000D02*
X101230000Y-52830000D01*
X103830000Y-51500000D02*
X103830000Y-52830000D01*
X103830000Y-52830000D02*
X102500000Y-52830000D01*
D13*
X102336725Y-62624619D02*
X102457261Y-62669393D01*
X102507388Y-62703034D01*
X102558152Y-62751236D01*
X102594362Y-62812551D01*
X102618393Y-62896024D01*
X102632618Y-63010697D01*
X102639412Y-63165613D01*
X102641149Y-63369814D01*
X102640809Y-63475341D01*
X102639101Y-63619541D01*
X102636201Y-63734620D01*
X102632384Y-63810822D01*
X102627925Y-63838391D01*
X102598909Y-63829272D01*
X102540339Y-63804509D01*
X102538581Y-63803707D01*
X102508167Y-63787785D01*
X102487712Y-63765938D01*
X102475240Y-63727672D01*
X102468777Y-63662495D01*
X102466348Y-63559913D01*
X102465977Y-63409433D01*
X102465229Y-63313974D01*
X102457256Y-63134571D01*
X102438998Y-63003163D01*
X102408526Y-62912859D01*
X102363912Y-62856767D01*
X102303226Y-62827994D01*
X102294807Y-62825989D01*
X102181139Y-62824423D01*
X102092492Y-62875348D01*
X102031265Y-62977445D01*
X102020346Y-63006961D01*
X101995458Y-63072283D01*
X101982854Y-63102300D01*
X101956969Y-63098164D01*
X101900439Y-63075717D01*
X101847715Y-63038647D01*
X101823678Y-62968587D01*
X101830847Y-62918406D01*
X101874897Y-62816618D01*
X101946123Y-62721235D01*
X102029415Y-62655269D01*
X102064310Y-62640018D01*
X102196443Y-62614521D01*
X102336725Y-62624619D01*
G36*
X102336725Y-62624619D02*
G01*
X102457261Y-62669393D01*
X102507388Y-62703034D01*
X102558152Y-62751236D01*
X102594362Y-62812551D01*
X102618393Y-62896024D01*
X102632618Y-63010697D01*
X102639412Y-63165613D01*
X102641149Y-63369814D01*
X102640809Y-63475341D01*
X102639101Y-63619541D01*
X102636201Y-63734620D01*
X102632384Y-63810822D01*
X102627925Y-63838391D01*
X102598909Y-63829272D01*
X102540339Y-63804509D01*
X102538581Y-63803707D01*
X102508167Y-63787785D01*
X102487712Y-63765938D01*
X102475240Y-63727672D01*
X102468777Y-63662495D01*
X102466348Y-63559913D01*
X102465977Y-63409433D01*
X102465229Y-63313974D01*
X102457256Y-63134571D01*
X102438998Y-63003163D01*
X102408526Y-62912859D01*
X102363912Y-62856767D01*
X102303226Y-62827994D01*
X102294807Y-62825989D01*
X102181139Y-62824423D01*
X102092492Y-62875348D01*
X102031265Y-62977445D01*
X102020346Y-63006961D01*
X101995458Y-63072283D01*
X101982854Y-63102300D01*
X101956969Y-63098164D01*
X101900439Y-63075717D01*
X101847715Y-63038647D01*
X101823678Y-62968587D01*
X101830847Y-62918406D01*
X101874897Y-62816618D01*
X101946123Y-62721235D01*
X102029415Y-62655269D01*
X102064310Y-62640018D01*
X102196443Y-62614521D01*
X102336725Y-62624619D01*
G37*
X110278487Y-62557689D02*
X110414848Y-62621770D01*
X110526598Y-62732584D01*
X110549761Y-62767273D01*
X110568973Y-62806590D01*
X110582598Y-62856145D01*
X110591877Y-62925568D01*
X110598050Y-63024490D01*
X110602357Y-63162539D01*
X110606038Y-63349346D01*
X110615180Y-63867542D01*
X110538383Y-63838344D01*
X110468068Y-63811520D01*
X110415424Y-63785706D01*
X110381060Y-63752431D01*
X110361093Y-63701510D01*
X110351639Y-63622761D01*
X110348814Y-63505999D01*
X110348736Y-63341042D01*
X110348336Y-63209558D01*
X110345951Y-63083394D01*
X110340259Y-62997223D01*
X110329961Y-62940672D01*
X110313755Y-62903370D01*
X110290345Y-62874943D01*
X110232793Y-62834827D01*
X110136112Y-62819706D01*
X110040465Y-62857917D01*
X110034152Y-62862810D01*
X110014477Y-62885413D01*
X109999963Y-62921664D01*
X109989394Y-62980511D01*
X109981555Y-63070901D01*
X109975227Y-63201779D01*
X109969195Y-63382095D01*
X109954598Y-63864907D01*
X109830517Y-63809283D01*
X109706437Y-63753659D01*
X109706437Y-63312851D01*
X109706951Y-63193098D01*
X109711380Y-63026506D01*
X109722594Y-62902468D01*
X109743272Y-62810987D01*
X109776093Y-62742066D01*
X109823736Y-62685707D01*
X109888877Y-62631914D01*
X109982571Y-62577719D01*
X110130175Y-62542339D01*
X110278487Y-62557689D01*
G36*
X110278487Y-62557689D02*
G01*
X110414848Y-62621770D01*
X110526598Y-62732584D01*
X110549761Y-62767273D01*
X110568973Y-62806590D01*
X110582598Y-62856145D01*
X110591877Y-62925568D01*
X110598050Y-63024490D01*
X110602357Y-63162539D01*
X110606038Y-63349346D01*
X110615180Y-63867542D01*
X110538383Y-63838344D01*
X110468068Y-63811520D01*
X110415424Y-63785706D01*
X110381060Y-63752431D01*
X110361093Y-63701510D01*
X110351639Y-63622761D01*
X110348814Y-63505999D01*
X110348736Y-63341042D01*
X110348336Y-63209558D01*
X110345951Y-63083394D01*
X110340259Y-62997223D01*
X110329961Y-62940672D01*
X110313755Y-62903370D01*
X110290345Y-62874943D01*
X110232793Y-62834827D01*
X110136112Y-62819706D01*
X110040465Y-62857917D01*
X110034152Y-62862810D01*
X110014477Y-62885413D01*
X109999963Y-62921664D01*
X109989394Y-62980511D01*
X109981555Y-63070901D01*
X109975227Y-63201779D01*
X109969195Y-63382095D01*
X109954598Y-63864907D01*
X109830517Y-63809283D01*
X109706437Y-63753659D01*
X109706437Y-63312851D01*
X109706951Y-63193098D01*
X109711380Y-63026506D01*
X109722594Y-62902468D01*
X109743272Y-62810987D01*
X109776093Y-62742066D01*
X109823736Y-62685707D01*
X109888877Y-62631914D01*
X109982571Y-62577719D01*
X110130175Y-62542339D01*
X110278487Y-62557689D01*
G37*
X106610872Y-62655536D02*
X106620090Y-62660638D01*
X106695381Y-62719080D01*
X106762698Y-62794215D01*
X106774439Y-62811196D01*
X106796883Y-62850825D01*
X106812918Y-62897858D01*
X106823945Y-62962492D01*
X106831365Y-63054923D01*
X106836579Y-63185349D01*
X106840989Y-63363965D01*
X106841614Y-63394162D01*
X106843620Y-63589941D01*
X106840792Y-63728603D01*
X106833088Y-63811103D01*
X106820466Y-63838391D01*
X106782267Y-63830220D01*
X106717374Y-63805463D01*
X106702094Y-63798223D01*
X106678227Y-63781835D01*
X106661769Y-63754893D01*
X106651005Y-63707833D01*
X106644219Y-63631088D01*
X106639693Y-63515095D01*
X106635713Y-63350287D01*
X106634622Y-63302112D01*
X106630407Y-63149960D01*
X106624936Y-63043476D01*
X106616554Y-62972565D01*
X106603606Y-62927129D01*
X106584439Y-62897072D01*
X106557398Y-62872296D01*
X106477337Y-62828861D01*
X106378846Y-62820498D01*
X106290719Y-62853734D01*
X106227314Y-62922548D01*
X106202988Y-63020920D01*
X106202311Y-63047658D01*
X106189024Y-63096065D01*
X106149796Y-63103450D01*
X106072983Y-63074624D01*
X106055192Y-63065378D01*
X106007109Y-63011006D01*
X106006157Y-62930161D01*
X106051968Y-62818352D01*
X106093990Y-62757419D01*
X106201435Y-62670859D01*
X106334057Y-62621920D01*
X106475867Y-62615260D01*
X106610872Y-62655536D01*
G36*
X106610872Y-62655536D02*
G01*
X106620090Y-62660638D01*
X106695381Y-62719080D01*
X106762698Y-62794215D01*
X106774439Y-62811196D01*
X106796883Y-62850825D01*
X106812918Y-62897858D01*
X106823945Y-62962492D01*
X106831365Y-63054923D01*
X106836579Y-63185349D01*
X106840989Y-63363965D01*
X106841614Y-63394162D01*
X106843620Y-63589941D01*
X106840792Y-63728603D01*
X106833088Y-63811103D01*
X106820466Y-63838391D01*
X106782267Y-63830220D01*
X106717374Y-63805463D01*
X106702094Y-63798223D01*
X106678227Y-63781835D01*
X106661769Y-63754893D01*
X106651005Y-63707833D01*
X106644219Y-63631088D01*
X106639693Y-63515095D01*
X106635713Y-63350287D01*
X106634622Y-63302112D01*
X106630407Y-63149960D01*
X106624936Y-63043476D01*
X106616554Y-62972565D01*
X106603606Y-62927129D01*
X106584439Y-62897072D01*
X106557398Y-62872296D01*
X106477337Y-62828861D01*
X106378846Y-62820498D01*
X106290719Y-62853734D01*
X106227314Y-62922548D01*
X106202988Y-63020920D01*
X106202311Y-63047658D01*
X106189024Y-63096065D01*
X106149796Y-63103450D01*
X106072983Y-63074624D01*
X106055192Y-63065378D01*
X106007109Y-63011006D01*
X106006157Y-62930161D01*
X106051968Y-62818352D01*
X106093990Y-62757419D01*
X106201435Y-62670859D01*
X106334057Y-62621920D01*
X106475867Y-62615260D01*
X106610872Y-62655536D01*
G37*
X104692410Y-62620970D02*
X104756442Y-62646066D01*
X104830805Y-62679947D01*
X104830805Y-63658727D01*
X104738415Y-63751117D01*
X104717310Y-63771835D01*
X104658847Y-63817885D01*
X104599886Y-63832801D01*
X104512150Y-63825934D01*
X104476429Y-63821494D01*
X104384301Y-63812102D01*
X104319885Y-63808361D01*
X104300778Y-63808933D01*
X104222390Y-63815126D01*
X104127620Y-63825934D01*
X104097298Y-63829647D01*
X104020911Y-63831107D01*
X103965022Y-63808047D01*
X103901355Y-63751117D01*
X103808965Y-63658727D01*
X103808965Y-63135455D01*
X103809685Y-62980821D01*
X103811929Y-62833391D01*
X103815421Y-62716653D01*
X103819876Y-62639840D01*
X103825013Y-62612184D01*
X103826090Y-62612258D01*
X103863407Y-62626019D01*
X103926457Y-62656344D01*
X104011854Y-62700505D01*
X104019893Y-63159965D01*
X104027931Y-63619425D01*
X104203103Y-63619425D01*
X104211092Y-63115805D01*
X104213624Y-62978904D01*
X104217249Y-62832579D01*
X104221177Y-62716411D01*
X104225080Y-62639809D01*
X104228632Y-62612184D01*
X104229653Y-62612281D01*
X104265051Y-62622443D01*
X104330126Y-62644235D01*
X104422069Y-62676287D01*
X104422516Y-63118661D01*
X104422964Y-63195507D01*
X104426069Y-63344834D01*
X104431622Y-63469544D01*
X104439033Y-63558379D01*
X104447714Y-63600083D01*
X104478771Y-63622389D01*
X104542152Y-63629278D01*
X104611839Y-63619425D01*
X104619827Y-63115805D01*
X104622686Y-62987828D01*
X104628614Y-62836348D01*
X104636365Y-62717530D01*
X104645343Y-62639950D01*
X104654948Y-62612184D01*
X104692410Y-62620970D01*
G36*
X104692410Y-62620970D02*
G01*
X104756442Y-62646066D01*
X104830805Y-62679947D01*
X104830805Y-63658727D01*
X104738415Y-63751117D01*
X104717310Y-63771835D01*
X104658847Y-63817885D01*
X104599886Y-63832801D01*
X104512150Y-63825934D01*
X104476429Y-63821494D01*
X104384301Y-63812102D01*
X104319885Y-63808361D01*
X104300778Y-63808933D01*
X104222390Y-63815126D01*
X104127620Y-63825934D01*
X104097298Y-63829647D01*
X104020911Y-63831107D01*
X103965022Y-63808047D01*
X103901355Y-63751117D01*
X103808965Y-63658727D01*
X103808965Y-63135455D01*
X103809685Y-62980821D01*
X103811929Y-62833391D01*
X103815421Y-62716653D01*
X103819876Y-62639840D01*
X103825013Y-62612184D01*
X103826090Y-62612258D01*
X103863407Y-62626019D01*
X103926457Y-62656344D01*
X104011854Y-62700505D01*
X104019893Y-63159965D01*
X104027931Y-63619425D01*
X104203103Y-63619425D01*
X104211092Y-63115805D01*
X104213624Y-62978904D01*
X104217249Y-62832579D01*
X104221177Y-62716411D01*
X104225080Y-62639809D01*
X104228632Y-62612184D01*
X104229653Y-62612281D01*
X104265051Y-62622443D01*
X104330126Y-62644235D01*
X104422069Y-62676287D01*
X104422516Y-63118661D01*
X104422964Y-63195507D01*
X104426069Y-63344834D01*
X104431622Y-63469544D01*
X104439033Y-63558379D01*
X104447714Y-63600083D01*
X104478771Y-63622389D01*
X104542152Y-63629278D01*
X104611839Y-63619425D01*
X104619827Y-63115805D01*
X104622686Y-62987828D01*
X104628614Y-62836348D01*
X104636365Y-62717530D01*
X104645343Y-62639950D01*
X104654948Y-62612184D01*
X104692410Y-62620970D01*
G37*
X108764885Y-62218997D02*
X108859770Y-62259020D01*
X108859770Y-63048706D01*
X108859769Y-63057920D01*
X108859377Y-63265083D01*
X108858329Y-63451432D01*
X108856722Y-63609453D01*
X108854655Y-63731630D01*
X108852225Y-63810448D01*
X108849529Y-63838391D01*
X108848475Y-63838297D01*
X108812647Y-63828144D01*
X108747345Y-63806339D01*
X108655402Y-63774288D01*
X108655402Y-63362991D01*
X108654818Y-63201385D01*
X108652104Y-63084177D01*
X108645858Y-63004415D01*
X108634680Y-62951531D01*
X108617168Y-62914957D01*
X108591922Y-62884123D01*
X108574710Y-62867725D01*
X108481636Y-62822307D01*
X108379051Y-62826328D01*
X108285043Y-62880032D01*
X108271358Y-62893359D01*
X108249439Y-62921032D01*
X108234440Y-62957614D01*
X108225053Y-63013000D01*
X108219968Y-63097088D01*
X108217877Y-63219773D01*
X108217471Y-63390951D01*
X108217276Y-63477769D01*
X108216010Y-63620565D01*
X108213761Y-63734923D01*
X108210758Y-63810860D01*
X108207230Y-63838391D01*
X108206176Y-63838297D01*
X108170348Y-63828144D01*
X108105046Y-63806339D01*
X108013103Y-63774288D01*
X108013149Y-63361109D01*
X108013218Y-63324326D01*
X108017081Y-63132580D01*
X108028950Y-62987586D01*
X108051725Y-62879510D01*
X108088307Y-62798519D01*
X108141595Y-62734778D01*
X108214490Y-62678455D01*
X108285586Y-62643199D01*
X108399255Y-62615946D01*
X108511060Y-62614398D01*
X108597011Y-62640910D01*
X108603473Y-62644571D01*
X108623401Y-62644179D01*
X108637019Y-62613506D01*
X108646846Y-62543188D01*
X108655402Y-62423857D01*
X108670000Y-62178973D01*
X108764885Y-62218997D01*
G36*
X108764885Y-62218997D02*
G01*
X108859770Y-62259020D01*
X108859770Y-63048706D01*
X108859769Y-63057920D01*
X108859377Y-63265083D01*
X108858329Y-63451432D01*
X108856722Y-63609453D01*
X108854655Y-63731630D01*
X108852225Y-63810448D01*
X108849529Y-63838391D01*
X108848475Y-63838297D01*
X108812647Y-63828144D01*
X108747345Y-63806339D01*
X108655402Y-63774288D01*
X108655402Y-63362991D01*
X108654818Y-63201385D01*
X108652104Y-63084177D01*
X108645858Y-63004415D01*
X108634680Y-62951531D01*
X108617168Y-62914957D01*
X108591922Y-62884123D01*
X108574710Y-62867725D01*
X108481636Y-62822307D01*
X108379051Y-62826328D01*
X108285043Y-62880032D01*
X108271358Y-62893359D01*
X108249439Y-62921032D01*
X108234440Y-62957614D01*
X108225053Y-63013000D01*
X108219968Y-63097088D01*
X108217877Y-63219773D01*
X108217471Y-63390951D01*
X108217276Y-63477769D01*
X108216010Y-63620565D01*
X108213761Y-63734923D01*
X108210758Y-63810860D01*
X108207230Y-63838391D01*
X108206176Y-63838297D01*
X108170348Y-63828144D01*
X108105046Y-63806339D01*
X108013103Y-63774288D01*
X108013149Y-63361109D01*
X108013218Y-63324326D01*
X108017081Y-63132580D01*
X108028950Y-62987586D01*
X108051725Y-62879510D01*
X108088307Y-62798519D01*
X108141595Y-62734778D01*
X108214490Y-62678455D01*
X108285586Y-62643199D01*
X108399255Y-62615946D01*
X108511060Y-62614398D01*
X108597011Y-62640910D01*
X108603473Y-62644571D01*
X108623401Y-62644179D01*
X108637019Y-62613506D01*
X108646846Y-62543188D01*
X108655402Y-62423857D01*
X108670000Y-62178973D01*
X108764885Y-62218997D01*
G37*
X113968965Y-63196092D02*
X113968938Y-63227744D01*
X113967355Y-63368918D01*
X113961916Y-63467285D01*
X113950643Y-63535990D01*
X113931561Y-63588181D01*
X113902694Y-63637004D01*
X113895592Y-63647135D01*
X113820444Y-63727012D01*
X113734820Y-63787253D01*
X113690852Y-63806802D01*
X113532861Y-63839408D01*
X113376613Y-63818317D01*
X113232618Y-63746249D01*
X113111385Y-63625922D01*
X113101150Y-63609803D01*
X113067847Y-63516205D01*
X113045405Y-63385879D01*
X113034516Y-63235371D01*
X113035740Y-63096147D01*
X113330384Y-63096147D01*
X113332706Y-63289020D01*
X113333639Y-63301433D01*
X113347242Y-63407857D01*
X113371465Y-63475346D01*
X113412365Y-63521584D01*
X113480941Y-63564895D01*
X113548764Y-63567172D01*
X113618621Y-63517241D01*
X113630771Y-63504102D01*
X113654575Y-63464785D01*
X113668628Y-63407674D01*
X113675313Y-63319256D01*
X113677011Y-63186019D01*
X113674101Y-63061222D01*
X113659582Y-62942326D01*
X113629610Y-62867184D01*
X113580589Y-62827893D01*
X113508924Y-62816552D01*
X113481632Y-62818807D01*
X113405176Y-62860160D01*
X113354650Y-62952900D01*
X113330384Y-63096147D01*
X113035740Y-63096147D01*
X113035871Y-63081227D01*
X113050161Y-62939992D01*
X113078075Y-62828213D01*
X113113949Y-62753766D01*
X113214939Y-62637968D01*
X113351779Y-62566015D01*
X113519283Y-62541281D01*
X113564019Y-62542619D01*
X113695758Y-62570008D01*
X113803968Y-62639007D01*
X113903276Y-62757864D01*
X113909184Y-62766681D01*
X113935921Y-62814108D01*
X113953312Y-62867714D01*
X113963312Y-62940549D01*
X113967878Y-63045659D01*
X113968893Y-63186019D01*
X113968965Y-63196092D01*
G36*
X113968965Y-63196092D02*
G01*
X113968938Y-63227744D01*
X113967355Y-63368918D01*
X113961916Y-63467285D01*
X113950643Y-63535990D01*
X113931561Y-63588181D01*
X113902694Y-63637004D01*
X113895592Y-63647135D01*
X113820444Y-63727012D01*
X113734820Y-63787253D01*
X113690852Y-63806802D01*
X113532861Y-63839408D01*
X113376613Y-63818317D01*
X113232618Y-63746249D01*
X113111385Y-63625922D01*
X113101150Y-63609803D01*
X113067847Y-63516205D01*
X113045405Y-63385879D01*
X113034516Y-63235371D01*
X113035740Y-63096147D01*
X113330384Y-63096147D01*
X113332706Y-63289020D01*
X113333639Y-63301433D01*
X113347242Y-63407857D01*
X113371465Y-63475346D01*
X113412365Y-63521584D01*
X113480941Y-63564895D01*
X113548764Y-63567172D01*
X113618621Y-63517241D01*
X113630771Y-63504102D01*
X113654575Y-63464785D01*
X113668628Y-63407674D01*
X113675313Y-63319256D01*
X113677011Y-63186019D01*
X113674101Y-63061222D01*
X113659582Y-62942326D01*
X113629610Y-62867184D01*
X113580589Y-62827893D01*
X113508924Y-62816552D01*
X113481632Y-62818807D01*
X113405176Y-62860160D01*
X113354650Y-62952900D01*
X113330384Y-63096147D01*
X113035740Y-63096147D01*
X113035871Y-63081227D01*
X113050161Y-62939992D01*
X113078075Y-62828213D01*
X113113949Y-62753766D01*
X113214939Y-62637968D01*
X113351779Y-62566015D01*
X113519283Y-62541281D01*
X113564019Y-62542619D01*
X113695758Y-62570008D01*
X113803968Y-62639007D01*
X113903276Y-62757864D01*
X113909184Y-62766681D01*
X113935921Y-62814108D01*
X113953312Y-62867714D01*
X113963312Y-62940549D01*
X113967878Y-63045659D01*
X113968893Y-63186019D01*
X113968965Y-63196092D01*
G37*
X101648313Y-63231136D02*
X101647744Y-63308946D01*
X101640612Y-63462254D01*
X101621948Y-63574441D01*
X101587537Y-63657554D01*
X101533162Y-63723641D01*
X101454610Y-63784747D01*
X101404630Y-63812535D01*
X101324513Y-63831251D01*
X101211970Y-63829774D01*
X101149050Y-63823845D01*
X101073153Y-63805742D01*
X101012487Y-63766391D01*
X100941912Y-63693066D01*
X100932482Y-63682356D01*
X100869034Y-63599938D01*
X100838762Y-63528156D01*
X100831034Y-63443034D01*
X100831034Y-63317946D01*
X100918447Y-63350940D01*
X100982175Y-63389509D01*
X101037567Y-63480008D01*
X101049131Y-63508983D01*
X101113788Y-63591041D01*
X101201804Y-63632347D01*
X101297637Y-63628633D01*
X101385747Y-63575632D01*
X101416028Y-63542582D01*
X101443489Y-63492720D01*
X101434899Y-63447416D01*
X101385463Y-63400790D01*
X101290389Y-63346958D01*
X101144885Y-63280039D01*
X100845632Y-63149056D01*
X100837691Y-63019298D01*
X100840676Y-62936649D01*
X101035652Y-62936649D01*
X101050453Y-62987815D01*
X101117797Y-63042442D01*
X101240027Y-63104597D01*
X101260253Y-63113601D01*
X101356970Y-63155493D01*
X101429334Y-63184958D01*
X101462961Y-63196092D01*
X101468056Y-63187896D01*
X101470101Y-63137853D01*
X101462812Y-63057414D01*
X101444452Y-62978753D01*
X101387188Y-62879651D01*
X101304524Y-62823808D01*
X101205784Y-62816250D01*
X101100289Y-62862000D01*
X101071053Y-62884876D01*
X101035652Y-62936649D01*
X100840676Y-62936649D01*
X100841196Y-62922255D01*
X100885336Y-62799617D01*
X100941050Y-62732034D01*
X101056561Y-62656540D01*
X101193588Y-62618403D01*
X101335237Y-62621422D01*
X101464617Y-62669393D01*
X101493099Y-62687813D01*
X101558428Y-62744811D01*
X101603106Y-62816916D01*
X101630641Y-62914853D01*
X101644541Y-63049351D01*
X101646378Y-63137853D01*
X101648313Y-63231136D01*
G36*
X101648313Y-63231136D02*
G01*
X101647744Y-63308946D01*
X101640612Y-63462254D01*
X101621948Y-63574441D01*
X101587537Y-63657554D01*
X101533162Y-63723641D01*
X101454610Y-63784747D01*
X101404630Y-63812535D01*
X101324513Y-63831251D01*
X101211970Y-63829774D01*
X101149050Y-63823845D01*
X101073153Y-63805742D01*
X101012487Y-63766391D01*
X100941912Y-63693066D01*
X100932482Y-63682356D01*
X100869034Y-63599938D01*
X100838762Y-63528156D01*
X100831034Y-63443034D01*
X100831034Y-63317946D01*
X100918447Y-63350940D01*
X100982175Y-63389509D01*
X101037567Y-63480008D01*
X101049131Y-63508983D01*
X101113788Y-63591041D01*
X101201804Y-63632347D01*
X101297637Y-63628633D01*
X101385747Y-63575632D01*
X101416028Y-63542582D01*
X101443489Y-63492720D01*
X101434899Y-63447416D01*
X101385463Y-63400790D01*
X101290389Y-63346958D01*
X101144885Y-63280039D01*
X100845632Y-63149056D01*
X100837691Y-63019298D01*
X100840676Y-62936649D01*
X101035652Y-62936649D01*
X101050453Y-62987815D01*
X101117797Y-63042442D01*
X101240027Y-63104597D01*
X101260253Y-63113601D01*
X101356970Y-63155493D01*
X101429334Y-63184958D01*
X101462961Y-63196092D01*
X101468056Y-63187896D01*
X101470101Y-63137853D01*
X101462812Y-63057414D01*
X101444452Y-62978753D01*
X101387188Y-62879651D01*
X101304524Y-62823808D01*
X101205784Y-62816250D01*
X101100289Y-62862000D01*
X101071053Y-62884876D01*
X101035652Y-62936649D01*
X100840676Y-62936649D01*
X100841196Y-62922255D01*
X100885336Y-62799617D01*
X100941050Y-62732034D01*
X101056561Y-62656540D01*
X101193588Y-62618403D01*
X101335237Y-62621422D01*
X101464617Y-62669393D01*
X101493099Y-62687813D01*
X101558428Y-62744811D01*
X101603106Y-62816916D01*
X101630641Y-62914853D01*
X101644541Y-63049351D01*
X101646378Y-63137853D01*
X101648313Y-63231136D01*
G37*
X105852553Y-63225287D02*
X105850219Y-63339135D01*
X105833739Y-63494320D01*
X105797883Y-63610612D01*
X105738455Y-63699411D01*
X105651257Y-63772119D01*
X105568195Y-63814150D01*
X105428709Y-63837538D01*
X105289412Y-63811965D01*
X105163510Y-63740694D01*
X105064210Y-63626991D01*
X105052219Y-63606024D01*
X105036384Y-63569291D01*
X105024638Y-63522415D01*
X105016378Y-63457355D01*
X105010998Y-63366070D01*
X105007892Y-63240519D01*
X105007797Y-63229379D01*
X105210345Y-63229379D01*
X105211035Y-63335644D01*
X105215400Y-63431762D01*
X105226192Y-63493811D01*
X105246126Y-63535502D01*
X105277916Y-63570543D01*
X105285364Y-63577279D01*
X105381060Y-63626992D01*
X105482312Y-63621905D01*
X105576614Y-63562362D01*
X105604694Y-63531514D01*
X105628196Y-63490618D01*
X105641322Y-63434080D01*
X105647030Y-63347657D01*
X105648276Y-63217106D01*
X105647661Y-63117487D01*
X105643407Y-63020251D01*
X105632682Y-62957502D01*
X105612707Y-62915382D01*
X105580704Y-62880032D01*
X105561905Y-62864114D01*
X105464492Y-62821235D01*
X105362437Y-62827985D01*
X105273825Y-62884123D01*
X105254749Y-62906382D01*
X105231486Y-62948293D01*
X105218036Y-63006822D01*
X105211841Y-63095880D01*
X105210345Y-63229379D01*
X105007797Y-63229379D01*
X105006457Y-63072661D01*
X105006086Y-62854455D01*
X105005977Y-62177072D01*
X105100862Y-62216819D01*
X105125949Y-62227699D01*
X105165881Y-62252268D01*
X105188739Y-62289475D01*
X105201301Y-62354541D01*
X105210345Y-62462687D01*
X105218605Y-62559788D01*
X105229523Y-62623535D01*
X105245165Y-62647323D01*
X105268736Y-62640943D01*
X105328801Y-62618525D01*
X105436145Y-62612967D01*
X105551624Y-62633728D01*
X105651257Y-62678455D01*
X105706072Y-62719856D01*
X105776452Y-62800632D01*
X105821528Y-62904195D01*
X105845496Y-63041947D01*
X105852239Y-63217106D01*
X105852553Y-63225287D01*
G36*
X105852553Y-63225287D02*
G01*
X105850219Y-63339135D01*
X105833739Y-63494320D01*
X105797883Y-63610612D01*
X105738455Y-63699411D01*
X105651257Y-63772119D01*
X105568195Y-63814150D01*
X105428709Y-63837538D01*
X105289412Y-63811965D01*
X105163510Y-63740694D01*
X105064210Y-63626991D01*
X105052219Y-63606024D01*
X105036384Y-63569291D01*
X105024638Y-63522415D01*
X105016378Y-63457355D01*
X105010998Y-63366070D01*
X105007892Y-63240519D01*
X105007797Y-63229379D01*
X105210345Y-63229379D01*
X105211035Y-63335644D01*
X105215400Y-63431762D01*
X105226192Y-63493811D01*
X105246126Y-63535502D01*
X105277916Y-63570543D01*
X105285364Y-63577279D01*
X105381060Y-63626992D01*
X105482312Y-63621905D01*
X105576614Y-63562362D01*
X105604694Y-63531514D01*
X105628196Y-63490618D01*
X105641322Y-63434080D01*
X105647030Y-63347657D01*
X105648276Y-63217106D01*
X105647661Y-63117487D01*
X105643407Y-63020251D01*
X105632682Y-62957502D01*
X105612707Y-62915382D01*
X105580704Y-62880032D01*
X105561905Y-62864114D01*
X105464492Y-62821235D01*
X105362437Y-62827985D01*
X105273825Y-62884123D01*
X105254749Y-62906382D01*
X105231486Y-62948293D01*
X105218036Y-63006822D01*
X105211841Y-63095880D01*
X105210345Y-63229379D01*
X105007797Y-63229379D01*
X105006457Y-63072661D01*
X105006086Y-62854455D01*
X105005977Y-62177072D01*
X105100862Y-62216819D01*
X105125949Y-62227699D01*
X105165881Y-62252268D01*
X105188739Y-62289475D01*
X105201301Y-62354541D01*
X105210345Y-62462687D01*
X105218605Y-62559788D01*
X105229523Y-62623535D01*
X105245165Y-62647323D01*
X105268736Y-62640943D01*
X105328801Y-62618525D01*
X105436145Y-62612967D01*
X105551624Y-62633728D01*
X105651257Y-62678455D01*
X105706072Y-62719856D01*
X105776452Y-62800632D01*
X105821528Y-62904195D01*
X105845496Y-63041947D01*
X105852239Y-63217106D01*
X105852553Y-63225287D01*
G37*
X111749452Y-63113329D02*
X111740168Y-63334639D01*
X111734926Y-63381526D01*
X111695868Y-63548409D01*
X111625290Y-63675326D01*
X111517955Y-63772602D01*
X111511888Y-63776616D01*
X111375440Y-63833706D01*
X111232973Y-63838786D01*
X111095696Y-63795311D01*
X110974819Y-63706734D01*
X110881552Y-63576509D01*
X110879986Y-63573369D01*
X110848993Y-63492501D01*
X110826292Y-63400593D01*
X110814250Y-63314311D01*
X110815237Y-63250321D01*
X110831623Y-63225287D01*
X110846179Y-63226809D01*
X110915792Y-63254496D01*
X110994697Y-63305409D01*
X111061820Y-63364343D01*
X111096087Y-63416094D01*
X111131707Y-63486291D01*
X111204711Y-63550138D01*
X111289485Y-63575632D01*
X111320558Y-63568261D01*
X111381891Y-63531154D01*
X111435315Y-63479644D01*
X111458161Y-63432913D01*
X111458154Y-63432740D01*
X111432233Y-63411280D01*
X111363127Y-63372565D01*
X111261249Y-63322037D01*
X111137011Y-63265134D01*
X111136328Y-63264833D01*
X111001355Y-63204738D01*
X110910884Y-63161440D01*
X110856039Y-63128179D01*
X110827944Y-63098194D01*
X110817724Y-63064726D01*
X110816503Y-63021015D01*
X110824996Y-62938244D01*
X111113219Y-62938244D01*
X111142970Y-62964265D01*
X111217101Y-63003256D01*
X111219274Y-63004359D01*
X111306733Y-63046009D01*
X111384974Y-63079235D01*
X111434611Y-63093291D01*
X111454521Y-63074503D01*
X111458161Y-63010124D01*
X111443035Y-62930001D01*
X111390597Y-62857189D01*
X111314677Y-62819439D01*
X111230040Y-62823251D01*
X111151447Y-62875121D01*
X111120555Y-62910965D01*
X111113219Y-62938244D01*
X110824996Y-62938244D01*
X110827251Y-62916265D01*
X110880389Y-62773949D01*
X110969342Y-62662111D01*
X111084448Y-62584676D01*
X111216045Y-62545568D01*
X111354472Y-62548711D01*
X111490065Y-62598030D01*
X111613164Y-62697447D01*
X111681366Y-62795829D01*
X111730356Y-62936261D01*
X111738322Y-63010124D01*
X111749452Y-63113329D01*
G36*
X111749452Y-63113329D02*
G01*
X111740168Y-63334639D01*
X111734926Y-63381526D01*
X111695868Y-63548409D01*
X111625290Y-63675326D01*
X111517955Y-63772602D01*
X111511888Y-63776616D01*
X111375440Y-63833706D01*
X111232973Y-63838786D01*
X111095696Y-63795311D01*
X110974819Y-63706734D01*
X110881552Y-63576509D01*
X110879986Y-63573369D01*
X110848993Y-63492501D01*
X110826292Y-63400593D01*
X110814250Y-63314311D01*
X110815237Y-63250321D01*
X110831623Y-63225287D01*
X110846179Y-63226809D01*
X110915792Y-63254496D01*
X110994697Y-63305409D01*
X111061820Y-63364343D01*
X111096087Y-63416094D01*
X111131707Y-63486291D01*
X111204711Y-63550138D01*
X111289485Y-63575632D01*
X111320558Y-63568261D01*
X111381891Y-63531154D01*
X111435315Y-63479644D01*
X111458161Y-63432913D01*
X111458154Y-63432740D01*
X111432233Y-63411280D01*
X111363127Y-63372565D01*
X111261249Y-63322037D01*
X111137011Y-63265134D01*
X111136328Y-63264833D01*
X111001355Y-63204738D01*
X110910884Y-63161440D01*
X110856039Y-63128179D01*
X110827944Y-63098194D01*
X110817724Y-63064726D01*
X110816503Y-63021015D01*
X110824996Y-62938244D01*
X111113219Y-62938244D01*
X111142970Y-62964265D01*
X111217101Y-63003256D01*
X111219274Y-63004359D01*
X111306733Y-63046009D01*
X111384974Y-63079235D01*
X111434611Y-63093291D01*
X111454521Y-63074503D01*
X111458161Y-63010124D01*
X111443035Y-62930001D01*
X111390597Y-62857189D01*
X111314677Y-62819439D01*
X111230040Y-62823251D01*
X111151447Y-62875121D01*
X111120555Y-62910965D01*
X111113219Y-62938244D01*
X110824996Y-62938244D01*
X110827251Y-62916265D01*
X110880389Y-62773949D01*
X110969342Y-62662111D01*
X111084448Y-62584676D01*
X111216045Y-62545568D01*
X111354472Y-62548711D01*
X111490065Y-62598030D01*
X111613164Y-62697447D01*
X111681366Y-62795829D01*
X111730356Y-62936261D01*
X111738322Y-63010124D01*
X111749452Y-63113329D01*
G37*
X107579995Y-62643674D02*
X107680355Y-62702191D01*
X107724505Y-62747784D01*
X107809347Y-62884072D01*
X107837931Y-63032658D01*
X107837931Y-63134882D01*
X107743963Y-63095372D01*
X107678977Y-63055504D01*
X107627763Y-62972734D01*
X107622504Y-62955669D01*
X107565903Y-62868724D01*
X107480594Y-62821758D01*
X107382641Y-62819741D01*
X107288106Y-62867644D01*
X107273993Y-62879998D01*
X107226797Y-62933683D01*
X107219003Y-62980488D01*
X107254706Y-63026446D01*
X107338003Y-63077588D01*
X107472988Y-63139948D01*
X107482118Y-63143897D01*
X107631969Y-63213772D01*
X107734316Y-63275672D01*
X107797320Y-63337476D01*
X107829138Y-63407062D01*
X107837931Y-63492308D01*
X107826409Y-63586816D01*
X107768228Y-63707785D01*
X107665875Y-63794688D01*
X107591843Y-63820778D01*
X107487367Y-63835055D01*
X107385917Y-63832006D01*
X107313472Y-63810467D01*
X107305777Y-63805104D01*
X107285341Y-63767632D01*
X107299522Y-63701591D01*
X107324161Y-63649753D01*
X107363670Y-63628172D01*
X107438602Y-63629246D01*
X107542630Y-63623055D01*
X107610605Y-63580311D01*
X107633563Y-63501189D01*
X107633542Y-63498916D01*
X107619629Y-63452986D01*
X107572303Y-63410845D01*
X107480287Y-63362272D01*
X107355151Y-63303790D01*
X107272268Y-63271975D01*
X107224420Y-63274025D01*
X107202063Y-63316051D01*
X107195649Y-63404162D01*
X107195632Y-63544469D01*
X107194917Y-63631081D01*
X107191635Y-63738041D01*
X107186300Y-63811250D01*
X107179585Y-63838391D01*
X107177790Y-63838206D01*
X107138982Y-63823498D01*
X107074709Y-63792456D01*
X106985880Y-63746521D01*
X106996436Y-63332628D01*
X106997171Y-63305179D01*
X107005555Y-63112517D01*
X107020366Y-62967309D01*
X107044629Y-62859887D01*
X107081364Y-62780584D01*
X107133597Y-62719730D01*
X107204348Y-62667658D01*
X107205657Y-62666842D01*
X107320056Y-62624360D01*
X107452365Y-62617184D01*
X107579995Y-62643674D01*
G36*
X107579995Y-62643674D02*
G01*
X107680355Y-62702191D01*
X107724505Y-62747784D01*
X107809347Y-62884072D01*
X107837931Y-63032658D01*
X107837931Y-63134882D01*
X107743963Y-63095372D01*
X107678977Y-63055504D01*
X107627763Y-62972734D01*
X107622504Y-62955669D01*
X107565903Y-62868724D01*
X107480594Y-62821758D01*
X107382641Y-62819741D01*
X107288106Y-62867644D01*
X107273993Y-62879998D01*
X107226797Y-62933683D01*
X107219003Y-62980488D01*
X107254706Y-63026446D01*
X107338003Y-63077588D01*
X107472988Y-63139948D01*
X107482118Y-63143897D01*
X107631969Y-63213772D01*
X107734316Y-63275672D01*
X107797320Y-63337476D01*
X107829138Y-63407062D01*
X107837931Y-63492308D01*
X107826409Y-63586816D01*
X107768228Y-63707785D01*
X107665875Y-63794688D01*
X107591843Y-63820778D01*
X107487367Y-63835055D01*
X107385917Y-63832006D01*
X107313472Y-63810467D01*
X107305777Y-63805104D01*
X107285341Y-63767632D01*
X107299522Y-63701591D01*
X107324161Y-63649753D01*
X107363670Y-63628172D01*
X107438602Y-63629246D01*
X107542630Y-63623055D01*
X107610605Y-63580311D01*
X107633563Y-63501189D01*
X107633542Y-63498916D01*
X107619629Y-63452986D01*
X107572303Y-63410845D01*
X107480287Y-63362272D01*
X107355151Y-63303790D01*
X107272268Y-63271975D01*
X107224420Y-63274025D01*
X107202063Y-63316051D01*
X107195649Y-63404162D01*
X107195632Y-63544469D01*
X107194917Y-63631081D01*
X107191635Y-63738041D01*
X107186300Y-63811250D01*
X107179585Y-63838391D01*
X107177790Y-63838206D01*
X107138982Y-63823498D01*
X107074709Y-63792456D01*
X106985880Y-63746521D01*
X106996436Y-63332628D01*
X106997171Y-63305179D01*
X107005555Y-63112517D01*
X107020366Y-62967309D01*
X107044629Y-62859887D01*
X107081364Y-62780584D01*
X107133597Y-62719730D01*
X107204348Y-62667658D01*
X107205657Y-62666842D01*
X107320056Y-62624360D01*
X107452365Y-62617184D01*
X107579995Y-62643674D01*
G37*
X103311628Y-62614810D02*
X103374194Y-62630702D01*
X103432446Y-62670322D01*
X103507418Y-62744076D01*
X103555633Y-62796163D01*
X103605858Y-62863786D01*
X103628510Y-62927168D01*
X103633793Y-63007584D01*
X103633793Y-63139201D01*
X103544035Y-63092785D01*
X103472904Y-63036225D01*
X103424183Y-62960040D01*
X103415814Y-62939326D01*
X103352056Y-62859041D01*
X103263470Y-62818784D01*
X103166873Y-62822702D01*
X103079080Y-62874943D01*
X103041936Y-62917370D01*
X103020300Y-62971647D01*
X103043461Y-63019954D01*
X103115479Y-63068545D01*
X103240410Y-63123677D01*
X103259368Y-63131292D01*
X103373105Y-63181125D01*
X103470706Y-63230265D01*
X103532803Y-63269080D01*
X103594999Y-63338411D01*
X103636346Y-63449051D01*
X103631957Y-63567782D01*
X103583037Y-63680148D01*
X103490797Y-63771690D01*
X103416110Y-63810658D01*
X103271832Y-63837944D01*
X103191656Y-63834263D01*
X103117435Y-63814360D01*
X103088960Y-63772598D01*
X103099608Y-63703820D01*
X103102705Y-63694726D01*
X103127268Y-63646498D01*
X103168165Y-63628245D01*
X103246079Y-63629466D01*
X103301091Y-63631126D01*
X103365459Y-63616881D01*
X103409561Y-63574292D01*
X103434680Y-63521857D01*
X103437481Y-63466929D01*
X103437352Y-63466608D01*
X103404785Y-63436928D01*
X103335083Y-63393735D01*
X103244898Y-63345461D01*
X103150883Y-63300539D01*
X103069689Y-63267402D01*
X103017968Y-63254483D01*
X103010274Y-63267134D01*
X103000588Y-63326668D01*
X102993954Y-63423887D01*
X102991494Y-63546437D01*
X102990922Y-63631263D01*
X102988225Y-63738094D01*
X102983821Y-63811257D01*
X102978270Y-63838391D01*
X102949254Y-63829272D01*
X102890684Y-63804509D01*
X102816322Y-63770627D01*
X102816322Y-63335933D01*
X102816797Y-63224508D01*
X102821293Y-63055301D01*
X102832747Y-62929769D01*
X102853828Y-62838363D01*
X102887206Y-62771532D01*
X102935550Y-62719726D01*
X103001531Y-62673393D01*
X103085594Y-62635156D01*
X103240807Y-62612184D01*
X103311628Y-62614810D01*
G36*
X103311628Y-62614810D02*
G01*
X103374194Y-62630702D01*
X103432446Y-62670322D01*
X103507418Y-62744076D01*
X103555633Y-62796163D01*
X103605858Y-62863786D01*
X103628510Y-62927168D01*
X103633793Y-63007584D01*
X103633793Y-63139201D01*
X103544035Y-63092785D01*
X103472904Y-63036225D01*
X103424183Y-62960040D01*
X103415814Y-62939326D01*
X103352056Y-62859041D01*
X103263470Y-62818784D01*
X103166873Y-62822702D01*
X103079080Y-62874943D01*
X103041936Y-62917370D01*
X103020300Y-62971647D01*
X103043461Y-63019954D01*
X103115479Y-63068545D01*
X103240410Y-63123677D01*
X103259368Y-63131292D01*
X103373105Y-63181125D01*
X103470706Y-63230265D01*
X103532803Y-63269080D01*
X103594999Y-63338411D01*
X103636346Y-63449051D01*
X103631957Y-63567782D01*
X103583037Y-63680148D01*
X103490797Y-63771690D01*
X103416110Y-63810658D01*
X103271832Y-63837944D01*
X103191656Y-63834263D01*
X103117435Y-63814360D01*
X103088960Y-63772598D01*
X103099608Y-63703820D01*
X103102705Y-63694726D01*
X103127268Y-63646498D01*
X103168165Y-63628245D01*
X103246079Y-63629466D01*
X103301091Y-63631126D01*
X103365459Y-63616881D01*
X103409561Y-63574292D01*
X103434680Y-63521857D01*
X103437481Y-63466929D01*
X103437352Y-63466608D01*
X103404785Y-63436928D01*
X103335083Y-63393735D01*
X103244898Y-63345461D01*
X103150883Y-63300539D01*
X103069689Y-63267402D01*
X103017968Y-63254483D01*
X103010274Y-63267134D01*
X103000588Y-63326668D01*
X102993954Y-63423887D01*
X102991494Y-63546437D01*
X102990922Y-63631263D01*
X102988225Y-63738094D01*
X102983821Y-63811257D01*
X102978270Y-63838391D01*
X102949254Y-63829272D01*
X102890684Y-63804509D01*
X102816322Y-63770627D01*
X102816322Y-63335933D01*
X102816797Y-63224508D01*
X102821293Y-63055301D01*
X102832747Y-62929769D01*
X102853828Y-62838363D01*
X102887206Y-62771532D01*
X102935550Y-62719726D01*
X103001531Y-62673393D01*
X103085594Y-62635156D01*
X103240807Y-62612184D01*
X103311628Y-62614810D01*
G37*
X112850778Y-63329502D02*
X112853668Y-63553736D01*
X112854471Y-63618785D01*
X112857040Y-63836260D01*
X112857556Y-64002672D01*
X112854437Y-64123846D01*
X112846100Y-64205607D01*
X112830962Y-64253781D01*
X112807441Y-64274194D01*
X112773956Y-64272672D01*
X112728923Y-64255039D01*
X112670761Y-64227121D01*
X112658332Y-64221164D01*
X112606578Y-64192006D01*
X112579550Y-64157314D01*
X112569207Y-64099470D01*
X112567509Y-64000857D01*
X112567433Y-63823793D01*
X112385038Y-63823793D01*
X112272840Y-63818880D01*
X112184620Y-63798953D01*
X112111358Y-63758678D01*
X112105896Y-63754741D01*
X112031558Y-63688243D01*
X111979823Y-63607908D01*
X111947196Y-63502758D01*
X111930182Y-63361815D01*
X111926030Y-63202588D01*
X112217241Y-63202588D01*
X112217291Y-63229276D01*
X112220064Y-63349738D01*
X112228967Y-63428484D01*
X112246617Y-63479618D01*
X112275632Y-63517241D01*
X112277440Y-63519038D01*
X112348753Y-63567720D01*
X112417865Y-63562921D01*
X112495925Y-63503971D01*
X112515019Y-63483823D01*
X112543142Y-63442515D01*
X112559000Y-63388787D01*
X112566009Y-63307326D01*
X112567586Y-63182821D01*
X112566220Y-63107445D01*
X112551402Y-62970362D01*
X112517579Y-62880548D01*
X112461389Y-62831460D01*
X112379472Y-62816552D01*
X112344956Y-62819729D01*
X112285235Y-62851254D01*
X112245752Y-62921505D01*
X112223942Y-63036583D01*
X112217241Y-63202588D01*
X111926030Y-63202588D01*
X111925287Y-63174101D01*
X111926371Y-63037122D01*
X111931307Y-62933364D01*
X111942272Y-62861412D01*
X111961438Y-62807500D01*
X111990977Y-62757864D01*
X112018092Y-62719931D01*
X112116550Y-62617522D01*
X112228100Y-62561903D01*
X112368246Y-62544297D01*
X112528635Y-62561847D01*
X112667288Y-62624797D01*
X112776951Y-62735824D01*
X112785218Y-62747578D01*
X112804499Y-62778813D01*
X112819269Y-62814507D01*
X112830254Y-62862364D01*
X112838174Y-62930087D01*
X112843753Y-63025382D01*
X112847713Y-63155952D01*
X112848188Y-63182821D01*
X112850778Y-63329502D01*
G36*
X112850778Y-63329502D02*
G01*
X112853668Y-63553736D01*
X112854471Y-63618785D01*
X112857040Y-63836260D01*
X112857556Y-64002672D01*
X112854437Y-64123846D01*
X112846100Y-64205607D01*
X112830962Y-64253781D01*
X112807441Y-64274194D01*
X112773956Y-64272672D01*
X112728923Y-64255039D01*
X112670761Y-64227121D01*
X112658332Y-64221164D01*
X112606578Y-64192006D01*
X112579550Y-64157314D01*
X112569207Y-64099470D01*
X112567509Y-64000857D01*
X112567433Y-63823793D01*
X112385038Y-63823793D01*
X112272840Y-63818880D01*
X112184620Y-63798953D01*
X112111358Y-63758678D01*
X112105896Y-63754741D01*
X112031558Y-63688243D01*
X111979823Y-63607908D01*
X111947196Y-63502758D01*
X111930182Y-63361815D01*
X111926030Y-63202588D01*
X112217241Y-63202588D01*
X112217291Y-63229276D01*
X112220064Y-63349738D01*
X112228967Y-63428484D01*
X112246617Y-63479618D01*
X112275632Y-63517241D01*
X112277440Y-63519038D01*
X112348753Y-63567720D01*
X112417865Y-63562921D01*
X112495925Y-63503971D01*
X112515019Y-63483823D01*
X112543142Y-63442515D01*
X112559000Y-63388787D01*
X112566009Y-63307326D01*
X112567586Y-63182821D01*
X112566220Y-63107445D01*
X112551402Y-62970362D01*
X112517579Y-62880548D01*
X112461389Y-62831460D01*
X112379472Y-62816552D01*
X112344956Y-62819729D01*
X112285235Y-62851254D01*
X112245752Y-62921505D01*
X112223942Y-63036583D01*
X112217241Y-63202588D01*
X111926030Y-63202588D01*
X111925287Y-63174101D01*
X111926371Y-63037122D01*
X111931307Y-62933364D01*
X111942272Y-62861412D01*
X111961438Y-62807500D01*
X111990977Y-62757864D01*
X112018092Y-62719931D01*
X112116550Y-62617522D01*
X112228100Y-62561903D01*
X112368246Y-62544297D01*
X112528635Y-62561847D01*
X112667288Y-62624797D01*
X112776951Y-62735824D01*
X112785218Y-62747578D01*
X112804499Y-62778813D01*
X112819269Y-62814507D01*
X112830254Y-62862364D01*
X112838174Y-62930087D01*
X112843753Y-63025382D01*
X112847713Y-63155952D01*
X112848188Y-63182821D01*
X112850778Y-63329502D01*
G37*
X107629175Y-53153045D02*
X107781895Y-53154039D01*
X107891792Y-53156593D01*
X107966235Y-53161445D01*
X108012594Y-53169331D01*
X108038239Y-53180988D01*
X108050539Y-53197153D01*
X108056865Y-53218563D01*
X108057047Y-53219332D01*
X108067441Y-53269663D01*
X108086339Y-53366888D01*
X108111802Y-53500810D01*
X108141890Y-53661235D01*
X108174664Y-53837967D01*
X108177337Y-53852428D01*
X108210010Y-54023959D01*
X108240413Y-54174625D01*
X108266568Y-54295267D01*
X108286496Y-54376729D01*
X108298220Y-54409852D01*
X108298282Y-54409905D01*
X108335229Y-54428229D01*
X108411057Y-54458677D01*
X108509425Y-54494685D01*
X108514965Y-54496640D01*
X108640724Y-54544170D01*
X108787011Y-54603783D01*
X108923293Y-54663056D01*
X109147390Y-54764765D01*
X109643618Y-54425897D01*
X109678570Y-54402063D01*
X109828280Y-54300755D01*
X109961867Y-54211575D01*
X110071343Y-54139773D01*
X110148718Y-54090603D01*
X110186004Y-54069317D01*
X110211552Y-54074196D01*
X110269555Y-54112002D01*
X110359195Y-54186870D01*
X110482957Y-54300903D01*
X110643328Y-54456205D01*
X110657679Y-54470341D01*
X110784933Y-54596999D01*
X110897969Y-54711745D01*
X110989867Y-54807391D01*
X111053707Y-54876746D01*
X111082570Y-54912620D01*
X111082664Y-54912794D01*
X111086331Y-54940106D01*
X111072808Y-54984408D01*
X111038684Y-55051761D01*
X110980548Y-55148226D01*
X110894988Y-55279863D01*
X110778594Y-55452734D01*
X110758759Y-55481912D01*
X110658445Y-55629726D01*
X110569923Y-55760577D01*
X110498465Y-55866643D01*
X110449343Y-55940102D01*
X110427831Y-55973130D01*
X110426208Y-55980126D01*
X110436387Y-56032326D01*
X110466879Y-56117561D01*
X110512712Y-56221291D01*
X110575000Y-56356951D01*
X110644548Y-56517921D01*
X110703609Y-56663621D01*
X110718252Y-56701333D01*
X110756600Y-56797622D01*
X110784770Y-56864704D01*
X110797497Y-56889885D01*
X110811545Y-56891767D01*
X110874681Y-56902651D01*
X110978019Y-56921449D01*
X111110809Y-56946115D01*
X111262297Y-56974604D01*
X111421732Y-57004873D01*
X111578361Y-57034875D01*
X111721433Y-57062566D01*
X111840195Y-57085900D01*
X111923896Y-57102833D01*
X111961782Y-57111320D01*
X111968063Y-57113713D01*
X111983373Y-57126619D01*
X111994763Y-57154096D01*
X112002803Y-57203446D01*
X112008064Y-57281973D01*
X112011116Y-57396980D01*
X112012529Y-57555770D01*
X112012873Y-57765645D01*
X112012873Y-58403906D01*
X111859598Y-58434160D01*
X111841057Y-58437785D01*
X111742596Y-58456569D01*
X111606448Y-58482093D01*
X111448087Y-58511468D01*
X111282988Y-58541806D01*
X111217973Y-58554009D01*
X111072697Y-58583697D01*
X110951626Y-58611770D01*
X110865886Y-58635536D01*
X110826601Y-58652301D01*
X110808799Y-58679694D01*
X110776389Y-58752174D01*
X110743234Y-58845977D01*
X110731564Y-58881103D01*
X110688604Y-58996409D01*
X110633192Y-59132876D01*
X110574353Y-59267954D01*
X110542884Y-59338509D01*
X110498051Y-59443895D01*
X110467240Y-59522818D01*
X110455785Y-59562053D01*
X110456422Y-59565014D01*
X110478150Y-59606639D01*
X110527146Y-59686969D01*
X110598438Y-59798220D01*
X110687054Y-59932605D01*
X110788023Y-60082340D01*
X111120261Y-60569931D01*
X110683771Y-61007149D01*
X110641555Y-61049221D01*
X110512470Y-61175153D01*
X110397107Y-61283754D01*
X110302224Y-61368903D01*
X110234582Y-61424482D01*
X110200938Y-61444368D01*
X110164402Y-61429238D01*
X110087890Y-61385801D01*
X109980196Y-61319270D01*
X109849767Y-61234867D01*
X109705052Y-61137816D01*
X109562910Y-61041964D01*
X109434678Y-60957557D01*
X109330054Y-60890850D01*
X109257171Y-60847024D01*
X109224158Y-60831264D01*
X109222223Y-60831408D01*
X109178369Y-60846945D01*
X109100598Y-60883121D01*
X109004392Y-60932785D01*
X109003381Y-60933329D01*
X108875605Y-60997326D01*
X108788051Y-61028591D01*
X108733726Y-61028677D01*
X108705641Y-60999138D01*
X108693752Y-60970061D01*
X108661668Y-60892188D01*
X108612247Y-60772475D01*
X108548118Y-60617286D01*
X108471911Y-60432984D01*
X108386255Y-60225933D01*
X108293781Y-60002496D01*
X108209962Y-59799226D01*
X108124678Y-59590649D01*
X108049222Y-59404263D01*
X107986126Y-59246407D01*
X107937923Y-59123419D01*
X107907144Y-59041639D01*
X107896322Y-59007406D01*
X107916991Y-58976015D01*
X107974409Y-58923602D01*
X108055688Y-58862704D01*
X108250820Y-58703387D01*
X108425445Y-58499807D01*
X108553235Y-58275808D01*
X108633402Y-58038003D01*
X108665160Y-57793007D01*
X108647722Y-57547433D01*
X108580301Y-57307895D01*
X108462111Y-57081007D01*
X108292364Y-56873383D01*
X108203856Y-56792527D01*
X107991804Y-56649559D01*
X107764905Y-56556352D01*
X107529791Y-56510687D01*
X107293094Y-56510344D01*
X107061446Y-56553105D01*
X106841478Y-56636750D01*
X106639822Y-56759061D01*
X106463111Y-56917817D01*
X106317977Y-57110801D01*
X106211050Y-57335793D01*
X106148964Y-57590575D01*
X106137569Y-57713377D01*
X106153246Y-57979434D01*
X106223846Y-58231856D01*
X106347282Y-58466182D01*
X106521466Y-58677952D01*
X106744311Y-58862704D01*
X106822561Y-58921123D01*
X106881244Y-58974110D01*
X106903678Y-59007356D01*
X106894732Y-59036339D01*
X106865703Y-59113996D01*
X106819026Y-59233451D01*
X106757231Y-59388362D01*
X106682850Y-59572392D01*
X106598412Y-59779200D01*
X106506449Y-60002446D01*
X106422771Y-60204742D01*
X106336366Y-60413686D01*
X106259138Y-60600498D01*
X106193716Y-60758814D01*
X106142731Y-60882269D01*
X106108812Y-60964498D01*
X106094590Y-60999138D01*
X106094425Y-60999548D01*
X106065972Y-61028798D01*
X106011382Y-61028463D01*
X105923609Y-60996980D01*
X105795608Y-60932785D01*
X105785532Y-60927380D01*
X105690481Y-60878750D01*
X105615424Y-60844328D01*
X105575842Y-60831264D01*
X105543400Y-60846702D01*
X105470895Y-60890258D01*
X105366565Y-60956751D01*
X105238539Y-61040998D01*
X105094948Y-61137816D01*
X104953468Y-61232734D01*
X104822611Y-61317490D01*
X104714292Y-61384496D01*
X104636960Y-61428529D01*
X104599062Y-61444368D01*
X104592607Y-61442357D01*
X104547609Y-61410658D01*
X104470727Y-61345181D01*
X104368721Y-61252048D01*
X104248351Y-61137381D01*
X104116379Y-61007300D01*
X103680039Y-60570232D01*
X104359733Y-59570440D01*
X104256402Y-59346886D01*
X104256096Y-59346225D01*
X104194046Y-59203714D01*
X104130640Y-59045018D01*
X104079558Y-58904368D01*
X104071827Y-58881683D01*
X104032852Y-58776370D01*
X103997707Y-58694534D01*
X103973195Y-58652301D01*
X103963212Y-58646337D01*
X103903286Y-58626329D01*
X103801532Y-58600442D01*
X103669068Y-58571370D01*
X103517011Y-58541806D01*
X103471466Y-58533467D01*
X103306685Y-58503107D01*
X103152930Y-58474509D01*
X103025678Y-58450564D01*
X102940402Y-58434160D01*
X102787126Y-58403906D01*
X102787126Y-57765645D01*
X102787160Y-57687165D01*
X102787808Y-57495703D01*
X102789720Y-57352812D01*
X102793469Y-57251189D01*
X102799622Y-57183531D01*
X102808751Y-57142536D01*
X102821427Y-57120900D01*
X102838218Y-57111320D01*
X102854474Y-57107439D01*
X102920748Y-57093710D01*
X103026479Y-57072745D01*
X103160915Y-57046588D01*
X103313302Y-57017283D01*
X103472890Y-56986877D01*
X103628925Y-56957413D01*
X103770657Y-56930937D01*
X103887331Y-56909494D01*
X103968197Y-56895128D01*
X104002503Y-56889885D01*
X104004822Y-56886720D01*
X104023474Y-56845642D01*
X104055753Y-56767044D01*
X104096391Y-56663621D01*
X104152788Y-56524273D01*
X104222214Y-56363226D01*
X104287288Y-56221291D01*
X104302202Y-56189432D01*
X104344047Y-56089669D01*
X104369118Y-56012721D01*
X104372426Y-55973130D01*
X104370720Y-55970325D01*
X104343631Y-55929005D01*
X104289927Y-55848740D01*
X104214877Y-55737350D01*
X104123746Y-55602655D01*
X104021800Y-55452476D01*
X103906930Y-55281851D01*
X103820761Y-55149311D01*
X103762131Y-55052112D01*
X103727650Y-54984234D01*
X103713926Y-54939656D01*
X103717568Y-54912361D01*
X103718794Y-54910313D01*
X103751747Y-54870536D01*
X103818927Y-54798052D01*
X103913419Y-54700046D01*
X104028306Y-54583702D01*
X104156672Y-54456205D01*
X104289831Y-54326821D01*
X104420269Y-54205209D01*
X104516119Y-54123156D01*
X104579866Y-54078560D01*
X104613996Y-54069317D01*
X104618456Y-54071393D01*
X104665421Y-54099385D01*
X104750685Y-54154084D01*
X104866259Y-54230237D01*
X105004154Y-54322592D01*
X105156381Y-54425897D01*
X105652610Y-54764765D01*
X105876707Y-54663056D01*
X105883219Y-54660109D01*
X106020804Y-54600504D01*
X106166767Y-54541222D01*
X106290575Y-54494685D01*
X106291122Y-54494493D01*
X106389414Y-54458497D01*
X106465081Y-54428095D01*
X106501780Y-54409852D01*
X106502374Y-54409190D01*
X106514833Y-54371831D01*
X106535336Y-54286871D01*
X106561907Y-54163469D01*
X106592567Y-54010782D01*
X106625336Y-53837967D01*
X106626478Y-53831774D01*
X106659193Y-53655431D01*
X106689155Y-53495743D01*
X106714425Y-53362905D01*
X106733065Y-53267113D01*
X106743135Y-53218563D01*
X106743779Y-53215873D01*
X106750408Y-53195088D01*
X106763841Y-53179466D01*
X106791446Y-53168270D01*
X106840593Y-53160762D01*
X106918653Y-53156205D01*
X107032994Y-53153863D01*
X107190986Y-53152998D01*
X107400000Y-53152874D01*
X107426262Y-53152874D01*
X107629175Y-53153045D01*
G36*
X107629175Y-53153045D02*
G01*
X107781895Y-53154039D01*
X107891792Y-53156593D01*
X107966235Y-53161445D01*
X108012594Y-53169331D01*
X108038239Y-53180988D01*
X108050539Y-53197153D01*
X108056865Y-53218563D01*
X108057047Y-53219332D01*
X108067441Y-53269663D01*
X108086339Y-53366888D01*
X108111802Y-53500810D01*
X108141890Y-53661235D01*
X108174664Y-53837967D01*
X108177337Y-53852428D01*
X108210010Y-54023959D01*
X108240413Y-54174625D01*
X108266568Y-54295267D01*
X108286496Y-54376729D01*
X108298220Y-54409852D01*
X108298282Y-54409905D01*
X108335229Y-54428229D01*
X108411057Y-54458677D01*
X108509425Y-54494685D01*
X108514965Y-54496640D01*
X108640724Y-54544170D01*
X108787011Y-54603783D01*
X108923293Y-54663056D01*
X109147390Y-54764765D01*
X109643618Y-54425897D01*
X109678570Y-54402063D01*
X109828280Y-54300755D01*
X109961867Y-54211575D01*
X110071343Y-54139773D01*
X110148718Y-54090603D01*
X110186004Y-54069317D01*
X110211552Y-54074196D01*
X110269555Y-54112002D01*
X110359195Y-54186870D01*
X110482957Y-54300903D01*
X110643328Y-54456205D01*
X110657679Y-54470341D01*
X110784933Y-54596999D01*
X110897969Y-54711745D01*
X110989867Y-54807391D01*
X111053707Y-54876746D01*
X111082570Y-54912620D01*
X111082664Y-54912794D01*
X111086331Y-54940106D01*
X111072808Y-54984408D01*
X111038684Y-55051761D01*
X110980548Y-55148226D01*
X110894988Y-55279863D01*
X110778594Y-55452734D01*
X110758759Y-55481912D01*
X110658445Y-55629726D01*
X110569923Y-55760577D01*
X110498465Y-55866643D01*
X110449343Y-55940102D01*
X110427831Y-55973130D01*
X110426208Y-55980126D01*
X110436387Y-56032326D01*
X110466879Y-56117561D01*
X110512712Y-56221291D01*
X110575000Y-56356951D01*
X110644548Y-56517921D01*
X110703609Y-56663621D01*
X110718252Y-56701333D01*
X110756600Y-56797622D01*
X110784770Y-56864704D01*
X110797497Y-56889885D01*
X110811545Y-56891767D01*
X110874681Y-56902651D01*
X110978019Y-56921449D01*
X111110809Y-56946115D01*
X111262297Y-56974604D01*
X111421732Y-57004873D01*
X111578361Y-57034875D01*
X111721433Y-57062566D01*
X111840195Y-57085900D01*
X111923896Y-57102833D01*
X111961782Y-57111320D01*
X111968063Y-57113713D01*
X111983373Y-57126619D01*
X111994763Y-57154096D01*
X112002803Y-57203446D01*
X112008064Y-57281973D01*
X112011116Y-57396980D01*
X112012529Y-57555770D01*
X112012873Y-57765645D01*
X112012873Y-58403906D01*
X111859598Y-58434160D01*
X111841057Y-58437785D01*
X111742596Y-58456569D01*
X111606448Y-58482093D01*
X111448087Y-58511468D01*
X111282988Y-58541806D01*
X111217973Y-58554009D01*
X111072697Y-58583697D01*
X110951626Y-58611770D01*
X110865886Y-58635536D01*
X110826601Y-58652301D01*
X110808799Y-58679694D01*
X110776389Y-58752174D01*
X110743234Y-58845977D01*
X110731564Y-58881103D01*
X110688604Y-58996409D01*
X110633192Y-59132876D01*
X110574353Y-59267954D01*
X110542884Y-59338509D01*
X110498051Y-59443895D01*
X110467240Y-59522818D01*
X110455785Y-59562053D01*
X110456422Y-59565014D01*
X110478150Y-59606639D01*
X110527146Y-59686969D01*
X110598438Y-59798220D01*
X110687054Y-59932605D01*
X110788023Y-60082340D01*
X111120261Y-60569931D01*
X110683771Y-61007149D01*
X110641555Y-61049221D01*
X110512470Y-61175153D01*
X110397107Y-61283754D01*
X110302224Y-61368903D01*
X110234582Y-61424482D01*
X110200938Y-61444368D01*
X110164402Y-61429238D01*
X110087890Y-61385801D01*
X109980196Y-61319270D01*
X109849767Y-61234867D01*
X109705052Y-61137816D01*
X109562910Y-61041964D01*
X109434678Y-60957557D01*
X109330054Y-60890850D01*
X109257171Y-60847024D01*
X109224158Y-60831264D01*
X109222223Y-60831408D01*
X109178369Y-60846945D01*
X109100598Y-60883121D01*
X109004392Y-60932785D01*
X109003381Y-60933329D01*
X108875605Y-60997326D01*
X108788051Y-61028591D01*
X108733726Y-61028677D01*
X108705641Y-60999138D01*
X108693752Y-60970061D01*
X108661668Y-60892188D01*
X108612247Y-60772475D01*
X108548118Y-60617286D01*
X108471911Y-60432984D01*
X108386255Y-60225933D01*
X108293781Y-60002496D01*
X108209962Y-59799226D01*
X108124678Y-59590649D01*
X108049222Y-59404263D01*
X107986126Y-59246407D01*
X107937923Y-59123419D01*
X107907144Y-59041639D01*
X107896322Y-59007406D01*
X107916991Y-58976015D01*
X107974409Y-58923602D01*
X108055688Y-58862704D01*
X108250820Y-58703387D01*
X108425445Y-58499807D01*
X108553235Y-58275808D01*
X108633402Y-58038003D01*
X108665160Y-57793007D01*
X108647722Y-57547433D01*
X108580301Y-57307895D01*
X108462111Y-57081007D01*
X108292364Y-56873383D01*
X108203856Y-56792527D01*
X107991804Y-56649559D01*
X107764905Y-56556352D01*
X107529791Y-56510687D01*
X107293094Y-56510344D01*
X107061446Y-56553105D01*
X106841478Y-56636750D01*
X106639822Y-56759061D01*
X106463111Y-56917817D01*
X106317977Y-57110801D01*
X106211050Y-57335793D01*
X106148964Y-57590575D01*
X106137569Y-57713377D01*
X106153246Y-57979434D01*
X106223846Y-58231856D01*
X106347282Y-58466182D01*
X106521466Y-58677952D01*
X106744311Y-58862704D01*
X106822561Y-58921123D01*
X106881244Y-58974110D01*
X106903678Y-59007356D01*
X106894732Y-59036339D01*
X106865703Y-59113996D01*
X106819026Y-59233451D01*
X106757231Y-59388362D01*
X106682850Y-59572392D01*
X106598412Y-59779200D01*
X106506449Y-60002446D01*
X106422771Y-60204742D01*
X106336366Y-60413686D01*
X106259138Y-60600498D01*
X106193716Y-60758814D01*
X106142731Y-60882269D01*
X106108812Y-60964498D01*
X106094590Y-60999138D01*
X106094425Y-60999548D01*
X106065972Y-61028798D01*
X106011382Y-61028463D01*
X105923609Y-60996980D01*
X105795608Y-60932785D01*
X105785532Y-60927380D01*
X105690481Y-60878750D01*
X105615424Y-60844328D01*
X105575842Y-60831264D01*
X105543400Y-60846702D01*
X105470895Y-60890258D01*
X105366565Y-60956751D01*
X105238539Y-61040998D01*
X105094948Y-61137816D01*
X104953468Y-61232734D01*
X104822611Y-61317490D01*
X104714292Y-61384496D01*
X104636960Y-61428529D01*
X104599062Y-61444368D01*
X104592607Y-61442357D01*
X104547609Y-61410658D01*
X104470727Y-61345181D01*
X104368721Y-61252048D01*
X104248351Y-61137381D01*
X104116379Y-61007300D01*
X103680039Y-60570232D01*
X104359733Y-59570440D01*
X104256402Y-59346886D01*
X104256096Y-59346225D01*
X104194046Y-59203714D01*
X104130640Y-59045018D01*
X104079558Y-58904368D01*
X104071827Y-58881683D01*
X104032852Y-58776370D01*
X103997707Y-58694534D01*
X103973195Y-58652301D01*
X103963212Y-58646337D01*
X103903286Y-58626329D01*
X103801532Y-58600442D01*
X103669068Y-58571370D01*
X103517011Y-58541806D01*
X103471466Y-58533467D01*
X103306685Y-58503107D01*
X103152930Y-58474509D01*
X103025678Y-58450564D01*
X102940402Y-58434160D01*
X102787126Y-58403906D01*
X102787126Y-57765645D01*
X102787160Y-57687165D01*
X102787808Y-57495703D01*
X102789720Y-57352812D01*
X102793469Y-57251189D01*
X102799622Y-57183531D01*
X102808751Y-57142536D01*
X102821427Y-57120900D01*
X102838218Y-57111320D01*
X102854474Y-57107439D01*
X102920748Y-57093710D01*
X103026479Y-57072745D01*
X103160915Y-57046588D01*
X103313302Y-57017283D01*
X103472890Y-56986877D01*
X103628925Y-56957413D01*
X103770657Y-56930937D01*
X103887331Y-56909494D01*
X103968197Y-56895128D01*
X104002503Y-56889885D01*
X104004822Y-56886720D01*
X104023474Y-56845642D01*
X104055753Y-56767044D01*
X104096391Y-56663621D01*
X104152788Y-56524273D01*
X104222214Y-56363226D01*
X104287288Y-56221291D01*
X104302202Y-56189432D01*
X104344047Y-56089669D01*
X104369118Y-56012721D01*
X104372426Y-55973130D01*
X104370720Y-55970325D01*
X104343631Y-55929005D01*
X104289927Y-55848740D01*
X104214877Y-55737350D01*
X104123746Y-55602655D01*
X104021800Y-55452476D01*
X103906930Y-55281851D01*
X103820761Y-55149311D01*
X103762131Y-55052112D01*
X103727650Y-54984234D01*
X103713926Y-54939656D01*
X103717568Y-54912361D01*
X103718794Y-54910313D01*
X103751747Y-54870536D01*
X103818927Y-54798052D01*
X103913419Y-54700046D01*
X104028306Y-54583702D01*
X104156672Y-54456205D01*
X104289831Y-54326821D01*
X104420269Y-54205209D01*
X104516119Y-54123156D01*
X104579866Y-54078560D01*
X104613996Y-54069317D01*
X104618456Y-54071393D01*
X104665421Y-54099385D01*
X104750685Y-54154084D01*
X104866259Y-54230237D01*
X105004154Y-54322592D01*
X105156381Y-54425897D01*
X105652610Y-54764765D01*
X105876707Y-54663056D01*
X105883219Y-54660109D01*
X106020804Y-54600504D01*
X106166767Y-54541222D01*
X106290575Y-54494685D01*
X106291122Y-54494493D01*
X106389414Y-54458497D01*
X106465081Y-54428095D01*
X106501780Y-54409852D01*
X106502374Y-54409190D01*
X106514833Y-54371831D01*
X106535336Y-54286871D01*
X106561907Y-54163469D01*
X106592567Y-54010782D01*
X106625336Y-53837967D01*
X106626478Y-53831774D01*
X106659193Y-53655431D01*
X106689155Y-53495743D01*
X106714425Y-53362905D01*
X106733065Y-53267113D01*
X106743135Y-53218563D01*
X106743779Y-53215873D01*
X106750408Y-53195088D01*
X106763841Y-53179466D01*
X106791446Y-53168270D01*
X106840593Y-53160762D01*
X106918653Y-53156205D01*
X107032994Y-53153863D01*
X107190986Y-53152998D01*
X107400000Y-53152874D01*
X107426262Y-53152874D01*
X107629175Y-53153045D01*
G37*
X88855406Y-61274949D02*
X88881127Y-61290647D01*
X88907778Y-61312227D01*
X88907778Y-61959684D01*
X88881127Y-61981264D01*
X88849767Y-61998739D01*
X88813966Y-61999575D01*
X88782528Y-61979082D01*
X88778652Y-61974416D01*
X88773186Y-61964949D01*
X88768979Y-61951267D01*
X88765867Y-61930748D01*
X88763687Y-61900768D01*
X88762276Y-61858704D01*
X88761471Y-61801932D01*
X88761107Y-61727830D01*
X88761022Y-61633773D01*
X88761022Y-61312227D01*
X88787673Y-61290647D01*
X88811386Y-61275877D01*
X88834400Y-61269067D01*
X88855406Y-61274949D01*
G36*
X88855406Y-61274949D02*
G01*
X88881127Y-61290647D01*
X88907778Y-61312227D01*
X88907778Y-61959684D01*
X88881127Y-61981264D01*
X88849767Y-61998739D01*
X88813966Y-61999575D01*
X88782528Y-61979082D01*
X88778652Y-61974416D01*
X88773186Y-61964949D01*
X88768979Y-61951267D01*
X88765867Y-61930748D01*
X88763687Y-61900768D01*
X88762276Y-61858704D01*
X88761471Y-61801932D01*
X88761107Y-61727830D01*
X88761022Y-61633773D01*
X88761022Y-61312227D01*
X88787673Y-61290647D01*
X88811386Y-61275877D01*
X88834400Y-61269067D01*
X88855406Y-61274949D01*
G37*
X95986137Y-61273463D02*
X96020291Y-61296776D01*
X96048000Y-61324485D01*
X96048000Y-61637537D01*
X96047959Y-61721567D01*
X96047701Y-61795789D01*
X96047030Y-61852541D01*
X96045752Y-61894512D01*
X96043673Y-61924389D01*
X96040599Y-61944861D01*
X96036334Y-61958614D01*
X96030684Y-61968337D01*
X96023455Y-61976717D01*
X95991991Y-61998181D01*
X95956826Y-61999947D01*
X95923822Y-61980267D01*
X95918516Y-61974398D01*
X95913066Y-61965314D01*
X95908900Y-61951973D01*
X95905846Y-61931757D01*
X95903732Y-61902049D01*
X95902386Y-61860232D01*
X95901638Y-61803689D01*
X95901314Y-61729802D01*
X95901245Y-61635956D01*
X95901284Y-61560294D01*
X95901539Y-61482385D01*
X95902183Y-61422375D01*
X95903387Y-61377648D01*
X95905324Y-61345585D01*
X95908164Y-61323571D01*
X95912079Y-61308987D01*
X95917242Y-61299218D01*
X95923822Y-61291645D01*
X95953006Y-61272623D01*
X95986137Y-61273463D01*
G36*
X95986137Y-61273463D02*
G01*
X96020291Y-61296776D01*
X96048000Y-61324485D01*
X96048000Y-61637537D01*
X96047959Y-61721567D01*
X96047701Y-61795789D01*
X96047030Y-61852541D01*
X96045752Y-61894512D01*
X96043673Y-61924389D01*
X96040599Y-61944861D01*
X96036334Y-61958614D01*
X96030684Y-61968337D01*
X96023455Y-61976717D01*
X95991991Y-61998181D01*
X95956826Y-61999947D01*
X95923822Y-61980267D01*
X95918516Y-61974398D01*
X95913066Y-61965314D01*
X95908900Y-61951973D01*
X95905846Y-61931757D01*
X95903732Y-61902049D01*
X95902386Y-61860232D01*
X95901638Y-61803689D01*
X95901314Y-61729802D01*
X95901245Y-61635956D01*
X95901284Y-61560294D01*
X95901539Y-61482385D01*
X95902183Y-61422375D01*
X95903387Y-61377648D01*
X95905324Y-61345585D01*
X95908164Y-61323571D01*
X95912079Y-61308987D01*
X95917242Y-61299218D01*
X95923822Y-61291645D01*
X95953006Y-61272623D01*
X95986137Y-61273463D01*
G37*
X95454562Y-56032850D02*
X95537313Y-56060053D01*
X95612406Y-56105484D01*
X95684298Y-56171302D01*
X95722846Y-56215567D01*
X95762256Y-56273961D01*
X95787446Y-56334586D01*
X95800861Y-56403865D01*
X95804948Y-56488222D01*
X95804669Y-56534307D01*
X95802460Y-56575450D01*
X95796894Y-56607582D01*
X95786586Y-56638122D01*
X95770148Y-56674489D01*
X95756200Y-56701728D01*
X95697665Y-56787429D01*
X95625619Y-56856617D01*
X95541947Y-56907741D01*
X95448531Y-56939250D01*
X95415434Y-56946225D01*
X95374960Y-56953094D01*
X95341999Y-56954919D01*
X95307698Y-56951947D01*
X95263200Y-56944426D01*
X95211934Y-56932002D01*
X95121434Y-56894112D01*
X95042345Y-56839836D01*
X94976528Y-56771770D01*
X94925840Y-56692511D01*
X94892140Y-56604654D01*
X94877286Y-56510795D01*
X94883136Y-56413530D01*
X94909399Y-56317220D01*
X94954418Y-56228494D01*
X95015373Y-56153419D01*
X95090184Y-56093641D01*
X95176768Y-56050809D01*
X95273043Y-56026571D01*
X95376928Y-56022576D01*
X95454562Y-56032850D01*
G36*
X95454562Y-56032850D02*
G01*
X95537313Y-56060053D01*
X95612406Y-56105484D01*
X95684298Y-56171302D01*
X95722846Y-56215567D01*
X95762256Y-56273961D01*
X95787446Y-56334586D01*
X95800861Y-56403865D01*
X95804948Y-56488222D01*
X95804669Y-56534307D01*
X95802460Y-56575450D01*
X95796894Y-56607582D01*
X95786586Y-56638122D01*
X95770148Y-56674489D01*
X95756200Y-56701728D01*
X95697665Y-56787429D01*
X95625619Y-56856617D01*
X95541947Y-56907741D01*
X95448531Y-56939250D01*
X95415434Y-56946225D01*
X95374960Y-56953094D01*
X95341999Y-56954919D01*
X95307698Y-56951947D01*
X95263200Y-56944426D01*
X95211934Y-56932002D01*
X95121434Y-56894112D01*
X95042345Y-56839836D01*
X94976528Y-56771770D01*
X94925840Y-56692511D01*
X94892140Y-56604654D01*
X94877286Y-56510795D01*
X94883136Y-56413530D01*
X94909399Y-56317220D01*
X94954418Y-56228494D01*
X95015373Y-56153419D01*
X95090184Y-56093641D01*
X95176768Y-56050809D01*
X95273043Y-56026571D01*
X95376928Y-56022576D01*
X95454562Y-56032850D01*
G37*
X88155767Y-61269068D02*
X88249890Y-61269158D01*
X88324405Y-61269498D01*
X88381811Y-61270239D01*
X88424611Y-61271535D01*
X88455304Y-61273537D01*
X88476391Y-61276396D01*
X88490373Y-61280266D01*
X88499750Y-61285298D01*
X88507022Y-61291645D01*
X88525828Y-61324362D01*
X88527275Y-61361939D01*
X88510917Y-61395178D01*
X88509557Y-61396631D01*
X88498354Y-61404992D01*
X88481252Y-61410547D01*
X88454082Y-61413840D01*
X88412678Y-61415418D01*
X88352873Y-61415822D01*
X88213511Y-61415822D01*
X88213511Y-61679589D01*
X88213436Y-61755417D01*
X88213028Y-61822083D01*
X88212046Y-61871867D01*
X88210250Y-61907784D01*
X88207399Y-61932850D01*
X88203253Y-61950081D01*
X88197571Y-61962492D01*
X88190114Y-61973100D01*
X88187824Y-61975906D01*
X88156646Y-61998548D01*
X88122266Y-62000112D01*
X88089334Y-61980267D01*
X88082355Y-61972191D01*
X88076883Y-61961593D01*
X88072863Y-61945749D01*
X88070072Y-61921773D01*
X88068288Y-61886774D01*
X88067289Y-61837864D01*
X88066852Y-61772154D01*
X88066756Y-61686756D01*
X88066756Y-61415822D01*
X87920820Y-61415822D01*
X87909720Y-61415821D01*
X87853202Y-61415596D01*
X87814358Y-61414457D01*
X87788965Y-61411657D01*
X87772804Y-61406450D01*
X87761652Y-61398089D01*
X87751289Y-61385826D01*
X87735441Y-61355138D01*
X87738543Y-61321358D01*
X87764187Y-61288822D01*
X87769129Y-61285105D01*
X87779338Y-61280269D01*
X87794764Y-61276506D01*
X87817886Y-61273683D01*
X87851183Y-61271670D01*
X87897137Y-61270333D01*
X87958228Y-61269542D01*
X88036935Y-61269163D01*
X88135740Y-61269067D01*
X88155767Y-61269068D01*
G36*
X88155767Y-61269068D02*
G01*
X88249890Y-61269158D01*
X88324405Y-61269498D01*
X88381811Y-61270239D01*
X88424611Y-61271535D01*
X88455304Y-61273537D01*
X88476391Y-61276396D01*
X88490373Y-61280266D01*
X88499750Y-61285298D01*
X88507022Y-61291645D01*
X88525828Y-61324362D01*
X88527275Y-61361939D01*
X88510917Y-61395178D01*
X88509557Y-61396631D01*
X88498354Y-61404992D01*
X88481252Y-61410547D01*
X88454082Y-61413840D01*
X88412678Y-61415418D01*
X88352873Y-61415822D01*
X88213511Y-61415822D01*
X88213511Y-61679589D01*
X88213436Y-61755417D01*
X88213028Y-61822083D01*
X88212046Y-61871867D01*
X88210250Y-61907784D01*
X88207399Y-61932850D01*
X88203253Y-61950081D01*
X88197571Y-61962492D01*
X88190114Y-61973100D01*
X88187824Y-61975906D01*
X88156646Y-61998548D01*
X88122266Y-62000112D01*
X88089334Y-61980267D01*
X88082355Y-61972191D01*
X88076883Y-61961593D01*
X88072863Y-61945749D01*
X88070072Y-61921773D01*
X88068288Y-61886774D01*
X88067289Y-61837864D01*
X88066852Y-61772154D01*
X88066756Y-61686756D01*
X88066756Y-61415822D01*
X87920820Y-61415822D01*
X87909720Y-61415821D01*
X87853202Y-61415596D01*
X87814358Y-61414457D01*
X87788965Y-61411657D01*
X87772804Y-61406450D01*
X87761652Y-61398089D01*
X87751289Y-61385826D01*
X87735441Y-61355138D01*
X87738543Y-61321358D01*
X87764187Y-61288822D01*
X87769129Y-61285105D01*
X87779338Y-61280269D01*
X87794764Y-61276506D01*
X87817886Y-61273683D01*
X87851183Y-61271670D01*
X87897137Y-61270333D01*
X87958228Y-61269542D01*
X88036935Y-61269163D01*
X88135740Y-61269067D01*
X88155767Y-61269068D01*
G37*
X87479734Y-61291645D02*
X87485366Y-61297835D01*
X87490456Y-61306041D01*
X87494543Y-61317817D01*
X87497721Y-61335276D01*
X87500087Y-61360530D01*
X87501738Y-61395690D01*
X87502769Y-61442869D01*
X87503277Y-61504177D01*
X87503359Y-61581727D01*
X87503109Y-61677631D01*
X87502625Y-61794000D01*
X87502557Y-61808175D01*
X87501971Y-61869937D01*
X87500648Y-61913620D01*
X87498103Y-61943001D01*
X87493848Y-61961855D01*
X87487396Y-61973959D01*
X87478262Y-61983089D01*
X87444804Y-62000506D01*
X87409856Y-61997604D01*
X87378953Y-61973100D01*
X87369944Y-61959897D01*
X87362492Y-61941361D01*
X87358124Y-61915333D01*
X87356069Y-61876787D01*
X87355556Y-61820700D01*
X87355556Y-61698045D01*
X86858845Y-61698045D01*
X86858845Y-61832871D01*
X86858772Y-61868662D01*
X86858009Y-61914992D01*
X86855833Y-61945526D01*
X86851536Y-61964557D01*
X86844412Y-61976374D01*
X86833755Y-61985271D01*
X86801504Y-62000341D01*
X86766217Y-61997673D01*
X86735486Y-61973100D01*
X86730831Y-61966845D01*
X86724895Y-61956321D01*
X86720364Y-61942391D01*
X86717048Y-61922317D01*
X86714759Y-61893360D01*
X86713308Y-61852780D01*
X86712505Y-61797840D01*
X86712162Y-61725799D01*
X86712089Y-61633920D01*
X86712089Y-61324485D01*
X86739798Y-61296776D01*
X86771177Y-61274533D01*
X86804406Y-61271844D01*
X86836267Y-61291645D01*
X86844553Y-61301415D01*
X86851965Y-61317307D01*
X86856302Y-61341275D01*
X86858338Y-61378148D01*
X86858845Y-61432756D01*
X86858845Y-61551289D01*
X87355556Y-61551289D01*
X87355556Y-61435776D01*
X87355994Y-61384078D01*
X87357958Y-61349554D01*
X87362474Y-61326978D01*
X87370567Y-61311126D01*
X87383265Y-61296776D01*
X87414643Y-61274533D01*
X87447872Y-61271844D01*
X87479734Y-61291645D01*
G36*
X87479734Y-61291645D02*
G01*
X87485366Y-61297835D01*
X87490456Y-61306041D01*
X87494543Y-61317817D01*
X87497721Y-61335276D01*
X87500087Y-61360530D01*
X87501738Y-61395690D01*
X87502769Y-61442869D01*
X87503277Y-61504177D01*
X87503359Y-61581727D01*
X87503109Y-61677631D01*
X87502625Y-61794000D01*
X87502557Y-61808175D01*
X87501971Y-61869937D01*
X87500648Y-61913620D01*
X87498103Y-61943001D01*
X87493848Y-61961855D01*
X87487396Y-61973959D01*
X87478262Y-61983089D01*
X87444804Y-62000506D01*
X87409856Y-61997604D01*
X87378953Y-61973100D01*
X87369944Y-61959897D01*
X87362492Y-61941361D01*
X87358124Y-61915333D01*
X87356069Y-61876787D01*
X87355556Y-61820700D01*
X87355556Y-61698045D01*
X86858845Y-61698045D01*
X86858845Y-61832871D01*
X86858772Y-61868662D01*
X86858009Y-61914992D01*
X86855833Y-61945526D01*
X86851536Y-61964557D01*
X86844412Y-61976374D01*
X86833755Y-61985271D01*
X86801504Y-62000341D01*
X86766217Y-61997673D01*
X86735486Y-61973100D01*
X86730831Y-61966845D01*
X86724895Y-61956321D01*
X86720364Y-61942391D01*
X86717048Y-61922317D01*
X86714759Y-61893360D01*
X86713308Y-61852780D01*
X86712505Y-61797840D01*
X86712162Y-61725799D01*
X86712089Y-61633920D01*
X86712089Y-61324485D01*
X86739798Y-61296776D01*
X86771177Y-61274533D01*
X86804406Y-61271844D01*
X86836267Y-61291645D01*
X86844553Y-61301415D01*
X86851965Y-61317307D01*
X86856302Y-61341275D01*
X86858338Y-61378148D01*
X86858845Y-61432756D01*
X86858845Y-61551289D01*
X87355556Y-61551289D01*
X87355556Y-61435776D01*
X87355994Y-61384078D01*
X87357958Y-61349554D01*
X87362474Y-61326978D01*
X87370567Y-61311126D01*
X87383265Y-61296776D01*
X87414643Y-61274533D01*
X87447872Y-61271844D01*
X87479734Y-61291645D01*
G37*
X92185133Y-61880396D02*
X92183163Y-61913175D01*
X92180235Y-61936095D01*
X92176158Y-61951897D01*
X92170743Y-61963319D01*
X92163803Y-61973100D01*
X92140406Y-62002845D01*
X91974714Y-62002251D01*
X91939918Y-62001953D01*
X91841435Y-61998522D01*
X91760473Y-61990839D01*
X91693379Y-61978282D01*
X91636496Y-61960227D01*
X91586169Y-61936052D01*
X91582810Y-61934135D01*
X91524998Y-61897417D01*
X91482644Y-61860451D01*
X91449828Y-61816966D01*
X91420628Y-61760689D01*
X91416346Y-61751073D01*
X91393769Y-61687887D01*
X91388034Y-61642333D01*
X91537279Y-61642333D01*
X91542892Y-61667061D01*
X91548618Y-61682939D01*
X91581548Y-61742847D01*
X91628886Y-61788600D01*
X91692652Y-61821736D01*
X91774861Y-61843790D01*
X91777655Y-61844292D01*
X91823940Y-61850255D01*
X91880336Y-61854483D01*
X91935274Y-61856089D01*
X92029156Y-61856089D01*
X92029156Y-61415822D01*
X91941667Y-61416270D01*
X91874747Y-61418746D01*
X91782349Y-61429998D01*
X91703034Y-61449537D01*
X91641060Y-61476511D01*
X91610120Y-61497240D01*
X91582000Y-61527006D01*
X91558660Y-61569434D01*
X91551533Y-61585400D01*
X91539709Y-61617902D01*
X91537279Y-61642333D01*
X91388034Y-61642333D01*
X91386797Y-61632509D01*
X91395399Y-61577483D01*
X91419541Y-61515351D01*
X91420337Y-61513658D01*
X91460788Y-61444236D01*
X91511473Y-61387638D01*
X91574198Y-61343070D01*
X91650774Y-61309741D01*
X91743009Y-61286861D01*
X91852712Y-61273636D01*
X91981691Y-61269275D01*
X91985263Y-61269270D01*
X92045283Y-61269410D01*
X92087214Y-61270446D01*
X92115328Y-61273040D01*
X92133897Y-61277853D01*
X92147194Y-61285544D01*
X92159491Y-61296776D01*
X92187200Y-61324485D01*
X92187200Y-61633920D01*
X92187175Y-61695526D01*
X92186950Y-61774311D01*
X92186332Y-61835021D01*
X92185775Y-61856089D01*
X92185133Y-61880396D01*
G36*
X92185133Y-61880396D02*
G01*
X92183163Y-61913175D01*
X92180235Y-61936095D01*
X92176158Y-61951897D01*
X92170743Y-61963319D01*
X92163803Y-61973100D01*
X92140406Y-62002845D01*
X91974714Y-62002251D01*
X91939918Y-62001953D01*
X91841435Y-61998522D01*
X91760473Y-61990839D01*
X91693379Y-61978282D01*
X91636496Y-61960227D01*
X91586169Y-61936052D01*
X91582810Y-61934135D01*
X91524998Y-61897417D01*
X91482644Y-61860451D01*
X91449828Y-61816966D01*
X91420628Y-61760689D01*
X91416346Y-61751073D01*
X91393769Y-61687887D01*
X91388034Y-61642333D01*
X91537279Y-61642333D01*
X91542892Y-61667061D01*
X91548618Y-61682939D01*
X91581548Y-61742847D01*
X91628886Y-61788600D01*
X91692652Y-61821736D01*
X91774861Y-61843790D01*
X91777655Y-61844292D01*
X91823940Y-61850255D01*
X91880336Y-61854483D01*
X91935274Y-61856089D01*
X92029156Y-61856089D01*
X92029156Y-61415822D01*
X91941667Y-61416270D01*
X91874747Y-61418746D01*
X91782349Y-61429998D01*
X91703034Y-61449537D01*
X91641060Y-61476511D01*
X91610120Y-61497240D01*
X91582000Y-61527006D01*
X91558660Y-61569434D01*
X91551533Y-61585400D01*
X91539709Y-61617902D01*
X91537279Y-61642333D01*
X91388034Y-61642333D01*
X91386797Y-61632509D01*
X91395399Y-61577483D01*
X91419541Y-61515351D01*
X91420337Y-61513658D01*
X91460788Y-61444236D01*
X91511473Y-61387638D01*
X91574198Y-61343070D01*
X91650774Y-61309741D01*
X91743009Y-61286861D01*
X91852712Y-61273636D01*
X91981691Y-61269275D01*
X91985263Y-61269270D01*
X92045283Y-61269410D01*
X92087214Y-61270446D01*
X92115328Y-61273040D01*
X92133897Y-61277853D01*
X92147194Y-61285544D01*
X92159491Y-61296776D01*
X92187200Y-61324485D01*
X92187200Y-61633920D01*
X92187175Y-61695526D01*
X92186950Y-61774311D01*
X92186332Y-61835021D01*
X92185775Y-61856089D01*
X92185133Y-61880396D01*
G37*
X99276817Y-61454427D02*
X99276870Y-61535041D01*
X99276622Y-61635956D01*
X99276583Y-61711617D01*
X99276328Y-61789526D01*
X99275684Y-61849536D01*
X99274480Y-61894264D01*
X99272543Y-61926326D01*
X99269703Y-61948340D01*
X99265788Y-61962924D01*
X99260626Y-61972694D01*
X99254045Y-61980267D01*
X99247077Y-61986501D01*
X99234079Y-61993801D01*
X99214931Y-61998554D01*
X99185528Y-62001292D01*
X99141762Y-62002545D01*
X99079528Y-62002845D01*
X99030582Y-62002469D01*
X98923722Y-61998041D01*
X98834494Y-61987953D01*
X98759696Y-61971365D01*
X98696125Y-61947435D01*
X98640579Y-61915321D01*
X98589854Y-61874182D01*
X98583866Y-61868330D01*
X98546999Y-61819821D01*
X98515899Y-61759013D01*
X98494417Y-61694769D01*
X98489136Y-61656026D01*
X98636353Y-61656026D01*
X98654635Y-61706961D01*
X98684305Y-61752878D01*
X98731002Y-61795287D01*
X98792392Y-61825090D01*
X98871538Y-61844226D01*
X98873028Y-61844464D01*
X98921999Y-61850256D01*
X98980693Y-61854396D01*
X99036734Y-61856004D01*
X99129867Y-61856089D01*
X99129867Y-61415822D01*
X99053667Y-61415808D01*
X99050639Y-61415817D01*
X98999519Y-61417782D01*
X98939416Y-61422507D01*
X98882708Y-61429035D01*
X98832750Y-61438331D01*
X98757998Y-61464600D01*
X98700489Y-61503899D01*
X98658988Y-61556933D01*
X98637771Y-61608200D01*
X98636353Y-61656026D01*
X98489136Y-61656026D01*
X98486400Y-61635956D01*
X98487679Y-61614739D01*
X98499991Y-61557323D01*
X98522520Y-61497413D01*
X98551750Y-61443363D01*
X98584167Y-61403532D01*
X98603708Y-61386510D01*
X98658420Y-61347322D01*
X98718723Y-61317193D01*
X98787919Y-61295232D01*
X98869311Y-61280550D01*
X98966200Y-61272259D01*
X99081889Y-61269467D01*
X99121371Y-61269066D01*
X99167082Y-61268653D01*
X99202883Y-61270457D01*
X99229974Y-61276739D01*
X99249556Y-61289759D01*
X99262830Y-61311778D01*
X99270998Y-61345055D01*
X99275260Y-61391851D01*
X99275857Y-61415822D01*
X99276817Y-61454427D01*
G36*
X99276817Y-61454427D02*
G01*
X99276870Y-61535041D01*
X99276622Y-61635956D01*
X99276583Y-61711617D01*
X99276328Y-61789526D01*
X99275684Y-61849536D01*
X99274480Y-61894264D01*
X99272543Y-61926326D01*
X99269703Y-61948340D01*
X99265788Y-61962924D01*
X99260626Y-61972694D01*
X99254045Y-61980267D01*
X99247077Y-61986501D01*
X99234079Y-61993801D01*
X99214931Y-61998554D01*
X99185528Y-62001292D01*
X99141762Y-62002545D01*
X99079528Y-62002845D01*
X99030582Y-62002469D01*
X98923722Y-61998041D01*
X98834494Y-61987953D01*
X98759696Y-61971365D01*
X98696125Y-61947435D01*
X98640579Y-61915321D01*
X98589854Y-61874182D01*
X98583866Y-61868330D01*
X98546999Y-61819821D01*
X98515899Y-61759013D01*
X98494417Y-61694769D01*
X98489136Y-61656026D01*
X98636353Y-61656026D01*
X98654635Y-61706961D01*
X98684305Y-61752878D01*
X98731002Y-61795287D01*
X98792392Y-61825090D01*
X98871538Y-61844226D01*
X98873028Y-61844464D01*
X98921999Y-61850256D01*
X98980693Y-61854396D01*
X99036734Y-61856004D01*
X99129867Y-61856089D01*
X99129867Y-61415822D01*
X99053667Y-61415808D01*
X99050639Y-61415817D01*
X98999519Y-61417782D01*
X98939416Y-61422507D01*
X98882708Y-61429035D01*
X98832750Y-61438331D01*
X98757998Y-61464600D01*
X98700489Y-61503899D01*
X98658988Y-61556933D01*
X98637771Y-61608200D01*
X98636353Y-61656026D01*
X98489136Y-61656026D01*
X98486400Y-61635956D01*
X98487679Y-61614739D01*
X98499991Y-61557323D01*
X98522520Y-61497413D01*
X98551750Y-61443363D01*
X98584167Y-61403532D01*
X98603708Y-61386510D01*
X98658420Y-61347322D01*
X98718723Y-61317193D01*
X98787919Y-61295232D01*
X98869311Y-61280550D01*
X98966200Y-61272259D01*
X99081889Y-61269467D01*
X99121371Y-61269066D01*
X99167082Y-61268653D01*
X99202883Y-61270457D01*
X99229974Y-61276739D01*
X99249556Y-61289759D01*
X99262830Y-61311778D01*
X99270998Y-61345055D01*
X99275260Y-61391851D01*
X99275857Y-61415822D01*
X99276817Y-61454427D01*
G37*
X94331893Y-61267892D02*
X94343301Y-61274029D01*
X94353850Y-61284691D01*
X94365136Y-61298811D01*
X94369589Y-61304772D01*
X94375588Y-61315268D01*
X94380167Y-61329093D01*
X94383519Y-61348998D01*
X94385833Y-61377732D01*
X94387301Y-61418045D01*
X94388113Y-61472687D01*
X94388460Y-61544407D01*
X94388534Y-61635956D01*
X94388511Y-61694486D01*
X94388292Y-61773573D01*
X94387683Y-61834516D01*
X94386492Y-61880062D01*
X94384529Y-61912963D01*
X94381603Y-61935968D01*
X94377523Y-61951826D01*
X94372097Y-61963286D01*
X94365136Y-61973100D01*
X94334708Y-61997493D01*
X94299765Y-62000372D01*
X94262784Y-61981282D01*
X94258600Y-61977807D01*
X94250424Y-61969279D01*
X94244364Y-61957728D01*
X94239981Y-61939896D01*
X94236839Y-61912524D01*
X94234502Y-61872354D01*
X94232531Y-61816128D01*
X94230489Y-61740589D01*
X94224845Y-61521458D01*
X93959556Y-61762099D01*
X93885722Y-61828875D01*
X93820542Y-61886991D01*
X93768348Y-61931949D01*
X93727273Y-61964871D01*
X93695455Y-61986879D01*
X93671026Y-61999094D01*
X93652124Y-62002639D01*
X93636883Y-61998636D01*
X93623439Y-61988207D01*
X93609927Y-61972474D01*
X93603682Y-61963991D01*
X93598050Y-61953413D01*
X93593839Y-61939255D01*
X93590887Y-61918803D01*
X93589032Y-61889342D01*
X93588113Y-61848161D01*
X93587968Y-61792544D01*
X93588435Y-61719779D01*
X93589352Y-61627151D01*
X93592667Y-61312199D01*
X93619318Y-61290633D01*
X93645383Y-61274441D01*
X93678241Y-61271670D01*
X93712772Y-61290623D01*
X93717084Y-61294208D01*
X93725216Y-61302737D01*
X93731245Y-61314329D01*
X93735606Y-61332235D01*
X93738734Y-61359706D01*
X93741063Y-61399994D01*
X93743029Y-61456351D01*
X93745067Y-61532029D01*
X93750711Y-61751878D01*
X93931334Y-61588084D01*
X94018072Y-61509451D01*
X94093843Y-61441058D01*
X94155980Y-61385708D01*
X94206078Y-61342338D01*
X94245735Y-61309881D01*
X94276548Y-61287273D01*
X94300114Y-61273448D01*
X94318030Y-61267343D01*
X94331893Y-61267892D01*
G36*
X94331893Y-61267892D02*
G01*
X94343301Y-61274029D01*
X94353850Y-61284691D01*
X94365136Y-61298811D01*
X94369589Y-61304772D01*
X94375588Y-61315268D01*
X94380167Y-61329093D01*
X94383519Y-61348998D01*
X94385833Y-61377732D01*
X94387301Y-61418045D01*
X94388113Y-61472687D01*
X94388460Y-61544407D01*
X94388534Y-61635956D01*
X94388511Y-61694486D01*
X94388292Y-61773573D01*
X94387683Y-61834516D01*
X94386492Y-61880062D01*
X94384529Y-61912963D01*
X94381603Y-61935968D01*
X94377523Y-61951826D01*
X94372097Y-61963286D01*
X94365136Y-61973100D01*
X94334708Y-61997493D01*
X94299765Y-62000372D01*
X94262784Y-61981282D01*
X94258600Y-61977807D01*
X94250424Y-61969279D01*
X94244364Y-61957728D01*
X94239981Y-61939896D01*
X94236839Y-61912524D01*
X94234502Y-61872354D01*
X94232531Y-61816128D01*
X94230489Y-61740589D01*
X94224845Y-61521458D01*
X93959556Y-61762099D01*
X93885722Y-61828875D01*
X93820542Y-61886991D01*
X93768348Y-61931949D01*
X93727273Y-61964871D01*
X93695455Y-61986879D01*
X93671026Y-61999094D01*
X93652124Y-62002639D01*
X93636883Y-61998636D01*
X93623439Y-61988207D01*
X93609927Y-61972474D01*
X93603682Y-61963991D01*
X93598050Y-61953413D01*
X93593839Y-61939255D01*
X93590887Y-61918803D01*
X93589032Y-61889342D01*
X93588113Y-61848161D01*
X93587968Y-61792544D01*
X93588435Y-61719779D01*
X93589352Y-61627151D01*
X93592667Y-61312199D01*
X93619318Y-61290633D01*
X93645383Y-61274441D01*
X93678241Y-61271670D01*
X93712772Y-61290623D01*
X93717084Y-61294208D01*
X93725216Y-61302737D01*
X93731245Y-61314329D01*
X93735606Y-61332235D01*
X93738734Y-61359706D01*
X93741063Y-61399994D01*
X93743029Y-61456351D01*
X93745067Y-61532029D01*
X93750711Y-61751878D01*
X93931334Y-61588084D01*
X94018072Y-61509451D01*
X94093843Y-61441058D01*
X94155980Y-61385708D01*
X94206078Y-61342338D01*
X94245735Y-61309881D01*
X94276548Y-61287273D01*
X94300114Y-61273448D01*
X94318030Y-61267343D01*
X94331893Y-61267892D01*
G37*
X95129150Y-61274179D02*
X95235157Y-61290494D01*
X95328969Y-61318545D01*
X95407765Y-61357452D01*
X95468719Y-61406334D01*
X95494789Y-61439195D01*
X95524297Y-61488394D01*
X95549568Y-61542252D01*
X95567218Y-61593419D01*
X95573858Y-61634544D01*
X95572298Y-61654259D01*
X95559357Y-61705592D01*
X95536194Y-61762118D01*
X95506302Y-61816035D01*
X95473173Y-61859539D01*
X95462977Y-61869887D01*
X95395892Y-61921662D01*
X95315766Y-61961554D01*
X95229556Y-61985956D01*
X95174592Y-61994068D01*
X95081139Y-62000673D01*
X94991358Y-61998586D01*
X94908869Y-61988340D01*
X94837286Y-61970470D01*
X94780228Y-61945508D01*
X94741311Y-61913988D01*
X94739936Y-61912012D01*
X94732848Y-61886786D01*
X94728609Y-61839535D01*
X94727200Y-61770071D01*
X94728060Y-61707838D01*
X94732780Y-61660456D01*
X94744470Y-61628353D01*
X94766239Y-61608800D01*
X94801198Y-61599070D01*
X94852456Y-61596433D01*
X94923123Y-61598161D01*
X94971743Y-61601173D01*
X95021939Y-61609366D01*
X95054433Y-61623419D01*
X95071892Y-61644654D01*
X95076983Y-61674394D01*
X95076877Y-61678936D01*
X95068175Y-61713730D01*
X95044165Y-61737147D01*
X95002900Y-61750347D01*
X94942431Y-61754489D01*
X94873956Y-61754489D01*
X94873956Y-61792841D01*
X94874006Y-61801976D01*
X94876227Y-61819227D01*
X94885494Y-61829521D01*
X94906875Y-61836459D01*
X94945436Y-61843641D01*
X94950910Y-61844575D01*
X95047860Y-61854478D01*
X95137852Y-61851559D01*
X95218760Y-61836829D01*
X95288459Y-61811299D01*
X95344824Y-61775978D01*
X95385729Y-61731879D01*
X95409051Y-61680012D01*
X95412663Y-61621388D01*
X95407145Y-61592494D01*
X95380461Y-61536604D01*
X95334273Y-61490945D01*
X95269291Y-61456108D01*
X95186229Y-61432690D01*
X95161555Y-61428241D01*
X95072226Y-61417742D01*
X94992419Y-61418971D01*
X94914326Y-61431906D01*
X94879183Y-61438696D01*
X94833745Y-61439713D01*
X94802430Y-61427182D01*
X94782277Y-61400395D01*
X94775893Y-61372148D01*
X94785379Y-61340924D01*
X94794708Y-61327499D01*
X94828943Y-61303967D01*
X94881565Y-61286095D01*
X94950081Y-61274599D01*
X95032000Y-61270192D01*
X95129150Y-61274179D01*
G36*
X95129150Y-61274179D02*
G01*
X95235157Y-61290494D01*
X95328969Y-61318545D01*
X95407765Y-61357452D01*
X95468719Y-61406334D01*
X95494789Y-61439195D01*
X95524297Y-61488394D01*
X95549568Y-61542252D01*
X95567218Y-61593419D01*
X95573858Y-61634544D01*
X95572298Y-61654259D01*
X95559357Y-61705592D01*
X95536194Y-61762118D01*
X95506302Y-61816035D01*
X95473173Y-61859539D01*
X95462977Y-61869887D01*
X95395892Y-61921662D01*
X95315766Y-61961554D01*
X95229556Y-61985956D01*
X95174592Y-61994068D01*
X95081139Y-62000673D01*
X94991358Y-61998586D01*
X94908869Y-61988340D01*
X94837286Y-61970470D01*
X94780228Y-61945508D01*
X94741311Y-61913988D01*
X94739936Y-61912012D01*
X94732848Y-61886786D01*
X94728609Y-61839535D01*
X94727200Y-61770071D01*
X94728060Y-61707838D01*
X94732780Y-61660456D01*
X94744470Y-61628353D01*
X94766239Y-61608800D01*
X94801198Y-61599070D01*
X94852456Y-61596433D01*
X94923123Y-61598161D01*
X94971743Y-61601173D01*
X95021939Y-61609366D01*
X95054433Y-61623419D01*
X95071892Y-61644654D01*
X95076983Y-61674394D01*
X95076877Y-61678936D01*
X95068175Y-61713730D01*
X95044165Y-61737147D01*
X95002900Y-61750347D01*
X94942431Y-61754489D01*
X94873956Y-61754489D01*
X94873956Y-61792841D01*
X94874006Y-61801976D01*
X94876227Y-61819227D01*
X94885494Y-61829521D01*
X94906875Y-61836459D01*
X94945436Y-61843641D01*
X94950910Y-61844575D01*
X95047860Y-61854478D01*
X95137852Y-61851559D01*
X95218760Y-61836829D01*
X95288459Y-61811299D01*
X95344824Y-61775978D01*
X95385729Y-61731879D01*
X95409051Y-61680012D01*
X95412663Y-61621388D01*
X95407145Y-61592494D01*
X95380461Y-61536604D01*
X95334273Y-61490945D01*
X95269291Y-61456108D01*
X95186229Y-61432690D01*
X95161555Y-61428241D01*
X95072226Y-61417742D01*
X94992419Y-61418971D01*
X94914326Y-61431906D01*
X94879183Y-61438696D01*
X94833745Y-61439713D01*
X94802430Y-61427182D01*
X94782277Y-61400395D01*
X94775893Y-61372148D01*
X94785379Y-61340924D01*
X94794708Y-61327499D01*
X94828943Y-61303967D01*
X94881565Y-61286095D01*
X94950081Y-61274599D01*
X95032000Y-61270192D01*
X95129150Y-61274179D01*
G37*
X93179803Y-61298811D02*
X93184752Y-61305495D01*
X93190596Y-61316066D01*
X93195057Y-61330153D01*
X93198321Y-61350478D01*
X93200574Y-61379765D01*
X93202002Y-61420737D01*
X93202792Y-61476117D01*
X93203129Y-61548628D01*
X93203200Y-61640994D01*
X93203171Y-61706911D01*
X93202939Y-61785228D01*
X93202319Y-61845496D01*
X93201126Y-61890393D01*
X93199179Y-61922602D01*
X93196294Y-61944800D01*
X93192288Y-61959669D01*
X93186979Y-61969889D01*
X93180183Y-61978138D01*
X93175668Y-61982795D01*
X93167438Y-61989282D01*
X93156078Y-61994194D01*
X93138810Y-61997749D01*
X93112855Y-62000167D01*
X93075436Y-62001667D01*
X93023773Y-62002467D01*
X92955089Y-62002787D01*
X92866606Y-62002845D01*
X92846931Y-62002838D01*
X92759906Y-62002572D01*
X92692254Y-62001806D01*
X92641299Y-62000392D01*
X92604367Y-61998180D01*
X92578783Y-61995022D01*
X92561871Y-61990769D01*
X92550957Y-61985271D01*
X92540464Y-61975285D01*
X92527203Y-61944168D01*
X92528386Y-61908280D01*
X92544550Y-61876733D01*
X92546739Y-61874457D01*
X92555427Y-61868189D01*
X92568769Y-61863523D01*
X92589752Y-61860227D01*
X92621363Y-61858068D01*
X92666590Y-61856814D01*
X92728420Y-61856231D01*
X92809839Y-61856089D01*
X93056445Y-61856089D01*
X93056445Y-61698045D01*
X92894006Y-61698045D01*
X92858338Y-61697964D01*
X92802568Y-61697167D01*
X92763430Y-61695162D01*
X92736976Y-61691521D01*
X92719259Y-61685812D01*
X92706329Y-61677607D01*
X92702686Y-61674423D01*
X92684278Y-61643448D01*
X92683644Y-61607112D01*
X92701183Y-61573493D01*
X92701245Y-61573424D01*
X92710916Y-61564798D01*
X92724209Y-61558742D01*
X92744917Y-61554811D01*
X92776828Y-61552556D01*
X92823734Y-61551531D01*
X92889424Y-61551289D01*
X93057571Y-61551289D01*
X93054186Y-61486378D01*
X93050800Y-61421467D01*
X92808723Y-61418414D01*
X92783707Y-61418086D01*
X92702087Y-61416606D01*
X92639768Y-61414222D01*
X92594154Y-61410227D01*
X92562652Y-61403913D01*
X92542667Y-61394574D01*
X92531604Y-61381503D01*
X92526869Y-61363992D01*
X92525867Y-61341335D01*
X92525873Y-61338970D01*
X92527027Y-61318939D01*
X92531824Y-61303146D01*
X92542632Y-61291090D01*
X92561817Y-61282267D01*
X92591745Y-61276175D01*
X92634783Y-61272311D01*
X92693299Y-61270174D01*
X92769657Y-61269260D01*
X92866226Y-61269067D01*
X93156406Y-61269067D01*
X93179803Y-61298811D01*
G36*
X93179803Y-61298811D02*
G01*
X93184752Y-61305495D01*
X93190596Y-61316066D01*
X93195057Y-61330153D01*
X93198321Y-61350478D01*
X93200574Y-61379765D01*
X93202002Y-61420737D01*
X93202792Y-61476117D01*
X93203129Y-61548628D01*
X93203200Y-61640994D01*
X93203171Y-61706911D01*
X93202939Y-61785228D01*
X93202319Y-61845496D01*
X93201126Y-61890393D01*
X93199179Y-61922602D01*
X93196294Y-61944800D01*
X93192288Y-61959669D01*
X93186979Y-61969889D01*
X93180183Y-61978138D01*
X93175668Y-61982795D01*
X93167438Y-61989282D01*
X93156078Y-61994194D01*
X93138810Y-61997749D01*
X93112855Y-62000167D01*
X93075436Y-62001667D01*
X93023773Y-62002467D01*
X92955089Y-62002787D01*
X92866606Y-62002845D01*
X92846931Y-62002838D01*
X92759906Y-62002572D01*
X92692254Y-62001806D01*
X92641299Y-62000392D01*
X92604367Y-61998180D01*
X92578783Y-61995022D01*
X92561871Y-61990769D01*
X92550957Y-61985271D01*
X92540464Y-61975285D01*
X92527203Y-61944168D01*
X92528386Y-61908280D01*
X92544550Y-61876733D01*
X92546739Y-61874457D01*
X92555427Y-61868189D01*
X92568769Y-61863523D01*
X92589752Y-61860227D01*
X92621363Y-61858068D01*
X92666590Y-61856814D01*
X92728420Y-61856231D01*
X92809839Y-61856089D01*
X93056445Y-61856089D01*
X93056445Y-61698045D01*
X92894006Y-61698045D01*
X92858338Y-61697964D01*
X92802568Y-61697167D01*
X92763430Y-61695162D01*
X92736976Y-61691521D01*
X92719259Y-61685812D01*
X92706329Y-61677607D01*
X92702686Y-61674423D01*
X92684278Y-61643448D01*
X92683644Y-61607112D01*
X92701183Y-61573493D01*
X92701245Y-61573424D01*
X92710916Y-61564798D01*
X92724209Y-61558742D01*
X92744917Y-61554811D01*
X92776828Y-61552556D01*
X92823734Y-61551531D01*
X92889424Y-61551289D01*
X93057571Y-61551289D01*
X93054186Y-61486378D01*
X93050800Y-61421467D01*
X92808723Y-61418414D01*
X92783707Y-61418086D01*
X92702087Y-61416606D01*
X92639768Y-61414222D01*
X92594154Y-61410227D01*
X92562652Y-61403913D01*
X92542667Y-61394574D01*
X92531604Y-61381503D01*
X92526869Y-61363992D01*
X92525867Y-61341335D01*
X92525873Y-61338970D01*
X92527027Y-61318939D01*
X92531824Y-61303146D01*
X92542632Y-61291090D01*
X92561817Y-61282267D01*
X92591745Y-61276175D01*
X92634783Y-61272311D01*
X92693299Y-61270174D01*
X92769657Y-61269260D01*
X92866226Y-61269067D01*
X93156406Y-61269067D01*
X93179803Y-61298811D01*
G37*
X97856734Y-61269083D02*
X97933831Y-61269275D01*
X97992777Y-61269860D01*
X98036364Y-61271051D01*
X98067383Y-61273064D01*
X98088625Y-61276112D01*
X98102882Y-61280409D01*
X98112945Y-61286172D01*
X98121606Y-61293612D01*
X98123391Y-61295293D01*
X98130635Y-61302832D01*
X98136277Y-61311850D01*
X98140517Y-61324984D01*
X98143556Y-61344872D01*
X98145594Y-61374151D01*
X98146830Y-61415458D01*
X98147465Y-61471431D01*
X98147700Y-61544707D01*
X98147734Y-61637923D01*
X98147697Y-61710713D01*
X98147448Y-61788889D01*
X98146812Y-61849103D01*
X98145615Y-61893982D01*
X98143684Y-61926152D01*
X98140846Y-61948239D01*
X98136927Y-61962870D01*
X98131755Y-61972670D01*
X98125156Y-61980267D01*
X98121822Y-61983444D01*
X98113300Y-61989554D01*
X98101298Y-61994229D01*
X98083087Y-61997659D01*
X98055940Y-62000036D01*
X98017129Y-62001552D01*
X97963924Y-62002398D01*
X97893598Y-62002765D01*
X97803422Y-62002845D01*
X97761314Y-62002833D01*
X97680167Y-62002651D01*
X97617675Y-62002098D01*
X97571109Y-62000982D01*
X97537741Y-61999113D01*
X97514844Y-61996298D01*
X97499688Y-61992346D01*
X97489546Y-61987066D01*
X97481689Y-61980267D01*
X97466963Y-61958667D01*
X97459111Y-61929467D01*
X97464610Y-61905560D01*
X97481689Y-61878667D01*
X97486668Y-61874059D01*
X97496443Y-61867772D01*
X97510559Y-61863146D01*
X97532054Y-61859930D01*
X97563968Y-61857870D01*
X97609342Y-61856712D01*
X97671213Y-61856202D01*
X97752622Y-61856089D01*
X98000978Y-61856089D01*
X98000978Y-61698045D01*
X97839801Y-61698045D01*
X97803983Y-61697899D01*
X97738359Y-61696176D01*
X97691118Y-61691741D01*
X97659383Y-61683637D01*
X97640277Y-61670906D01*
X97630923Y-61652592D01*
X97628445Y-61627738D01*
X97629242Y-61607482D01*
X97634494Y-61585656D01*
X97647288Y-61570304D01*
X97670628Y-61560309D01*
X97707517Y-61554553D01*
X97760959Y-61551919D01*
X97833958Y-61551289D01*
X98002105Y-61551289D01*
X97998719Y-61486378D01*
X97995334Y-61421467D01*
X97747617Y-61418418D01*
X97685026Y-61417539D01*
X97616565Y-61416095D01*
X97565661Y-61414164D01*
X97529408Y-61411514D01*
X97504901Y-61407910D01*
X97489235Y-61403121D01*
X97479506Y-61396913D01*
X97473491Y-61390510D01*
X97460482Y-61358828D01*
X97464043Y-61323142D01*
X97483818Y-61292084D01*
X97487069Y-61289161D01*
X97496049Y-61282810D01*
X97508153Y-61277957D01*
X97526159Y-61274403D01*
X97552847Y-61271946D01*
X97590997Y-61270385D01*
X97643386Y-61269518D01*
X97712794Y-61269146D01*
X97802001Y-61269067D01*
X97856734Y-61269083D01*
G36*
X97856734Y-61269083D02*
G01*
X97933831Y-61269275D01*
X97992777Y-61269860D01*
X98036364Y-61271051D01*
X98067383Y-61273064D01*
X98088625Y-61276112D01*
X98102882Y-61280409D01*
X98112945Y-61286172D01*
X98121606Y-61293612D01*
X98123391Y-61295293D01*
X98130635Y-61302832D01*
X98136277Y-61311850D01*
X98140517Y-61324984D01*
X98143556Y-61344872D01*
X98145594Y-61374151D01*
X98146830Y-61415458D01*
X98147465Y-61471431D01*
X98147700Y-61544707D01*
X98147734Y-61637923D01*
X98147697Y-61710713D01*
X98147448Y-61788889D01*
X98146812Y-61849103D01*
X98145615Y-61893982D01*
X98143684Y-61926152D01*
X98140846Y-61948239D01*
X98136927Y-61962870D01*
X98131755Y-61972670D01*
X98125156Y-61980267D01*
X98121822Y-61983444D01*
X98113300Y-61989554D01*
X98101298Y-61994229D01*
X98083087Y-61997659D01*
X98055940Y-62000036D01*
X98017129Y-62001552D01*
X97963924Y-62002398D01*
X97893598Y-62002765D01*
X97803422Y-62002845D01*
X97761314Y-62002833D01*
X97680167Y-62002651D01*
X97617675Y-62002098D01*
X97571109Y-62000982D01*
X97537741Y-61999113D01*
X97514844Y-61996298D01*
X97499688Y-61992346D01*
X97489546Y-61987066D01*
X97481689Y-61980267D01*
X97466963Y-61958667D01*
X97459111Y-61929467D01*
X97464610Y-61905560D01*
X97481689Y-61878667D01*
X97486668Y-61874059D01*
X97496443Y-61867772D01*
X97510559Y-61863146D01*
X97532054Y-61859930D01*
X97563968Y-61857870D01*
X97609342Y-61856712D01*
X97671213Y-61856202D01*
X97752622Y-61856089D01*
X98000978Y-61856089D01*
X98000978Y-61698045D01*
X97839801Y-61698045D01*
X97803983Y-61697899D01*
X97738359Y-61696176D01*
X97691118Y-61691741D01*
X97659383Y-61683637D01*
X97640277Y-61670906D01*
X97630923Y-61652592D01*
X97628445Y-61627738D01*
X97629242Y-61607482D01*
X97634494Y-61585656D01*
X97647288Y-61570304D01*
X97670628Y-61560309D01*
X97707517Y-61554553D01*
X97760959Y-61551919D01*
X97833958Y-61551289D01*
X98002105Y-61551289D01*
X97998719Y-61486378D01*
X97995334Y-61421467D01*
X97747617Y-61418418D01*
X97685026Y-61417539D01*
X97616565Y-61416095D01*
X97565661Y-61414164D01*
X97529408Y-61411514D01*
X97504901Y-61407910D01*
X97489235Y-61403121D01*
X97479506Y-61396913D01*
X97473491Y-61390510D01*
X97460482Y-61358828D01*
X97464043Y-61323142D01*
X97483818Y-61292084D01*
X97487069Y-61289161D01*
X97496049Y-61282810D01*
X97508153Y-61277957D01*
X97526159Y-61274403D01*
X97552847Y-61271946D01*
X97590997Y-61270385D01*
X97643386Y-61269518D01*
X97712794Y-61269146D01*
X97802001Y-61269067D01*
X97856734Y-61269083D01*
G37*
X89289702Y-61278478D02*
X89307663Y-61296989D01*
X89328263Y-61328071D01*
X89353095Y-61373756D01*
X89383750Y-61436078D01*
X89421820Y-61517071D01*
X89436454Y-61548454D01*
X89466203Y-61611638D01*
X89492297Y-61666244D01*
X89513292Y-61709290D01*
X89527739Y-61737793D01*
X89534191Y-61748770D01*
X89535550Y-61748189D01*
X89545542Y-61734242D01*
X89562833Y-61704704D01*
X89585430Y-61663087D01*
X89611338Y-61612903D01*
X89627311Y-61581414D01*
X89656261Y-61526061D01*
X89678749Y-61487044D01*
X89696965Y-61461566D01*
X89713096Y-61446831D01*
X89729330Y-61440042D01*
X89747857Y-61438400D01*
X89758360Y-61438875D01*
X89774476Y-61443082D01*
X89789790Y-61453946D01*
X89806388Y-61474219D01*
X89826357Y-61506654D01*
X89851783Y-61554004D01*
X89884752Y-61619022D01*
X89894485Y-61638277D01*
X89918943Y-61684946D01*
X89939178Y-61721109D01*
X89953311Y-61743497D01*
X89959460Y-61748845D01*
X89960827Y-61745573D01*
X89970202Y-61724664D01*
X89987062Y-61687725D01*
X90009979Y-61637874D01*
X90037520Y-61578226D01*
X90068255Y-61511898D01*
X90094970Y-61454677D01*
X90124593Y-61392688D01*
X90147664Y-61346949D01*
X90165643Y-61314908D01*
X90179990Y-61294014D01*
X90192166Y-61281718D01*
X90203632Y-61275466D01*
X90213042Y-61272574D01*
X90238147Y-61272425D01*
X90265290Y-61287768D01*
X90266590Y-61288753D01*
X90288674Y-61311388D01*
X90299723Y-61333613D01*
X90299769Y-61334253D01*
X90295228Y-61351915D01*
X90282364Y-61386481D01*
X90262605Y-61434826D01*
X90237381Y-61493825D01*
X90208119Y-61560355D01*
X90176250Y-61631291D01*
X90143201Y-61703507D01*
X90110401Y-61773880D01*
X90079280Y-61839285D01*
X90051265Y-61896597D01*
X90027786Y-61942692D01*
X90010272Y-61974446D01*
X90000151Y-61988733D01*
X89965743Y-62002102D01*
X89924046Y-61995741D01*
X89918681Y-61991044D01*
X89902852Y-61968893D01*
X89880650Y-61932132D01*
X89854233Y-61884415D01*
X89825760Y-61829393D01*
X89745986Y-61670150D01*
X89672799Y-61816742D01*
X89663103Y-61836032D01*
X89636125Y-61888380D01*
X89612096Y-61933170D01*
X89593332Y-61966154D01*
X89582146Y-61983089D01*
X89581000Y-61984332D01*
X89552879Y-61999619D01*
X89517817Y-62001302D01*
X89486776Y-61988733D01*
X89484350Y-61985884D01*
X89472090Y-61965259D01*
X89452352Y-61927708D01*
X89426448Y-61875880D01*
X89395685Y-61812423D01*
X89361375Y-61739985D01*
X89324825Y-61661216D01*
X89304585Y-61617093D01*
X89267812Y-61536365D01*
X89239355Y-61472687D01*
X89218331Y-61423752D01*
X89203854Y-61387257D01*
X89195039Y-61360895D01*
X89191004Y-61342361D01*
X89190862Y-61329352D01*
X89193730Y-61319561D01*
X89208387Y-61298678D01*
X89234990Y-61278377D01*
X89235745Y-61278035D01*
X89255335Y-61271034D01*
X89272790Y-61270504D01*
X89289702Y-61278478D01*
G36*
X89289702Y-61278478D02*
G01*
X89307663Y-61296989D01*
X89328263Y-61328071D01*
X89353095Y-61373756D01*
X89383750Y-61436078D01*
X89421820Y-61517071D01*
X89436454Y-61548454D01*
X89466203Y-61611638D01*
X89492297Y-61666244D01*
X89513292Y-61709290D01*
X89527739Y-61737793D01*
X89534191Y-61748770D01*
X89535550Y-61748189D01*
X89545542Y-61734242D01*
X89562833Y-61704704D01*
X89585430Y-61663087D01*
X89611338Y-61612903D01*
X89627311Y-61581414D01*
X89656261Y-61526061D01*
X89678749Y-61487044D01*
X89696965Y-61461566D01*
X89713096Y-61446831D01*
X89729330Y-61440042D01*
X89747857Y-61438400D01*
X89758360Y-61438875D01*
X89774476Y-61443082D01*
X89789790Y-61453946D01*
X89806388Y-61474219D01*
X89826357Y-61506654D01*
X89851783Y-61554004D01*
X89884752Y-61619022D01*
X89894485Y-61638277D01*
X89918943Y-61684946D01*
X89939178Y-61721109D01*
X89953311Y-61743497D01*
X89959460Y-61748845D01*
X89960827Y-61745573D01*
X89970202Y-61724664D01*
X89987062Y-61687725D01*
X90009979Y-61637874D01*
X90037520Y-61578226D01*
X90068255Y-61511898D01*
X90094970Y-61454677D01*
X90124593Y-61392688D01*
X90147664Y-61346949D01*
X90165643Y-61314908D01*
X90179990Y-61294014D01*
X90192166Y-61281718D01*
X90203632Y-61275466D01*
X90213042Y-61272574D01*
X90238147Y-61272425D01*
X90265290Y-61287768D01*
X90266590Y-61288753D01*
X90288674Y-61311388D01*
X90299723Y-61333613D01*
X90299769Y-61334253D01*
X90295228Y-61351915D01*
X90282364Y-61386481D01*
X90262605Y-61434826D01*
X90237381Y-61493825D01*
X90208119Y-61560355D01*
X90176250Y-61631291D01*
X90143201Y-61703507D01*
X90110401Y-61773880D01*
X90079280Y-61839285D01*
X90051265Y-61896597D01*
X90027786Y-61942692D01*
X90010272Y-61974446D01*
X90000151Y-61988733D01*
X89965743Y-62002102D01*
X89924046Y-61995741D01*
X89918681Y-61991044D01*
X89902852Y-61968893D01*
X89880650Y-61932132D01*
X89854233Y-61884415D01*
X89825760Y-61829393D01*
X89745986Y-61670150D01*
X89672799Y-61816742D01*
X89663103Y-61836032D01*
X89636125Y-61888380D01*
X89612096Y-61933170D01*
X89593332Y-61966154D01*
X89582146Y-61983089D01*
X89581000Y-61984332D01*
X89552879Y-61999619D01*
X89517817Y-62001302D01*
X89486776Y-61988733D01*
X89484350Y-61985884D01*
X89472090Y-61965259D01*
X89452352Y-61927708D01*
X89426448Y-61875880D01*
X89395685Y-61812423D01*
X89361375Y-61739985D01*
X89324825Y-61661216D01*
X89304585Y-61617093D01*
X89267812Y-61536365D01*
X89239355Y-61472687D01*
X89218331Y-61423752D01*
X89203854Y-61387257D01*
X89195039Y-61360895D01*
X89191004Y-61342361D01*
X89190862Y-61329352D01*
X89193730Y-61319561D01*
X89208387Y-61298678D01*
X89234990Y-61278377D01*
X89235745Y-61278035D01*
X89255335Y-61271034D01*
X89272790Y-61270504D01*
X89289702Y-61278478D01*
G37*
X96840853Y-61269936D02*
X96907100Y-61275366D01*
X96962400Y-61284964D01*
X97013283Y-61299825D01*
X97084595Y-61332958D01*
X97135752Y-61375640D01*
X97166575Y-61427705D01*
X97176889Y-61488983D01*
X97175952Y-61520232D01*
X97170160Y-61545029D01*
X97155353Y-61566699D01*
X97127380Y-61594049D01*
X97119402Y-61601378D01*
X97095692Y-61622281D01*
X97073298Y-61639251D01*
X97049265Y-61653205D01*
X97020637Y-61665056D01*
X96984460Y-61675720D01*
X96937780Y-61686111D01*
X96877641Y-61697146D01*
X96801090Y-61709738D01*
X96705171Y-61724804D01*
X96686808Y-61727838D01*
X96624478Y-61741458D01*
X96579260Y-61757192D01*
X96552976Y-61774263D01*
X96547447Y-61791897D01*
X96550068Y-61796168D01*
X96568000Y-61811233D01*
X96596126Y-61827867D01*
X96608926Y-61833857D01*
X96630224Y-61841050D01*
X96656610Y-61845827D01*
X96692454Y-61848646D01*
X96742128Y-61849964D01*
X96810000Y-61850237D01*
X96827785Y-61850164D01*
X96895406Y-61849053D01*
X96960345Y-61846828D01*
X97015970Y-61843762D01*
X97055651Y-61840127D01*
X97091162Y-61836059D01*
X97120415Y-61835276D01*
X97139315Y-61839876D01*
X97154429Y-61850551D01*
X97158085Y-61854144D01*
X97174427Y-61885918D01*
X97173107Y-61921572D01*
X97154150Y-61952190D01*
X97133780Y-61963796D01*
X97097796Y-61976491D01*
X97055372Y-61986541D01*
X97051922Y-61987140D01*
X97009252Y-61992356D01*
X96951866Y-61996730D01*
X96886849Y-61999818D01*
X96821289Y-62001177D01*
X96805057Y-62001218D01*
X96706744Y-61998741D01*
X96626692Y-61990735D01*
X96561513Y-61976203D01*
X96507817Y-61954149D01*
X96462216Y-61923576D01*
X96421323Y-61883486D01*
X96401202Y-61857259D01*
X96389576Y-61827712D01*
X96386667Y-61787995D01*
X96386808Y-61776026D01*
X96390681Y-61743345D01*
X96403065Y-61716819D01*
X96428230Y-61685971D01*
X96449442Y-61663831D01*
X96475838Y-61641285D01*
X96505555Y-61622917D01*
X96541785Y-61607661D01*
X96587717Y-61594449D01*
X96646544Y-61582214D01*
X96721456Y-61569889D01*
X96815645Y-61556406D01*
X96860957Y-61549396D01*
X96928911Y-61534837D01*
X96978047Y-61518337D01*
X97007614Y-61500439D01*
X97016864Y-61481685D01*
X97005048Y-61462615D01*
X96971416Y-61443771D01*
X96968370Y-61442557D01*
X96922011Y-61430479D01*
X96859361Y-61422279D01*
X96785927Y-61418119D01*
X96707217Y-61418161D01*
X96628739Y-61422569D01*
X96556000Y-61431505D01*
X96552073Y-61432154D01*
X96503257Y-61439861D01*
X96471005Y-61443473D01*
X96450008Y-61442876D01*
X96434954Y-61437954D01*
X96420534Y-61428596D01*
X96419364Y-61427725D01*
X96394847Y-61397351D01*
X96390054Y-61361850D01*
X96405860Y-61327269D01*
X96410406Y-61322813D01*
X96440020Y-61307673D01*
X96487002Y-61294550D01*
X96547306Y-61283750D01*
X96616888Y-61275581D01*
X96691703Y-61270351D01*
X96767706Y-61268367D01*
X96840853Y-61269936D01*
G36*
X96840853Y-61269936D02*
G01*
X96907100Y-61275366D01*
X96962400Y-61284964D01*
X97013283Y-61299825D01*
X97084595Y-61332958D01*
X97135752Y-61375640D01*
X97166575Y-61427705D01*
X97176889Y-61488983D01*
X97175952Y-61520232D01*
X97170160Y-61545029D01*
X97155353Y-61566699D01*
X97127380Y-61594049D01*
X97119402Y-61601378D01*
X97095692Y-61622281D01*
X97073298Y-61639251D01*
X97049265Y-61653205D01*
X97020637Y-61665056D01*
X96984460Y-61675720D01*
X96937780Y-61686111D01*
X96877641Y-61697146D01*
X96801090Y-61709738D01*
X96705171Y-61724804D01*
X96686808Y-61727838D01*
X96624478Y-61741458D01*
X96579260Y-61757192D01*
X96552976Y-61774263D01*
X96547447Y-61791897D01*
X96550068Y-61796168D01*
X96568000Y-61811233D01*
X96596126Y-61827867D01*
X96608926Y-61833857D01*
X96630224Y-61841050D01*
X96656610Y-61845827D01*
X96692454Y-61848646D01*
X96742128Y-61849964D01*
X96810000Y-61850237D01*
X96827785Y-61850164D01*
X96895406Y-61849053D01*
X96960345Y-61846828D01*
X97015970Y-61843762D01*
X97055651Y-61840127D01*
X97091162Y-61836059D01*
X97120415Y-61835276D01*
X97139315Y-61839876D01*
X97154429Y-61850551D01*
X97158085Y-61854144D01*
X97174427Y-61885918D01*
X97173107Y-61921572D01*
X97154150Y-61952190D01*
X97133780Y-61963796D01*
X97097796Y-61976491D01*
X97055372Y-61986541D01*
X97051922Y-61987140D01*
X97009252Y-61992356D01*
X96951866Y-61996730D01*
X96886849Y-61999818D01*
X96821289Y-62001177D01*
X96805057Y-62001218D01*
X96706744Y-61998741D01*
X96626692Y-61990735D01*
X96561513Y-61976203D01*
X96507817Y-61954149D01*
X96462216Y-61923576D01*
X96421323Y-61883486D01*
X96401202Y-61857259D01*
X96389576Y-61827712D01*
X96386667Y-61787995D01*
X96386808Y-61776026D01*
X96390681Y-61743345D01*
X96403065Y-61716819D01*
X96428230Y-61685971D01*
X96449442Y-61663831D01*
X96475838Y-61641285D01*
X96505555Y-61622917D01*
X96541785Y-61607661D01*
X96587717Y-61594449D01*
X96646544Y-61582214D01*
X96721456Y-61569889D01*
X96815645Y-61556406D01*
X96860957Y-61549396D01*
X96928911Y-61534837D01*
X96978047Y-61518337D01*
X97007614Y-61500439D01*
X97016864Y-61481685D01*
X97005048Y-61462615D01*
X96971416Y-61443771D01*
X96968370Y-61442557D01*
X96922011Y-61430479D01*
X96859361Y-61422279D01*
X96785927Y-61418119D01*
X96707217Y-61418161D01*
X96628739Y-61422569D01*
X96556000Y-61431505D01*
X96552073Y-61432154D01*
X96503257Y-61439861D01*
X96471005Y-61443473D01*
X96450008Y-61442876D01*
X96434954Y-61437954D01*
X96420534Y-61428596D01*
X96419364Y-61427725D01*
X96394847Y-61397351D01*
X96390054Y-61361850D01*
X96405860Y-61327269D01*
X96410406Y-61322813D01*
X96440020Y-61307673D01*
X96487002Y-61294550D01*
X96547306Y-61283750D01*
X96616888Y-61275581D01*
X96691703Y-61270351D01*
X96767706Y-61268367D01*
X96840853Y-61269936D01*
G37*
X92988711Y-56962033D02*
X93084268Y-56979523D01*
X93248558Y-57024564D01*
X93402589Y-57087656D01*
X93548509Y-57169915D01*
X93688466Y-57272457D01*
X93824608Y-57396399D01*
X93868473Y-57441661D01*
X93980758Y-57573865D01*
X94073972Y-57711832D01*
X94150719Y-57859750D01*
X94213603Y-58021803D01*
X94217420Y-58033391D01*
X94267507Y-58219392D01*
X94300899Y-58415521D01*
X94317584Y-58617568D01*
X94317551Y-58821325D01*
X94300791Y-59022581D01*
X94267292Y-59217128D01*
X94217044Y-59400756D01*
X94173190Y-59518053D01*
X94095348Y-59680951D01*
X94001828Y-59834866D01*
X93894822Y-59976671D01*
X93776519Y-60103239D01*
X93649111Y-60211441D01*
X93571606Y-60264120D01*
X93444725Y-60333750D01*
X93307243Y-60392468D01*
X93165716Y-60437587D01*
X93026702Y-60466422D01*
X93012597Y-60468106D01*
X92969153Y-60471434D01*
X92911723Y-60474275D01*
X92846122Y-60476373D01*
X92778167Y-60477468D01*
X92651378Y-60475140D01*
X92503673Y-60462136D01*
X92365779Y-60437133D01*
X92232014Y-60399318D01*
X92208562Y-60390889D01*
X92160612Y-60371408D01*
X92104140Y-60346473D01*
X92042379Y-60317722D01*
X91978563Y-60286790D01*
X91915926Y-60255315D01*
X91857703Y-60224934D01*
X91807127Y-60197283D01*
X91767433Y-60173999D01*
X91741854Y-60156718D01*
X91733625Y-60147079D01*
X91735076Y-60143984D01*
X91746250Y-60124079D01*
X91767134Y-60088420D01*
X91796265Y-60039459D01*
X91832181Y-59979646D01*
X91873420Y-59911433D01*
X91918517Y-59837271D01*
X92099785Y-59540008D01*
X92146315Y-59584539D01*
X92237723Y-59662865D01*
X92351334Y-59737439D01*
X92469122Y-59791474D01*
X92589559Y-59824290D01*
X92711117Y-59835211D01*
X92752585Y-59833868D01*
X92870080Y-59815612D01*
X92980089Y-59776617D01*
X93081430Y-59717670D01*
X93172921Y-59639557D01*
X93253380Y-59543064D01*
X93321627Y-59428978D01*
X93337908Y-59394724D01*
X93383982Y-59271240D01*
X93419106Y-59132918D01*
X93443197Y-58983561D01*
X93456173Y-58826973D01*
X93457949Y-58666956D01*
X93448443Y-58507314D01*
X93427572Y-58351850D01*
X93395252Y-58204366D01*
X93351399Y-58068667D01*
X93313982Y-57982076D01*
X93249185Y-57868688D01*
X93173772Y-57775070D01*
X93087418Y-57700959D01*
X92989795Y-57646094D01*
X92880577Y-57610212D01*
X92759439Y-57593051D01*
X92690038Y-57591880D01*
X92567168Y-57606141D01*
X92451664Y-57641241D01*
X92344953Y-57696682D01*
X92248464Y-57771964D01*
X92232720Y-57786440D01*
X92202150Y-57812962D01*
X92179809Y-57830138D01*
X92169691Y-57834787D01*
X92167706Y-57832597D01*
X92153241Y-57813721D01*
X92129400Y-57780397D01*
X92098029Y-57735380D01*
X92060974Y-57681425D01*
X92020083Y-57621285D01*
X91977202Y-57557718D01*
X91934178Y-57493476D01*
X91892857Y-57431315D01*
X91855086Y-57373991D01*
X91822712Y-57324257D01*
X91797582Y-57284868D01*
X91781542Y-57258580D01*
X91776439Y-57248147D01*
X91781050Y-57243941D01*
X91800267Y-57238933D01*
X91809838Y-57236386D01*
X91837809Y-57225249D01*
X91879448Y-57206802D01*
X91930995Y-57182725D01*
X91988690Y-57154699D01*
X91999957Y-57149154D01*
X92177687Y-57069889D01*
X92347490Y-57010385D01*
X92511430Y-56970245D01*
X92671571Y-56949071D01*
X92829977Y-56946466D01*
X92988711Y-56962033D01*
G36*
X92988711Y-56962033D02*
G01*
X93084268Y-56979523D01*
X93248558Y-57024564D01*
X93402589Y-57087656D01*
X93548509Y-57169915D01*
X93688466Y-57272457D01*
X93824608Y-57396399D01*
X93868473Y-57441661D01*
X93980758Y-57573865D01*
X94073972Y-57711832D01*
X94150719Y-57859750D01*
X94213603Y-58021803D01*
X94217420Y-58033391D01*
X94267507Y-58219392D01*
X94300899Y-58415521D01*
X94317584Y-58617568D01*
X94317551Y-58821325D01*
X94300791Y-59022581D01*
X94267292Y-59217128D01*
X94217044Y-59400756D01*
X94173190Y-59518053D01*
X94095348Y-59680951D01*
X94001828Y-59834866D01*
X93894822Y-59976671D01*
X93776519Y-60103239D01*
X93649111Y-60211441D01*
X93571606Y-60264120D01*
X93444725Y-60333750D01*
X93307243Y-60392468D01*
X93165716Y-60437587D01*
X93026702Y-60466422D01*
X93012597Y-60468106D01*
X92969153Y-60471434D01*
X92911723Y-60474275D01*
X92846122Y-60476373D01*
X92778167Y-60477468D01*
X92651378Y-60475140D01*
X92503673Y-60462136D01*
X92365779Y-60437133D01*
X92232014Y-60399318D01*
X92208562Y-60390889D01*
X92160612Y-60371408D01*
X92104140Y-60346473D01*
X92042379Y-60317722D01*
X91978563Y-60286790D01*
X91915926Y-60255315D01*
X91857703Y-60224934D01*
X91807127Y-60197283D01*
X91767433Y-60173999D01*
X91741854Y-60156718D01*
X91733625Y-60147079D01*
X91735076Y-60143984D01*
X91746250Y-60124079D01*
X91767134Y-60088420D01*
X91796265Y-60039459D01*
X91832181Y-59979646D01*
X91873420Y-59911433D01*
X91918517Y-59837271D01*
X92099785Y-59540008D01*
X92146315Y-59584539D01*
X92237723Y-59662865D01*
X92351334Y-59737439D01*
X92469122Y-59791474D01*
X92589559Y-59824290D01*
X92711117Y-59835211D01*
X92752585Y-59833868D01*
X92870080Y-59815612D01*
X92980089Y-59776617D01*
X93081430Y-59717670D01*
X93172921Y-59639557D01*
X93253380Y-59543064D01*
X93321627Y-59428978D01*
X93337908Y-59394724D01*
X93383982Y-59271240D01*
X93419106Y-59132918D01*
X93443197Y-58983561D01*
X93456173Y-58826973D01*
X93457949Y-58666956D01*
X93448443Y-58507314D01*
X93427572Y-58351850D01*
X93395252Y-58204366D01*
X93351399Y-58068667D01*
X93313982Y-57982076D01*
X93249185Y-57868688D01*
X93173772Y-57775070D01*
X93087418Y-57700959D01*
X92989795Y-57646094D01*
X92880577Y-57610212D01*
X92759439Y-57593051D01*
X92690038Y-57591880D01*
X92567168Y-57606141D01*
X92451664Y-57641241D01*
X92344953Y-57696682D01*
X92248464Y-57771964D01*
X92232720Y-57786440D01*
X92202150Y-57812962D01*
X92179809Y-57830138D01*
X92169691Y-57834787D01*
X92167706Y-57832597D01*
X92153241Y-57813721D01*
X92129400Y-57780397D01*
X92098029Y-57735380D01*
X92060974Y-57681425D01*
X92020083Y-57621285D01*
X91977202Y-57557718D01*
X91934178Y-57493476D01*
X91892857Y-57431315D01*
X91855086Y-57373991D01*
X91822712Y-57324257D01*
X91797582Y-57284868D01*
X91781542Y-57258580D01*
X91776439Y-57248147D01*
X91781050Y-57243941D01*
X91800267Y-57238933D01*
X91809838Y-57236386D01*
X91837809Y-57225249D01*
X91879448Y-57206802D01*
X91930995Y-57182725D01*
X91988690Y-57154699D01*
X91999957Y-57149154D01*
X92177687Y-57069889D01*
X92347490Y-57010385D01*
X92511430Y-56970245D01*
X92671571Y-56949071D01*
X92829977Y-56946466D01*
X92988711Y-56962033D01*
G37*
X89185994Y-59242711D02*
X89185268Y-59320158D01*
X89176689Y-59471594D01*
X89157833Y-59608283D01*
X89127837Y-59734276D01*
X89085836Y-59853625D01*
X89030969Y-59970381D01*
X88964167Y-60081179D01*
X88873363Y-60194739D01*
X88769708Y-60290211D01*
X88653887Y-60367073D01*
X88526586Y-60424797D01*
X88388489Y-60462858D01*
X88350793Y-60468666D01*
X88271752Y-60474396D01*
X88183629Y-60474583D01*
X88094236Y-60469539D01*
X88011384Y-60459578D01*
X87942887Y-60445012D01*
X87912035Y-60435364D01*
X87834730Y-60405123D01*
X87757679Y-60367617D01*
X87688200Y-60326614D01*
X87633615Y-60285879D01*
X87610916Y-60266505D01*
X87588201Y-60248662D01*
X87576779Y-60241778D01*
X87575537Y-60243424D01*
X87572728Y-60261205D01*
X87570776Y-60294370D01*
X87570045Y-60337733D01*
X87570045Y-60433689D01*
X86711896Y-60433689D01*
X86746161Y-60372974D01*
X86751355Y-60363868D01*
X86759715Y-60349249D01*
X86767288Y-60335173D01*
X86774112Y-60320540D01*
X86780227Y-60304249D01*
X86785673Y-60285198D01*
X86790487Y-60262286D01*
X86794708Y-60234413D01*
X86798377Y-60200478D01*
X86801531Y-60159379D01*
X86804211Y-60110015D01*
X86806454Y-60051286D01*
X86808299Y-59982090D01*
X86809787Y-59901326D01*
X86810955Y-59807894D01*
X86811844Y-59700692D01*
X86812491Y-59578620D01*
X86812936Y-59440576D01*
X86813218Y-59285459D01*
X86813375Y-59112168D01*
X86813448Y-58919603D01*
X86813474Y-58706662D01*
X86813485Y-58570530D01*
X87615200Y-58570530D01*
X87615200Y-59720721D01*
X87685756Y-59767089D01*
X87726417Y-59790791D01*
X87780546Y-59816639D01*
X87829689Y-59834829D01*
X87893165Y-59850551D01*
X87989331Y-59861541D01*
X88073900Y-59853365D01*
X88147219Y-59825805D01*
X88209637Y-59778642D01*
X88261502Y-59711658D01*
X88303160Y-59624633D01*
X88334962Y-59517350D01*
X88337545Y-59505009D01*
X88346000Y-59443772D01*
X88351663Y-59366692D01*
X88354576Y-59279002D01*
X88354783Y-59185934D01*
X88352330Y-59092720D01*
X88347261Y-59004594D01*
X88339619Y-58926788D01*
X88329448Y-58864533D01*
X88328167Y-58858666D01*
X88299126Y-58748121D01*
X88264610Y-58657575D01*
X88223456Y-58584953D01*
X88174499Y-58528181D01*
X88116574Y-58485184D01*
X88084620Y-58469615D01*
X88011784Y-58450722D01*
X87930443Y-58447465D01*
X87845319Y-58459389D01*
X87761133Y-58486040D01*
X87682608Y-58526962D01*
X87615200Y-58570530D01*
X86813485Y-58570530D01*
X86813493Y-58472245D01*
X86813689Y-56787378D01*
X87719017Y-56787378D01*
X87694585Y-56824067D01*
X87688318Y-56833647D01*
X87662208Y-56879981D01*
X87644469Y-56927102D01*
X87632908Y-56982251D01*
X87625331Y-57052667D01*
X87624839Y-57059650D01*
X87623062Y-57097641D01*
X87621444Y-57151576D01*
X87619999Y-57218703D01*
X87618740Y-57296271D01*
X87617680Y-57381528D01*
X87616829Y-57471724D01*
X87616203Y-57564107D01*
X87615812Y-57655925D01*
X87615670Y-57744427D01*
X87615790Y-57826862D01*
X87616183Y-57900479D01*
X87616862Y-57962526D01*
X87617841Y-58010251D01*
X87619132Y-58040904D01*
X87620747Y-58051733D01*
X87628957Y-58047333D01*
X87650647Y-58032362D01*
X87680014Y-58010448D01*
X87728879Y-57976236D01*
X87817125Y-57929714D01*
X87915916Y-57896046D01*
X88028510Y-57874231D01*
X88158164Y-57863265D01*
X88250670Y-57862219D01*
X88372011Y-57872014D01*
X88482099Y-57896174D01*
X88585389Y-57935785D01*
X88686338Y-57991932D01*
X88731503Y-58022883D01*
X88836911Y-58114115D01*
X88928538Y-58223106D01*
X89006332Y-58349726D01*
X89070241Y-58493845D01*
X89120214Y-58655332D01*
X89156198Y-58834059D01*
X89178143Y-59029895D01*
X89183900Y-59185934D01*
X89185994Y-59242711D01*
G36*
X89185994Y-59242711D02*
G01*
X89185268Y-59320158D01*
X89176689Y-59471594D01*
X89157833Y-59608283D01*
X89127837Y-59734276D01*
X89085836Y-59853625D01*
X89030969Y-59970381D01*
X88964167Y-60081179D01*
X88873363Y-60194739D01*
X88769708Y-60290211D01*
X88653887Y-60367073D01*
X88526586Y-60424797D01*
X88388489Y-60462858D01*
X88350793Y-60468666D01*
X88271752Y-60474396D01*
X88183629Y-60474583D01*
X88094236Y-60469539D01*
X88011384Y-60459578D01*
X87942887Y-60445012D01*
X87912035Y-60435364D01*
X87834730Y-60405123D01*
X87757679Y-60367617D01*
X87688200Y-60326614D01*
X87633615Y-60285879D01*
X87610916Y-60266505D01*
X87588201Y-60248662D01*
X87576779Y-60241778D01*
X87575537Y-60243424D01*
X87572728Y-60261205D01*
X87570776Y-60294370D01*
X87570045Y-60337733D01*
X87570045Y-60433689D01*
X86711896Y-60433689D01*
X86746161Y-60372974D01*
X86751355Y-60363868D01*
X86759715Y-60349249D01*
X86767288Y-60335173D01*
X86774112Y-60320540D01*
X86780227Y-60304249D01*
X86785673Y-60285198D01*
X86790487Y-60262286D01*
X86794708Y-60234413D01*
X86798377Y-60200478D01*
X86801531Y-60159379D01*
X86804211Y-60110015D01*
X86806454Y-60051286D01*
X86808299Y-59982090D01*
X86809787Y-59901326D01*
X86810955Y-59807894D01*
X86811844Y-59700692D01*
X86812491Y-59578620D01*
X86812936Y-59440576D01*
X86813218Y-59285459D01*
X86813375Y-59112168D01*
X86813448Y-58919603D01*
X86813474Y-58706662D01*
X86813485Y-58570530D01*
X87615200Y-58570530D01*
X87615200Y-59720721D01*
X87685756Y-59767089D01*
X87726417Y-59790791D01*
X87780546Y-59816639D01*
X87829689Y-59834829D01*
X87893165Y-59850551D01*
X87989331Y-59861541D01*
X88073900Y-59853365D01*
X88147219Y-59825805D01*
X88209637Y-59778642D01*
X88261502Y-59711658D01*
X88303160Y-59624633D01*
X88334962Y-59517350D01*
X88337545Y-59505009D01*
X88346000Y-59443772D01*
X88351663Y-59366692D01*
X88354576Y-59279002D01*
X88354783Y-59185934D01*
X88352330Y-59092720D01*
X88347261Y-59004594D01*
X88339619Y-58926788D01*
X88329448Y-58864533D01*
X88328167Y-58858666D01*
X88299126Y-58748121D01*
X88264610Y-58657575D01*
X88223456Y-58584953D01*
X88174499Y-58528181D01*
X88116574Y-58485184D01*
X88084620Y-58469615D01*
X88011784Y-58450722D01*
X87930443Y-58447465D01*
X87845319Y-58459389D01*
X87761133Y-58486040D01*
X87682608Y-58526962D01*
X87615200Y-58570530D01*
X86813485Y-58570530D01*
X86813493Y-58472245D01*
X86813689Y-56787378D01*
X87719017Y-56787378D01*
X87694585Y-56824067D01*
X87688318Y-56833647D01*
X87662208Y-56879981D01*
X87644469Y-56927102D01*
X87632908Y-56982251D01*
X87625331Y-57052667D01*
X87624839Y-57059650D01*
X87623062Y-57097641D01*
X87621444Y-57151576D01*
X87619999Y-57218703D01*
X87618740Y-57296271D01*
X87617680Y-57381528D01*
X87616829Y-57471724D01*
X87616203Y-57564107D01*
X87615812Y-57655925D01*
X87615670Y-57744427D01*
X87615790Y-57826862D01*
X87616183Y-57900479D01*
X87616862Y-57962526D01*
X87617841Y-58010251D01*
X87619132Y-58040904D01*
X87620747Y-58051733D01*
X87628957Y-58047333D01*
X87650647Y-58032362D01*
X87680014Y-58010448D01*
X87728879Y-57976236D01*
X87817125Y-57929714D01*
X87915916Y-57896046D01*
X88028510Y-57874231D01*
X88158164Y-57863265D01*
X88250670Y-57862219D01*
X88372011Y-57872014D01*
X88482099Y-57896174D01*
X88585389Y-57935785D01*
X88686338Y-57991932D01*
X88731503Y-58022883D01*
X88836911Y-58114115D01*
X88928538Y-58223106D01*
X89006332Y-58349726D01*
X89070241Y-58493845D01*
X89120214Y-58655332D01*
X89156198Y-58834059D01*
X89178143Y-59029895D01*
X89183900Y-59185934D01*
X89185994Y-59242711D01*
G37*
X91727755Y-59643467D02*
X91727261Y-59677363D01*
X91723632Y-59752202D01*
X91716022Y-59814401D01*
X91703688Y-59870984D01*
X91659313Y-59997076D01*
X91596400Y-60111679D01*
X91516238Y-60212568D01*
X91419740Y-60298924D01*
X91307822Y-60369932D01*
X91181397Y-60424776D01*
X91041378Y-60462638D01*
X91005149Y-60468351D01*
X90926155Y-60474313D01*
X90837841Y-60474646D01*
X90748075Y-60469659D01*
X90664722Y-60459666D01*
X90595651Y-60444978D01*
X90509187Y-60414749D01*
X90399286Y-60360057D01*
X90301956Y-60292543D01*
X90239867Y-60241556D01*
X90236605Y-60337622D01*
X90233343Y-60433689D01*
X89810450Y-60433689D01*
X89799543Y-60433686D01*
X89705056Y-60433380D01*
X89618331Y-60432616D01*
X89541837Y-60431451D01*
X89478043Y-60429942D01*
X89429418Y-60428147D01*
X89398433Y-60426121D01*
X89387556Y-60423922D01*
X89387578Y-60423463D01*
X89394614Y-60407910D01*
X89410434Y-60385071D01*
X89414734Y-60379638D01*
X89425777Y-60365606D01*
X89435311Y-60352186D01*
X89443461Y-60337722D01*
X89450352Y-60320556D01*
X89456111Y-60299034D01*
X89460862Y-60271498D01*
X89464731Y-60236292D01*
X89467844Y-60191760D01*
X89470325Y-60136246D01*
X89472300Y-60068093D01*
X89473894Y-59985645D01*
X89475234Y-59887246D01*
X89476444Y-59771239D01*
X89477649Y-59635968D01*
X89478595Y-59524586D01*
X90279378Y-59524586D01*
X90279378Y-59720462D01*
X90324048Y-59776973D01*
X90336785Y-59792212D01*
X90383604Y-59834844D01*
X90444255Y-59870672D01*
X90454897Y-59875850D01*
X90493676Y-59892745D01*
X90528692Y-59902909D01*
X90568722Y-59908325D01*
X90622541Y-59910978D01*
X90640648Y-59911383D01*
X90716011Y-59908540D01*
X90776743Y-59896620D01*
X90828452Y-59874037D01*
X90876746Y-59839211D01*
X90881803Y-59834798D01*
X90930272Y-59779160D01*
X90958459Y-59715333D01*
X90967752Y-59640282D01*
X90960520Y-59568693D01*
X90935796Y-59505645D01*
X90891249Y-59447758D01*
X90836319Y-59400808D01*
X90763894Y-59360961D01*
X90677340Y-59333263D01*
X90574670Y-59317096D01*
X90453894Y-59311842D01*
X90445007Y-59311857D01*
X90389660Y-59312655D01*
X90342736Y-59314488D01*
X90308953Y-59317111D01*
X90293028Y-59320274D01*
X90288943Y-59326741D01*
X90284572Y-59348875D01*
X90281604Y-59387988D01*
X90279914Y-59445939D01*
X90279378Y-59524586D01*
X89478595Y-59524586D01*
X89478975Y-59479778D01*
X89480228Y-59337012D01*
X89481651Y-59191942D01*
X89483176Y-59066027D01*
X89484933Y-58957436D01*
X89487051Y-58864334D01*
X89489660Y-58784891D01*
X89492890Y-58717273D01*
X89496869Y-58659649D01*
X89501728Y-58610185D01*
X89507597Y-58567050D01*
X89514604Y-58528410D01*
X89522880Y-58492434D01*
X89532554Y-58457289D01*
X89543756Y-58421142D01*
X89556616Y-58382161D01*
X89572090Y-58339091D01*
X89614994Y-58246871D01*
X89668735Y-58167099D01*
X89737576Y-58092965D01*
X89815185Y-58029405D01*
X89919761Y-57967725D01*
X90039244Y-57920202D01*
X90174508Y-57886567D01*
X90326426Y-57866552D01*
X90495872Y-57859889D01*
X90553890Y-57860287D01*
X90619398Y-57862335D01*
X90680693Y-57866704D01*
X90742097Y-57874035D01*
X90807932Y-57884969D01*
X90882520Y-57900147D01*
X90970184Y-57920209D01*
X91075245Y-57945797D01*
X91103806Y-57952820D01*
X91179054Y-57970776D01*
X91249388Y-57986820D01*
X91310567Y-58000028D01*
X91358354Y-58009474D01*
X91388511Y-58014231D01*
X91416783Y-58017910D01*
X91443060Y-58023187D01*
X91453059Y-58027942D01*
X91449952Y-58036781D01*
X91439194Y-58064072D01*
X91421864Y-58106906D01*
X91399126Y-58162425D01*
X91372147Y-58227772D01*
X91342090Y-58300089D01*
X91335493Y-58315879D01*
X91296907Y-58406484D01*
X91265768Y-58476217D01*
X91241917Y-58525405D01*
X91225198Y-58554374D01*
X91215454Y-58563452D01*
X91207766Y-58561405D01*
X91181415Y-58551760D01*
X91142982Y-58536190D01*
X91097822Y-58516815D01*
X91003293Y-58478814D01*
X90866480Y-58437780D01*
X90725289Y-58412612D01*
X90687314Y-58408611D01*
X90584059Y-58406447D01*
X90496952Y-58419622D01*
X90425129Y-58448756D01*
X90367731Y-58494466D01*
X90323896Y-58557372D01*
X90292762Y-58638092D01*
X90273470Y-58737245D01*
X90266050Y-58796224D01*
X90427936Y-58789445D01*
X90554495Y-58787813D01*
X90705951Y-58794194D01*
X90854396Y-58808777D01*
X90990578Y-58830882D01*
X91055245Y-58845821D01*
X91187490Y-58888741D01*
X91309762Y-58945340D01*
X91419685Y-59014017D01*
X91514883Y-59093170D01*
X91592980Y-59181196D01*
X91651599Y-59276493D01*
X91675595Y-59328864D01*
X91701232Y-59399590D01*
X91717478Y-59470812D01*
X91725822Y-59549712D01*
X91727690Y-59640282D01*
X91727755Y-59643467D01*
G36*
X91727755Y-59643467D02*
G01*
X91727261Y-59677363D01*
X91723632Y-59752202D01*
X91716022Y-59814401D01*
X91703688Y-59870984D01*
X91659313Y-59997076D01*
X91596400Y-60111679D01*
X91516238Y-60212568D01*
X91419740Y-60298924D01*
X91307822Y-60369932D01*
X91181397Y-60424776D01*
X91041378Y-60462638D01*
X91005149Y-60468351D01*
X90926155Y-60474313D01*
X90837841Y-60474646D01*
X90748075Y-60469659D01*
X90664722Y-60459666D01*
X90595651Y-60444978D01*
X90509187Y-60414749D01*
X90399286Y-60360057D01*
X90301956Y-60292543D01*
X90239867Y-60241556D01*
X90236605Y-60337622D01*
X90233343Y-60433689D01*
X89810450Y-60433689D01*
X89799543Y-60433686D01*
X89705056Y-60433380D01*
X89618331Y-60432616D01*
X89541837Y-60431451D01*
X89478043Y-60429942D01*
X89429418Y-60428147D01*
X89398433Y-60426121D01*
X89387556Y-60423922D01*
X89387578Y-60423463D01*
X89394614Y-60407910D01*
X89410434Y-60385071D01*
X89414734Y-60379638D01*
X89425777Y-60365606D01*
X89435311Y-60352186D01*
X89443461Y-60337722D01*
X89450352Y-60320556D01*
X89456111Y-60299034D01*
X89460862Y-60271498D01*
X89464731Y-60236292D01*
X89467844Y-60191760D01*
X89470325Y-60136246D01*
X89472300Y-60068093D01*
X89473894Y-59985645D01*
X89475234Y-59887246D01*
X89476444Y-59771239D01*
X89477649Y-59635968D01*
X89478595Y-59524586D01*
X90279378Y-59524586D01*
X90279378Y-59720462D01*
X90324048Y-59776973D01*
X90336785Y-59792212D01*
X90383604Y-59834844D01*
X90444255Y-59870672D01*
X90454897Y-59875850D01*
X90493676Y-59892745D01*
X90528692Y-59902909D01*
X90568722Y-59908325D01*
X90622541Y-59910978D01*
X90640648Y-59911383D01*
X90716011Y-59908540D01*
X90776743Y-59896620D01*
X90828452Y-59874037D01*
X90876746Y-59839211D01*
X90881803Y-59834798D01*
X90930272Y-59779160D01*
X90958459Y-59715333D01*
X90967752Y-59640282D01*
X90960520Y-59568693D01*
X90935796Y-59505645D01*
X90891249Y-59447758D01*
X90836319Y-59400808D01*
X90763894Y-59360961D01*
X90677340Y-59333263D01*
X90574670Y-59317096D01*
X90453894Y-59311842D01*
X90445007Y-59311857D01*
X90389660Y-59312655D01*
X90342736Y-59314488D01*
X90308953Y-59317111D01*
X90293028Y-59320274D01*
X90288943Y-59326741D01*
X90284572Y-59348875D01*
X90281604Y-59387988D01*
X90279914Y-59445939D01*
X90279378Y-59524586D01*
X89478595Y-59524586D01*
X89478975Y-59479778D01*
X89480228Y-59337012D01*
X89481651Y-59191942D01*
X89483176Y-59066027D01*
X89484933Y-58957436D01*
X89487051Y-58864334D01*
X89489660Y-58784891D01*
X89492890Y-58717273D01*
X89496869Y-58659649D01*
X89501728Y-58610185D01*
X89507597Y-58567050D01*
X89514604Y-58528410D01*
X89522880Y-58492434D01*
X89532554Y-58457289D01*
X89543756Y-58421142D01*
X89556616Y-58382161D01*
X89572090Y-58339091D01*
X89614994Y-58246871D01*
X89668735Y-58167099D01*
X89737576Y-58092965D01*
X89815185Y-58029405D01*
X89919761Y-57967725D01*
X90039244Y-57920202D01*
X90174508Y-57886567D01*
X90326426Y-57866552D01*
X90495872Y-57859889D01*
X90553890Y-57860287D01*
X90619398Y-57862335D01*
X90680693Y-57866704D01*
X90742097Y-57874035D01*
X90807932Y-57884969D01*
X90882520Y-57900147D01*
X90970184Y-57920209D01*
X91075245Y-57945797D01*
X91103806Y-57952820D01*
X91179054Y-57970776D01*
X91249388Y-57986820D01*
X91310567Y-58000028D01*
X91358354Y-58009474D01*
X91388511Y-58014231D01*
X91416783Y-58017910D01*
X91443060Y-58023187D01*
X91453059Y-58027942D01*
X91449952Y-58036781D01*
X91439194Y-58064072D01*
X91421864Y-58106906D01*
X91399126Y-58162425D01*
X91372147Y-58227772D01*
X91342090Y-58300089D01*
X91335493Y-58315879D01*
X91296907Y-58406484D01*
X91265768Y-58476217D01*
X91241917Y-58525405D01*
X91225198Y-58554374D01*
X91215454Y-58563452D01*
X91207766Y-58561405D01*
X91181415Y-58551760D01*
X91142982Y-58536190D01*
X91097822Y-58516815D01*
X91003293Y-58478814D01*
X90866480Y-58437780D01*
X90725289Y-58412612D01*
X90687314Y-58408611D01*
X90584059Y-58406447D01*
X90496952Y-58419622D01*
X90425129Y-58448756D01*
X90367731Y-58494466D01*
X90323896Y-58557372D01*
X90292762Y-58638092D01*
X90273470Y-58737245D01*
X90266050Y-58796224D01*
X90427936Y-58789445D01*
X90554495Y-58787813D01*
X90705951Y-58794194D01*
X90854396Y-58808777D01*
X90990578Y-58830882D01*
X91055245Y-58845821D01*
X91187490Y-58888741D01*
X91309762Y-58945340D01*
X91419685Y-59014017D01*
X91514883Y-59093170D01*
X91592980Y-59181196D01*
X91651599Y-59276493D01*
X91675595Y-59328864D01*
X91701232Y-59399590D01*
X91717478Y-59470812D01*
X91725822Y-59549712D01*
X91727690Y-59640282D01*
X91727755Y-59643467D01*
G37*
X99275614Y-57111792D02*
X99276059Y-57243011D01*
X99276362Y-57390216D01*
X99276548Y-57554349D01*
X99276642Y-57736352D01*
X99276671Y-57937165D01*
X99276661Y-58157732D01*
X99276636Y-58398992D01*
X99276622Y-58661889D01*
X99276622Y-58704040D01*
X99276646Y-58964668D01*
X99276685Y-59203796D01*
X99276708Y-59422360D01*
X99276687Y-59621295D01*
X99276593Y-59801535D01*
X99276395Y-59964015D01*
X99276063Y-60109670D01*
X99275569Y-60239434D01*
X99274883Y-60354243D01*
X99273976Y-60455030D01*
X99272817Y-60542730D01*
X99271378Y-60618279D01*
X99269629Y-60682611D01*
X99267540Y-60736661D01*
X99265083Y-60781363D01*
X99262227Y-60817652D01*
X99258943Y-60846463D01*
X99255202Y-60868731D01*
X99250974Y-60885390D01*
X99246229Y-60897375D01*
X99240939Y-60905621D01*
X99235073Y-60911062D01*
X99228602Y-60914634D01*
X99221497Y-60917270D01*
X99213728Y-60919906D01*
X99205266Y-60923477D01*
X99200908Y-60925145D01*
X99192395Y-60927111D01*
X99179694Y-60928911D01*
X99161885Y-60930555D01*
X99138049Y-60932047D01*
X99107266Y-60933397D01*
X99068617Y-60934611D01*
X99021182Y-60935697D01*
X98964043Y-60936661D01*
X98896279Y-60937511D01*
X98816971Y-60938253D01*
X98725199Y-60938897D01*
X98620044Y-60939447D01*
X98500587Y-60939913D01*
X98365908Y-60940300D01*
X98215088Y-60940616D01*
X98047206Y-60940869D01*
X97861345Y-60941066D01*
X97656583Y-60941213D01*
X97432002Y-60941318D01*
X97186682Y-60941389D01*
X96919704Y-60941432D01*
X96881321Y-60941437D01*
X96615922Y-60941480D01*
X96372050Y-60941525D01*
X96148783Y-60941548D01*
X95945196Y-60941524D01*
X95760367Y-60941430D01*
X95593373Y-60941243D01*
X95443290Y-60940939D01*
X95309196Y-60940494D01*
X95190166Y-60939885D01*
X95085279Y-60939089D01*
X94993610Y-60938080D01*
X94914237Y-60936837D01*
X94846237Y-60935335D01*
X94788686Y-60933551D01*
X94740662Y-60931461D01*
X94701240Y-60929042D01*
X94669499Y-60926270D01*
X94644514Y-60923121D01*
X94625364Y-60919572D01*
X94611123Y-60915598D01*
X94600871Y-60911178D01*
X94593682Y-60906286D01*
X94588635Y-60900900D01*
X94584805Y-60894996D01*
X94581271Y-60888549D01*
X94577108Y-60881537D01*
X94576025Y-60879687D01*
X94573813Y-60874180D01*
X94571786Y-60865868D01*
X94569938Y-60853809D01*
X94568261Y-60837063D01*
X94566745Y-60814687D01*
X94565383Y-60785740D01*
X94564167Y-60749280D01*
X94563089Y-60704367D01*
X94562140Y-60650057D01*
X94561312Y-60585410D01*
X94560597Y-60509484D01*
X94559987Y-60421338D01*
X94559942Y-60412493D01*
X94851378Y-60412493D01*
X94855260Y-60413765D01*
X94878520Y-60415791D01*
X94920874Y-60417626D01*
X94980132Y-60419227D01*
X95054107Y-60420549D01*
X95140610Y-60421548D01*
X95237452Y-60422180D01*
X95342445Y-60422400D01*
X96040651Y-60422400D01*
X97195090Y-60422400D01*
X97194456Y-60346200D01*
X97195574Y-60304160D01*
X97201304Y-60268334D01*
X97213890Y-60230772D01*
X97235568Y-60182577D01*
X97238789Y-60175897D01*
X97264188Y-60126359D01*
X97290996Y-60078369D01*
X97313917Y-60041466D01*
X97318485Y-60034834D01*
X97340516Y-60003593D01*
X97372693Y-59958654D01*
X97413457Y-59902147D01*
X97461245Y-59836204D01*
X97514498Y-59762957D01*
X97571655Y-59684536D01*
X97631155Y-59603072D01*
X97691437Y-59520698D01*
X97750940Y-59439544D01*
X97808105Y-59361742D01*
X97861370Y-59289423D01*
X97909174Y-59224718D01*
X97949957Y-59169759D01*
X97982158Y-59126676D01*
X98004216Y-59097602D01*
X98014571Y-59084667D01*
X98019044Y-59080351D01*
X98023236Y-59078312D01*
X98026643Y-59080926D01*
X98029325Y-59089986D01*
X98031341Y-59107285D01*
X98032748Y-59134614D01*
X98033605Y-59173765D01*
X98033970Y-59226533D01*
X98033903Y-59294707D01*
X98033460Y-59380082D01*
X98032702Y-59484449D01*
X98031685Y-59609600D01*
X98031308Y-59654300D01*
X98030169Y-59775395D01*
X98028972Y-59876688D01*
X98027636Y-59960262D01*
X98026077Y-60028204D01*
X98024215Y-60082599D01*
X98021966Y-60125532D01*
X98019248Y-60159089D01*
X98015979Y-60185355D01*
X98012078Y-60206416D01*
X98007461Y-60224357D01*
X97999192Y-60250770D01*
X97975583Y-60312772D01*
X97949685Y-60365573D01*
X97924535Y-60402645D01*
X97923339Y-60404075D01*
X97921168Y-60408424D01*
X97923328Y-60412026D01*
X97931644Y-60414951D01*
X97947940Y-60417269D01*
X97974041Y-60419051D01*
X98011771Y-60420367D01*
X98062956Y-60421286D01*
X98129420Y-60421878D01*
X98212987Y-60422215D01*
X98315483Y-60422365D01*
X98438732Y-60422400D01*
X98970296Y-60422400D01*
X98931523Y-60364783D01*
X98925432Y-60355893D01*
X98914976Y-60341069D01*
X98905579Y-60327422D01*
X98897183Y-60313765D01*
X98889733Y-60298911D01*
X98883173Y-60281670D01*
X98877446Y-60260855D01*
X98872495Y-60235280D01*
X98868266Y-60203755D01*
X98864701Y-60165093D01*
X98861744Y-60118107D01*
X98859340Y-60061608D01*
X98857431Y-59994409D01*
X98855962Y-59915322D01*
X98854876Y-59823160D01*
X98854118Y-59716734D01*
X98853630Y-59594857D01*
X98853358Y-59456341D01*
X98853243Y-59299999D01*
X98853231Y-59124642D01*
X98853265Y-58929082D01*
X98853289Y-58712133D01*
X98853280Y-58589513D01*
X98853243Y-58384447D01*
X98853227Y-58200116D01*
X98853288Y-58035334D01*
X98853484Y-57888916D01*
X98853870Y-57759674D01*
X98854505Y-57646422D01*
X98855444Y-57547975D01*
X98856745Y-57463144D01*
X98858464Y-57390744D01*
X98860659Y-57329589D01*
X98863385Y-57278492D01*
X98866701Y-57236267D01*
X98870662Y-57201727D01*
X98875325Y-57173686D01*
X98880747Y-57150958D01*
X98886986Y-57132356D01*
X98894097Y-57116693D01*
X98902138Y-57102784D01*
X98911166Y-57089441D01*
X98921236Y-57075479D01*
X98932407Y-57059711D01*
X98972197Y-57001867D01*
X97912314Y-57001867D01*
X97950311Y-57064966D01*
X97964993Y-57090005D01*
X97979531Y-57117586D01*
X97991627Y-57145700D01*
X98001532Y-57176551D01*
X98009494Y-57212344D01*
X98015761Y-57255283D01*
X98020582Y-57307574D01*
X98024206Y-57371419D01*
X98026881Y-57449025D01*
X98028857Y-57542594D01*
X98030382Y-57654333D01*
X98031704Y-57786445D01*
X98032613Y-57906434D01*
X98033020Y-58023063D01*
X98032767Y-58118531D01*
X98031857Y-58192556D01*
X98030293Y-58244855D01*
X98028079Y-58275149D01*
X98025220Y-58283156D01*
X98022161Y-58279858D01*
X98004006Y-58258408D01*
X97974275Y-58221889D01*
X97934639Y-58172442D01*
X97886771Y-58112207D01*
X97832343Y-58043327D01*
X97773027Y-57967943D01*
X97710495Y-57888196D01*
X97646421Y-57806228D01*
X97582475Y-57724180D01*
X97520331Y-57644194D01*
X97461661Y-57568411D01*
X97408137Y-57498973D01*
X97361430Y-57438021D01*
X97323214Y-57387696D01*
X97295161Y-57350140D01*
X97278943Y-57327495D01*
X97233635Y-57255212D01*
X97193661Y-57175463D01*
X97172130Y-57107188D01*
X97168827Y-57049844D01*
X97174116Y-57001867D01*
X96042356Y-57002117D01*
X96081867Y-57032722D01*
X96091248Y-57040089D01*
X96154183Y-57094438D01*
X96222997Y-57162259D01*
X96299596Y-57245516D01*
X96385888Y-57346178D01*
X96403052Y-57366847D01*
X96443833Y-57416409D01*
X96493588Y-57477326D01*
X96550955Y-57547898D01*
X96614569Y-57626424D01*
X96683069Y-57711204D01*
X96755090Y-57800537D01*
X96829270Y-57892722D01*
X96844517Y-57911702D01*
X96904246Y-57986060D01*
X96978653Y-58078848D01*
X97051131Y-58169388D01*
X97120314Y-58255978D01*
X97184841Y-58336918D01*
X97243347Y-58410506D01*
X97294470Y-58475044D01*
X97336847Y-58528829D01*
X97369115Y-58570162D01*
X97389910Y-58597342D01*
X97397869Y-58608668D01*
X97396111Y-58612771D01*
X97383230Y-58633334D01*
X97358885Y-58669561D01*
X97324247Y-58719824D01*
X97280486Y-58782492D01*
X97228775Y-58855936D01*
X97170284Y-58938527D01*
X97106184Y-59028636D01*
X97037646Y-59124631D01*
X96965843Y-59224885D01*
X96891944Y-59327768D01*
X96817121Y-59431650D01*
X96742545Y-59534901D01*
X96669387Y-59635892D01*
X96598819Y-59732994D01*
X96532011Y-59824577D01*
X96470135Y-59909011D01*
X96414361Y-59984667D01*
X96365862Y-60049916D01*
X96325807Y-60103128D01*
X96295369Y-60142673D01*
X96274944Y-60168026D01*
X96228899Y-60222295D01*
X96178612Y-60278775D01*
X96131815Y-60328669D01*
X96040651Y-60422400D01*
X95342445Y-60422400D01*
X95411356Y-60422349D01*
X95509607Y-60422091D01*
X95599030Y-60421637D01*
X95677333Y-60421010D01*
X95742223Y-60420235D01*
X95791411Y-60419335D01*
X95822604Y-60418334D01*
X95833511Y-60417257D01*
X95832322Y-60414037D01*
X95822176Y-60396452D01*
X95805040Y-60370158D01*
X95796540Y-60357691D01*
X95787329Y-60343622D01*
X95779233Y-60329351D01*
X95772185Y-60313479D01*
X95766117Y-60294609D01*
X95760961Y-60271341D01*
X95756651Y-60242278D01*
X95753119Y-60206021D01*
X95750297Y-60161170D01*
X95748118Y-60106328D01*
X95746514Y-60040097D01*
X95745419Y-59961077D01*
X95744765Y-59867871D01*
X95744484Y-59759079D01*
X95744509Y-59633303D01*
X95744772Y-59489145D01*
X95745206Y-59325207D01*
X95745745Y-59140089D01*
X95746279Y-58961232D01*
X95746805Y-58802374D01*
X95747350Y-58663316D01*
X95747945Y-58542665D01*
X95748619Y-58439028D01*
X95749403Y-58351011D01*
X95750326Y-58277223D01*
X95751419Y-58216269D01*
X95752712Y-58166757D01*
X95754235Y-58127293D01*
X95756019Y-58096484D01*
X95758092Y-58072938D01*
X95760486Y-58055260D01*
X95763230Y-58042059D01*
X95766356Y-58031940D01*
X95769892Y-58023511D01*
X95773791Y-58015375D01*
X95793438Y-57978544D01*
X95812225Y-57948391D01*
X95813272Y-57946908D01*
X95827602Y-57924659D01*
X95833511Y-57911702D01*
X95832504Y-57911249D01*
X95815305Y-57909803D01*
X95778656Y-57908480D01*
X95724962Y-57907316D01*
X95656630Y-57906347D01*
X95576064Y-57905611D01*
X95485670Y-57905142D01*
X95387853Y-57904978D01*
X94942195Y-57904978D01*
X94939120Y-59081845D01*
X94936045Y-60258711D01*
X94909407Y-60317622D01*
X94897485Y-60342183D01*
X94880246Y-60372434D01*
X94867074Y-60389560D01*
X94859076Y-60397591D01*
X94851378Y-60412493D01*
X94559942Y-60412493D01*
X94559474Y-60320029D01*
X94559050Y-60204617D01*
X94558706Y-60074160D01*
X94558434Y-59927716D01*
X94558227Y-59764344D01*
X94558076Y-59583101D01*
X94557972Y-59383048D01*
X94557908Y-59163241D01*
X94557876Y-58922739D01*
X94557867Y-58660602D01*
X94557867Y-56469031D01*
X94596249Y-56430649D01*
X94623355Y-56406911D01*
X94650253Y-56395111D01*
X94686560Y-56392267D01*
X94738489Y-56392267D01*
X94738489Y-56480206D01*
X94740427Y-56530102D01*
X94759199Y-56640523D01*
X94796217Y-56741987D01*
X94849369Y-56833152D01*
X94916546Y-56912673D01*
X94995638Y-56979205D01*
X95084534Y-57031406D01*
X95181125Y-57067930D01*
X95283300Y-57087434D01*
X95388950Y-57088573D01*
X95495964Y-57070005D01*
X95602232Y-57030384D01*
X95699219Y-56972516D01*
X95784293Y-56897684D01*
X95853015Y-56809615D01*
X95903918Y-56710616D01*
X95935535Y-56602993D01*
X95946400Y-56489054D01*
X95946400Y-56392267D01*
X97566753Y-56392267D01*
X97777897Y-56392280D01*
X97982020Y-56392330D01*
X98165686Y-56392430D01*
X98329991Y-56392592D01*
X98476029Y-56392829D01*
X98604894Y-56393153D01*
X98717683Y-56393575D01*
X98815488Y-56394109D01*
X98899404Y-56394767D01*
X98970527Y-56395561D01*
X99029950Y-56396504D01*
X99078768Y-56397608D01*
X99118077Y-56398884D01*
X99148969Y-56400347D01*
X99172541Y-56402007D01*
X99189886Y-56403878D01*
X99202099Y-56405972D01*
X99210275Y-56408300D01*
X99215508Y-56410876D01*
X99221504Y-56414445D01*
X99228279Y-56417978D01*
X99234478Y-56421488D01*
X99240126Y-56425918D01*
X99245247Y-56432208D01*
X99249869Y-56441301D01*
X99254015Y-56454139D01*
X99257713Y-56471662D01*
X99260987Y-56494813D01*
X99263863Y-56524534D01*
X99266367Y-56561765D01*
X99268524Y-56607449D01*
X99270360Y-56662527D01*
X99271900Y-56727941D01*
X99273170Y-56804633D01*
X99274195Y-56893544D01*
X99275001Y-56995617D01*
X99275034Y-57001867D01*
X99275614Y-57111792D01*
G36*
X99275614Y-57111792D02*
G01*
X99276059Y-57243011D01*
X99276362Y-57390216D01*
X99276548Y-57554349D01*
X99276642Y-57736352D01*
X99276671Y-57937165D01*
X99276661Y-58157732D01*
X99276636Y-58398992D01*
X99276622Y-58661889D01*
X99276622Y-58704040D01*
X99276646Y-58964668D01*
X99276685Y-59203796D01*
X99276708Y-59422360D01*
X99276687Y-59621295D01*
X99276593Y-59801535D01*
X99276395Y-59964015D01*
X99276063Y-60109670D01*
X99275569Y-60239434D01*
X99274883Y-60354243D01*
X99273976Y-60455030D01*
X99272817Y-60542730D01*
X99271378Y-60618279D01*
X99269629Y-60682611D01*
X99267540Y-60736661D01*
X99265083Y-60781363D01*
X99262227Y-60817652D01*
X99258943Y-60846463D01*
X99255202Y-60868731D01*
X99250974Y-60885390D01*
X99246229Y-60897375D01*
X99240939Y-60905621D01*
X99235073Y-60911062D01*
X99228602Y-60914634D01*
X99221497Y-60917270D01*
X99213728Y-60919906D01*
X99205266Y-60923477D01*
X99200908Y-60925145D01*
X99192395Y-60927111D01*
X99179694Y-60928911D01*
X99161885Y-60930555D01*
X99138049Y-60932047D01*
X99107266Y-60933397D01*
X99068617Y-60934611D01*
X99021182Y-60935697D01*
X98964043Y-60936661D01*
X98896279Y-60937511D01*
X98816971Y-60938253D01*
X98725199Y-60938897D01*
X98620044Y-60939447D01*
X98500587Y-60939913D01*
X98365908Y-60940300D01*
X98215088Y-60940616D01*
X98047206Y-60940869D01*
X97861345Y-60941066D01*
X97656583Y-60941213D01*
X97432002Y-60941318D01*
X97186682Y-60941389D01*
X96919704Y-60941432D01*
X96881321Y-60941437D01*
X96615922Y-60941480D01*
X96372050Y-60941525D01*
X96148783Y-60941548D01*
X95945196Y-60941524D01*
X95760367Y-60941430D01*
X95593373Y-60941243D01*
X95443290Y-60940939D01*
X95309196Y-60940494D01*
X95190166Y-60939885D01*
X95085279Y-60939089D01*
X94993610Y-60938080D01*
X94914237Y-60936837D01*
X94846237Y-60935335D01*
X94788686Y-60933551D01*
X94740662Y-60931461D01*
X94701240Y-60929042D01*
X94669499Y-60926270D01*
X94644514Y-60923121D01*
X94625364Y-60919572D01*
X94611123Y-60915598D01*
X94600871Y-60911178D01*
X94593682Y-60906286D01*
X94588635Y-60900900D01*
X94584805Y-60894996D01*
X94581271Y-60888549D01*
X94577108Y-60881537D01*
X94576025Y-60879687D01*
X94573813Y-60874180D01*
X94571786Y-60865868D01*
X94569938Y-60853809D01*
X94568261Y-60837063D01*
X94566745Y-60814687D01*
X94565383Y-60785740D01*
X94564167Y-60749280D01*
X94563089Y-60704367D01*
X94562140Y-60650057D01*
X94561312Y-60585410D01*
X94560597Y-60509484D01*
X94559987Y-60421338D01*
X94559942Y-60412493D01*
X94851378Y-60412493D01*
X94855260Y-60413765D01*
X94878520Y-60415791D01*
X94920874Y-60417626D01*
X94980132Y-60419227D01*
X95054107Y-60420549D01*
X95140610Y-60421548D01*
X95237452Y-60422180D01*
X95342445Y-60422400D01*
X96040651Y-60422400D01*
X97195090Y-60422400D01*
X97194456Y-60346200D01*
X97195574Y-60304160D01*
X97201304Y-60268334D01*
X97213890Y-60230772D01*
X97235568Y-60182577D01*
X97238789Y-60175897D01*
X97264188Y-60126359D01*
X97290996Y-60078369D01*
X97313917Y-60041466D01*
X97318485Y-60034834D01*
X97340516Y-60003593D01*
X97372693Y-59958654D01*
X97413457Y-59902147D01*
X97461245Y-59836204D01*
X97514498Y-59762957D01*
X97571655Y-59684536D01*
X97631155Y-59603072D01*
X97691437Y-59520698D01*
X97750940Y-59439544D01*
X97808105Y-59361742D01*
X97861370Y-59289423D01*
X97909174Y-59224718D01*
X97949957Y-59169759D01*
X97982158Y-59126676D01*
X98004216Y-59097602D01*
X98014571Y-59084667D01*
X98019044Y-59080351D01*
X98023236Y-59078312D01*
X98026643Y-59080926D01*
X98029325Y-59089986D01*
X98031341Y-59107285D01*
X98032748Y-59134614D01*
X98033605Y-59173765D01*
X98033970Y-59226533D01*
X98033903Y-59294707D01*
X98033460Y-59380082D01*
X98032702Y-59484449D01*
X98031685Y-59609600D01*
X98031308Y-59654300D01*
X98030169Y-59775395D01*
X98028972Y-59876688D01*
X98027636Y-59960262D01*
X98026077Y-60028204D01*
X98024215Y-60082599D01*
X98021966Y-60125532D01*
X98019248Y-60159089D01*
X98015979Y-60185355D01*
X98012078Y-60206416D01*
X98007461Y-60224357D01*
X97999192Y-60250770D01*
X97975583Y-60312772D01*
X97949685Y-60365573D01*
X97924535Y-60402645D01*
X97923339Y-60404075D01*
X97921168Y-60408424D01*
X97923328Y-60412026D01*
X97931644Y-60414951D01*
X97947940Y-60417269D01*
X97974041Y-60419051D01*
X98011771Y-60420367D01*
X98062956Y-60421286D01*
X98129420Y-60421878D01*
X98212987Y-60422215D01*
X98315483Y-60422365D01*
X98438732Y-60422400D01*
X98970296Y-60422400D01*
X98931523Y-60364783D01*
X98925432Y-60355893D01*
X98914976Y-60341069D01*
X98905579Y-60327422D01*
X98897183Y-60313765D01*
X98889733Y-60298911D01*
X98883173Y-60281670D01*
X98877446Y-60260855D01*
X98872495Y-60235280D01*
X98868266Y-60203755D01*
X98864701Y-60165093D01*
X98861744Y-60118107D01*
X98859340Y-60061608D01*
X98857431Y-59994409D01*
X98855962Y-59915322D01*
X98854876Y-59823160D01*
X98854118Y-59716734D01*
X98853630Y-59594857D01*
X98853358Y-59456341D01*
X98853243Y-59299999D01*
X98853231Y-59124642D01*
X98853265Y-58929082D01*
X98853289Y-58712133D01*
X98853280Y-58589513D01*
X98853243Y-58384447D01*
X98853227Y-58200116D01*
X98853288Y-58035334D01*
X98853484Y-57888916D01*
X98853870Y-57759674D01*
X98854505Y-57646422D01*
X98855444Y-57547975D01*
X98856745Y-57463144D01*
X98858464Y-57390744D01*
X98860659Y-57329589D01*
X98863385Y-57278492D01*
X98866701Y-57236267D01*
X98870662Y-57201727D01*
X98875325Y-57173686D01*
X98880747Y-57150958D01*
X98886986Y-57132356D01*
X98894097Y-57116693D01*
X98902138Y-57102784D01*
X98911166Y-57089441D01*
X98921236Y-57075479D01*
X98932407Y-57059711D01*
X98972197Y-57001867D01*
X97912314Y-57001867D01*
X97950311Y-57064966D01*
X97964993Y-57090005D01*
X97979531Y-57117586D01*
X97991627Y-57145700D01*
X98001532Y-57176551D01*
X98009494Y-57212344D01*
X98015761Y-57255283D01*
X98020582Y-57307574D01*
X98024206Y-57371419D01*
X98026881Y-57449025D01*
X98028857Y-57542594D01*
X98030382Y-57654333D01*
X98031704Y-57786445D01*
X98032613Y-57906434D01*
X98033020Y-58023063D01*
X98032767Y-58118531D01*
X98031857Y-58192556D01*
X98030293Y-58244855D01*
X98028079Y-58275149D01*
X98025220Y-58283156D01*
X98022161Y-58279858D01*
X98004006Y-58258408D01*
X97974275Y-58221889D01*
X97934639Y-58172442D01*
X97886771Y-58112207D01*
X97832343Y-58043327D01*
X97773027Y-57967943D01*
X97710495Y-57888196D01*
X97646421Y-57806228D01*
X97582475Y-57724180D01*
X97520331Y-57644194D01*
X97461661Y-57568411D01*
X97408137Y-57498973D01*
X97361430Y-57438021D01*
X97323214Y-57387696D01*
X97295161Y-57350140D01*
X97278943Y-57327495D01*
X97233635Y-57255212D01*
X97193661Y-57175463D01*
X97172130Y-57107188D01*
X97168827Y-57049844D01*
X97174116Y-57001867D01*
X96042356Y-57002117D01*
X96081867Y-57032722D01*
X96091248Y-57040089D01*
X96154183Y-57094438D01*
X96222997Y-57162259D01*
X96299596Y-57245516D01*
X96385888Y-57346178D01*
X96403052Y-57366847D01*
X96443833Y-57416409D01*
X96493588Y-57477326D01*
X96550955Y-57547898D01*
X96614569Y-57626424D01*
X96683069Y-57711204D01*
X96755090Y-57800537D01*
X96829270Y-57892722D01*
X96844517Y-57911702D01*
X96904246Y-57986060D01*
X96978653Y-58078848D01*
X97051131Y-58169388D01*
X97120314Y-58255978D01*
X97184841Y-58336918D01*
X97243347Y-58410506D01*
X97294470Y-58475044D01*
X97336847Y-58528829D01*
X97369115Y-58570162D01*
X97389910Y-58597342D01*
X97397869Y-58608668D01*
X97396111Y-58612771D01*
X97383230Y-58633334D01*
X97358885Y-58669561D01*
X97324247Y-58719824D01*
X97280486Y-58782492D01*
X97228775Y-58855936D01*
X97170284Y-58938527D01*
X97106184Y-59028636D01*
X97037646Y-59124631D01*
X96965843Y-59224885D01*
X96891944Y-59327768D01*
X96817121Y-59431650D01*
X96742545Y-59534901D01*
X96669387Y-59635892D01*
X96598819Y-59732994D01*
X96532011Y-59824577D01*
X96470135Y-59909011D01*
X96414361Y-59984667D01*
X96365862Y-60049916D01*
X96325807Y-60103128D01*
X96295369Y-60142673D01*
X96274944Y-60168026D01*
X96228899Y-60222295D01*
X96178612Y-60278775D01*
X96131815Y-60328669D01*
X96040651Y-60422400D01*
X95342445Y-60422400D01*
X95411356Y-60422349D01*
X95509607Y-60422091D01*
X95599030Y-60421637D01*
X95677333Y-60421010D01*
X95742223Y-60420235D01*
X95791411Y-60419335D01*
X95822604Y-60418334D01*
X95833511Y-60417257D01*
X95832322Y-60414037D01*
X95822176Y-60396452D01*
X95805040Y-60370158D01*
X95796540Y-60357691D01*
X95787329Y-60343622D01*
X95779233Y-60329351D01*
X95772185Y-60313479D01*
X95766117Y-60294609D01*
X95760961Y-60271341D01*
X95756651Y-60242278D01*
X95753119Y-60206021D01*
X95750297Y-60161170D01*
X95748118Y-60106328D01*
X95746514Y-60040097D01*
X95745419Y-59961077D01*
X95744765Y-59867871D01*
X95744484Y-59759079D01*
X95744509Y-59633303D01*
X95744772Y-59489145D01*
X95745206Y-59325207D01*
X95745745Y-59140089D01*
X95746279Y-58961232D01*
X95746805Y-58802374D01*
X95747350Y-58663316D01*
X95747945Y-58542665D01*
X95748619Y-58439028D01*
X95749403Y-58351011D01*
X95750326Y-58277223D01*
X95751419Y-58216269D01*
X95752712Y-58166757D01*
X95754235Y-58127293D01*
X95756019Y-58096484D01*
X95758092Y-58072938D01*
X95760486Y-58055260D01*
X95763230Y-58042059D01*
X95766356Y-58031940D01*
X95769892Y-58023511D01*
X95773791Y-58015375D01*
X95793438Y-57978544D01*
X95812225Y-57948391D01*
X95813272Y-57946908D01*
X95827602Y-57924659D01*
X95833511Y-57911702D01*
X95832504Y-57911249D01*
X95815305Y-57909803D01*
X95778656Y-57908480D01*
X95724962Y-57907316D01*
X95656630Y-57906347D01*
X95576064Y-57905611D01*
X95485670Y-57905142D01*
X95387853Y-57904978D01*
X94942195Y-57904978D01*
X94939120Y-59081845D01*
X94936045Y-60258711D01*
X94909407Y-60317622D01*
X94897485Y-60342183D01*
X94880246Y-60372434D01*
X94867074Y-60389560D01*
X94859076Y-60397591D01*
X94851378Y-60412493D01*
X94559942Y-60412493D01*
X94559474Y-60320029D01*
X94559050Y-60204617D01*
X94558706Y-60074160D01*
X94558434Y-59927716D01*
X94558227Y-59764344D01*
X94558076Y-59583101D01*
X94557972Y-59383048D01*
X94557908Y-59163241D01*
X94557876Y-58922739D01*
X94557867Y-58660602D01*
X94557867Y-56469031D01*
X94596249Y-56430649D01*
X94623355Y-56406911D01*
X94650253Y-56395111D01*
X94686560Y-56392267D01*
X94738489Y-56392267D01*
X94738489Y-56480206D01*
X94740427Y-56530102D01*
X94759199Y-56640523D01*
X94796217Y-56741987D01*
X94849369Y-56833152D01*
X94916546Y-56912673D01*
X94995638Y-56979205D01*
X95084534Y-57031406D01*
X95181125Y-57067930D01*
X95283300Y-57087434D01*
X95388950Y-57088573D01*
X95495964Y-57070005D01*
X95602232Y-57030384D01*
X95699219Y-56972516D01*
X95784293Y-56897684D01*
X95853015Y-56809615D01*
X95903918Y-56710616D01*
X95935535Y-56602993D01*
X95946400Y-56489054D01*
X95946400Y-56392267D01*
X97566753Y-56392267D01*
X97777897Y-56392280D01*
X97982020Y-56392330D01*
X98165686Y-56392430D01*
X98329991Y-56392592D01*
X98476029Y-56392829D01*
X98604894Y-56393153D01*
X98717683Y-56393575D01*
X98815488Y-56394109D01*
X98899404Y-56394767D01*
X98970527Y-56395561D01*
X99029950Y-56396504D01*
X99078768Y-56397608D01*
X99118077Y-56398884D01*
X99148969Y-56400347D01*
X99172541Y-56402007D01*
X99189886Y-56403878D01*
X99202099Y-56405972D01*
X99210275Y-56408300D01*
X99215508Y-56410876D01*
X99221504Y-56414445D01*
X99228279Y-56417978D01*
X99234478Y-56421488D01*
X99240126Y-56425918D01*
X99245247Y-56432208D01*
X99249869Y-56441301D01*
X99254015Y-56454139D01*
X99257713Y-56471662D01*
X99260987Y-56494813D01*
X99263863Y-56524534D01*
X99266367Y-56561765D01*
X99268524Y-56607449D01*
X99270360Y-56662527D01*
X99271900Y-56727941D01*
X99273170Y-56804633D01*
X99274195Y-56893544D01*
X99275001Y-56995617D01*
X99275034Y-57001867D01*
X99275614Y-57111792D01*
G37*
D12*
X104515000Y-86215000D02*
X104515000Y-87785000D01*
X104515000Y-87785000D02*
X107400000Y-87785000D01*
X107400000Y-86215000D02*
X104515000Y-86215000D01*
X106661252Y-84165000D02*
X106138748Y-84165000D01*
X106661252Y-85635000D02*
X106138748Y-85635000D01*
X77090000Y-71240000D02*
X77090000Y-75100000D01*
X77090000Y-78960000D02*
X77090000Y-75100000D01*
X77355000Y-71240000D02*
X77090000Y-71240000D01*
X77355000Y-78960000D02*
X77090000Y-78960000D01*
X92445000Y-71240000D02*
X92710000Y-71240000D01*
X92445000Y-78960000D02*
X92710000Y-78960000D01*
X92710000Y-71240000D02*
X92710000Y-75100000D01*
X92710000Y-78960000D02*
X92710000Y-75100000D01*
X77355000Y-70387500D02*
X76885000Y-70727500D01*
X76885000Y-70047500D01*
X77355000Y-70387500D01*
G36*
X77355000Y-70387500D02*
G01*
X76885000Y-70727500D01*
X76885000Y-70047500D01*
X77355000Y-70387500D01*
G37*
X86115000Y-50170000D02*
X86115000Y-52830000D01*
X86115000Y-50170000D02*
X91255000Y-50170000D01*
X86115000Y-52830000D02*
X91255000Y-52830000D01*
X91255000Y-50170000D02*
X91255000Y-52830000D01*
X93855000Y-51500000D02*
X93855000Y-52830000D01*
X93855000Y-52830000D02*
X92525000Y-52830000D01*
X86361252Y-84165000D02*
X85838748Y-84165000D01*
X86361252Y-85635000D02*
X85838748Y-85635000D01*
X62400000Y-68120000D02*
X68400000Y-68120000D01*
X62400000Y-68180000D02*
X68400000Y-68180000D01*
X62400000Y-68300000D02*
X68400000Y-68300000D01*
X62400000Y-68420000D02*
X68400000Y-68420000D01*
X62400000Y-68540000D02*
X68400000Y-68540000D01*
X62400000Y-68660000D02*
X68400000Y-68660000D01*
X62400000Y-68780000D02*
X68400000Y-68780000D01*
X62400000Y-68880000D02*
X62400000Y-68120000D01*
X62400000Y-70660000D02*
X68400000Y-70660000D01*
X62400000Y-71420000D02*
X62400000Y-70660000D01*
X62400000Y-73200000D02*
X68400000Y-73200000D01*
X62400000Y-73960000D02*
X62400000Y-73200000D01*
X62400000Y-75740000D02*
X68400000Y-75740000D01*
X62400000Y-76500000D02*
X62400000Y-75740000D01*
X62400000Y-78280000D02*
X68400000Y-78280000D01*
X62400000Y-79040000D02*
X62400000Y-78280000D01*
X62400000Y-80820000D02*
X68400000Y-80820000D01*
X62400000Y-81580000D02*
X62400000Y-80820000D01*
X62400000Y-83360000D02*
X68400000Y-83360000D01*
X62400000Y-84120000D02*
X62400000Y-83360000D01*
X68400000Y-67170000D02*
X68400000Y-85070000D01*
X68400000Y-68880000D02*
X62400000Y-68880000D01*
X68400000Y-69770000D02*
X71060000Y-69770000D01*
X68400000Y-71420000D02*
X62400000Y-71420000D01*
X68400000Y-72310000D02*
X71060000Y-72310000D01*
X68400000Y-73960000D02*
X62400000Y-73960000D01*
X68400000Y-74850000D02*
X71060000Y-74850000D01*
X68400000Y-76500000D02*
X62400000Y-76500000D01*
X68400000Y-77390000D02*
X71060000Y-77390000D01*
X68400000Y-79040000D02*
X62400000Y-79040000D01*
X68400000Y-79930000D02*
X71060000Y-79930000D01*
X68400000Y-81580000D02*
X62400000Y-81580000D01*
X68400000Y-82470000D02*
X71060000Y-82470000D01*
X68400000Y-84120000D02*
X62400000Y-84120000D01*
X68400000Y-85070000D02*
X71060000Y-85070000D01*
X71060000Y-67170000D02*
X68400000Y-67170000D01*
X71060000Y-68120000D02*
X71390000Y-68120000D01*
X71060000Y-68880000D02*
X71390000Y-68880000D01*
X71060000Y-70660000D02*
X71457071Y-70660000D01*
X71060000Y-71420000D02*
X71457071Y-71420000D01*
X71060000Y-73200000D02*
X71457071Y-73200000D01*
X71060000Y-73960000D02*
X71457071Y-73960000D01*
X71060000Y-75740000D02*
X71457071Y-75740000D01*
X71060000Y-76500000D02*
X71457071Y-76500000D01*
X71060000Y-78280000D02*
X71457071Y-78280000D01*
X71060000Y-79040000D02*
X71457071Y-79040000D01*
X71060000Y-80820000D02*
X71457071Y-80820000D01*
X71060000Y-81580000D02*
X71457071Y-81580000D01*
X71060000Y-83360000D02*
X71457071Y-83360000D01*
X71060000Y-84120000D02*
X71457071Y-84120000D01*
X71060000Y-85070000D02*
X71060000Y-67170000D01*
X72500000Y-67230000D02*
X73770000Y-67230000D01*
X73770000Y-67230000D02*
X73770000Y-68500000D01*
%LPC*%
D14*
X82000000Y-93500000D03*
D15*
X113990000Y-67600000D03*
X111450000Y-67600000D03*
X108910000Y-67600000D03*
X106370000Y-67600000D03*
X103830000Y-67600000D03*
X101290000Y-67600000D03*
X98750000Y-67600000D03*
X96210000Y-67600000D03*
X96210000Y-82600000D03*
X98750000Y-82600000D03*
X101290000Y-82600000D03*
X103830000Y-82600000D03*
X106370000Y-82600000D03*
X108910000Y-82600000D03*
X111450000Y-82600000D03*
X113990000Y-82600000D03*
D14*
X82000000Y-47500000D03*
X108000000Y-47500000D03*
D16*
X101300000Y-87100000D03*
D17*
X111460000Y-87100000D03*
D14*
X108000000Y-93500000D03*
D15*
X93790000Y-67600000D03*
X91250000Y-67600000D03*
X88710000Y-67600000D03*
X86170000Y-67600000D03*
X83630000Y-67600000D03*
X81090000Y-67600000D03*
X78550000Y-67600000D03*
X76010000Y-67600000D03*
X76010000Y-82600000D03*
X78550000Y-82600000D03*
X81090000Y-82600000D03*
X83630000Y-82600000D03*
X86170000Y-82600000D03*
X88710000Y-82600000D03*
X91250000Y-82600000D03*
X93790000Y-82600000D03*
D16*
X81100000Y-87100000D03*
D17*
X91260000Y-87100000D03*
D18*
X85125000Y-87000000D03*
X87075000Y-87000000D03*
D19*
X98115000Y-70450000D03*
X99385000Y-70450000D03*
X100655000Y-70450000D03*
X101925000Y-70450000D03*
X103195000Y-70450000D03*
X104465000Y-70450000D03*
X105735000Y-70450000D03*
X107005000Y-70450000D03*
X108275000Y-70450000D03*
X109545000Y-70450000D03*
X110815000Y-70450000D03*
X112085000Y-70450000D03*
X112085000Y-79750000D03*
X110815000Y-79750000D03*
X109545000Y-79750000D03*
X108275000Y-79750000D03*
X107005000Y-79750000D03*
X105735000Y-79750000D03*
X104465000Y-79750000D03*
X103195000Y-79750000D03*
X101925000Y-79750000D03*
X100655000Y-79750000D03*
X99385000Y-79750000D03*
X98115000Y-79750000D03*
D20*
X102500000Y-51500000D03*
D21*
X99960000Y-51500000D03*
X97420000Y-51500000D03*
D18*
X105425000Y-87000000D03*
X107375000Y-87000000D03*
D22*
X105362500Y-84900000D03*
X107437500Y-84900000D03*
D19*
X77915000Y-70450000D03*
X79185000Y-70450000D03*
X80455000Y-70450000D03*
X81725000Y-70450000D03*
X82995000Y-70450000D03*
X84265000Y-70450000D03*
X85535000Y-70450000D03*
X86805000Y-70450000D03*
X88075000Y-70450000D03*
X89345000Y-70450000D03*
X90615000Y-70450000D03*
X91885000Y-70450000D03*
X91885000Y-79750000D03*
X90615000Y-79750000D03*
X89345000Y-79750000D03*
X88075000Y-79750000D03*
X86805000Y-79750000D03*
X85535000Y-79750000D03*
X84265000Y-79750000D03*
X82995000Y-79750000D03*
X81725000Y-79750000D03*
X80455000Y-79750000D03*
X79185000Y-79750000D03*
X77915000Y-79750000D03*
D20*
X92525000Y-51500000D03*
D21*
X89985000Y-51500000D03*
X87445000Y-51500000D03*
D22*
X85062500Y-84900000D03*
X87137500Y-84900000D03*
D20*
X72500000Y-68500000D03*
D21*
X72500000Y-71040000D03*
X72500000Y-73580000D03*
X72500000Y-76120000D03*
X72500000Y-78660000D03*
X72500000Y-81200000D03*
X72500000Y-83740000D03*
%LPD*%
M02*
